<svg xmlns="http://www.w3.org/2000/svg" width="72.964" height="73.025" viewBox="0 0 72.964 73.025"><defs><style>.a{fill:#7d8793;}</style></defs><path class="a" d="M75.614,4.986,65.8,6.768a2.555,2.555,0,0,0-.728-1.378,1.742,1.742,0,0,0-1.621-.405L53.642,6.768a2.555,2.555,0,0,0-.728-1.378,1.742,1.742,0,0,0-1.621-.405L6.7,13.093A2.15,2.15,0,0,0,5,15.119v52.7a2.15,2.15,0,0,0,1.7,2.027l44.589,8.107h.323a1.98,1.98,0,0,0,1.3-.488,2.085,2.085,0,0,0,.728-1.378l9.811,1.865h.323a1.98,1.98,0,0,0,1.3-.488,2.085,2.085,0,0,0,.728-1.378l9.811,1.865h.323a2.06,2.06,0,0,0,2.027-2.027V7.012a2,2,0,0,0-.728-1.539,2.041,2.041,0,0,0-1.621-.488ZM49.589,73.49,9.053,66.111V16.823L49.589,9.444Zm12.161,0-8.107-1.46V10.9l8.107-1.46Zm12.161,0L65.8,72.03V10.9l8.107-1.46Z" transform="translate(-5 -4.924)"/></svg>