<svg xmlns="http://www.w3.org/2000/svg" width="79.481" height="73.025" viewBox="0 0 79.481 73.025"><defs><style>.a{fill:#7d8793;}</style></defs><path class="a" d="M70.095,52.374l5.911-5.911A13.655,13.655,0,0,0,56.694,27.151L41.838,42v0c-.022.018-.04.04-.061.058l-7.37,7.37a5.255,5.255,0,1,0,7.432,7.432L59.666,39.039l0,0a3.154,3.154,0,0,1,5.442,2.21,3.135,3.135,0,0,1-.986,2.246L46.291,61.323h0A11.558,11.558,0,0,1,29.951,44.975L47.779,27.151l4.456-4.456A19.959,19.959,0,0,1,80.463,50.919L65.607,65.778c-.025.025-.051.047-.076.072L55.207,76.179v0A28.362,28.362,0,0,1,15.1,36.067L38.867,12.295a3.153,3.153,0,0,1,4.456,4.456L19.551,40.523a22.062,22.062,0,0,0,31.2,31.2L70.068,52.407l.032-.029Z" transform="translate(-6.818 -11.445)"/></svg>