<svg xmlns="http://www.w3.org/2000/svg" width="15.25" height="25.074" viewBox="0 0 15.25 25.074"><defs><style>.a{fill:#fff;}</style></defs><path class="a" d="M34.113,4.967,32.508,3.9a.849.849,0,0,0-.94,0l-1.6,1.067a.849.849,0,0,1-.94,0L27.429,3.9a.849.849,0,0,0-.94,0l-1.6,1.067a.849.849,0,0,1-.94,0l-.754-.5a.848.848,0,0,0-1.317.707V27.418a.848.848,0,0,0,1.317.707l.754-.5a.849.849,0,0,1,.94,0l1.6,1.067a.849.849,0,0,0,.94,0l1.6-1.067a.849.849,0,0,1,.94,0l1.6,1.067a.849.849,0,0,0,.94,0l1.605-1.067a.846.846,0,0,1,.936,0l.758.5a.848.848,0,0,0,1.317-.707V5.17a.848.848,0,0,0-1.317-.707l-.758.5a.846.846,0,0,1-.936,0Zm-.377,11.327a.847.847,0,1,1-.847.847.847.847,0,0,1,.847-.847Zm0,3.389a.847.847,0,1,1-.847.847.847.847,0,0,1,.847-.847ZM29.5,18.412a.847.847,0,0,1-.847-.847H27.382a.847.847,0,0,1,0-1.694h2.542a.847.847,0,0,0,0-1.694h-.847a2.542,2.542,0,0,1-.424-5.045V9.092a.847.847,0,1,1,1.694,0h1.271a.847.847,0,0,1,0,1.694H29.077a.847.847,0,0,0,0,1.694h.847a2.542,2.542,0,0,1,.424,5.045v.038a.846.846,0,0,1-.847.847Zm4.66,6.354H31.619a.847.847,0,1,1,0-1.694H34.16a.847.847,0,1,1,0,1.694Z" transform="translate(-21.875 -3.757)"/></svg>