<svg xmlns="http://www.w3.org/2000/svg" width="16.208" height="11.629" viewBox="0 0 16.208 11.629"><defs><style>.a{fill:#16395b;}</style></defs><g transform="translate(8 -58.303)"><g transform="translate(-8 58.303)"><path class="a" d="M15.894,59.271H14.826v-.364a.314.314,0,0,0-.226-.314,8.849,8.849,0,0,0-2.265-.289A5.842,5.842,0,0,0,8.1,59.874,5.781,5.781,0,0,0,3.864,58.3a8.849,8.849,0,0,0-2.265.289.314.314,0,0,0-.226.314v.361H.314A.314.314,0,0,0,0,59.582V69.616a.313.313,0,0,0,.468.273,11.076,11.076,0,0,1,7.559-.628H8.1a.315.315,0,0,0,.075,0,10.889,10.889,0,0,1,7.559.628.314.314,0,0,0,.471-.27V59.585A.314.314,0,0,0,15.894,59.271ZM.628,69.117V59.9h.751v7.879a.314.314,0,0,0,.361.314A13.749,13.749,0,0,1,3.7,67.936a8.149,8.149,0,0,1,2.683.405A11.55,11.55,0,0,0,.628,69.117ZM3.7,67.311a13.82,13.82,0,0,0-1.709.11V59.155a8.665,8.665,0,0,1,1.863-.207,5.129,5.129,0,0,1,3.921,1.539l.009,7.826A7.344,7.344,0,0,0,3.7,67.311Zm4.712-6.824a5.176,5.176,0,0,1,3.921-1.539,8.7,8.7,0,0,1,1.863.207V67.42a13.818,13.818,0,0,0-1.7-.113,7.4,7.4,0,0,0-4.084,1Zm7.16,8.63a11.552,11.552,0,0,0-5.771-.776,8.168,8.168,0,0,1,2.7-.405,13.744,13.744,0,0,1,1.976.154.314.314,0,0,0,.361-.314V59.9h.751Z" transform="translate(0 -58.303)"/></g></g></svg>