<svg xmlns="http://www.w3.org/2000/svg" width="10.869" height="14.196" viewBox="0 0 10.869 14.196"><defs><style>.a{fill:#16395b;}</style></defs><g transform="translate(-60)"><path class="a" d="M68.734,1.844V.98H67.061a1.84,1.84,0,0,0-3.253,0H62.135v.864H60V14.2H70.869V1.844Zm-5.768-.032h1.417l.094-.286a1.007,1.007,0,0,1,1.914,0l.094.286H67.9V2.837H62.966Zm7.071,11.553H60.832V2.676h1.3v.994h6.6V2.676h1.3Z" transform="translate(0)"/><path class="a" d="M190.184,269.26l-.874-.864-.585.591,1.437,1.421,2.282-2.09-.562-.613Z" transform="translate(-125.156 -260.283)"/><path class="a" d="M133.776,185.623a3.486,3.486,0,1,0,3.486,3.486A3.489,3.489,0,0,0,133.776,185.623Zm0,6.139a2.654,2.654,0,1,1,2.654-2.654A2.657,2.657,0,0,1,133.776,191.762Z" transform="translate(-68.341 -180.476)"/></g></svg>