<svg xmlns="http://www.w3.org/2000/svg" width="67" height="67" viewBox="0 0 67 67"><defs><style>.a{fill:#006dff;}</style></defs><g transform="translate(0 9)"><g transform="translate(30.905 15.543)"><path class="a" d="M250.7,142.652l-9.342-7.006V121.374a2.595,2.595,0,1,0-5.19,0v15.569a2.59,2.59,0,0,0,1.038,2.076l10.38,7.785a2.6,2.6,0,0,0,3.114-4.152Z" transform="translate(-236.169 -118.779)"/></g><g transform="translate(0 -9)"><path class="a" d="M33.5,0A33.5,33.5,0,1,0,67,33.5,33.537,33.537,0,0,0,33.5,0Zm0,61.81A28.31,28.31,0,1,1,61.81,33.5,28.345,28.345,0,0,1,33.5,61.81Z"/></g></g></svg>