<svg xmlns="http://www.w3.org/2000/svg" width="14.002" height="14.002" viewBox="0 0 14.002 14.002"><defs><style>.a{fill:#16395b;}</style></defs><g transform="translate(0 9)"><g transform="translate(6.459 -3.871)"><path class="a" d="M239.206,123.768l-1.952-1.464v-2.983a.542.542,0,0,0-1.085,0v3.254a.541.541,0,0,0,.217.434l2.169,1.627a.542.542,0,0,0,.651-.868Z" transform="translate(-236.169 -118.779)"/></g><g transform="translate(0 -9)"><path class="a" d="M7,0a7,7,0,1,0,7,7A7.009,7.009,0,0,0,7,0ZM7,12.918A5.917,5.917,0,1,1,12.918,7,5.924,5.924,0,0,1,7,12.918Z"/></g></g></svg>