<svg xmlns="http://www.w3.org/2000/svg" width="18.231" height="19.905" viewBox="0 0 18.231 19.905"><defs><style>.a{fill:#16395b;}</style></defs><path class="a" d="M7.775,8.541v7.325a.772.772,0,0,1-.553.723,5.387,5.387,0,0,1-1.637.233h0c-1.732,0-3.6-.658-3.6-2.1V5.348a2.545,2.545,0,0,1,1.37-2.4C3.9,2.666,6.74.976,8.166.123a.888.888,0,0,1,.846-.03.761.761,0,0,1,.432.674v1.11a.8.8,0,0,1-.829.766.828.828,0,0,1-.777-.5c-1.289.766-3.188,1.891-3.66,2.14a1.036,1.036,0,0,0-.534.861A.8.8,0,0,0,3.81,5.7c.294.3,1.274.112,2.344-.482C7.181,4.648,12.248,1.527,12.3,1.5a.883.883,0,0,1,.85-.038.76.76,0,0,1,.438.676v.087a.755.755,0,0,1-.368.638S9.7,5.031,9.39,5.216C8.2,5.925,7.775,6.8,7.775,8.541Zm12.441-3.7v9.948a.755.755,0,0,1-.388.648s-4.83,3.47-5.81,4.021a3.877,3.877,0,0,1-1.9.444c-1.722,0-3.5-.862-3.5-2.3V8.092s0-.006,0-.01A2.5,2.5,0,0,1,9.9,5.95c.676-.461,4.7-3,4.873-3.108a.889.889,0,0,1,.853-.044.76.76,0,0,1,.442.677v1.11a.8.8,0,0,1-.829.766.831.831,0,0,1-.762-.466C13.2,5.7,11.311,6.9,10.888,7.184c-.534.365-.6.605-.614.914a.65.65,0,0,0,.2.519c.423.358,1.56.208,2.682-.415.83-.461,4.408-3.016,5.715-3.962a.889.889,0,0,1,.874-.084A.76.76,0,0,1,20.215,4.843ZM18.558,8.258,14.416,11.23v1.533l4.143-2.973Z" transform="translate(-1.984 0)"/></svg>