<svg xmlns="http://www.w3.org/2000/svg" width="77.157" height="73.025" viewBox="0 0 77.157 73.025"><defs><style>.a{fill:#7d8793;}</style></defs><g transform="translate(-7.868 -10.153)"><path class="a" d="M45.878,80.747c3.178-10.972,4.995-22.47,7.111-33.68s4.606-22.34,5.628-33.607c.414-4.423-6.5-4.394-6.909,0-1.022,11-3.491,22-5.581,32.841s-3.833,21.98-6.909,32.61c-1.245,4.275,5.416,6.107,6.661,1.842Z" transform="translate(-2.457 0)"/><path class="a" d="M33.454,66.363A128.088,128.088,0,0,1,14.309,45.83l-.543,4.192c5.812-6.607,11.865-12.955,18.011-19.227,3.124-3.178-1.76-8.072-4.883-4.891C20.74,32.176,14.7,38.543,8.911,45.128c-.921,1.051-1.5,2.893-.572,4.192A135.953,135.953,0,0,0,28.607,71.247c3.336,2.922,8.291-1.954,4.883-4.883Z" transform="translate(0 -1.159)"/><path class="a" d="M68.813,70.42C75.759,63.813,83.093,57.271,88.757,49.5L85.773,51.21h.22c3.206-.119,4.275-3.6,2.44-5.895C82.61,38.011,75.352,31.68,68.49,25.369c-3.271-3.012-8.173,1.843-4.891,4.883,6.87,6.312,14.1,12.649,19.954,19.937l2.44-5.887c-2.314.083-3.16,1.742-4.459,3.343-1.789,2.21-3.768,4.282-5.747,6.319-3.843,3.962-7.852,7.759-11.857,11.527-3.235,3.077,1.659,7.949,4.883,4.891Z" transform="translate(-4.303 -1.123)"/></g></svg>