<svg xmlns="http://www.w3.org/2000/svg" width="17.761" height="17.761" viewBox="0 0 17.761 17.761"><defs><style>.a{fill:#94be9b;}</style></defs><g transform="translate(-1080 -475.173)"><g transform="translate(1080 475.173)"><path class="a" d="M15.16,2.6A8.881,8.881,0,1,0,2.6,15.16,8.881,8.881,0,1,0,15.16,2.6ZM8.881,16.7A7.824,7.824,0,1,1,16.7,8.881,7.832,7.832,0,0,1,8.881,16.7Z" transform="translate(0 0)"/></g><g transform="translate(1083.665 481.06)"><path class="a" d="M108.944,170.33a2.223,2.223,0,0,0-3.14,0,.529.529,0,0,0,.748.748,1.164,1.164,0,0,1,1.645,0,.529.529,0,1,0,.748-.748Z" transform="translate(-105.65 -169.681)"/></g><g transform="translate(1090.647 481.06)"><path class="a" d="M310.206,170.33a2.223,2.223,0,0,0-3.14,0,.529.529,0,0,0,.748.748,1.164,1.164,0,0,1,1.645,0,.529.529,0,0,0,.747-.748Z" transform="translate(-306.912 -169.681)"/></g><g transform="translate(1083.665 484.441)"><path class="a" d="M115.554,267.175H106.18a.529.529,0,0,0-.529.529,5.216,5.216,0,0,0,10.431,0A.529.529,0,0,0,115.554,267.175Zm-4.687,4.687a4.165,4.165,0,0,1-4.125-3.63h8.25A4.165,4.165,0,0,1,110.867,271.862Z" transform="translate(-105.651 -267.175)"/></g></g></svg>