<svg xmlns="http://www.w3.org/2000/svg" width="17.762" height="17.762" viewBox="0 0 17.762 17.762"><defs><style>.a{fill:#6c63ff;}</style></defs><g transform="translate(-1080 -542.143)"><path class="a" d="M8.881,0a8.88,8.88,0,1,0,6.283,2.6A8.857,8.857,0,0,0,8.881,0ZM14.194,14.2a7.511,7.511,0,1,1,0-10.627A7.493,7.493,0,0,1,14.194,14.2ZM4.134,8.762a.5.5,0,0,1,.687-.735.843.843,0,0,0,1.165-.015.5.5,0,0,1,.648-.02.487.487,0,0,1,.063.059.5.5,0,0,1-.039.71A1.829,1.829,0,0,1,4.134,8.762Zm9.515-.716a.5.5,0,0,1-.039.71,1.829,1.829,0,0,1-2.524,0,.5.5,0,0,1,.687-.735.843.843,0,0,0,1.165-.015.5.5,0,0,1,.711.039ZM12.9,13.287a.5.5,0,1,1-.922.4,3.144,3.144,0,0,0-2.918-1.844,3.117,3.117,0,0,0-2.935,1.843A.5.5,0,1,1,5.2,13.3a4.118,4.118,0,0,1,3.863-2.462A4.145,4.145,0,0,1,12.9,13.287Z" transform="translate(1080 542.142)"/></g></svg>