<svg xmlns="http://www.w3.org/2000/svg" width="16.352" height="15.888" viewBox="0 0 16.352 15.888"><defs><style>.a{fill:#f7f8fb;}</style></defs><g transform="translate(-2.399 -3.8)"><path class="a" d="M17.4,13.1H16.062v.619a1.986,1.986,0,1,1-3.972,0V13.1H9.236v.619a1.986,1.986,0,1,1-3.972,0V13.1H3.922a1.424,1.424,0,0,0-1.427,1.427v2.665H18.83V14.529A1.434,1.434,0,0,0,17.4,13.1Z" transform="translate(-0.079 -7.702)"/><path class="a" d="M25.477,7a.98.98,0,0,0,.98-.98V4.78a.98.98,0,1,0-1.96,0V6.018A.958.958,0,0,0,25.477,7Z" transform="translate(-18.299)"/><path class="a" d="M65.082,7a.98.98,0,0,0,.98-.98V4.78a.98.98,0,0,0-1.96,0V6.018A.969.969,0,0,0,65.082,7Z" transform="translate(-51.093)"/><path class="a" d="M2.416,50.471A1.424,1.424,0,0,0,3.843,51.9H17.307a1.424,1.424,0,0,0,1.427-1.427V42.7H2.4v7.772Zm6.173-3.937,1.066-.154a.2.2,0,0,0,.172-.138l.464-.946a.324.324,0,0,1,.568,0l.482.98a.275.275,0,0,0,.172.138l1.049.154a.31.31,0,0,1,.172.533l-.774.756a.235.235,0,0,0-.069.206l.172,1.049a.306.306,0,0,1-.447.326l-.963-.5a.256.256,0,0,0-.224,0l-.928.5a.306.306,0,0,1-.447-.326l.189-1.066a.237.237,0,0,0-.069-.206l-.756-.74a.336.336,0,0,1,.171-.568Z" transform="translate(0 -32.21)"/></g></svg>