<svg xmlns="http://www.w3.org/2000/svg" width="110.204" height="104.937" viewBox="0 0 110.204 104.937"><defs><style>.a{fill:#dce0e3;}</style></defs><g transform="translate(-3.898 -6.102)"><path class="a" d="M38.3,10.883V29.166a4.782,4.782,0,0,0,4.781,4.781h18.4a4.782,4.782,0,0,0,4.781-4.781V10.883A4.782,4.782,0,0,0,61.486,6.1h-18.4A4.778,4.778,0,0,0,38.3,10.883Zm9.562,4.781h8.726V24.39l-8.726,0Z" transform="translate(6.716)"/><path class="a" d="M61.486,70.6h-18.4A4.778,4.778,0,0,0,38.3,75.383V93.666a4.782,4.782,0,0,0,4.781,4.781h18.4a4.782,4.782,0,0,0,4.781-4.781V75.383A4.782,4.782,0,0,0,61.486,70.6ZM56.705,88.89l-8.843,0V80.164h8.726Z" transform="translate(6.716 12.592)"/><path class="a" d="M95.87,70.6H77.582A4.778,4.778,0,0,0,72.8,75.383V93.666a4.782,4.782,0,0,0,4.781,4.781H95.87a4.782,4.782,0,0,0,4.781-4.781V75.383A4.782,4.782,0,0,0,95.87,70.6ZM91.089,88.89l-8.726,0V80.164h8.726Z" transform="translate(13.452 12.592)"/><path class="a" d="M8.679,98.446H26.967a4.782,4.782,0,0,0,4.781-4.781V75.382A4.782,4.782,0,0,0,26.967,70.6H8.679A4.781,4.781,0,0,0,3.9,75.382V93.665a4.782,4.782,0,0,0,4.781,4.781ZM13.46,80.158h8.726v8.726H13.46Z" transform="translate(0 12.592)"/><path class="a" d="M99.3,75.126a4.782,4.782,0,0,0,4.781-4.781V63.412A16.73,16.73,0,0,0,87.353,46.678H62.375v-10.4a4.781,4.781,0,1,0-9.562,0v10.4H27.835A16.732,16.732,0,0,0,11.1,63.412v6.933a4.781,4.781,0,1,0,9.562,0V63.412a7.17,7.17,0,0,1,7.171-7.171H52.813v14.1a4.781,4.781,0,1,0,9.562,0V56.24H87.353a7.17,7.17,0,0,1,7.171,7.171v6.933A4.782,4.782,0,0,0,99.3,75.126Z" transform="translate(1.406 4.958)"/></g></svg>