<svg xmlns="http://www.w3.org/2000/svg" width="23.51" height="9.144" viewBox="0 0 23.51 9.144"><defs><style>.a{fill:#fff;}</style></defs><path class="a" d="M34.7,38.68h-.2a4.565,4.565,0,0,0-4.375-3.266,4.458,4.458,0,0,0-3.722,1.959,3.884,3.884,0,0,0-4.31,0,4.638,4.638,0,0,0-3.722-1.959A4.564,4.564,0,0,0,14,38.68h-.2a1.307,1.307,0,1,0,0,2.613H14a4.565,4.565,0,0,0,4.375,3.266,4.618,4.618,0,0,0,4.571-4.245,1.66,1.66,0,0,1,1.307-.98,1.458,1.458,0,0,1,1.307.98,4.575,4.575,0,0,0,8.946.98h.2a1.307,1.307,0,1,0,0-2.613ZM18.377,41.945a1.959,1.959,0,1,1,1.959-1.959A1.924,1.924,0,0,1,18.377,41.945Zm11.755,0a1.959,1.959,0,1,1,1.959-1.959A1.924,1.924,0,0,1,30.132,41.945Z" transform="translate(-12.5 -35.414)"/></svg>