<svg xmlns="http://www.w3.org/2000/svg" width="57.936" height="59.946" viewBox="0 0 57.936 59.946"><defs><style>.a{opacity:0.79;}.b{fill:#989898;}.c{fill:#dfdfdf;}</style></defs><g class="a" transform="translate(-390.641 -616.959)"><g transform="translate(390.641 616.959)"><path class="b" d="M89.151,136.5l4.651,2.188,16.289,7.662a32.927,32.927,0,0,0-6.414,2.958c-.788.471-1.569.981-2.331,1.523L87.694,145.2l-11.154-4.6a22.426,22.426,0,0,1,12.61-4.1m.307-2.108a24.036,24.036,0,0,0-14.895,5.229c-.651.523-1.261,1.067-1.832,1.624l28.818,11.888a33.465,33.465,0,0,1,2.89-1.94,31.067,31.067,0,0,1,11.894-4.16L89.458,134.391Z" transform="translate(-72.731 -129.069)"/><path class="b" d="M149.95,116.762l22.666,9.286-.727.292a35.948,35.948,0,0,0-5.065,2.512c-.4.239-.8.488-1.193.744l-22.706-10.68a18.508,18.508,0,0,1,2.091-.985,17.37,17.37,0,0,1,4.933-1.169m.231-2.122a18.771,18.771,0,0,0-5.7,1.293,21.007,21.007,0,0,0-5.6,3.334l26.873,12.64q.879-.6,1.828-1.171a34.247,34.247,0,0,1,4.843-2.4v12.085a2.289,2.289,0,0,0-.06,2.99l-.526,3.827h3.282l-.526-3.827a2.29,2.29,0,0,0-.06-2.99V127.57A33.994,33.994,0,0,1,179,126.446L150.181,114.64Z" transform="translate(-121.061 -114.64)"/><g transform="translate(12.366 18.724)"><path class="b" d="M120.6,187.513l13.06,5.537.452.192.65.275.65-.275.452-.192,13.059-5.537v8.193c-.059.271-.847,1.455-3.758,2.568a33.33,33.33,0,0,1-20.806,0c-2.911-1.113-3.7-2.3-3.758-2.568v-8.193m-1.974-3.38v11.584c0,3.657,7.224,6.622,16.134,6.622s16.134-2.965,16.134-6.622V184.133l-1.017.432-14.665,6.218-.452.192-.452-.192-14.666-6.218-1.018-.432Z" transform="translate(-118.626 -184.133)"/></g><path class="b" d="M179.688,203.947" transform="translate(-150.87 -179.885)"/></g><g transform="translate(422.034 659.554)"><path class="c" d="M67.314,21.96l-5.893-.547-2.341-5.436a.472.472,0,0,0-.867,0l-2.341,5.436-5.893.547a.472.472,0,0,0-.268.825l4.447,3.906-1.3,5.774a.472.472,0,0,0,.7.51l5.089-3.022,5.089,3.022a.472.472,0,0,0,.7-.51l-1.3-5.774,4.447-3.906A.472.472,0,0,0,67.314,21.96Z" transform="translate(-49.548 -15.692)"/><path class="b" d="M59.93,17.954l-.851-1.977a.472.472,0,0,0-.867,0l-2.341,5.436-5.893.547a.472.472,0,0,0-.268.825l4.447,3.906-1.3,5.774a.472.472,0,0,0,.7.51l.677-.4A36.664,36.664,0,0,1,59.93,17.954Z" transform="translate(-49.548 -15.692)"/></g><g transform="translate(398.99 659.554)"><path class="c" d="M67.314,21.96l-5.893-.547-2.341-5.436a.472.472,0,0,0-.867,0l-2.341,5.436-5.893.547a.472.472,0,0,0-.268.825l4.447,3.906-1.3,5.774a.472.472,0,0,0,.7.51l5.089-3.022,5.089,3.022a.472.472,0,0,0,.7-.51l-1.3-5.774,4.447-3.906A.472.472,0,0,0,67.314,21.96Z" transform="translate(-49.548 -15.692)"/><path class="b" d="M59.93,17.954l-.851-1.977a.472.472,0,0,0-.867,0l-2.341,5.436-5.893.547a.472.472,0,0,0-.268.825l4.447,3.906-1.3,5.774a.472.472,0,0,0,.7.51l.677-.4A36.664,36.664,0,0,1,59.93,17.954Z" transform="translate(-49.548 -15.692)"/></g></g></svg>