<svg xmlns="http://www.w3.org/2000/svg" width="61.733" height="61.799" viewBox="0 0 61.733 61.799"><defs><style>.a{fill:#7d8793;stroke:#7d8793;}</style></defs><g transform="translate(-544.5 -726.5)"><g transform="translate(545 727)"><path class="a" d="M51.981,3.125H8.553A5.433,5.433,0,0,0,3.125,8.553V51.981A5.433,5.433,0,0,0,8.553,57.41H51.981a5.433,5.433,0,0,0,5.428-5.428V8.553A5.433,5.433,0,0,0,51.981,3.125ZM8.553,6.744H51.981a1.812,1.812,0,0,1,1.809,1.809v18.9L44.051,19.8a1.809,1.809,0,0,0-2.325.075l-15.976,14.3L20.58,29.79a1.809,1.809,0,0,0-2.361.02L6.744,39.851V8.554A1.812,1.812,0,0,1,8.554,6.744ZM51.981,53.791H8.553a1.812,1.812,0,0,1-1.809-1.809V44.659l12.687-11.1L30,42.5v0a1.82,1.82,0,0,0,1.325.439A1.813,1.813,0,0,0,33,40.977a1.822,1.822,0,0,0-.654-1.235l-3.8-3.216L43.008,23.581l10.782,8.471V51.981a1.812,1.812,0,0,1-1.809,1.809Z" transform="translate(-3.125 -3.125)"/><path class="a" d="M39.6,30.758a6.786,6.786,0,1,0-6.786-6.786A6.789,6.789,0,0,0,39.6,30.758Zm0-9.952a3.166,3.166,0,1,1-3.167,3.167A3.164,3.164,0,0,1,39.6,20.806Z" transform="translate(-15.622 -9.044)"/></g><path class="a" d="M1.608,59.364H45.035a3.039,3.039,0,0,0,3.216-3.216V12.72a1.608,1.608,0,1,1,3.216,0V56.148a6.452,6.452,0,0,1-6.432,6.433H1.608a1.608,1.608,0,0,1,0-3.216Z" transform="translate(554.265 725.219)"/></g></svg>