<svg xmlns="http://www.w3.org/2000/svg" width="391.765" height="171.077" viewBox="0 0 391.765 171.077"><defs><style>.a{fill:#1b5083;}.b{fill:#39658e;}.c{fill:#e6e6e6;}.d{fill:#006dff;}.e{fill:#fff;}.f{fill:#3f3d56;}.g{fill:#2f2e41;}.h{fill:#a0616a;}.i{fill:#f2f2f2;}.j{fill:#ccc;}.k{fill:#ff6584;}.l{fill:#ffb8b8;}.m{fill:#7d8793;}.n{fill:#bec4cb;}.o{fill:#dce0e3;}.p{fill:#11283e;}</style></defs><g transform="translate(-835.235 -113.69)"><rect class="a" width="205.332" height="131.504" transform="translate(1021.668 113.806)"/><rect class="b" width="193.589" height="50.13" transform="translate(1027.539 130.3)"/><rect class="c" width="40.94" height="2.35" transform="translate(1075.693 137.541)"/><rect class="d" width="63.22" height="2.35" transform="translate(1075.693 146.114)"/><rect class="c" width="51.523" height="2.35" transform="translate(1075.693 154.19)"/><rect class="c" width="30.078" height="2.35" transform="translate(1075.693 162.236)"/><rect class="c" width="45.396" height="2.35" transform="translate(1075.693 170.282)"/><rect class="c" width="5.013" height="5.013" transform="translate(1057.033 136.706)"/><rect class="d" width="5.013" height="5.013" transform="translate(1057.033 144.782)"/><rect class="c" width="5.013" height="5.013" transform="translate(1057.033 152.859)"/><rect class="c" width="5.013" height="5.013" transform="translate(1057.033 160.935)"/><rect class="c" width="5.013" height="5.013" transform="translate(1057.033 169.012)"/><rect class="c" width="16.71" height="16.71" transform="translate(1177.346 148.124)"/><rect class="b" width="193.589" height="50.13" transform="translate(1027.539 187.393)"/><rect class="c" width="5.013" height="5.013" transform="translate(1065.667 191.848)"/><rect class="d" width="5.013" height="5.013" transform="translate(1057.033 191.848)"/><path class="c" d="M457.424,409.184a18.983,18.983,0,0,0-30.644-2.831l-1.222-1.068a20.6,20.6,0,0,1,33.262,3.072Z" transform="translate(684.606 -206.374)"/><path class="d" d="M534.1,454.893l-1.346-.905a18.992,18.992,0,0,0,.582-20.229l1.4-.826A20.615,20.615,0,0,1,534.1,454.893Z" transform="translate(608.694 -230.947)"/><path class="d" d="M413.39,449.7a20.6,20.6,0,0,1-.169-27.293l1.222,1.068a18.979,18.979,0,0,0,.156,25.143Z" transform="translate(696.943 -223.493)"/><path class="d" d="M441.489,515.107a20.636,20.636,0,0,1-15.351-6.862l1.208-1.082a18.982,18.982,0,0,0,29.907-2.083l1.346.905A20.59,20.59,0,0,1,441.489,515.107Z" transform="translate(684.195 -282.039)"/><rect class="c" width="16.71" height="16.71" transform="translate(1177.346 202.711)"/><rect class="c" width="16.71" height="16.71" transform="translate(1056.337 213.572)"/><rect class="d" width="205.332" height="8.723" transform="translate(1021.58 113.69)"/><circle class="e" cx="1.617" cy="1.617" r="1.617" transform="translate(1026.446 116.533)"/><circle class="e" cx="1.617" cy="1.617" r="1.617" transform="translate(1032.583 116.533)"/><circle class="e" cx="1.617" cy="1.617" r="1.617" transform="translate(1038.72 116.533)"/><path class="a" d="M605.378,521.7H466.429a2.225,2.225,0,0,0,0,4.449h3.936V579.37a2.225,2.225,0,1,0,4.449,0l.034-53.218h121.8V579.37a2.225,2.225,0,1,0,4.449,0V527.325l.647-1.173h3.631a2.225,2.225,0,0,0,0-4.449Z" transform="translate(442.643 -297.935)"/><path class="f" d="M608.994,468.753H566.9a3.077,3.077,0,0,1-3.074-3.074V442.506a3.077,3.077,0,0,1,3.074-3.074h42.089a3.077,3.077,0,0,1,3.074,3.074v23.173A3.077,3.077,0,0,1,608.994,468.753Z" transform="translate(377.113 -243.82)"/><path class="e" d="M613.54,446.345H571.452a.71.71,0,0,0-.708.708v23.173a.71.71,0,0,0,.708.708H613.54a.71.71,0,0,0,.708-.708V447.053A.71.71,0,0,0,613.54,446.345Z" transform="translate(372.566 -248.367)"/><path class="g" d="M628.428,493.675s-5.039-1.161-7.81.967,3.527,6.966,3.527,6.966Z" transform="translate(340.223 -279.292)"/><circle class="h" cx="4.753" cy="4.753" r="4.753" transform="translate(960.556 202.685)"/><path class="g" d="M619.174,451.286a3.388,3.388,0,0,1,3.124-1.662,6.638,6.638,0,0,1,1.888.528l3.107,1.212a2.518,2.518,0,0,1,1.871,3.828L628,458.818a11.04,11.04,0,0,0-.659-2.395,3.708,3.708,0,0,0-1.61-1.836,5.249,5.249,0,0,0-2.664-.362,5.324,5.324,0,0,0-3.59,1.13,3.729,3.729,0,0,0-.946,1.848,11.116,11.116,0,0,0-.2,2.092,17.341,17.341,0,0,1-1.324-2.839,7.022,7.022,0,0,1-.492-2.3,3.232,3.232,0,0,1,.741-2.186,2.121,2.121,0,0,1,2.132-.671Z" transform="translate(342.459 -250.52)"/><path class="d" d="M625.593,497.244a.846.846,0,0,0-.708-.613.3.3,0,0,0-.034-.021l-7.1-3.976a.9.9,0,0,0-1.208.311l-1.94,3.142-2.923-2.923-.047-.047a.9.9,0,0,0-1.156-.1l-5.831,4.083c-.01,0-.021,0-.031,0a1.243,1.243,0,0,0-1.037,1.16l-.151,3.043h23.286Z" transform="translate(351.064 -278.739)"/><path class="f" d="M608.9,515.9h-4.493a.473.473,0,0,0-.473-.473h-1.419a.473.473,0,0,0-.473.473h-1.419a.473.473,0,0,0-.473-.473h-1.419a.473.473,0,0,0-.473.473h-1.419a.473.473,0,0,0-.473-.473h-1.419a.473.473,0,0,0-.473.473h-1.419a.473.473,0,0,0-.473-.473h-1.419a.473.473,0,0,0-.473.473h-1.419a.473.473,0,0,0-.473-.473h-1.419a.473.473,0,0,0-.473.473H585.5a.473.473,0,0,0-.473-.473H583.6a.473.473,0,0,0-.473.473h-1.419a.473.473,0,0,0-.473-.473h-1.419a.473.473,0,0,0-.473.473h-1.419a.473.473,0,0,0-.473-.473h-1.419a.473.473,0,0,0-.473.473h-1.419a.473.473,0,0,0-.473-.473h-1.419a.473.473,0,0,0-.473.473h-1.419a.473.473,0,0,0-.473-.473h-1.419a.473.473,0,0,0-.473.473h-1.419a.473.473,0,0,0-.473-.473h-1.419a.473.473,0,0,0-.473.473h-4.493a1.419,1.419,0,1,0,0,2.837H608.9a1.419,1.419,0,0,0,0-2.837Z" transform="translate(380.748 -293.81)"/><path class="i" d="M486.345,492.734v9.42h-23.6a4.713,4.713,0,1,1,0-9.42Z" transform="translate(446.812 -278.878)"/><path class="d" d="M485.95,501.67a.363.363,0,0,1-.362.362H461.348a4.964,4.964,0,1,1,0-9.928h24.239a.362.362,0,1,1,0,.725H461.348a4.239,4.239,0,0,0,0,8.478h24.239A.363.363,0,0,1,485.95,501.67Z" transform="translate(447.786 -278.466)"/><path class="j" d="M492.195,498.814H466.832a.072.072,0,1,1,0-.145h25.363a.072.072,0,0,1,0,.145Z" transform="translate(440.962 -282.784)"/><path class="j" d="M492.195,503.9H466.832a.072.072,0,1,1,0-.145h25.363a.072.072,0,0,1,0,.145Z" transform="translate(440.962 -286.126)"/><path class="j" d="M492.195,508.977H466.832a.072.072,0,1,1,0-.145h25.363a.072.072,0,0,1,0,.145Z" transform="translate(440.962 -289.469)"/><path class="j" d="M492.195,514.058H466.832a.072.072,0,1,1,0-.145h25.363a.072.072,0,0,1,0,.145Z" transform="translate(440.962 -292.811)"/><path class="i" d="M473.345,463.734v9.42h-23.6a4.713,4.713,0,1,1,0-9.42Z" transform="translate(455.362 -259.803)"/><path class="f" d="M472.95,472.67a.362.362,0,0,1-.362.362H448.348a4.964,4.964,0,0,1,0-9.928h24.239a.362.362,0,1,1,0,.725H448.348a4.239,4.239,0,1,0,0,8.478h24.239A.363.363,0,0,1,472.95,472.67Z" transform="translate(456.337 -259.391)"/><path class="j" d="M479.195,469.814H453.832a.072.072,0,1,1,0-.145h25.363a.072.072,0,0,1,0,.145Z" transform="translate(449.513 -263.708)"/><path class="j" d="M479.195,474.9H453.832a.072.072,0,1,1,0-.145h25.363a.072.072,0,0,1,0,.145Z" transform="translate(449.513 -267.051)"/><path class="j" d="M479.195,479.977H453.832a.072.072,0,1,1,0-.145h25.363a.072.072,0,1,1,0,.145Z" transform="translate(449.513 -270.394)"/><path class="j" d="M479.195,485.059H453.832a.072.072,0,1,1,0-.145h25.363a.072.072,0,0,1,0,.145Z" transform="translate(449.513 -273.736)"/><path class="b" d="M543.185,599.687v-8.214a1.369,1.369,0,0,0-1.369-1.369H510.672a1.369,1.369,0,0,0-1.369,1.369v8.214Z" transform="translate(412.979 -342.927)"/><rect class="b" width="33.882" height="10.609" transform="translate(922.282 259.841)"/><path class="b" d="M509.3,667.1v8.214a1.369,1.369,0,0,0,1.369,1.369h31.144a1.369,1.369,0,0,0,1.369-1.369V667.1Z" transform="translate(412.979 -393.574)"/><circle class="e" cx="1.027" cy="1.027" r="1.027" transform="translate(938.025 251.285)"/><circle class="e" cx="1.027" cy="1.027" r="1.027" transform="translate(938.025 264.974)"/><circle class="e" cx="1.027" cy="1.027" r="1.027" transform="translate(938.08 278.374)"/><path class="i" d="M542.345,562.734v9.42h-23.6a4.713,4.713,0,1,1,0-9.42Z" transform="translate(409.977 -324.922)"/><path class="f" d="M541.95,571.67a.362.362,0,0,1-.362.362H517.348a4.964,4.964,0,1,1,0-9.928h24.239a.362.362,0,0,1,0,.725H517.348a4.239,4.239,0,1,0,0,8.478h24.239A.362.362,0,0,1,541.95,571.67Z" transform="translate(410.952 -324.51)"/><path class="j" d="M548.195,568.813H522.832a.072.072,0,1,1,0-.145h25.363a.072.072,0,1,1,0,.145Z" transform="translate(404.128 -328.827)"/><path class="j" d="M548.195,573.9H522.832a.072.072,0,1,1,0-.145h25.363a.072.072,0,1,1,0,.145Z" transform="translate(404.128 -332.169)"/><path class="j" d="M548.195,578.977H522.832a.073.073,0,0,1,0-.145h25.363a.073.073,0,0,1,0,.145Z" transform="translate(404.128 -335.512)"/><path class="j" d="M548.195,584.059H522.832a.072.072,0,0,1,0-.145h25.363a.072.072,0,0,1,0,.145Z" transform="translate(404.128 -338.854)"/><path class="a" d="M504.11,262.7V202.636a2.577,2.577,0,0,1,2.574-2.574h47.478a2.577,2.577,0,0,1,2.574,2.574V262.7a2.577,2.577,0,0,1-2.574,2.574H506.685A2.577,2.577,0,0,1,504.11,262.7Zm2.574-62.065a2,2,0,0,0-2,2V262.7a2,2,0,0,0,2,2h47.478a2,2,0,0,0,2-2V202.636a2,2,0,0,0-2-2Z" transform="translate(416.394 -86.372)"/><path class="d" d="M588.776,254.483V242.15a1.289,1.289,0,0,1,1.287-1.287h10.451a1.288,1.288,0,0,1,1.287,1.287v12.333a1.289,1.289,0,0,1-1.287,1.287H590.063A1.289,1.289,0,0,1,588.776,254.483Z" transform="translate(360.705 -113.209)"/><path class="j" d="M529.44,271.2V258.864a1.288,1.288,0,0,1,1.287-1.287h10.451a1.288,1.288,0,0,1,1.287,1.287V271.2a1.288,1.288,0,0,1-1.287,1.287H530.727A1.288,1.288,0,0,1,529.44,271.2Z" transform="translate(399.734 -124.203)"/><path class="k" d="M577.076,322.176V309.843a1.289,1.289,0,0,1,1.287-1.287h10.451a1.288,1.288,0,0,1,1.287,1.287v12.333a1.288,1.288,0,0,1-1.287,1.287H578.363a1.288,1.288,0,0,1-1.287-1.287Z" transform="translate(368.401 -157.735)"/><path class="f" d="M732.536,513.1H721.783a.666.666,0,0,0-.294.068l-2.714,1.359a.495.495,0,0,0,0,.91l2.714,1.359a.665.665,0,0,0,.294.068h10.753a.564.564,0,0,0,.6-.524v-2.717a.564.564,0,0,0-.6-.524Z" transform="translate(275.395 -292.277)"/><path class="d" d="M756.041,513.627v2.717a.564.564,0,0,1-.6.524H753.3V513.1h2.142a.564.564,0,0,1,.6.524Z" transform="translate(252.485 -292.277)"/><path class="l" d="M754.958,453.112a3.765,3.765,0,0,1,5.1,2.366,3.623,3.623,0,0,1,.11.491l15.037,7.457,3.48-2.306,4.33,4.985-5.313,4.316a3.815,3.815,0,0,1-4.552.176l-15.257-10.551a3.589,3.589,0,0,1-.347.127,3.766,3.766,0,0,1-4.795-2.93,3.662,3.662,0,0,1-.056-.458A3.777,3.777,0,0,1,754.958,453.112Z" transform="translate(252.892 -252.616)"/><path class="m" d="M783.421,587.853H766.99c0,.472-16.934.856-16.934.856a4.4,4.4,0,0,0-.722.684,4.247,4.247,0,0,0-.993,2.738v.685a4.28,4.28,0,0,0,4.278,4.278h30.8a4.282,4.282,0,0,0,4.278-4.278v-.685A4.284,4.284,0,0,0,783.421,587.853Z" transform="translate(255.749 -341.446)"/><rect class="m" width="4.449" height="28.748" transform="translate(1025.746 284.226) rotate(180)"/><path class="m" d="M761.618,689.65c0,.481,6.742.186,15.058.186s15.059.295,15.059-.186-6.742-4.293-15.059-4.293S761.618,689.169,761.618,689.65Z" transform="translate(247.016 -405.58)"/><path class="l" d="M507.453,467.078h-4.2l-2-10.882h6.192Z" transform="translate(505.197 -186.377)"/><path class="g" d="M750.478,689.488H736.949v-.171a5.266,5.266,0,0,1,5.266-5.266h8.263Z" transform="translate(263.242 -404.721)"/><path class="n" d="M737.812,593.94l-8.365-18.757a6.874,6.874,0,0,1,3.018-8.824l18.143-9.729,8.279-.7,7.637-.694.055.093a7.73,7.73,0,0,1,.6,6.065c-.842,2.359-3.032,4.2-6.509,5.476-8.116,2.976-17.492,5.519-21.146,6.474a1.18,1.18,0,0,0-.757.6,1.2,1.2,0,0,0-.067.958l7.771,17.459a1.54,1.54,0,0,1-1.3,2.064l-5.807.423c-.049,0-.1.007-.147.007A1.539,1.539,0,0,1,737.812,593.94Z" transform="translate(268.563 -319.988)"/><path class="l" d="M513.453,467.078h-4.2l-2-10.882h6.193Z" transform="translate(501.251 -186.377)"/><path class="g" d="M756.478,689.488H742.949v-.171a5.266,5.266,0,0,1,5.266-5.266h8.263Z" transform="translate(259.295 -404.721)"/><path class="o" d="M744.811,596.94l-8.365-18.757a6.874,6.874,0,0,1,3.018-8.824l18.143-9.729,8.279-.7,7.637-.694.055.093a7.73,7.73,0,0,1,.6,6.065c-.842,2.359-3.032,4.2-6.509,5.477-8.116,2.976-17.491,5.519-21.146,6.474a1.181,1.181,0,0,0-.757.6,1.2,1.2,0,0,0-.067.958l7.771,17.459a1.54,1.54,0,0,1-1.3,2.063l-5.807.423q-.074.007-.147.007A1.539,1.539,0,0,1,744.811,596.94Z" transform="translate(263.959 -321.962)"/><path class="j" d="M733.846,458.223a57.322,57.322,0,0,1-8.24-15.377,1.472,1.472,0,0,1,.7-1.773l12.028-6.445a1.453,1.453,0,0,1,1.275-.052,1.478,1.478,0,0,1,.842.987,35.022,35.022,0,0,0,7.682,14.337,1.477,1.477,0,0,1,.355,1.248,1.453,1.453,0,0,1-.749,1.033l-12.028,6.445a1.472,1.472,0,0,1-1.861-.4Z" transform="translate(270.755 -240.545)"/><path class="e" d="M736.64,459.579a.444.444,0,0,0,.555.115l12.028-6.445a.426.426,0,0,0,.223-.307.451.451,0,0,0-.111-.386,36.052,36.052,0,0,1-7.908-14.759.452.452,0,0,0-.26-.306.427.427,0,0,0-.38.016l-12.028,6.445a.444.444,0,0,0-.212.526,56.3,56.3,0,0,0,8.092,15.1Z" transform="translate(268.782 -242.519)"/><path class="d" d="M843.633,483.649l-9.42,3.58-2.3-6.388a3.822,3.822,0,0,1,1.712-4.62h0a3.822,3.822,0,0,1,4.881.953Z" transform="translate(200.928 -267.691)"/><path class="d" d="M794.19,508.654a1.711,1.711,0,0,1-.713-1.215c-1.207-11.263-.366-20.077,2.569-26.946a8.553,8.553,0,0,1,5.67-4.853l7.615-.384.039.019a8.9,8.9,0,0,1,4.866,9.442c-2.449,6.456-4.5,13.177-2.936,18.6a1.753,1.753,0,0,1-.166,1.363,1.671,1.671,0,0,1-1.066.79l-14.5,3.45a1.7,1.7,0,0,1-1.375-.266Z" transform="translate(226.411 -267.384)"/><circle class="l" cx="8.406" cy="8.406" r="8.406" transform="translate(1024.793 188.217)"/><path class="j" d="M749.572,457.354l-6.551,2.892a1.028,1.028,0,0,1-1.354-.525l-.162-.367a1.028,1.028,0,0,1,.525-1.354l6.551-2.892a1.028,1.028,0,0,1,1.354.525l.162.367A1.028,1.028,0,0,1,749.572,457.354Z" transform="translate(260.303 -254.074)"/><path class="j" d="M756.572,470.354l-6.551,2.892a1.028,1.028,0,0,1-1.354-.525l-.162-.367a1.028,1.028,0,0,1,.525-1.354l6.551-2.892a1.028,1.028,0,0,1,1.354.525l.162.367A1.028,1.028,0,0,1,756.572,470.354Z" transform="translate(255.699 -262.625)"/><path class="l" d="M749.362,489.392l-14.6-11.522a3.63,3.63,0,0,1-.355.1,3.774,3.774,0,0,1-3.018-.579,3.735,3.735,0,0,1-1.583-2.647,3.765,3.765,0,0,1,7.4-1.3,3.635,3.635,0,0,1,.078.5l14.539,8.387,3.618-2.083,4.008,5.247-5.617,4A3.745,3.745,0,0,1,749.362,489.392Z" transform="translate(267.96 -264.285)"/><path class="d" d="M805.67,494.348l-8.333-5.667,3.916-5.547a3.822,3.822,0,0,1,4.767-1.246h0a3.822,3.822,0,0,1,2.017,4.546Z" transform="translate(223.521 -271.502)"/><path class="g" d="M807.535,418.793c-2.16,1.479-5,3-7.2,1.424a4.015,4.015,0,0,1-1.318-4.629c1.057-3.021,3.959-4.352,6.735-5.371,3.609-1.326,7.538-2.38,11.264-1.431s7.018,4.556,6.345,8.341c-.541,3.044-3.412,5.577-3,8.641.41,3.084,3.879,4.708,6.941,5.259s6.489.728,8.69,2.928c2.807,2.806,2.106,7.821-.535,10.784s-6.628,4.305-10.491,5.218c-5.118,1.21-10.654,1.845-15.514-.162s-8.643-7.411-7.235-12.478a17.408,17.408,0,0,1,3.35-5.71,15.915,15.915,0,0,0,3.242-5.763,5.991,5.991,0,0,0-1.082-5.241,1.519,1.519,0,0,1-.2-1.775Z" transform="translate(222.583 -223.423)"/><path class="a" d="M318.071,490.34a13.369,13.369,0,0,1-12.91-2.274c-4.522-3.8-5.939-10.048-7.093-15.837L294.657,455.1l7.143,4.918c5.137,3.537,10.389,7.187,13.946,12.311s5.109,12.117,2.252,17.661" transform="translate(554.165 -254.129)"/><path class="p" d="M341.624,552.885c.723-5.266,1.466-10.6.959-15.923a25.042,25.042,0,0,0-4.829-13.13,21.843,21.843,0,0,0-5.6-5.078c-.56-.354-1.076.534-.518.887a20.764,20.764,0,0,1,8.213,9.91,33.282,33.282,0,0,1,1.767,14.338c-.186,2.922-.581,5.824-.979,8.723a.532.532,0,0,0,.359.632.517.517,0,0,0,.632-.359Z" transform="translate(530.001 -295.942)"/><path class="a" d="M284.385,570.932a9.841,9.841,0,0,1-8.575,4.426c-4.341-.206-7.959-3.236-11.217-6.112l-9.635-8.507,6.377-.305c4.586-.219,9.29-.424,13.658.99s8.4,4.818,9.195,9.339" transform="translate(580.277 -323.307)"/><path class="p" d="M326.24,596.944c-3.48-6.157-7.516-13-14.728-15.187a16.433,16.433,0,0,0-6.195-.64c-.658.057-.493,1.071.163,1.014a15.269,15.269,0,0,1,9.886,2.615,25.7,25.7,0,0,1,6.795,7.333c1.125,1.714,2.133,3.5,3.141,5.283.322.57,1.264.159.938-.418Z" transform="translate(547.428 -336.973)"/><path class="a" d="M352.3,627.584a7.452,7.452,0,0,0-4.566-6.241v-3.56h-5.97v3.672a7.448,7.448,0,0,0-4.318,6.129l-1.4,16.319h17.662Z" transform="translate(526.942 -361.133)"/></g></svg>