<svg xmlns="http://www.w3.org/2000/svg" width="209.168" height="157.926" viewBox="0 0 209.168 157.926"><defs><style>.a{fill:#3f3d56;}.b{fill:#6c63ff;}.c{fill:#e6e6e6;}.d{fill:#ffb8b8;}.e{fill:#2f2e41;}.f{fill:#ffb9b9;}.g{fill:#575a89;}.h{fill:none;stroke:#3f3d56;stroke-miterlimit:10;}.i{opacity:0.1;}</style></defs><g transform="translate(0 0)"><path class="a" d="M372.367,187.743h-51.6a.957.957,0,0,1-.956-.956v-12.8a.957.957,0,0,1,.956-.956h51.6a.957.957,0,0,1,.956.956v12.8a.957.957,0,0,1-.956.956Zm-51.6-14.328a.574.574,0,0,0-.573.573v12.8a.574.574,0,0,0,.573.573h51.6a.574.574,0,0,0,.573-.573v-12.8a.574.574,0,0,0-.573-.573Z" transform="translate(-275.908 -154.052)"/><circle class="b" cx="3.892" cy="3.892" r="3.892" transform="translate(48.985 21.952)"/><path class="c" d="M400.406,192.745a.649.649,0,1,0,0,1.3h30.583a.649.649,0,0,0,0-1.3Z" transform="translate(-338.54 -169.496)"/><path class="c" d="M400.406,210.718a.649.649,0,1,0,0,1.3h13.16a.649.649,0,1,0,0-1.3Z" transform="translate(-338.54 -183.576)"/><path class="a" d="M372.628,358.316H349.7a.957.957,0,0,1-.956-.956V333.476a.957.957,0,0,1,.956-.956h22.933a.957.957,0,0,1,.956.956V357.36A.957.957,0,0,1,372.628,358.316ZM349.7,332.9a.574.574,0,0,0-.573.573V357.36a.574.574,0,0,0,.573.573h22.933a.574.574,0,0,0,.573-.573V333.476a.574.574,0,0,0-.573-.573Z" transform="translate(-298.571 -279)"/><path class="c" d="M373.368,355.263a.649.649,0,0,0,0,1.3h13.16a.649.649,0,1,0,0-1.3Z" transform="translate(-317.357 -296.817)"/><path class="c" d="M373.368,372.911a.649.649,0,0,0,0,1.3h13.16a.649.649,0,1,0,0-1.3Z" transform="translate(-317.357 -310.643)"/><path class="b" d="M391.326,399.342a4.083,4.083,0,1,1,4.083-4.083A4.083,4.083,0,0,1,391.326,399.342Z" transform="translate(-328.735 -324.952)"/><path class="a" d="M629.056,85.393h22.933a.957.957,0,0,1,.956.956v23.884a.957.957,0,0,1-.956.956H629.056a.957.957,0,0,1-.956-.956V86.349A.957.957,0,0,1,629.056,85.393Zm22.933,25.413a.574.574,0,0,0,.573-.573V86.349a.574.574,0,0,0-.573-.573H629.056a.574.574,0,0,0-.573.573v23.884a.574.574,0,0,0,.573.573Z" transform="translate(-517.431 -85.393)"/><path class="c" d="M665.89,177.065a.649.649,0,0,0,0-1.3H652.73a.649.649,0,0,0,0,1.3Z" transform="translate(-536.218 -156.195)"/><path class="c" d="M665.89,159.416a.649.649,0,0,0,0-1.3H652.73a.649.649,0,0,0,0,1.3Z" transform="translate(-536.218 -142.368)"/><path class="b" d="M670.687,108.135a4.083,4.083,0,1,1-4.083,4.083A4.083,4.083,0,0,1,670.687,108.135Z" transform="translate(-547.595 -103.21)"/><path class="a" d="M319.459,286.915a32.692,32.692,0,0,1,13.84-6.257,32.219,32.219,0,0,1,15.274.785,32.585,32.585,0,0,1,7.128,3.089,41.477,41.477,0,0,1,6.341,4.725c2.014,1.765,3.962,3.609,6.064,5.27a33.973,33.973,0,0,0,21.138,7.436q.952,0,1.9-.052c.344-.019.346-.556,0-.537a33.426,33.426,0,0,1-21.851-6.6c-2.179-1.629-4.169-3.493-6.2-5.3a47.95,47.95,0,0,0-6.226-4.859,32.888,32.888,0,0,0-36.311.828c-.5.351-1,.717-1.481,1.094-.272.212.11.59.38.38Z" transform="translate(-275.261 -237.503)"/><circle class="a" cx="2.791" cy="2.791" r="2.791" transform="translate(41.123 46.426)"/><circle class="a" cx="2.791" cy="2.791" r="2.791" transform="translate(144.941 83.479)"/><path class="a" d="M698.561,317.714H653.025a.957.957,0,0,1-.956-.956V293.065a.957.957,0,0,1,.956-.955h45.535a.957.957,0,0,1,.956.956v23.693A.957.957,0,0,1,698.561,317.714Zm-45.535-25.222a.574.574,0,0,0-.573.573v23.693a.574.574,0,0,0,.573.573h45.535a.574.574,0,0,0,.573-.573V293.066a.574.574,0,0,0-.573-.573Z" transform="translate(-536.209 -247.341)"/><circle class="b" cx="3.892" cy="3.892" r="3.892" transform="translate(120.559 49.269)"/><path class="c" d="M730.9,318.883a.649.649,0,1,0,0,1.3h24.519a.649.649,0,1,0,0-1.3Z" transform="translate(-597.458 -268.316)"/><path class="c" d="M730.9,336.856a.649.649,0,1,0,0,1.3h13.16a.649.649,0,1,0,0-1.3Z" transform="translate(-597.458 -282.397)"/><path class="c" d="M674.714,365.589c-.494,0-.9.291-.9.649s.4.649.9.649h36.131c.493,0,.9-.291.9-.649s-.4-.649-.9-.649Z" transform="translate(-553.248 -304.907)"/><path class="c" d="M674.714,383.562c-.494,0-.9.291-.9.649s.4.649.9.649h36.131c.493,0,.9-.291.9-.649s-.4-.649-.9-.649Z" transform="translate(-553.248 -318.988)"/><path class="a" d="M638.091,483.153c2.569-1.114,5.437-.143,7.858.884,1.247.529,2.481,1.094,3.771,1.511a21.5,21.5,0,0,0,3.325.788,23.5,23.5,0,0,0,6.831.042,23.845,23.845,0,0,0,6.592-1.917,22.289,22.289,0,0,0,5.7-3.73q.324-.293.636-.6c.247-.242-.133-.622-.38-.38a21.658,21.658,0,0,1-5.565,3.929,23.312,23.312,0,0,1-6.466,2.077,22.833,22.833,0,0,1-6.814.118,21.454,21.454,0,0,1-3.336-.725,35.28,35.28,0,0,1-3.682-1.43c-2.444-1.05-5.159-2.077-7.845-1.353a6.541,6.541,0,0,0-.9.322C637.5,482.827,637.777,483.289,638.091,483.153Z" transform="translate(-524.935 -394.286)"/><path class="b" d="M557.174,482.592H535.661l5.063-8.769a1.034,1.034,0,0,1,1.791,0l2.163,3.746,3.678-6.37a1.294,1.294,0,0,1,2.242,0Z" transform="translate(-445.011 -387.139)"/><path class="a" d="M548.675,472.92H525.742a.957.957,0,0,1-.956-.956v-12.8a.957.957,0,0,1,.956-.956h22.933a.957.957,0,0,1,.956.956v12.8A.957.957,0,0,1,548.675,472.92Zm-22.933-14.329a.574.574,0,0,0-.573.573v12.8a.574.574,0,0,0,.573.573h22.933a.574.574,0,0,0,.573-.573v-12.8a.574.574,0,0,0-.573-.573Z" transform="translate(-436.491 -377.468)"/><path class="d" d="M815.129,416.981l-4.088,2.076c-1.459.741-2.867.614-3.406-.931h0a2.7,2.7,0,0,1,2.056-3.548l3.885-.725,16.639-5.52,10.079-7.147,3.695,5.887-11.646,6.284Z" transform="translate(-657.965 -332.794)"/><path class="d" d="M802.494,683.616l-3.128-.521.348-5.908h3.3Z" transform="translate(-626.248 -530.529)"/><path class="d" d="M934.51,658.62l-3.027.944-2.352-5.43,2.947-1.488Z" transform="translate(-727.909 -511.302)"/><path class="e" d="M937.6,538.075l-3.823,1.564-18.243-23.978L909.8,543.808l-3.823-.695c-2.452-24.267-4.452-49.019-2-60.726l14.161-.608,6.429,20.5,3.128,13.9Z" transform="translate(-732.69 -395.934)"/><path class="e" d="M902.95,788.359h0a2.745,2.745,0,0,1-1.7-.181l-1.858-.836c-1.558-.08-2.619.23-3.486-.9a2.273,2.273,0,0,1-.265-2.292h0a2.289,2.289,0,0,1,1.869-1.36l2.552-1.608.134,1.206c1.166.661,2.551.375,4.018-.268l.8,2.8a2.745,2.745,0,0,1-2.064,3.437Z" transform="translate(-726.876 -630.494)"/><path class="e" d="M1046.782,764.939h0a2.744,2.744,0,0,1-1.668.381l-2.029-.187c-1.5.43-2.4,1.068-3.59.279a2.273,2.273,0,0,1-1-2.081h0a2.289,2.289,0,0,1,1.326-1.893l1.891-2.35.518,1.1c1.318.246,2.535-.473,3.714-1.558l1.668,2.391a2.744,2.744,0,0,1-.836,3.921Z" transform="translate(-838.944 -612.824)"/><circle class="d" cx="6.255" cy="6.255" r="6.255" transform="translate(173.987 48.663)"/><path class="d" d="M834.249,279.355l-8.166-1.738-1.042-6.776,5.734-1.216Z" transform="translate(-646.361 -211.232)"/><path class="b" d="M921.421,405.873h-14.6l3.29-8.26a8.406,8.406,0,0,1,2.689-6.752l2.187-5.491c3.534-2.326,6.2-2.152,9.035.869C927.39,391,925.063,398.161,921.421,405.873Z" transform="translate(-735.793 -319.159)"/><path class="d" d="M925.229,459.342l-.415,4.566c-.148,1.63-1,2.755-2.6,2.39h0a2.7,2.7,0,0,1-1.912-3.627l1.451-3.676,4.17-17.028-.695-12.336h6.95l-.869,13.205Z" transform="translate(-746.203 -355.079)"/><path class="b" d="M949.318,399.824h-7.993l.56-5.214a3.617,3.617,0,0,1,3.433-3.465h0a3.617,3.617,0,0,1,3.795,3.471Z" transform="translate(-762.82 -324.925)"/><circle class="e" cx="2.351" cy="2.351" r="2.351" transform="translate(185.633 43.784)"/><path class="e" d="M972.828,287.733a2.349,2.349,0,0,1,2.35-2.2c-.048-.006-.1-.014-.146-.017a2.351,2.351,0,0,0-.3,4.693c.05,0,.1,0,.147,0A2.349,2.349,0,0,1,972.828,287.733Z" transform="translate(-787.267 -242.174)"/><path class="e" d="M925.078,298.068c-2.1-1.739-8.111.471-8.5,1.641-2.836.386-4.982,2.041-4.982,4.982h0a8.507,8.507,0,0,0,5.676,0c3.3,2.692,3.53,6.077,1.521,9.965l2.472.049,3.064-4.478.146,4.542,5.666-.114v-6.509a13.61,13.61,0,0,0-1.453-6.235A12.509,12.509,0,0,0,925.078,298.068Z" transform="translate(-739.53 -251.505)"/><ellipse class="d" cx="1.124" cy="1.574" rx="1.124" ry="1.574" transform="translate(179.147 54.916)"/><path class="f" d="M296.282,321.286s.677-11.714,4.19-9.052-1.534,10.139-1.534,10.139Z" transform="translate(-257.474 -262.798)"/><path class="f" d="M226.351,515.9s7.8,8.762,3.438,9.364-6.084-8.254-6.084-8.254Z" transform="translate(-200.615 -422.665)"/><path class="g" d="M167.494,324.227h0a5.14,5.14,0,0,1,3.782,4.256l2.483,17.67,3.48,14.1s1.74,1.566,1.044,2.436.87,4.524.87,4.524L174.8,368.6s-.522-3.654-1.392-3.828c-.765-.153-9.324-23.019-11.388-28.558-.284-.764-.445-1.2-.445-1.2S161.926,323.357,167.494,324.227Z" transform="translate(-151.943 -272.467)"/><path class="f" d="M180.529,749.885l2.672,4.735c2.069,4.418.23,5.22-4.843,3.031l-1.157-5.591Z" transform="translate(-164.182 -605.976)"/><path class="e" d="M177.34,772.584s1.268-2.065,1.727-1.719,2.351,1.844,2.351,1.844l2.465,2.361s8.328.88,3.036,3.8-8.216.5-8.216.5-7.412.385-7.292-1.682,2.51-5.339,2.51-5.339S176.934,774.364,177.34,772.584Z" transform="translate(-159.645 -622.381)"/><path class="e" d="M137.815,488.534l2.505,30.312s.083,18.12,2.756,21.628,2.756,5.261,2.756,5.261l5.511-2.839s-2.839-4.731-2.255-5.455a4.037,4.037,0,0,0,.752-1.559l-1.5-18.7,2.839-32.566Z" transform="translate(-133.326 -398.151)"/><path class="h" d="M155.551,766.85" transform="translate(-147.221 -619.267)"/><path class="f" d="M24.7,662.075l-2.338,6.179-5.3-2.217,2.8-4.63Z" transform="translate(-13.369 -518.166)"/><path class="e" d="M124.523,762.728s1.989-1.243,2.237-.746,1.243,2.61,1.243,2.61l1.119,3.107s6.836,4.35.994,4.6-7.333-3.107-7.333-3.107-6.588-2.859-5.593-4.6,4.475-3.545,4.475-3.545S123.4,764.1,124.523,762.728Z" transform="translate(-117.087 -614.721)"/><path class="e" d="M159.025,500.1l1.336,27.89s-12.192,25.218-13.528,25.886a3.354,3.354,0,0,0-1.67,2l-7.348-1.837,3.34-5.344,7.348-17.87a2.946,2.946,0,0,0,1.5-2.171c.334-1.67,1-1.67-.668-2a2.074,2.074,0,0,1-1.67-2l-5.511-25.385Z" transform="translate(-133.326 -409.63)"/><circle class="f" cx="6.68" cy="6.68" r="6.68" transform="translate(12.022 45.554) rotate(-80.783)"/><path class="f" d="M176.235,272.159s-.5,8.517-1.169,9.352,7.014.668,7.014.668-.5-7.181,0-7.849S176.235,272.159,176.235,272.159Z" transform="translate(-162.478 -231.711)"/><path class="g" d="M157.109,348.1s-18.872-1.67-22.378,0c0,0,1.291-4.788.957-5.289-.243-.366.427-14.006.217-21.874-.119-4.44-1.143-8.775,1.834-12.072a9.269,9.269,0,0,1,3.337-2.519s-.334-3.173,1.336-3.34c0,0,6.348-.669,8.684,1.336.747.637,1.217,2.577,1.267,4.249-1.156,5.687-.747,12,.314,18.545.065.416.136.834.208,1.252C154.012,334.878,155.714,341.572,157.109,348.1Z" transform="translate(-130.91 -255.791)"/><path class="e" d="M176.088,235.367a8.9,8.9,0,0,1,1.678.232,4.246,4.246,0,0,0,4.539-3.166,2.429,2.429,0,0,1,.232-.756,1.5,1.5,0,0,1,1.592-.485,12.3,12.3,0,0,0,1.72.418,2.634,2.634,0,0,0,2.274-1.287,4.363,4.363,0,0,0,.558-2.635l-.437.459a2.221,2.221,0,0,1-.2-1.207,1.4,1.4,0,0,0-1.327.339c-.385.041-.095-.715-.381-.976a.663.663,0,0,0-.466-.087,3.714,3.714,0,0,1-2.13-1.124,9.051,9.051,0,0,0-3.822-1.744,5.029,5.029,0,0,0-2.789.135,5.958,5.958,0,0,0-1.883,1.336,11.5,11.5,0,0,0-3.165,4.7,7.9,7.9,0,0,0-.038,4.583c.23.778.925,3.442,1.942,3.5C175.265,237.681,174.5,235.462,176.088,235.367Z" transform="translate(-159.892 -193.369)"/><path class="g" d="M187.735,328.181l2.393.256s2.349,4.558,2.179,5.509-.542.374.515,1.895,4.058,5.453,4.43,6.03,10.5-7.151,9.871-9.467c0,0,3.2,2.3,4.57,2.6,0,0-10.439,13.691-11.894,15.443s-2.626,1.392-4.625.353-12.113-11.4-12.113-11.4Z" transform="translate(-168.773 -275.6)"/><path class="i" d="M188.469,388.016l-8.318-8.318,2.105-.687,6.005,7.753C188.327,387.18,188.4,387.6,188.469,388.016Z" transform="translate(-166.493 -315.422)"/></g></svg>