<svg xmlns="http://www.w3.org/2000/svg" width="502.677" height="355" viewBox="0 0 502.677 355"><defs><style>.a{fill:#f1f1f1;}.b{fill:#e6e6e6;}.c{fill:#fff;}.d{fill:#3f3d56;}.e{fill:#6c63ff;}.f{fill:#9f616a;}.g{fill:#2f2e41;}.h{fill:#cbcbcb;}.i{opacity:0.1;}</style></defs><g transform="translate(0 0)"><path class="a" d="M246.589,658.549l-.614-1.135c8.228-4.45,18.469-9.988,23.817-19.076,5.273-8.959,5.391-21.125.309-31.75-4.325-9.042-12.27-17.144-22.975-23.428-2.112-1.24-4.328-2.414-6.472-3.551-5.182-2.746-10.54-5.586-14.958-9.615-6.085-5.549-10.689-14.861-7.258-23.156a15.391,15.391,0,0,1,13.341-9.334l.073,1.289a14.1,14.1,0,0,0-12.225,8.547c-3.189,7.708,1.186,16.455,6.938,21.7,4.3,3.919,9.582,6.719,14.693,9.428,2.156,1.143,4.385,2.324,6.521,3.578,10.928,6.415,19.05,14.709,23.486,23.984,5.265,11.007,5.127,23.637-.361,32.961C265.374,648.391,254.958,654.024,246.589,658.549Z" transform="translate(-212.857 -303.55)"/><ellipse class="a" cx="11.291" cy="5.484" rx="11.291" ry="5.484" transform="translate(15.809 229.789)"/><ellipse class="a" cx="11.291" cy="5.484" rx="11.291" ry="5.484" transform="translate(24.842 265.918)"/><ellipse class="a" cx="11.291" cy="5.484" rx="11.291" ry="5.484" transform="translate(4.196 271.725)"/><ellipse class="a" cx="11.291" cy="5.484" rx="11.291" ry="5.484" transform="translate(36.455 302.048)"/><ellipse class="a" cx="11.291" cy="5.484" rx="11.291" ry="5.484" transform="translate(59.036 302.048)"/><path class="b" d="M854,474.24H670.235a16.447,16.447,0,0,1-16.429-16.429v-266.5a16.447,16.447,0,0,1,16.429-16.429H854a16.447,16.447,0,0,1,16.429,16.429v266.5A16.447,16.447,0,0,1,854,474.24Z" transform="translate(-367.754 -174.88)"/><path class="c" d="M860.4,469.522H675.984a5.07,5.07,0,0,1-5.064-5.064V196.19a5.07,5.07,0,0,1,5.064-5.064H860.4a5.07,5.07,0,0,1,5.064,5.064V464.458A5.07,5.07,0,0,1,860.4,469.522Z" transform="translate(-373.826 -180.644)"/><circle class="c" cx="1.398" cy="1.398" r="1.398" transform="translate(392.268 3.633)"/><path class="d" d="M854.882,425.23H706.22a.465.465,0,0,1-.465-.465V353.511a.465.465,0,0,1,.931,0V424.3h148.2a.465.465,0,0,1,0,.93Z" transform="translate(-386.187 -238.098)"/><path class="e" d="M747.511,445.227H733.99a1.383,1.383,0,0,1-1.381-1.381V425.206a1.383,1.383,0,0,1,1.381-1.381h13.521a1.383,1.383,0,0,1,1.381,1.381v18.639A1.383,1.383,0,0,1,747.511,445.227Z" transform="translate(-395.716 -263.213)"/><path class="e" d="M785.73,435.5H772.209a1.383,1.383,0,0,1-1.381-1.381V397.8a1.383,1.383,0,0,1,1.381-1.381h13.521a1.383,1.383,0,0,1,1.381,1.381v36.318A1.383,1.383,0,0,1,785.73,435.5Z" transform="translate(-409.277 -253.49)"/><path class="e" d="M823.949,445.227H810.428a1.383,1.383,0,0,1-1.381-1.381V425.206a1.382,1.382,0,0,1,1.381-1.381h13.521a1.383,1.383,0,0,1,1.381,1.381v18.639A1.383,1.383,0,0,1,823.949,445.227Z" transform="translate(-422.838 -263.213)"/><path class="e" d="M862.169,431.665H848.647a1.352,1.352,0,0,1-1.381-1.318V386.925a1.352,1.352,0,0,1,1.381-1.318h13.521a1.352,1.352,0,0,1,1.381,1.318v43.422A1.353,1.353,0,0,1,862.169,431.665Z" transform="translate(-436.399 -249.651)"/><path class="e" d="M900.388,424.757H886.866a1.383,1.383,0,0,1-1.381-1.381V367.518a1.383,1.383,0,0,1,1.381-1.381h13.521a1.383,1.383,0,0,1,1.381,1.381v55.859a1.383,1.383,0,0,1-1.381,1.381Z" transform="translate(-449.96 -242.743)"/><circle class="d" cx="2.791" cy="2.791" r="2.791" transform="translate(342.244 149.447)"/><circle class="d" cx="2.791" cy="2.791" r="2.791" transform="translate(366.902 131.303)"/><circle class="d" cx="2.791" cy="2.791" r="2.791" transform="translate(391.559 149.447)"/><circle class="d" cx="2.791" cy="2.791" r="2.791" transform="translate(416.217 122.463)"/><circle class="d" cx="2.791" cy="2.791" r="2.791" transform="translate(440.875 112.228)"/><path class="d" d="M584.017,216.049,559.3,197.537,534.921,215.8l-.558-.745L559.3,196.373,583.9,214.8l24.444-26.751.1-.04,24.658-9.935.348.863-24.56,9.9Z" transform="translate(-189.607 -63.185)"/><path class="f" d="M457.591,397.459a6.436,6.436,0,0,0-4.946,2.312l-28.91-.9-1.132-4.874-14.961,7.3,1.935,13.348L453.637,409a6.449,6.449,0,1,0,3.954-11.542Z" transform="translate(-280.408 -252.628)"/><path class="f" d="M191.626,520.306h7.91L203.3,489.8H191.625Z" transform="translate(-67.994 -173.794)"/><path class="g" d="M398.933,707.962h15.578a9.927,9.927,0,0,1,9.927,9.926v.323h-25.5Z" transform="translate(-277.318 -364.032)"/><path class="f" d="M145.367,511.217l7.6,2.2,12.085-28.265-11.215-3.241Z" transform="translate(-51.58 -170.994)"/><path class="g" d="M352.341,697.5l14.965,4.324h0a9.927,9.927,0,0,1,6.781,12.293l-.09.31-24.5-7.08Z" transform="translate(-259.776 -360.321)"/><path class="g" d="M386.52,506.627s-2.813,7.849,1.625,18.559L391.57,569.3l1.014,62.732H407l8.727-63.951,5.241-57.987Z" transform="translate(-272.602 -292.593)"/><path class="g" d="M367.833,506.627s-2.813,7.849,1.625,18.559l3.425,44.109-17.051,59.746h14.42l26.791-60.965,5.241-57.987Z" transform="translate(-262.024 -292.593)"/><circle class="f" cx="15.846" cy="15.846" r="15.846" transform="translate(132.264 81.173)"/><path class="h" d="M416.689,371.689l-3.211-14.921-16.351-9.284-3.316,4.642s-23.4,6.148-20.567,33.015,1.539,39.77,1.539,39.77l-6.452,29.678s1.986.341,47.568,8.3l1.936-64.517Z" transform="translate(-266.46 -236.125)"/><path class="i" d="M200.1,435.17l-14.849,29.993v8.6Z" transform="translate(-65.732 -154.411)"/><path class="g" d="M412.176,317.546c1.511,4.046,7.228,4.607,9.244.787a5.2,5.2,0,0,0,.382-.928c.552-1.835.2-3.855,1.225-5.61a2.961,2.961,0,0,1,1.035-1.07c3.391-2,6.729,4.346,9.882,2.571,1.934-1.089,1.52-4.251,3.241-5.652,2.271-1.849,5.551.905,8.463.591,3.24-.35,4.773-4.454,4.069-7.636-.859-3.88-3.895-7.03-7.457-8.792a27.559,27.559,0,0,0-11.583-2.393c-4.514-.112-9.238.367-13.054,2.78-4.642,2.934-7.257,8.4-7.836,13.857C409.436,309.373,410.942,314.242,412.176,317.546Z" transform="translate(-281.151 -215.515)"/><path class="d" d="M533.287,449.994h.07a47.023,47.023,0,0,0,1.052-93.851,1.073,1.073,0,0,0-.812.281,1.062,1.062,0,0,0-.347.777l-1.028,91.708a1.077,1.077,0,0,0,1.065,1.086Z" transform="translate(-324.613 -239.195)"/><path class="b" d="M469.649,379.647a1.385,1.385,0,0,1,.972.415l31.571,32.287a1.37,1.37,0,0,1,.393.979l-.492,43.883a1.365,1.365,0,0,1-.446,1,1.385,1.385,0,0,1-1.042.362A47.331,47.331,0,0,1,468.6,380.116a1.386,1.386,0,0,1,1-.468Z" transform="translate(-297.853 -247.537)"/><path class="e" d="M510.312,355.561a1.39,1.39,0,0,1,.945.386,1.366,1.366,0,0,1,.424,1.01l-.444,39.594a1.379,1.379,0,0,1-2.364.948l-27.55-28.174a1.382,1.382,0,0,1,.023-1.954l.051-.047a47.43,47.43,0,0,1,28.83-11.761Z" transform="translate(-306.413 -238.991)"/><path class="f" d="M432.591,425.459a6.436,6.436,0,0,0-4.946,2.312l-28.91-.9-1.132-4.874-14.961,7.3,1.936,13.348L428.637,437a6.449,6.449,0,1,0,3.954-11.542Z" transform="translate(-271.537 -262.563)"/><path class="h" d="M378.421,414.112l-.8-39.764a10.53,10.53,0,1,1,21.058-.213V403.2Z" transform="translate(-269.754 -241.883)"/><path class="h" d="M456.888,724.17H211.077a.645.645,0,0,1,0-1.29H456.888a.645.645,0,0,1,0,1.29Z" transform="translate(-210.433 -369.326)"/></g></svg>