<svg xmlns="http://www.w3.org/2000/svg" width="186.156" height="121.896" viewBox="0 0 186.156 121.896"><defs><style>.a{fill:#e6e6e6;}.b{fill:#9f616a;}.c{fill:#2f2e41;}.d{fill:#6c63ff;}.e{fill:#fff;}</style></defs><g transform="translate(0 0)"><ellipse class="a" cx="26.674" cy="2.034" rx="26.674" ry="2.034" transform="translate(0 117.827)"/><path class="b" d="M308.034,279.963l-10.642-2.9q4.262-4.022,3.708-7.578h6.933Z" transform="translate(-272.72 -249.341)"/><path class="c" d="M100.487,333.526l-3.437.484-4.141-38.052L86.3,333.849l-3.547.161V285.961h21.928Z" transform="translate(-64.045 -221.318)"/><path class="c" d="M270.857,679.929h0a2.418,2.418,0,0,0,2.4-1.767l.251-3.747L273,671.758a2.923,2.923,0,0,0-4.049,0l-.435,5.566a2.418,2.418,0,0,0,2.341,2.605Z" transform="translate(-250.366 -560.05)"/><path class="c" d="M333.625,679.929h0a2.418,2.418,0,0,0,2.4-1.767l.251-3.747-.506-2.657a2.923,2.923,0,0,0-4.049,0l-.435,5.566a2.418,2.418,0,0,0,2.341,2.605Z" transform="translate(-298.944 -560.05)"/><circle class="b" cx="6.127" cy="6.127" r="6.127" transform="translate(27.736 12.886)"/><path class="a" d="M292.241,333.559h-23.38c3.03-14.043,3.022-25.354.608-34.5a2.444,2.444,0,0,1,1.486-2.906l6.29-2.419c1.888,2.439,4.553,3.5,8.707,1.935l3.3.676a3.387,3.387,0,0,1,2.7,3.541c-.243,3.577-.147,7.182-.356,10.294C290.949,319.816,290.67,327.328,292.241,333.559Z" transform="translate(-250.638 -268.11)"/><path class="c" d="M310.332,222.525a5.223,5.223,0,0,1,7.739-.161l1.129.322-.806.645s4.192,1.935,3.87,5.966a1.848,1.848,0,0,0-.967,0c-.322.161-.484,1.935-.484,1.935a10.179,10.179,0,0,0-.645-1.451c-.161-.161-2.419,1.774-6.127-1.129,0,0-1.129,2.9-2.419,2.58a3.045,3.045,0,0,0-3.87,1.935S303.4,223.815,310.332,222.525Z" transform="translate(-279.694 -211.575)"/><path class="b" d="M368.344,375.83l-2.07,2.774a2.719,2.719,0,0,0,.586,3.829h0a2.719,2.719,0,0,0,4.277-1.774l.592-3.7L372.859,361l-.806-8.062-5.16,1.935,1.451,6.933Z" transform="translate(-325.613 -313.928)"/><path class="a" d="M361.382,319.818l6.288-2.9-.322-2.284a9.379,9.379,0,0,0-5.988-8.744l-1.913-.742Z" transform="translate(-320.747 -276.942)"/><path class="b" d="M251.265,372.977l2.07,2.774a2.719,2.719,0,0,1-.586,3.829h0a2.719,2.719,0,0,1-4.277-1.774l-.592-3.7-1.129-15.963.806-8.062,5.16,1.935-1.451,6.933Z" transform="translate(-233.526 -311.72)"/><path class="a" d="M254.465,316.965l-6.288-2.9.322-2.284a9.379,9.379,0,0,1,5.988-8.744l1.913-.742Z" transform="translate(-234.63 -274.734)"/><path class="a" d="M630.047,468.3h-107.6a1.7,1.7,0,0,1-1.7-1.7V419.811a1.7,1.7,0,0,1,1.7-1.7h107.6a1.7,1.7,0,0,1,1.7,1.7V466.6A1.7,1.7,0,0,1,630.047,468.3Zm-107.6-49.506a1.018,1.018,0,0,0-1.017,1.017V466.6a1.018,1.018,0,0,0,1.017,1.017h107.6a1.018,1.018,0,0,0,1.017-1.017V419.811a1.018,1.018,0,0,0-1.017-1.017Z" transform="translate(-445.587 -364.375)"/><path class="a" d="M544.267,443.616a1.017,1.017,0,1,0,0,2.034h14.241a1.017,1.017,0,1,0,0-2.034Z" transform="translate(-463.001 -384.111)"/><path class="a" d="M650.245,473.521v18.864H554.21v-9.932c.665-.427,1.334-.852,2.009-1.263a27.809,27.809,0,0,1,9.332-4.026,14.088,14.088,0,0,1,4.818-.06,27.5,27.5,0,0,1,4.9,1.444,33.478,33.478,0,0,0,4.808,1.508,14.077,14.077,0,0,0,4.876.1,42.137,42.137,0,0,0,8.878-2.827,28.824,28.824,0,0,1,9.049-2.336,27.013,27.013,0,0,1,9.121,1.5c6.009,1.855,12.145,4.605,18.508,2.719,6.461-1.913,12.4-7.434,19.565-5.8A.27.27,0,0,1,650.245,473.521Z" transform="translate(-471.483 -406.941)"/><path class="d" d="M650.008,473.85a.29.29,0,0,1-.329.144,10.709,10.709,0,0,0-2.6-.269c-7.043.124-12.458,5.794-19.345,6.642-6.209.764-12.053-2.255-17.892-3.833a21.189,21.189,0,0,0-9.283-.7,49.13,49.13,0,0,0-8.924,2.943,25.9,25.9,0,0,1-8.775,2.139c-3.346.056-6.36-1.323-9.463-2.374a16.851,16.851,0,0,0-4.98-1.022,15.067,15.067,0,0,0-4.908.76,39.543,39.543,0,0,0-9.162,4.774.257.257,0,0,1-.17.046.311.311,0,0,1-.132-.565l.132-.084c.664-.427,1.331-.852,2-1.263a27.721,27.721,0,0,1,9.313-4.026,14.029,14.029,0,0,1,4.808-.06,27.391,27.391,0,0,1,4.892,1.444,33.36,33.36,0,0,0,4.8,1.508,14.018,14.018,0,0,0,4.866.1,41.987,41.987,0,0,0,8.86-2.827,28.715,28.715,0,0,1,9.03-2.336,26.906,26.906,0,0,1,9.1,1.5c6,1.855,12.12,4.605,18.469,2.719,6.448-1.913,12.378-7.434,19.524-5.8a.269.269,0,0,1,.168.106A.309.309,0,0,1,650.008,473.85Z" transform="translate(-471.246 -406.942)"/><circle class="d" cx="1.403" cy="1.403" r="1.403" transform="translate(94.556 69.004)"/><circle class="d" cx="1.403" cy="1.403" r="1.403" transform="translate(130.043 67.199)"/><circle class="d" cx="1.403" cy="1.403" r="1.403" transform="translate(173.349 65.395)"/><path class="a" d="M605.767,593.616a1.017,1.017,0,1,0,0,2.034h14.241a1.017,1.017,0,1,0,0-2.034Z" transform="translate(-510.598 -500.203)"/><circle class="d" cx="3.843" cy="3.843" r="3.843" transform="translate(82.171 90.475)"/><path class="a" d="M757.767,593.616a1.017,1.017,0,0,0,0,2.034h14.241a1.017,1.017,0,1,0,0-2.034Z" transform="translate(-628.238 -500.203)"/><circle class="d" cx="3.843" cy="3.843" r="3.843" transform="translate(116.531 90.475)"/><path class="a" d="M909.767,593.616a1.017,1.017,0,0,0,0,2.034h14.241a1.017,1.017,0,1,0,0-2.034Z" transform="translate(-745.877 -500.203)"/><circle class="d" cx="3.843" cy="3.843" r="3.843" transform="translate(150.892 90.475)"/><path class="a" d="M783.5,313.59H730.413c-1.035,0-1.874-.6-1.875-1.334V300.718c0-.736.84-1.334,1.875-1.334H783.5c1.035,0,1.874.6,1.875,1.334v11.538C785.373,312.992,784.534,313.589,783.5,313.59Zm-53.086-13.673c-.621,0-1.124.359-1.125.8v11.538c0,.442.5.8,1.125.8H783.5c.621,0,1.124-.359,1.125-.8V300.718c0-.442-.5-.8-1.125-.8Z" transform="translate(-606.403 -272.483)"/><path class="d" d="M786.059,328.391a1.132,1.132,0,0,0-1.13,1.13v7.912a1.132,1.132,0,0,0,1.13,1.13h40.464a1.132,1.132,0,0,0,1.13-1.13v-7.912a1.132,1.132,0,0,0-1.13-1.13Z" transform="translate(-650.047 -294.933)"/><circle class="e" cx="2.487" cy="2.487" r="2.487" transform="translate(139.177 36.171)"/><path class="e" d="M861.578,346.616a1.017,1.017,0,0,0,0,2.035H875.82a1.017,1.017,0,0,0,0-2.035Z" transform="translate(-708.582 -309.038)"/><path class="a" d="M607.5,194.59H554.413c-1.035,0-1.874-.6-1.875-1.334V181.718c0-.736.84-1.334,1.875-1.334H607.5c1.035,0,1.874.6,1.875,1.334v11.538C609.373,193.992,608.534,194.589,607.5,194.59Zm-53.086-13.673c-.621,0-1.124.359-1.125.8v11.538c0,.442.5.8,1.125.8H607.5c.621,0,1.124-.359,1.125-.8V181.718c0-.442-.5-.8-1.125-.8Z" transform="translate(-470.189 -180.384)"/><path class="d" d="M610.059,209.391a1.132,1.132,0,0,0-1.13,1.13v7.912a1.132,1.132,0,0,0,1.13,1.13h40.464a1.132,1.132,0,0,0,1.13-1.13v-7.912a1.132,1.132,0,0,0-1.13-1.13Z" transform="translate(-513.832 -202.834)"/><circle class="e" cx="2.487" cy="2.487" r="2.487" transform="translate(99.392 9.27)"/><path class="e" d="M685.578,227.616a1.017,1.017,0,0,0,0,2.034H699.82a1.017,1.017,0,1,0,0-2.034Z" transform="translate(-572.367 -216.939)"/></g></svg>