<svg xmlns="http://www.w3.org/2000/svg" width="397" height="277.497" viewBox="0 0 397 277.497"><defs><style>.a{fill:#2f2e41;}.b{fill:#9f616a;}.c{opacity:0.2;}.d{fill:#6c63ff;}.e{fill:#ffb9b9;}.f{fill:#3f3d56;}.g{fill:#e6e6e6;}.h{fill:#fff;}</style></defs><g transform="translate(-0.003 0)"><path class="a" d="M165.234,319.652c.38,23.436,9.139,25.974,19.9,23.529a39.53,39.53,0,0,0,27.346-23.125l3.428-7.986a21.785,21.785,0,0,0-11.425-28.612h0a21.785,21.785,0,0,0-28.612,11.425C164.835,299.217,162.656,308.188,165.234,319.652Z" transform="translate(-147.549 -213.159)"/><path class="b" d="M301.958,240.76l3.3-5.587a5.248,5.248,0,0,0-2.966-7.684h0a5.248,5.248,0,0,0-6.8,5.183l.194,6.006L280.174,281.2l8.461,1.767Z" transform="translate(-215.105 -181.437)"/><path class="b" d="M129.438,455.174l-4.064,5.06a5.248,5.248,0,0,0,1.841,8.028h0a5.248,5.248,0,0,0,7.467-4.162l.664-5.972,21.416-39.878-8.123-2.954Z" transform="translate(-124.215 -291.026)"/><path class="a" d="M196.912,543.689l.6,7.185.14,1.676,39.775-3.825a8.77,8.77,0,0,0,7.023-12.3l-12.827-27.538-4.431-9.512-19.2-4.431c-15.833,12.118-1.588,25.492,16.335,39.021q1.052.8,2.127,1.6Z" transform="translate(-166.581 -337.447)"/><path class="a" d="M161.362,633.387h0a2.858,2.858,0,0,0,2.607-1.009l13.01-15.75-.738-7.385-4.436-2.662a2.915,2.915,0,0,0-4.211,1.429l-8.486,21.5a2.858,2.858,0,0,0,2.254,3.878Z" transform="translate(-144.432 -402.264)"/><path class="c" d="M191.6,542.212l.738,8.862,2.075-.2,37.7-3.626a8.77,8.77,0,0,0,7.023-12.3L228.526,511.2v-2.3L224.1,499.38l-19.2-4.431c-15.833,12.119-1.588,25.492,16.335,39.021l-.089.118Z" transform="translate(-163.486 -337.447)"/><path class="a" d="M152.511,626.307h0a2.858,2.858,0,0,0,2.607-1.009l13.01-15.75-.738-7.385-4.436-2.662a2.915,2.915,0,0,0-4.211,1.429l-8.486,21.5a2.858,2.858,0,0,0,2.254,3.878Z" transform="translate(-139.274 -398.138)"/><path class="a" d="M188.062,536.608l.738,8.862,39.775-3.826A8.771,8.771,0,0,0,235.6,529.35l-10.615-23.758V492.3l-25.847-4.431c-16.456,12.594-.422,26.546,18.462,40.617Z" transform="translate(-161.423 -333.321)"/><circle class="b" cx="11.077" cy="11.077" r="11.077" transform="translate(40.67 77.007)"/><path class="b" d="M212.843,356.31l15.508,10.339,13.293-2.954-7.385-7.385V345.232l-11.816-.738C222.2,348.918,219.661,352.965,212.843,356.31Z" transform="translate(-175.865 -249.763)"/><path class="d" d="M206.658,421.414l28.8,3.692L242.1,394.09c3.088-8.233,1.316-15.507-4.4-22a4.933,4.933,0,0,0-4.688-3.963l-2.727.119c.309,9.794-6.907,7.435-17.724-.738l-1.306.392a7.336,7.336,0,0,0-5.149,8.1l1.191,8.039a55,55,0,0,0,2.344,9.373C212.6,402.235,211.543,411.577,206.658,421.414Z" transform="translate(-171.895 -263.174)"/><path class="d" d="M175.672,391.168l13.293,4.431,5.908-21.416-2-.91a7.178,7.178,0,0,0-9.3,3.145Z" transform="translate(-154.202 -266.16)"/><path class="d" d="M145.27,235.334l7.385,8.123,8.862-14.031-11.077-5.908Z" transform="translate(-84.661 -130.264)"/><path class="a" d="M217.268,308.22c6.961,2.625,14.39,2.353,22.155,0v-8.862H217.268Z" transform="translate(-178.444 -223.458)"/><path class="a" d="M774.452,435.323l-7.637,3.182L715.9,369.138l-36.911,70.64-9.546-1.909,28-97.369H729.9Z" transform="translate(-390.146 -198.44)"/><path class="a" d="M1041.573,700.508h0a3.328,3.328,0,0,1-2.536-.327l-16.106-9.273a3.268,3.268,0,0,1-.68-5.143l1.439-1.439,7.637-.636L1043,694.9a3.328,3.328,0,0,1-1.429,5.611Z" transform="translate(-647.023 -447.443)"/><path class="a" d="M767.2,706.61h0a3.328,3.328,0,0,0,2.536-.327l16.105-9.273a3.268,3.268,0,0,0,.68-5.143l-1.439-1.439-7.637-.636L765.776,701a3.328,3.328,0,0,0,1.429,5.611Z" transform="translate(-497.513 -451)"/><path class="e" d="M794.261,192.842l-3.182,1.909-6.594-10.715a4.819,4.819,0,0,1,3.111-7.241h0a4.819,4.819,0,0,1,5.8,4.36Z" transform="translate(-508.596 -151.969)"/><path class="e" d="M1020.19,410.517l1.32-3.468,11.808,4.344a4.819,4.819,0,0,1,2.032,7.615h0a4.819,4.819,0,0,1-7.253.159Z" transform="translate(-646.379 -286.219)"/><circle class="e" cx="9.546" cy="9.546" r="9.546" transform="translate(314.302 59.965)"/><path class="e" d="M777.383,193.2H764.019V178.559l11.455-1.273Z" transform="translate(-445.262 -103.32)"/><path class="f" d="M892.476,375.485H856.2c1.279-20.24,2.292-39.8,0-50.912l2.109-10.124a5.7,5.7,0,0,1,6.292-4.5l4.963.62c3.361,5.909,7.423,5.852,12.091.636h5.978a5.993,5.993,0,0,1,5.992,6.112h0a75.708,75.708,0,0,1,1.538,21.729Z" transform="translate(-550.808 -229.606)"/><path class="f" d="M672.5,94.411l5.091-2.545,27.365,45.184-7.637,11.455Z" transform="translate(-391.924 -53.538)"/><path class="f" d="M964.659,357.325l4.351-3.67-23.119-32.4a20.49,20.49,0,0,0-20.378-8.251l-.729.134,8.742,15.3,11.514,8.717Z" transform="translate(-590.777 -231.217)"/><path class="a" d="M896.5,257.519s1.784-3.924-2.854-5.708c0,0-3.924-6.422-11.773-2.141,0,0-5.351,2.141-5.351,7.849s-1.784,6.778-1.784,6.778,2.656-2.725,3.37-4.866,6.262-2.626,8.4-.486S894,260.73,894,260.73l-.357,7.849s1.784-4.638,2.5-4.638S897.569,257.519,896.5,257.519Z" transform="translate(-561.611 -193.643)"/><ellipse class="g" cx="58.409" cy="3.042" rx="58.409" ry="3.042" transform="translate(275.598 271.413)"/><ellipse class="g" cx="30.873" cy="1.608" rx="30.873" ry="1.608" transform="translate(11.504 272.847)"/><path class="d" d="M517.851,170.96,330.162,187.781a3.494,3.494,0,0,1-3.787-3.164L322.2,138.059a3.494,3.494,0,0,1,3.164-3.787L513.055,117.45a3.494,3.494,0,0,1,3.787,3.164l4.173,46.558A3.494,3.494,0,0,1,517.851,170.96Z" transform="translate(-239.59 -117.436)"/><circle class="h" cx="14.657" cy="14.657" r="14.657" transform="translate(97.847 26.753)"/><path class="h" d="M469.48,171.747a2.443,2.443,0,1,0,.436,4.866l114.7-10.28a2.443,2.443,0,0,0-.436-4.866Z" transform="translate(-324.134 -143.091)"/><path class="h" d="M472.616,206.737a2.443,2.443,0,1,0,.436,4.866l114.7-10.28a2.443,2.443,0,1,0-.436-4.866Z" transform="translate(-325.962 -163.483)"/></g></svg>