<svg xmlns="http://www.w3.org/2000/svg" width="364.055" height="313" viewBox="0 0 364.055 313"><defs><style>.a{fill:#e6e6e6;}.b{fill:#6c63ff;}.c{fill:#fff;}.d{fill:#9f616a;}.e{fill:#2f2e41;}.f{fill:#3f3d56;}</style></defs><rect class="a" width="308.089" height="181.449" transform="translate(0.188 0.25)"/><rect class="b" width="308.089" height="18.754"/><rect class="c" width="293.762" height="148.157" transform="translate(7.105 24.514)"/><circle class="c" cx="3.102" cy="3.102" r="3.102" transform="translate(26.093 6.227)"/><circle class="c" cx="3.102" cy="3.102" r="3.102" transform="translate(37.868 6.227)"/><circle class="c" cx="3.102" cy="3.102" r="3.102" transform="translate(14.287 6.227)"/><rect class="a" width="225.239" height="5.883" transform="translate(41.366 50.099)"/><rect class="a" width="80.308" height="5.883" transform="translate(113.832 64.806)"/><rect class="a" width="80.308" height="5.883" transform="translate(113.832 94.638)"/><rect class="a" width="80.308" height="5.883" transform="translate(113.832 109.919)"/><rect class="a" width="159.989" height="5.883" transform="translate(73.991 79.513)"/><rect class="b" width="42.254" height="10.447" transform="translate(224.351 136.639)"/><path class="d" d="M523.611,509.448h-7.1l-3.376-27.372h10.474Z" transform="translate(-216.12 -203.037)"/><path class="e" d="M503.945,525.861h13.686v8.617h-22.3A8.617,8.617,0,0,1,503.945,525.861Z" transform="translate(-208.618 -221.478)"/><path class="d" d="M569.611,509.448h-7.1l-3.376-27.372h10.474Z" transform="translate(-235.494 -203.037)"/><path class="e" d="M549.944,525.861H563.63v8.617h-22.3A8.617,8.617,0,0,1,549.944,525.861Z" transform="translate(-227.992 -221.478)"/><path class="d" d="M856.99,513.02a6.218,6.218,0,0,1-1.194-9.46l-4.673-66.309,13.459,1.305.37,64.937a6.252,6.252,0,0,1-7.963,9.527Z" transform="translate(-523.739 -288.13)"/><path class="e" d="M808.29,623.594l-7.812-.372A2.6,2.6,0,0,1,798,620.638l-.545-79.043a2.605,2.605,0,0,1,2.979-2.6l31.253,4.537a2.59,2.59,0,0,1,2.23,2.558l4.02,73.242a2.6,2.6,0,0,1-2.6,2.625h-8.422a2.592,2.592,0,0,1-2.573-2.2s-6.361-54.938-7.235-54.906c-.878.016-6.1,56.447-6.1,56.447a2.615,2.615,0,0,1-2.587,2.3Q808.353,623.6,808.29,623.594Z" transform="translate(-501.134 -330.972)"/><path class="f" d="M854.879,455.8a2.594,2.594,0,0,1-1.076-1.968l-.986-17.872a7.177,7.177,0,0,1,14.092-2.273l4.332,15.978a2.608,2.608,0,0,1-1.832,3.2L857.086,456.2A2.6,2.6,0,0,1,854.879,455.8Z" transform="translate(-524.447 -284.396)"/><circle class="d" cx="14.217" cy="14.217" r="14.217" transform="translate(304.703 100.493)"/><path class="d" d="M738.771,422.645a6.092,6.092,0,0,1,.139.949l24.865,14.344,6.044-3.479,6.443,8.435-12.929,9.215-28.367-22.379a6.075,6.075,0,1,1,3.806-7.086Z" transform="translate(-471.369 -280.004)"/><path class="f" d="M792.215,438.092a2.594,2.594,0,0,1,.749-2.115l12.655-12.658a7.177,7.177,0,0,1,11.1,8.981L807.7,446.188a2.608,2.608,0,0,1-3.6.767L793.388,440a2.6,2.6,0,0,1-1.173-1.912Z" transform="translate(-498.922 -281.377)"/><path class="e" d="M834.645,374.127c-2.652,2.825-7.578,1.309-7.923-2.551a4.668,4.668,0,0,1,.006-.9c.178-1.71,1.166-3.262.93-5.067a2.656,2.656,0,0,0-.486-1.244c-2.114-2.83-7.075,1.266-9.069-1.3-1.223-1.571.215-4.044-.724-5.8-1.239-2.317-4.908-1.174-7.209-2.443-2.56-1.412-2.407-5.34-.722-7.729a12.158,12.158,0,0,1,9.217-4.692,24.724,24.724,0,0,1,10.414,2.033c3.775,1.471,7.518,3.5,9.84,6.823,2.825,4.036,3.1,9.463,1.684,14.182C839.743,368.312,836.81,371.82,834.645,374.127Z" transform="translate(-505.664 -248.17)"/><path class="f" d="M831.769,719.346H720.055a.579.579,0,0,1,0-1.158H831.769a.579.579,0,1,1,0,1.158Z" transform="translate(-468.293 -406.453)"/><path class="f" d="M833.62,414.1q-.371-.266-.756-.523a18.731,18.731,0,0,0-4.4-2.156v-3.736h-11v3.466a19.286,19.286,0,0,0-13.986,16.026L796,482.776a2.591,2.591,0,0,0,.539,1.969,2.558,2.558,0,0,0,1.768.968,39.317,39.317,0,0,1,14.864,5.091,22.068,22.068,0,0,0,10.827,2.764A26.1,26.1,0,0,0,832.807,492a2.585,2.585,0,0,0,1.689-2.318c.27-5.983,1.847-36.781,6.439-55.567A19.2,19.2,0,0,0,833.62,414.1Z" transform="translate(-500.51 -275.679)"/></svg>