<svg xmlns="http://www.w3.org/2000/svg" xmlns:xlink="http://www.w3.org/1999/xlink" width="169.188" height="130.961" viewBox="0 0 169.188 130.961"><defs><style>.a,.e{opacity:0.8;}.b{fill:url(#a);}.c{fill:#fff;}.d{fill:#f5f5f5;}.e,.j{fill:#e0e0e0;}.f{fill:#ff5252;}.g{fill:#ff0;}.h{fill:#69f0ae;}.i{fill:url(#b);}.k{fill:#6c63ff;}.l{fill:#333;}.m{opacity:0.1;}.n{fill:#fdb797;}.o{fill:none;stroke:#000;stroke-miterlimit:10;stroke-width:4px;opacity:0.05;}</style><linearGradient id="a" x1="0.5" y1="1" x2="0.5" gradientUnits="objectBoundingBox"><stop offset="0" stop-color="gray" stop-opacity="0.251"/><stop offset="0.54" stop-color="gray" stop-opacity="0.122"/><stop offset="1" stop-color="gray" stop-opacity="0.102"/></linearGradient><linearGradient id="b" y2="0" xlink:href="#a"/></defs><g transform="translate(0 0.001)"><g class="a" transform="translate(8.745 27.194)"><path class="b" d="M342.126,343.475H196.52V249.3a2.97,2.97,0,0,1,2.97-2.97H339.156a2.97,2.97,0,0,1,2.97,2.97Z" transform="translate(-196.52 -246.33)"/></g><path class="c" d="M60.2,153.77h135.66a2.97,2.97,0,0,1,2.97,2.97V249.2H57.24V156.742A2.97,2.97,0,0,1,60.2,153.77Z" transform="translate(-46.49 -124.866)"/><rect class="d" width="132.476" height="86.891" transform="translate(15.309 34.457)"/><rect class="e" width="131.914" height="78.175" transform="translate(15.816 38.675)"/><rect class="d" width="131.914" height="4.154" transform="translate(15.816 34.521)"/><ellipse class="f" cx="1.008" cy="1.008" rx="1.008" ry="1.008" transform="translate(17.638 35.528)"/><ellipse class="g" cx="1.008" cy="1.008" rx="1.008" ry="1.008" transform="translate(20.407 35.528)"/><ellipse class="h" cx="1.008" cy="1.008" rx="1.008" ry="1.008" transform="translate(23.178 35.528)"/><g class="a" transform="translate(0 115.158)"><path class="i" d="M308.423,729.715c-8.105.615-147.3.376-152.164,0-6.376-3.073-6.26-15-6.26-15l63.837-.427.214,3.63h27.317l1.068-3.2h70.743S314.583,725.657,308.423,729.715Z" transform="translate(-149.999 -714.29)"/></g><path class="d" d="M316.25,721.67H246.887a2.13,2.13,0,0,1-1.617,3.523H218.789a2.13,2.13,0,0,1-1.617-3.523H155.06s-.107,10.355,6.192,13.032c4.8.32,142.3.534,150.3,0C317.647,731.17,316.25,721.67,316.25,721.67Z" transform="translate(-154.108 -605.125)"/><ellipse class="j" cx="0.853" cy="0.853" rx="0.853" ry="0.853" transform="translate(14.51 117.935)"/><ellipse class="j" cx="0.853" cy="0.853" rx="0.853" ry="0.853" transform="translate(17.072 117.935)"/><ellipse class="j" cx="0.853" cy="0.853" rx="0.853" ry="0.853" transform="translate(19.632 117.935)"/><path class="k" d="M306.6,375.85h6.051a26.223,26.223,0,0,1,26.223,26.222v19.062h-58.5V402.073A26.222,26.222,0,0,1,306.6,375.85Z" transform="translate(-227.685 -305.2)"/><ellipse class="l" cx="26.734" cy="26.734" rx="26.734" ry="26.734" transform="translate(55.267 6.986)"/><path class="m" d="M391.759,334.43h7.731a5.451,5.451,0,0,1,5.451,5.451v5.312a8.335,8.335,0,0,1-8.335,8.335h-1.972a8.335,8.335,0,0,1-8.335-8.335v-5.3a5.451,5.451,0,0,1,5.451-5.451Z" transform="translate(-313.694 -271.566)"/><path class="n" d="M386.3,331.53h18.651V342.3a8.335,8.335,0,0,1-8.335,8.335h-1.981A8.335,8.335,0,0,1,386.3,342.3V331.53Z" transform="translate(-313.694 -269.212)"/><path class="m" d="M536.43,437.829a26.843,26.843,0,0,0,18.651.051v-2.29H536.43Z" transform="translate(-463.791 -372.82)"/><ellipse class="n" cx="26.734" cy="26.734" rx="26.734" ry="26.734" transform="translate(55.267 12.789)"/><path class="m" d="M450.26,178.026h50.979s-4.352-20.585-23.625-19.282S450.26,178.026,450.26,178.026Z" transform="translate(-393.818 -147.966)"/><path class="l" d="M450.26,174.383h50.979s-4.352-20.585-23.625-19.273S450.26,174.383,450.26,174.383Z" transform="translate(-393.818 -145.015)"/><ellipse class="n" cx="2.487" cy="4.664" rx="2.487" ry="4.664" transform="translate(53.333 33.72)"/><ellipse class="n" cx="2.487" cy="4.664" rx="2.487" ry="4.664" transform="translate(105.556 33.72)"/><path class="l" d="M467.871,121.133a9.471,9.471,0,0,1,3.436-5.094,17.931,17.931,0,0,1,4.355-1.868,33.289,33.289,0,0,0,6.331-3.028c2.267-1.4,4.4-3.079,6.893-4,4.3-1.588,9.079-.729,13.514.41a11.34,11.34,0,0,1,3.16,1.175,11.969,11.969,0,0,1,2.8,2.714l7.038,8.489a13.416,13.416,0,0,1,1.748,2.464,8.479,8.479,0,0,1,.8,2.78,7.307,7.307,0,0,1-.752,4.562,7.194,7.194,0,0,1-5.994,3.147,21.827,21.827,0,0,1-6.919-1.25,135.634,135.634,0,0,0-22.219-5.008,62.674,62.674,0,0,0-11.307-.367c-1.184.077-2.748.62-3.468-.586C466.669,124.624,467.549,122.182,467.871,121.133Z" transform="translate(-407.472 -105.404)"/><line class="o" y2="20.756" transform="translate(64.147 95.178)"/><line class="o" y2="20.756" transform="translate(100.208 95.178)"/><g class="a" transform="translate(116.772 -0.001)"><path class="b" d="M673.675,37.307H640.129l-11.322,9.44v-9.44H621.26V0h52.415Z" transform="translate(-621.26)"/></g><rect class="c" width="50.994" height="35.676" transform="translate(117.483 0.443)"/><rect class="j" width="40.405" height="1.06" transform="translate(123.226 5.687)"/><rect class="j" width="27.779" height="1.06" transform="translate(123.226 10.462)"/><rect class="j" width="33.336" height="1.06" transform="translate(123.226 15.235)"/><rect class="k" width="26.77" height="1.06" transform="translate(123.226 20.009)"/><rect class="k" width="40.405" height="1.06" transform="translate(123.226 24.782)"/><rect class="j" width="40.405" height="1.06" transform="translate(123.226 29.556)"/><path class="c" d="M671.45,184.384v9.436l10.378-10.38Z" transform="translate(-545.243 -148.959)"/></g></svg>