<svg xmlns="http://www.w3.org/2000/svg" width="168.025" height="136.287" viewBox="0 0 168.025 136.287"><defs><style>.a{fill:#3f3d56;}.b{fill:#2f2e41;}.c{fill:#fbbebe;}.d{fill:#6c63ff;}.e{fill:#e6e6e6;}.f{fill:#fff;}</style></defs><path class="a" d="M305.023,663.441a172.2,172.2,0,0,1-23.385-1.532c-.253-.032-.51-.068-.764-.107-1.9-.271-3.806-.58-5.657-.919a122.187,122.187,0,0,1-23.341-6.612c-23.828-9.531-38.81-7.5-47.182-4.123-9.06,3.658-12.543,9.643-12.577,9.7l-.3-.169c.035-.061,3.562-6.135,12.722-9.841a44.1,44.1,0,0,1,18.518-2.824c8.636.374,18.374,2.707,28.945,6.936a121.856,121.856,0,0,0,23.276,6.593c1.846.339,3.745.647,5.644.917.254.038.508.074.76.106,21.011,2.89,41.28,1.147,54.584-.824a175.05,175.05,0,0,0,18.093-3.543l.09.331a175.285,175.285,0,0,1-18.133,3.551,216.079,216.079,0,0,1-31.295,2.357Z" transform="translate(-191.819 -538.281)"/><path class="a" d="M305.046,185.585c-6.041,0-11.922-.283-17.6-.848a130.8,130.8,0,0,1-35.575-8.327c-23.828-9.531-38.81-7.5-47.182-4.123-9.06,3.658-12.543,9.643-12.577,9.7l-.3-.169c.035-.061,3.562-6.135,12.722-9.841a44.09,44.09,0,0,1,18.518-2.824c8.636.374,18.374,2.707,28.945,6.936,23.866,9.546,50.422,9.921,68.5,8.556a202.5,202.5,0,0,0,33.86-5.307l.09.331a202.818,202.818,0,0,1-33.916,5.317C315.28,185.387,310.107,185.585,305.046,185.585Z" transform="translate(-191.818 -158.774)"/><path class="b" d="M652.222,120.576s-6.737-2.406-11.068,7.218A189.787,189.787,0,0,1,630.086,148l3.85.962s.962-6.737,3.368-7.7l-.962,8.662s28.872,10.105,41.864-.962l-.481-3.368s1.925.481,1.925,3.368l1.444-1.444a25.862,25.862,0,0,0-5.774-6.737c-2.843-2.527-3.819-7.334-4.155-10.339a12.511,12.511,0,0,0-2.88-6.813C665.406,120.3,660.161,116.753,652.222,120.576Z" transform="translate(-539.881 -118.919)"/><path class="c" d="M869.337,391.56s12.677,10.813,14.542,17.151-7.084,7.084-7.084,7.084l-19.389,1.864s-.373,8.949-3.729,10.067-.681-14.8-.681-14.8l18.951-5.337-8.576-8.949Z" transform="translate(-716.109 -335.445)"/><path class="c" d="M596.673,445.907l-1.491,19.761-8.2,33.557s-7.457,15.287-1.119,15.66,5.966-14.541,5.966-14.541l11.932-31.693,1.119-21.626Z" transform="translate(-502.73 -378.606)"/><ellipse class="c" cx="12.304" cy="12.304" rx="12.304" ry="12.304" transform="translate(102.519 8.016)"/><path class="c" d="M707.62,246.635s4.474,16.033-2.61,20.134,17.9,7.084,24.609-5.22c0,0-11.931-4.1-8.576-14.914Z" transform="translate(-598.389 -220.348)"/><path class="d" d="M652.084,350.64l-2.237-.746s-4.474,1.864-4.474,5.22-.746,16.779-.746,16.779l10.067,1.119Z" transform="translate(-551.429 -302.355)"/><path class="b" d="M682.952,581.708c-13.764,2.039-33.826,3.686-54.631.824,0-.206,0-.406,0-.6q0-1.745.134-3.451c1.066-14,8.279-25.676,11.071-29.722.141-.206.271-.391.387-.555.451-.632.713-.966.713-.966s21.626-.353,32.812,4.121a4.811,4.811,0,0,1,1.456.953C679.063,556.159,681.513,568.653,682.952,581.708Z" transform="translate(-538.478 -459.075)"/><path class="d" d="M846.136,325.808s4.847-2.61,9.694,2.983l9.694,11.186-7.457,8.2L843.9,339.6Z" transform="translate(-709.686 -282.743)"/><path class="b" d="M683.384,161.481a33.693,33.693,0,0,0,10.214-11.1s7.994,8.882,12.879,9.326.444-10.658.444-10.658l-8.882-2.22-8.438.888-6.661,4.441Z" transform="translate(-581.857 -141.082)"/><path class="d" d="M700.936,315.474s-5.218,8.25-20.879,4.311l-8.887,2.448-1.181.325s1.119,22.371,4.1,26.473,2.237,6.339,1.491,6.711-2.61-.373-1.491,1.491,2.61.746,1.119,1.864-2.237,5.22-2.237,5.22l35.049,4.474s-1.119-14.541,1.864-22a96.075,96.075,0,0,0,3.729-10.44l-2.237-18.643Z" transform="translate(-571.57 -275.019)"/><rect class="e" width="47.977" height="59.972" transform="translate(8.545 33.156)"/><rect class="f" width="10.281" height="6.854" transform="translate(11.887 38.21)"/><rect class="f" width="39.753" height="2.399" transform="translate(11.972 51.576)"/><rect class="f" width="39.753" height="2.399" transform="translate(11.972 57.916)"/><rect class="f" width="39.753" height="2.399" transform="translate(11.972 64.255)"/><rect class="f" width="39.753" height="2.399" transform="translate(11.972 70.595)"/><rect class="f" width="39.753" height="2.399" transform="translate(11.972 76.935)"/><path class="d" d="M439.7,534.671a9.4,9.4,0,1,1-1.456-5.034A9.4,9.4,0,0,1,439.7,534.671Z" transform="translate(-373.75 -441.63)"/><path class="f" d="M454.571,541.1l-9.277,9.275c-.583-.9-3.831-5.1-3.831-5.1a13.137,13.137,0,0,1,1.33-1.174l2.694,3.591,8-8A9.386,9.386,0,0,1,454.571,541.1Z" transform="translate(-390.081 -453.09)"/></svg>