<svg xmlns="http://www.w3.org/2000/svg" width="586.769" height="269.024" viewBox="0 0 586.769 269.024"><defs><style>.a{fill:#3f3d56;}.b{fill:#6c63ff;}.c{fill:#ffb8b8;}.d{fill:#2f2e41;}.e{fill:#d0cde1;}</style></defs><g transform="translate(-651.231 -148.003)"><g transform="translate(651.231 156.652)"><circle class="a" cx="16.555" cy="16.555" r="16.555" transform="translate(339.709 226.038)"/><circle class="a" cx="16.555" cy="16.555" r="16.555" transform="translate(397.983 226.038)"/><circle class="a" cx="16.555" cy="16.555" r="16.555" transform="translate(456.257 226.038)"/><path class="b" d="M252.948,520.913H172.292L155.6,559.619h-30.13L200.1,394.6H224.44L299.3,559.619H269.4Zm-9.966-23.177-30.362-70.69-30.362,70.69Z" transform="translate(-113.903 -301.098)"/><path class="b" d="M520.409,465.511V582.555H491.9V563.781a37.614,37.614,0,0,1-15.3,15.182,46.645,46.645,0,0,1-22.713,5.446,49.943,49.943,0,0,1-27.117-7.416,48.967,48.967,0,0,1-18.31-21.092q-6.491-13.672-6.489-31.753t6.605-32.1a51.73,51.73,0,0,1,18.426-21.787,47.893,47.893,0,0,1,26.886-7.764,46.6,46.6,0,0,1,22.713,5.446,37.634,37.634,0,0,1,15.3,15.182V465.511ZM484.022,551.73q7.877-9.962,7.88-28.044,0-18.541-7.88-28.508t-22.482-9.966q-14.374,0-22.366,10.314t-8,28.623q0,18.078,8,27.813t22.6,9.734Q476.14,561.7,484.022,551.73Z" transform="translate(-207.304 -324.035)"/><rect class="a" width="584.606" height="1.324" transform="translate(0 257.824)"/></g><g transform="translate(444.817 148.003)"><path class="c" d="M869.776,294.753l-2.51,16.705-28.69,19.405s-15.084,7.228-14.135,11.719c.847,4,12.486,3.529,16.149-2.661l34.3-15.594,11.472-22.71Z" transform="translate(-125.893 -226.823)"/><path class="c" d="M806.5,558.589l1.269,17.771,12.27-.846-2.115-16.925Z" transform="translate(-62.466 -322.241)"/><path class="d" d="M905.067,713.69s-1.693-6.347-3.385-5.924l-2.539,4.654s-11.424,10.578-14.809,11c0,0-11,3.385,0,8.462h12.694s8.462-.423,10.155,0,11.424.423,11.847-2.116-1.269-7.616-1.269-7.616-1.56-12.483-3.319-10.05a33.2,33.2,0,0,1-3.028,3.7Z" transform="translate(-157.648 -465.072)"/><path class="c" d="M881.5,559.089l1.269,17.771,12.27-.846-2.115-16.925Z" transform="translate(-105.733 -322.529)"/><path class="d" d="M980.066,714.19s-1.693-6.347-3.385-5.924l-2.539,4.654s-11.424,10.578-14.809,11c0,0-11,3.385,0,8.462h12.693s8.462-.846,10.155-.423,11.424.423,11.847-2.116-1.269-7.193-1.269-7.193-1.56-12.483-3.319-10.05a33.227,33.227,0,0,1-3.028,3.7Z" transform="translate(-200.914 -465.36)"/><path class="d" d="M890.116,434.012,888,436.974V442.9l13.54,50.351,2.539,11s0,42.312,2.539,42.312,13.963,1.269,13.963-1.269-.846-60.083-.846-60.083l11.424,21.579s5.077,38.081,6.77,38.5,13.54,0,14.386-2.539l-2.539-24.118s.423-27.079-6.77-33c0,0-1.269-7.193-2.539-10.155s-3.385-4.654-2.116-6.77-1.692-25.387-1.692-25.387.846-7.193-.846-9.309S890.116,434.012,890.116,434.012Z" transform="translate(-162.583 -306.616)"/><circle class="c" cx="13.117" cy="13.117" r="13.117" transform="translate(741.495 5.115)"/><path class="c" d="M950.54,193.486l-.846,8.462,3.385,2.962L931.5,215.065c5.316-9.082,6.89-17.351,4.231-23.271Z" transform="translate(-187.678 -167.427)"/><path class="e" d="M910.925,220.025s-3.385,6.77.846,5.077l13.117-9.309s14.386,5.5,19.463,11.847l-4.231,44.85-3.385,31.734s2.116,3.808,1.693,4.231-.846-.423-.423.846,1.693,0,.423,1.269-2.539,0-1.269,1.269,0,1.692,0,1.692-1.692-10.155-16.5-2.539-21.156,9.732-32.157.423l12.693-48.235,1.025-18.192a74.939,74.939,0,0,1,3.22-17.9c.97-3.141,2.661-6.228,5.487-7.908Z" transform="translate(-162.872 -181.273)"/><path class="c" d="M980.783,309.833l6.347,15.655L972.321,356.8s-3.385,3.808-1.269,8.462a55.915,55.915,0,0,0,3.808,7.193s3.808-1.692,3.808-8.885l21.579-30.887-1.693-25.387Z" transform="translate(-210.093 -234.057)"/><path class="e" d="M987.523,244.374a16.171,16.171,0,0,0-3.385,15.232c2.539,9.309,4.654,16.5,4.654,16.5s10.155-7.616,18.617-2.962c0,0-1.269-27.5-8.462-30.041S987.523,244.374,987.523,244.374Z" transform="translate(-217.679 -196.524)"/><path class="d" d="M949.544,141.185s-4.008-8.683-11.689-6.679-12.023,5.009-12.357,8.015a42.88,42.88,0,0,0,.167,7.514s.835-6.178,6.178-4.842,13.692.334,13.692.334l1.336,12.023s2.278-2.428,3.948-1.092S954.887,143.857,949.544,141.185Z" transform="translate(-184.149 -134.206)"/><path class="a" d="M824.539,371.19h0l7.81-1.809a1.7,1.7,0,0,1,1.919.92l8,16.589a1.377,1.377,0,0,1-.864,1.923l-7.936,2.255a1.82,1.82,0,0,1-2.169-1.031l-5.1-11.856-.156.086-.971-2.246.161-.083-1.425-3.309a1.049,1.049,0,0,1,.735-1.439Z" transform="translate(-125.5 -269.849)"/><path class="b" d="M832.517,370.567l.912-.211a1.178,1.178,0,0,1,1.33.643l7.808,16.483a.73.73,0,0,1-.449,1.011l-7.881,2.378a.945.945,0,0,1-1.141-.532l-7.388-17.195a.828.828,0,0,1,.574-1.133l.865-.2a.391.391,0,0,1,.433.2h0a.345.345,0,0,0,.382.173l4.106-.951a.59.59,0,0,0,.45-.663Z" transform="translate(-126.61 -270.419)"/></g></g></svg>