<svg xmlns="http://www.w3.org/2000/svg" width="182.071" height="138.355" viewBox="0 0 182.071 138.355"><defs><style>.a{fill:#ccc;}.b{fill:#3f3d56;}.c{fill:#fff;}.d{fill:#2f2e41;}.e{fill:#a0616a;}.f{fill:#6c63ff;}.g{fill:#f2f2f2;}.h{fill:#e6e6e6;}.i{fill:#ff6584;}.j{fill:#ffb8b8;}</style></defs><g transform="translate(-0.265)"><path class="a" d="M578.375,521.7H466a1.8,1.8,0,1,0,0,3.6h3.183V568.34a1.8,1.8,0,1,0,3.6,0l.027-43.039h98.506V568.34a1.8,1.8,0,0,0,3.6,0v-42.09l.523-.949h2.936a1.8,1.8,0,0,0,0-3.6Z" transform="translate(-406.024 -432.679)"/><path class="b" d="M600.355,463.145H566.316a2.489,2.489,0,0,1-2.486-2.486v-18.74a2.489,2.489,0,0,1,2.486-2.486h34.039a2.489,2.489,0,0,1,2.486,2.486v18.74a2.489,2.489,0,0,1-2.486,2.486Z" transform="translate(-478.076 -373.18)"/><path class="c" d="M605.354,446.345H571.316a.574.574,0,0,0-.573.573v18.741a.574.574,0,0,0,.573.573h34.038a.574.574,0,0,0,.573-.573V446.918A.574.574,0,0,0,605.354,446.345Z" transform="translate(-483.076 -378.179)"/><path class="d" d="M626.8,493.615s-4.075-.939-6.316.782,2.852,5.634,2.852,5.634Z" transform="translate(-518.637 -412.181)"/><circle class="e" cx="3.844" cy="3.844" r="3.844" transform="translate(101.616 71.973)"/><path class="d" d="M618.666,450.967a2.739,2.739,0,0,1,2.526-1.344,5.367,5.367,0,0,1,1.527.427l2.513.98a2.037,2.037,0,0,1,1.513,3.1l-.94,2.932a8.922,8.922,0,0,0-.533-1.937,3,3,0,0,0-1.3-1.485,4.245,4.245,0,0,0-2.155-.293,4.306,4.306,0,0,0-2.9.914,3.015,3.015,0,0,0-.765,1.494,9,9,0,0,0-.16,1.692,14.023,14.023,0,0,1-1.071-2.3,5.681,5.681,0,0,1-.4-1.858,2.614,2.614,0,0,1,.6-1.768,1.715,1.715,0,0,1,1.724-.543Z" transform="translate(-516.179 -380.546)"/><path class="f" d="M621.355,496.341a.684.684,0,0,0-.573-.5l-.028-.017-5.738-3.216a.73.73,0,0,0-.977.251l-1.569,2.541-2.364-2.364-.038-.038a.73.73,0,0,0-.935-.082l-4.716,3.3-.025,0a1,1,0,0,0-.839.938l-.122,2.461h18.832Z" transform="translate(-506.718 -411.574)"/><path class="b" d="M599.226,515.815h-3.634a.382.382,0,0,0-.382-.382h-1.147a.382.382,0,0,0-.382.382h-1.147a.382.382,0,0,0-.382-.382H591a.382.382,0,0,0-.382.382h-1.147a.382.382,0,0,0-.382-.382h-1.147a.382.382,0,0,0-.382.382h-1.147a.383.383,0,0,0-.383-.383h-1.147a.383.383,0,0,0-.383.382h-1.147a.382.382,0,0,0-.382-.382h-1.147a.382.382,0,0,0-.382.382h-1.147a.382.382,0,0,0-.382-.382h-1.147a.382.382,0,0,0-.382.382h-1.147a.382.382,0,0,0-.382-.382h-1.147a.382.382,0,0,0-.382.382h-1.147a.383.383,0,0,0-.383-.382h-1.147a.382.382,0,0,0-.382.382h-1.147a.382.382,0,0,0-.382-.382h-1.147a.382.382,0,0,0-.382.382h-1.147a.382.382,0,0,0-.382-.382h-1.147a.383.383,0,0,0-.383.382H565a.383.383,0,0,0-.383-.382h-1.147a.382.382,0,0,0-.382.382h-3.633a1.147,1.147,0,1,0,0,2.295h39.776a1.147,1.147,0,0,0,0-2.295Z" transform="translate(-474.079 -428.144)"/><path class="g" d="M480.9,492.734v7.618H461.811a3.812,3.812,0,1,1,0-7.618Z" transform="translate(-401.44 -411.727)"/><path class="f" d="M480.3,499.84a.293.293,0,0,1-.293.293H460.4a4.014,4.014,0,1,1,0-8.029H480a.293.293,0,0,1,0,.586H460.4a3.428,3.428,0,1,0,0,6.857H480A.293.293,0,0,1,480.3,499.84Z" transform="translate(-400.369 -411.274)"/><path class="a" d="M487.329,498.786H466.818a.059.059,0,0,1,0-.117h20.511a.059.059,0,0,1,0,.117Z" transform="translate(-407.872 -416.021)"/><path class="a" d="M487.329,503.868H466.818a.059.059,0,0,1,0-.117h20.511a.059.059,0,0,1,0,.117Z" transform="translate(-407.872 -419.696)"/><path class="a" d="M487.329,508.949H466.818a.059.059,0,0,1,0-.117h20.511a.059.059,0,0,1,0,.117Z" transform="translate(-407.872 -423.371)"/><path class="a" d="M487.329,514.031H466.818a.059.059,0,0,1,0-.117h20.511a.059.059,0,0,1,0,.117Z" transform="translate(-407.872 -427.046)"/><path class="g" d="M467.9,463.734v7.618H448.811a3.812,3.812,0,1,1,0-7.619Z" transform="translate(-392.039 -390.754)"/><path class="b" d="M467.3,470.841a.293.293,0,0,1-.293.293H447.4a4.014,4.014,0,0,1,0-8.029H467a.293.293,0,0,1,0,.586H447.4a3.428,3.428,0,0,0,0,6.857H467A.293.293,0,0,1,467.3,470.841Z" transform="translate(-390.967 -390.3)"/><path class="a" d="M474.329,469.786H453.818a.059.059,0,0,1,0-.117h20.511a.059.059,0,1,1,0,.117Z" transform="translate(-398.47 -395.047)"/><path class="a" d="M474.329,474.868H453.818a.059.059,0,0,1,0-.117h20.511a.059.059,0,1,1,0,.117Z" transform="translate(-398.47 -398.723)"/><path class="a" d="M474.329,479.949H453.818a.059.059,0,0,1,0-.117h20.511a.059.059,0,1,1,0,.117Z" transform="translate(-398.47 -402.397)"/><path class="a" d="M474.329,485.031H453.818a.059.059,0,0,1,0-.117h20.511a.059.059,0,1,1,0,.117Z" transform="translate(-398.47 -406.073)"/><path class="a" d="M536.7,597.855v-6.643A1.107,1.107,0,0,0,535.6,590.1H510.41a1.107,1.107,0,0,0-1.107,1.107v6.643Z" transform="translate(-438.641 -482.15)"/><rect class="a" width="27.401" height="8.58" transform="translate(70.662 118.196)"/><path class="a" d="M509.3,667.1v6.643a1.107,1.107,0,0,0,1.107,1.107H535.6a1.107,1.107,0,0,0,1.107-1.107V667.1Z" transform="translate(-438.641 -537.838)"/><circle class="c" cx="0.83" cy="0.83" r="0.83" transform="translate(83.394 111.277)"/><circle class="c" cx="0.83" cy="0.83" r="0.83" transform="translate(83.394 122.348)"/><circle class="c" cx="0.83" cy="0.83" r="0.83" transform="translate(83.439 133.185)"/><path class="g" d="M536.9,562.734v7.619H517.811a3.812,3.812,0,1,1,0-7.619Z" transform="translate(-441.941 -462.353)"/><path class="b" d="M536.3,569.841a.293.293,0,0,1-.293.293H516.4a4.014,4.014,0,1,1,0-8.029H536a.293.293,0,0,1,0,.586H516.4a3.428,3.428,0,1,0,0,6.857H536A.293.293,0,0,1,536.3,569.841Z" transform="translate(-440.869 -461.899)"/><path class="a" d="M543.329,568.786H522.818a.059.059,0,0,1,0-.117h20.511a.059.059,0,0,1,0,.117Z" transform="translate(-448.372 -466.646)"/><path class="a" d="M543.329,573.868H522.818a.059.059,0,0,1,0-.117h20.511a.059.059,0,0,1,0,.117Z" transform="translate(-448.372 -470.322)"/><path class="a" d="M543.329,578.949H522.818a.059.059,0,0,1,0-.117h20.511a.059.059,0,0,1,0,.117Z" transform="translate(-448.372 -473.996)"/><path class="a" d="M543.329,584.031H522.818a.059.059,0,0,1,0-.117h20.511a.059.059,0,0,1,0,.117Z" transform="translate(-448.372 -477.672)"/><path class="h" d="M504.11,250.718V202.143a2.084,2.084,0,0,1,2.082-2.082h38.4a2.084,2.084,0,0,1,2.082,2.082v48.575a2.084,2.084,0,0,1-2.082,2.082h-38.4A2.084,2.084,0,0,1,504.11,250.718Zm2.082-50.194a1.621,1.621,0,0,0-1.619,1.619v48.575a1.621,1.621,0,0,0,1.619,1.619h38.4a1.621,1.621,0,0,0,1.619-1.619V202.143a1.621,1.621,0,0,0-1.619-1.619Z" transform="translate(-434.885 -200.062)"/><path class="f" d="M588.776,251.878V241.9a1.042,1.042,0,0,1,1.041-1.041h8.452a1.042,1.042,0,0,1,1.041,1.041v9.974a1.042,1.042,0,0,1-1.041,1.041h-8.452A1.042,1.042,0,0,1,588.776,251.878Z" transform="translate(-496.117 -229.57)"/><path class="a" d="M529.44,268.592v-9.974a1.042,1.042,0,0,1,1.041-1.041h8.452a1.042,1.042,0,0,1,1.041,1.041v9.974a1.042,1.042,0,0,1-1.041,1.041h-8.452A1.042,1.042,0,0,1,529.44,268.592Z" transform="translate(-453.204 -241.658)"/><path class="i" d="M577.076,319.571V309.6a1.042,1.042,0,0,1,1.041-1.041h8.452a1.042,1.042,0,0,1,1.041,1.041v9.974a1.042,1.042,0,0,1-1.041,1.041h-8.452A1.042,1.042,0,0,1,577.076,319.571Z" transform="translate(-487.656 -278.527)"/><path class="b" d="M729.846,513.1h-8.7a.538.538,0,0,0-.238.055l-2.195,1.1a.4.4,0,0,0,0,.736l2.195,1.1a.537.537,0,0,0,.238.055h8.7a.456.456,0,0,0,.482-.423v-2.2A.456.456,0,0,0,729.846,513.1Z" transform="translate(-589.917 -426.459)"/><path class="f" d="M755.517,513.526v2.2a.456.456,0,0,1-.482.423H753.3V513.1h1.733A.456.456,0,0,1,755.517,513.526Z" transform="translate(-615.107 -426.459)"/><path class="j" d="M754.522,453.054a3.045,3.045,0,0,1,4.121,1.914,2.935,2.935,0,0,1,.089.4l12.161,6.031,2.814-1.865,3.5,4.031-4.3,3.49a3.086,3.086,0,0,1-3.682.142l-12.339-8.533a2.911,2.911,0,0,1-.281.1,3.045,3.045,0,0,1-3.878-2.369,2.97,2.97,0,0,1-.045-.371,3.055,3.055,0,0,1,1.834-2.969Z" transform="translate(-614.659 -382.851)"/><path class="b" d="M776.711,587.853H763.422c0,.382-13.7.692-13.7.692a3.564,3.564,0,0,0-.584.554,3.434,3.434,0,0,0-.8,2.214v.554a3.461,3.461,0,0,0,3.46,3.46h24.91a3.463,3.463,0,0,0,3.46-3.46v-.554A3.465,3.465,0,0,0,776.711,587.853Z" transform="translate(-611.518 -480.521)"/><rect class="b" width="3.598" height="23.249" transform="translate(154.337 137.917) rotate(180)"/><path class="b" d="M761.617,688.828c0,.389,5.452.15,12.178.15s12.178.238,12.178-.15-5.452-3.472-12.178-3.472S761.617,688.44,761.617,688.828Z" transform="translate(-621.12 -551.038)"/><path class="j" d="M506.268,465h-3.393l-1.614-8.8h5.008Z" transform="translate(-362.523 -329.93)"/><path class="d" d="M747.891,688.448H736.949v-.138a4.259,4.259,0,0,1,4.259-4.259h6.683Z" transform="translate(-603.28 -550.093)"/><path class="d" d="M736.1,586.536l-6.765-15.17a5.559,5.559,0,0,1,2.441-7.137l14.673-7.868,6.7-.569,6.176-.561.045.075a6.251,6.251,0,0,1,.487,4.9c-.681,1.908-2.452,3.4-5.264,4.429-6.564,2.407-14.146,4.464-17.1,5.236a.955.955,0,0,0-.612.487.968.968,0,0,0-.054.775l6.285,14.12a1.245,1.245,0,0,1-1.054,1.669l-4.7.342q-.06.006-.119.006A1.245,1.245,0,0,1,736.1,586.536Z" transform="translate(-597.429 -456.928)"/><path class="j" d="M512.268,465h-3.393l-1.614-8.8h5.008Z" transform="translate(-366.862 -329.93)"/><path class="d" d="M753.891,688.448H742.949v-.138a4.259,4.259,0,0,1,4.259-4.259h6.683Z" transform="translate(-607.619 -550.093)"/><path class="d" d="M743.1,589.536l-6.765-15.17a5.559,5.559,0,0,1,2.441-7.136l14.673-7.868,6.7-.57,6.176-.561.045.075a6.251,6.251,0,0,1,.487,4.9c-.681,1.908-2.452,3.4-5.264,4.429-6.564,2.407-14.146,4.464-17.1,5.236a.955.955,0,0,0-.612.487.969.969,0,0,0-.054.775l6.285,14.12a1.245,1.245,0,0,1-1.054,1.669l-4.7.342q-.06.006-.119.006A1.244,1.244,0,0,1,743.1,589.536Z" transform="translate(-602.491 -459.098)"/><path class="a" d="M732.256,453.676a46.361,46.361,0,0,1-6.664-12.436,1.191,1.191,0,0,1,.562-1.434l9.727-5.212a1.175,1.175,0,0,1,1.031-.042,1.2,1.2,0,0,1,.681.8,28.322,28.322,0,0,0,6.212,11.594,1.2,1.2,0,0,1,.287,1.009,1.175,1.175,0,0,1-.606.835L733.76,454A1.191,1.191,0,0,1,732.256,453.676Z" transform="translate(-595.019 -369.579)"/><path class="c" d="M735.088,455.347a.359.359,0,0,0,.449.093l9.727-5.212a.345.345,0,0,0,.181-.248.365.365,0,0,0-.09-.312,29.155,29.155,0,0,1-6.4-11.936.365.365,0,0,0-.21-.248.345.345,0,0,0-.307.013l-9.727,5.212a.359.359,0,0,0-.172.425,45.534,45.534,0,0,0,6.544,12.214Z" transform="translate(-597.188 -371.749)"/><path class="f" d="M841.348,482.134l-7.618,2.895-1.86-5.167a3.091,3.091,0,0,1,1.384-3.736h0a3.091,3.091,0,0,1,3.948.771Z" transform="translate(-671.796 -399.427)"/><path class="f" d="M793.952,502.266a1.383,1.383,0,0,1-.577-.982c-.976-9.109-.3-16.237,2.077-21.792a6.917,6.917,0,0,1,4.585-3.925l6.158-.311.032.015a7.2,7.2,0,0,1,3.935,7.636c-1.981,5.221-3.639,10.657-2.374,15.042a1.418,1.418,0,0,1-.134,1.1,1.352,1.352,0,0,1-.862.639l-11.73,2.79a1.374,1.374,0,0,1-1.112-.215Z" transform="translate(-643.776 -399.089)"/><circle class="j" cx="6.798" cy="6.798" r="6.798" transform="translate(153.566 60.272)"/><path class="a" d="M748.011,456.908l-5.3,2.339a.831.831,0,0,1-1.095-.424l-.131-.3a.831.831,0,0,1,.424-1.095l5.3-2.339a.831.831,0,0,1,1.095.424l.131.3A.831.831,0,0,1,748.011,456.908Z" transform="translate(-606.51 -384.454)"/><path class="a" d="M755.011,469.908l-5.3,2.339a.831.831,0,0,1-1.095-.424l-.131-.3a.831.831,0,0,1,.424-1.095l5.3-2.339a.831.831,0,0,1,1.095.424l.131.3A.831.831,0,0,1,755.011,469.908Z" transform="translate(-611.573 -393.856)"/><path class="j" d="M745.616,485.788,733.8,476.47a2.907,2.907,0,0,1-.287.085,3.052,3.052,0,0,1-2.441-.468,3.02,3.02,0,0,1-1.281-2.14,3.045,3.045,0,0,1,5.988-1.052,2.93,2.93,0,0,1,.063.4l11.758,6.783,2.926-1.685,3.241,4.244-4.543,3.238a3.028,3.028,0,0,1-3.615-.088Z" transform="translate(-598.092 -395.682)"/><path class="f" d="M804.076,491.894l-6.739-4.583,3.167-4.486a3.091,3.091,0,0,1,3.855-1.007h0a3.091,3.091,0,0,1,1.631,3.676Z" transform="translate(-646.953 -403.616)"/><path class="d" d="M805.857,416.81c-1.747,1.2-4.041,2.425-5.826,1.152a3.247,3.247,0,0,1-1.066-3.743c.854-2.444,3.2-3.519,5.447-4.344,2.918-1.072,6.1-1.925,9.109-1.157s5.675,3.685,5.132,6.746c-.437,2.462-2.76,4.51-2.43,6.989.332,2.494,3.137,3.807,5.613,4.253s5.248.589,7.028,2.368c2.27,2.269,1.7,6.325-.433,8.721s-5.36,3.482-8.484,4.22c-4.139.978-8.616,1.492-12.547-.131s-6.99-5.993-5.851-10.091a14.078,14.078,0,0,1,2.709-4.618,12.869,12.869,0,0,0,2.622-4.661,4.845,4.845,0,0,0-.875-4.239,1.228,1.228,0,0,1-.164-1.435Z" transform="translate(-647.985 -350.752)"/><path class="h" d="M313.593,483.6a10.812,10.812,0,0,1-10.44-1.839c-3.657-3.069-4.8-8.126-5.736-12.808L294.657,455.1l5.777,3.978c4.154,2.861,8.4,5.813,11.279,9.956s4.132,9.8,1.821,14.283" transform="translate(-283.404 -384.514)"/><path class="g" d="M339.667,546.342a55.9,55.9,0,0,0,.776-12.877,20.253,20.253,0,0,0-3.9-10.618,17.665,17.665,0,0,0-4.532-4.107c-.453-.286-.87.432-.419.717a16.793,16.793,0,0,1,6.642,8.015,26.917,26.917,0,0,1,1.429,11.6c-.151,2.363-.47,4.71-.792,7.055a.43.43,0,0,0,.29.511.418.418,0,0,0,.511-.29Z" transform="translate(-309.972 -430.488)"/><path class="h" d="M278.756,568.894a7.959,7.959,0,0,1-6.935,3.579c-3.51-.167-6.437-2.617-9.071-4.943l-7.792-6.88,5.157-.247c3.709-.177,7.513-.343,11.046.8s6.79,3.9,7.436,7.552" transform="translate(-254.693 -460.577)"/><path class="g" d="M322.158,593.9c-2.814-4.98-6.078-10.514-11.911-12.283a13.293,13.293,0,0,0-5.01-.517c-.532.046-.4.866.132.82a12.348,12.348,0,0,1,8,2.115,20.781,20.781,0,0,1,5.5,5.93c.91,1.386,1.725,2.83,2.54,4.273C321.66,594.7,322.422,594.371,322.158,593.9Z" transform="translate(-290.811 -475.603)"/><path class="g" d="M349.192,625.709a6.026,6.026,0,0,0-3.693-5.048v-2.879h-4.828v2.97a6.023,6.023,0,0,0-3.492,4.957l-1.135,13.2h14.284Z" transform="translate(-313.336 -502.167)"/></g></svg>