<svg xmlns="http://www.w3.org/2000/svg" xmlns:xlink="http://www.w3.org/1999/xlink" width="151.242" height="145.256" viewBox="0 0 151.242 145.256"><defs><style>.a{opacity:0.5;}.b{fill:url(#a);}.c{fill:#f5f5f5;}.d{fill:#fda57d;}.e{fill:#333;}.f{opacity:0.1;}.g{fill:#fdd835;}.h{fill:url(#b);}.i{fill:#be7c5e;}.j{fill:#3ad29f;}.k{fill:url(#c);}.l{fill:#4d8af0;}.m{fill:url(#d);}.n{fill:#f55f44;}.o{fill:#6c63ff;}</style><linearGradient id="a" x1="0.5" y1="1" x2="0.5" gradientUnits="objectBoundingBox"><stop offset="0" stop-color="gray" stop-opacity="0.251"/><stop offset="0.54" stop-color="gray" stop-opacity="0.122"/><stop offset="1" stop-color="gray" stop-opacity="0.102"/></linearGradient><linearGradient id="b" x1="-4.017" y1="1" x2="-4.017" y2="0" xlink:href="#a"/><linearGradient id="c" x1="0.5" y1="1" x2="0.5" y2="0" xlink:href="#a"/><linearGradient id="d" x1="0.5" y1="1" x2="0.5" y2="0" xlink:href="#a"/></defs><g transform="translate(0.005 0.001)"><g class="a" transform="translate(-0.005 31.771)"><path class="b" d="M222.8,245.435a9.756,9.756,0,1,0-15.2,8.1v.044a3.34,3.34,0,0,0,1.106.7l.013-.044a9.117,9.117,0,0,0,4.59,1.014h.048a8.946,8.946,0,0,0,4.255-.97s.011-.025.031-.074a3.475,3.475,0,0,0,.921-.629l.015-.111a9.745,9.745,0,0,0,4.22-8.031Z" transform="translate(-203.285 -235.678)"/></g><circle class="c" cx="9.462" cy="9.462" r="9.462" transform="translate(0.188 31.718)"/><path class="d" d="M226.592,304.6s-2.255.191-1.658,4.293a3.241,3.241,0,0,0,1.075.682l1.268-4.293Z" transform="translate(-220.73 -259.691)"/><path class="d" d="M269.542,304.6s2.255.191,1.658,4.293a3.241,3.241,0,0,1-1.073.682l-1.268-4.293Z" transform="translate(-256.365 -259.691)"/><path class="e" d="M227.528,269.28s-1.073,3.122-1.658,2.829c0,0,5.648,4.878,10.633,0a14.868,14.868,0,0,0-2.146-2.829Z" transform="translate(-221.57 -231.103)"/><circle class="e" cx="4.196" cy="4.196" r="4.196" transform="translate(5.383 33.689)"/><path class="f" d="M237.6,304.6h-7.316l-.682,2.926s-.4,1.355.1,1.952,5.16,1.952,8.578.1a3.813,3.813,0,0,0,.1-2.438c-.381-1.365-.1-.1-.1-.1Z" transform="translate(-224.469 -259.691)"/><path class="f" d="M238.112,304.6H230.8l-.682,2.926s-.4,1.355.1,1.952,5.16,1.952,8.578.1a3.812,3.812,0,0,0,.1-2.438c-.381-1.365-.1-.1-.1-.1Z" transform="translate(-224.881 -259.691)"/><path class="g" d="M237.832,304.6h-7.316l-.682,2.926s-.4,1.355.1,1.952,5.16,1.952,8.578.1a3.813,3.813,0,0,0,.1-2.438c-.381-1.365-.1-.1-.1-.1Z" transform="translate(-224.655 -259.691)"/><path class="f" d="M42.53,222.86h2.928v2.522a1.283,1.283,0,0,1-1.283,1.283h-.362a1.283,1.283,0,0,1-1.283-1.283Z" transform="translate(-34.427 -180.379)"/><path class="d" d="M42.53,222.29h2.928v2.522a1.283,1.283,0,0,1-1.283,1.283h-.362a1.283,1.283,0,0,1-1.283-1.283Z" transform="translate(-34.427 -179.918)"/><path class="f" d="M245.85,291.97a4.213,4.213,0,0,0,2.926,0v-.36H245.85Z" transform="translate(-237.741 -249.177)"/><circle class="d" cx="4.196" cy="4.196" r="4.196" transform="translate(5.383 34.599)"/><path class="e" d="M232.52,251.285h8.006s-.69-3.231-3.721-3.025A5.391,5.391,0,0,0,232.52,251.285Z" transform="translate(-226.952 -214.083)"/><ellipse class="d" cx="0.391" cy="0.732" rx="0.391" ry="0.732" transform="translate(5.08 37.885)"/><ellipse class="d" cx="0.391" cy="0.732" rx="0.391" ry="0.732" transform="translate(13.275 37.885)"/><path class="f" d="M232.52,251.853h8.006s-.69-3.229-3.721-3.023A5.391,5.391,0,0,0,232.52,251.853Z" transform="translate(-226.952 -214.544)"/><g class="a" transform="translate(0.131 -0.002)"><path class="h" d="M204,78.755a9.756,9.756,0,1,1,15.2,8.1V86.9a3.339,3.339,0,0,1-1.106.7l-.013-.044a9.117,9.117,0,0,1-4.59,1.014h-.048a8.946,8.946,0,0,1-4.255-.97s-.011-.025-.03-.074a3.475,3.475,0,0,1-.921-.629l-.015-.111A9.745,9.745,0,0,1,204,78.755Z" transform="translate(-204 -68.998)"/></g><circle class="c" cx="9.462" cy="9.462" r="9.462" transform="translate(0.43 0.292)"/><path class="i" d="M228.272,139.09s-2.255.191-1.658,4.293a3.24,3.24,0,0,0,1.073.682l1.268-4.293Z" transform="translate(-222.09 -125.731)"/><path class="i" d="M271.232,139.09s2.255.191,1.658,4.293a3.241,3.241,0,0,1-1.073.682l-1.268-4.293Z" transform="translate(-257.733 -125.731)"/><path class="e" d="M233.652,103.78s-.173.505-.419,1.09c-.538,1.279.076,6.19,1.359,6.712a7.305,7.305,0,0,0,5.305.246c1.716-.623,2.238-6.212,1.029-7.575-.141-.16-.29-.318-.444-.473Z" transform="translate(-227.371 -97.151)"/><circle class="e" cx="4.196" cy="4.196" r="4.196" transform="translate(5.705 2.139)"/><path class="f" d="M239.292,139.09h-7.316l-.682,2.926s-.4,1.355.1,1.952,5.16,1.952,8.578.1a3.813,3.813,0,0,0,.1-2.438c-.381-1.365-.1-.1-.1-.1Z" transform="translate(-225.836 -125.731)"/><path class="f" d="M239.778,139.09h-7.322l-.682,2.926s-.4,1.355.1,1.952,5.16,1.952,8.578.1a3.813,3.813,0,0,0,.1-2.438c-.381-1.365-.1-.1-.1-.1Z" transform="translate(-226.225 -125.731)"/><path class="j" d="M239.514,139.09H232.2l-.682,2.926s-.4,1.355.1,1.952,5.16,1.952,8.578.1a3.813,3.813,0,0,0,.1-2.438c-.381-1.365-.1-.1-.1-.1Z" transform="translate(-226.014 -125.731)"/><path class="f" d="M44.22,57.35h2.928v2.524a1.283,1.283,0,0,1-1.283,1.283H45.5a1.283,1.283,0,0,1-1.283-1.283Z" transform="translate(-35.795 -46.419)"/><path class="i" d="M44.22,56.78h2.928V59.3a1.283,1.283,0,0,1-1.283,1.283H45.5A1.283,1.283,0,0,1,44.22,59.3Z" transform="translate(-35.795 -45.958)"/><path class="f" d="M247.54,126.47a4.213,4.213,0,0,0,2.926,0v-.36H247.54Z" transform="translate(-239.109 -115.225)"/><circle class="i" cx="4.196" cy="4.196" r="4.196" transform="translate(5.705 3.051)"/><path class="e" d="M234.21,85.775h8.006s-.682-3.231-3.708-3.025A5.437,5.437,0,0,0,234.21,85.775Z" transform="translate(-228.32 -80.123)"/><ellipse class="i" cx="0.391" cy="0.732" rx="0.391" ry="0.732" transform="translate(5.4 6.335)"/><ellipse class="i" cx="0.391" cy="0.732" rx="0.391" ry="0.732" transform="translate(13.595 6.335)"/><path class="f" d="M234.21,86.345h8.006s-.682-3.231-3.708-3.025A5.437,5.437,0,0,0,234.21,86.345Z" transform="translate(-228.32 -80.584)"/><g class="a" transform="translate(-0.005 125.683)"><path class="k" d="M222.8,738.093a9.756,9.756,0,1,0-15.2,8.1v.044a3.34,3.34,0,0,0,1.106.7l.013-.044a9.117,9.117,0,0,0,4.59,1.014h.048a8.946,8.946,0,0,0,4.255-.97s.011-.025.031-.074a3.477,3.477,0,0,0,.921-.629l.015-.111a9.745,9.745,0,0,0,4.22-8.033Z" transform="translate(-203.285 -728.338)"/></g><circle class="c" cx="9.462" cy="9.462" r="9.462" transform="translate(0.289 125.977)"/><path class="l" d="M225.532,798.93s-2.255.191-1.658,4.293a3.241,3.241,0,0,0,1.073.682l1.268-4.293Z" transform="translate(-219.873 -659.791)"/><path class="l" d="M268.482,798.93s2.255.191,1.658,4.293a3.241,3.241,0,0,1-1.073.682l-1.268-4.293Z" transform="translate(-255.507 -659.791)"/><circle class="e" cx="4.196" cy="4.196" r="4.196" transform="translate(5.181 127.919)"/><path class="l" d="M236.542,798.93h-7.316l-.682,2.926s-.4,1.355.1,1.952,5.16,1.952,8.578.1a3.813,3.813,0,0,0,.1-2.438c-.381-1.365-.1-.1-.1-.1Z" transform="translate(-223.611 -659.791)"/><path class="l" d="M237.054,798.93h-7.318l-.682,2.926s-.4,1.355.1,1.952,5.16,1.952,8.578.1a3.812,3.812,0,0,0,.1-2.438c-.381-1.365-.1-.1-.1-.1Z" transform="translate(-224.023 -659.791)"/><path class="l" d="M236.772,798.93h-7.316l-.682,2.926s-.4,1.355.1,1.952,5.16,1.95,8.591.091a3.813,3.813,0,0,0,.1-2.438c-.381-1.365-.1-.1-.1-.1Z" transform="translate(-223.797 -659.791)"/><path class="f" d="M41.472,717.19H44.4v2.522a1.283,1.283,0,0,1-1.283,1.283h-.362a1.283,1.283,0,0,1-1.283-1.283V717.19Z" transform="translate(-33.569 -580.479)"/><path class="d" d="M41.472,716.62H44.4v2.522a1.283,1.283,0,0,1-1.283,1.283h-.362a1.283,1.283,0,0,1-1.283-1.283V716.62Z" transform="translate(-33.569 -580.018)"/><path class="f" d="M244.8,786.349a4.212,4.212,0,0,0,2.926,0V786H244.8Z" transform="translate(-236.891 -649.325)"/><circle class="d" cx="4.196" cy="4.196" r="4.196" transform="translate(5.181 128.829)"/><path class="f" d="M231.46,746.183h8.006s-.688-3.229-3.71-3.023A5.44,5.44,0,0,0,231.46,746.183Z" transform="translate(-226.094 -614.644)"/><path class="e" d="M231.46,745.605h8.006s-.682-3.231-3.708-3.025A5.437,5.437,0,0,0,231.46,745.605Z" transform="translate(-226.094 -614.174)"/><ellipse class="d" cx="0.391" cy="0.732" rx="0.391" ry="0.732" transform="translate(4.878 132.115)"/><ellipse class="d" cx="0.391" cy="0.732" rx="0.391" ry="0.732" transform="translate(13.072 132.115)"/><g class="a" transform="translate(-0.005 94.703)"><path class="m" d="M222.8,575.575a9.756,9.756,0,1,0-15.2,8.1v.044a3.34,3.34,0,0,0,1.106.7l.013-.044a9.116,9.116,0,0,0,4.59,1.014h.048a8.947,8.947,0,0,0,4.255-.97s.011-.025.031-.074a3.475,3.475,0,0,0,.921-.629l.015-.111A9.745,9.745,0,0,0,222.8,575.575Z" transform="translate(-203.285 -565.818)"/></g><circle class="c" cx="9.462" cy="9.462" r="9.462" transform="translate(0.188 94.645)"/><path class="i" d="M226.592,634.71s-2.255.191-1.658,4.293a3.242,3.242,0,0,0,1.073.682l1.268-4.293Z" transform="translate(-220.73 -526.874)"/><path class="i" d="M269.542,634.71S271.8,634.9,271.2,639a3.242,3.242,0,0,1-1.073.682l-1.268-4.293Z" transform="translate(-256.365 -526.874)"/><path class="e" d="M227.528,599.4s-1.073,5.528-1.658,5.227c0,0,5.648,4.878,10.633,0,0,0-.879-3.957-2.146-5.227Z" transform="translate(-221.57 -498.295)"/><circle class="e" cx="4.196" cy="4.196" r="4.196" transform="translate(5.383 96.616)"/><path class="f" d="M237.6,634.71h-7.316l-.682,2.926s-.4,1.355.1,1.952,5.16,1.952,8.578.1a3.813,3.813,0,0,0,.1-2.438c-.381-1.365-.1-.1-.1-.1Z" transform="translate(-224.469 -526.874)"/><path class="f" d="M238.112,634.71H230.8l-.682,2.926s-.4,1.355.1,1.952,5.16,1.952,8.578.1a3.813,3.813,0,0,0,.1-2.438c-.381-1.365-.1-.1-.1-.1Z" transform="translate(-224.881 -526.874)"/><path class="n" d="M237.832,634.71h-7.316l-.682,2.926s-.4,1.355.1,1.952,5.16,1.952,8.578.1a3.813,3.813,0,0,0,.1-2.438c-.381-1.365-.1-.1-.1-.1Z" transform="translate(-224.655 -526.874)"/><path class="f" d="M42.53,553h2.928v2.522a1.283,1.283,0,0,1-1.283,1.283h-.362a1.283,1.283,0,0,1-1.283-1.283Z" transform="translate(-34.427 -447.587)"/><path class="i" d="M42.53,552.41h2.928v2.522a1.283,1.283,0,0,1-1.283,1.283h-.362a1.283,1.283,0,0,1-1.283-1.283Z" transform="translate(-34.427 -447.11)"/><path class="f" d="M245.85,622.09a4.212,4.212,0,0,0,2.926,0v-.36H245.85Z" transform="translate(-237.741 -516.369)"/><circle class="i" cx="4.196" cy="4.196" r="4.196" transform="translate(5.383 97.527)"/><path class="e" d="M232.52,581.4h8.006s-.69-3.229-3.721-3.023A5.391,5.391,0,0,0,232.52,581.4Z" transform="translate(-226.952 -481.274)"/><ellipse class="i" cx="0.391" cy="0.732" rx="0.391" ry="0.732" transform="translate(5.08 100.811)"/><ellipse class="i" cx="0.391" cy="0.732" rx="0.391" ry="0.732" transform="translate(13.275 100.811)"/><path class="f" d="M232.52,581.98h8.006s-.69-3.231-3.721-3.021A5.4,5.4,0,0,0,232.52,581.98Z" transform="translate(-226.952 -481.743)"/><g class="a" transform="translate(-0.005 63.077)"><path class="b" d="M222.8,409.665a9.756,9.756,0,1,0-15.2,8.1v.044a3.339,3.339,0,0,0,1.106.7l.013-.044a9.117,9.117,0,0,0,4.59,1.014h.048a8.946,8.946,0,0,0,4.255-.97s.011-.025.031-.074a3.476,3.476,0,0,0,.921-.629l.015-.111A9.745,9.745,0,0,0,222.8,409.665Z" transform="translate(-203.285 -399.908)"/></g><circle class="c" cx="9.462" cy="9.462" r="9.462" transform="translate(0.289 63.371)"/><path class="l" d="M225.532,470.5s-2.255.191-1.658,4.293a3.24,3.24,0,0,0,1.073.682l1.268-4.293Z" transform="translate(-219.873 -393.967)"/><path class="l" d="M268.482,470.5s2.255.191,1.658,4.293a3.24,3.24,0,0,1-1.073.682l-1.268-4.293Z" transform="translate(-255.507 -393.967)"/><circle class="e" cx="4.196" cy="4.196" r="4.196" transform="translate(5.181 65.315)"/><path class="l" d="M236.542,470.5h-7.316l-.682,2.926s-.4,1.355.1,1.952,5.16,1.952,8.578.1a3.812,3.812,0,0,0,.1-2.438c-.381-1.365-.1-.1-.1-.1Z" transform="translate(-223.611 -393.967)"/><path class="l" d="M237.054,470.5h-7.318l-.682,2.926s-.4,1.355.1,1.952,5.16,1.952,8.578.1a3.812,3.812,0,0,0,.1-2.438c-.381-1.365-.1-.1-.1-.1Z" transform="translate(-224.023 -393.967)"/><path class="l" d="M236.772,470.5h-7.316l-.682,2.926s-.4,1.355.1,1.952,5.16,1.952,8.578.1a3.812,3.812,0,0,0,.1-2.438c-.381-1.365-.1-.1-.1-.1Z" transform="translate(-223.797 -393.967)"/><path class="f" d="M41.48,388.77h2.926v2.522a1.283,1.283,0,0,1-1.283,1.283h-.362a1.283,1.283,0,0,1-1.281-1.283Z" transform="translate(-33.577 -314.663)"/><path class="i" d="M41.472,388.2H44.4v2.522A1.283,1.283,0,0,1,43.115,392h-.362a1.283,1.283,0,0,1-1.283-1.283V388.2Z" transform="translate(-33.569 -314.202)"/><path class="f" d="M244.8,457.88a4.213,4.213,0,0,0,2.926,0v-.36H244.8Z" transform="translate(-236.891 -383.461)"/><circle class="i" cx="4.196" cy="4.196" r="4.196" transform="translate(5.181 66.225)"/><path class="f" d="M231.46,417.763h8.006s-.688-3.229-3.71-3.023A5.44,5.44,0,0,0,231.46,417.763Z" transform="translate(-226.094 -348.828)"/><path class="e" d="M231.46,417.185h8.006s-.682-3.231-3.708-3.025A5.437,5.437,0,0,0,231.46,417.185Z" transform="translate(-226.094 -348.358)"/><ellipse class="i" cx="0.391" cy="0.732" rx="0.391" ry="0.732" transform="translate(4.878 69.509)"/><ellipse class="i" cx="0.391" cy="0.732" rx="0.391" ry="0.732" transform="translate(13.072 69.509)"/><path class="e" d="M233.411,406.421a2.529,2.529,0,0,1,.627-1.02c.862-.852,2.274-1.031,3-2a.572.572,0,0,1-.259.8,2.2,2.2,0,0,0,1.891-.637,1.3,1.3,0,0,1-.219,1.371,1.312,1.312,0,0,1,1.311,1.06,1.224,1.224,0,0,1-.572,1.031,3.149,3.149,0,0,1-1.144.431C236.88,407.708,232.646,408.793,233.411,406.421Z" transform="translate(-227.599 -339.657)"/><g class="a" transform="translate(39.152 6.764)"><rect class="b" width="112.086" height="6.041"/></g><rect class="c" width="111.3" height="4.983" transform="translate(39.62 7.218)"/><rect class="j" width="78.696" height="4.983" transform="translate(39.62 7.218)"/><g class="a" transform="translate(39.152 39.463)"><rect class="b" width="112.086" height="6.041"/></g><rect class="c" width="111.3" height="4.983" transform="translate(39.62 39.917)"/><rect class="o" width="109.11" height="4.983" transform="translate(39.62 39.917)"/><g class="a" transform="translate(39.152 69.843)"><rect class="b" width="112.086" height="6.041"/></g><rect class="c" width="111.3" height="4.983" transform="translate(39.62 70.296)"/><rect class="n" width="17.066" height="4.983" transform="translate(39.62 70.296)"/><g class="a" transform="translate(39.152 101.436)"><rect class="b" width="112.086" height="6.041"/></g><rect class="c" width="111.3" height="4.983" transform="translate(39.62 101.89)"/><rect class="o" width="100.999" height="4.983" transform="translate(39.62 101.89)"/><g class="a" transform="translate(39.152 132.447)"><rect class="b" width="112.086" height="6.041"/></g><rect class="c" width="111.3" height="4.983" transform="translate(39.62 132.9)"/><rect class="j" width="34.691" height="4.983" transform="translate(39.62 132.9)"/></g></svg>