<svg xmlns="http://www.w3.org/2000/svg" width="495.445" height="279.705" viewBox="0 0 495.445 279.705"><defs><style>.a{fill:#e6e6e6;}.b{fill:#fff;}.c{fill:#6c63ff;}.d{fill:#a0616a;}.e{fill:#2f2e41;}.f{fill:#3f3d56;}</style></defs><g transform="translate(0)"><path class="a" d="M254,362.758a37.275,37.275,0,0,1,0-74.551H593.255a37.275,37.275,0,1,1,0,74.551Z" transform="translate(-175.903 -235.759)"/><path class="b" d="M258.133,297.207a32.413,32.413,0,0,0,0,64.827H597.393a32.413,32.413,0,0,0,0-64.827Z" transform="translate(-180.041 -239.897)"/><rect class="a" width="1.08" height="64.827" transform="translate(112.486 57.311)"/><rect class="a" width="1.08" height="64.827" transform="translate(179.924 57.311)"/><rect class="a" width="1.08" height="64.827" transform="translate(247.451 57.311)"/><rect class="a" width="1.08" height="64.827" transform="translate(314.439 57.311)"/><rect class="a" width="1.08" height="64.827" transform="translate(381.967 57.311)"/><path class="a" d="M382.566,339.207a1.564,1.564,0,0,0,0,3.129H414.3a1.564,1.564,0,0,0,.006-3.129Z" transform="translate(-251.436 -259.207)"/><path class="a" d="M382.566,354.207a1.564,1.564,0,0,0,0,3.129H414.3a1.564,1.564,0,0,0,.006-3.129Z" transform="translate(-251.436 -266.104)"/><path class="a" d="M382.566,369.207a1.564,1.564,0,0,0,0,3.129H414.3a1.564,1.564,0,0,0,.006-3.129Z" transform="translate(-251.436 -273.001)"/><path class="c" d="M506.566,339.207a1.564,1.564,0,1,0,0,3.129H538.3a1.564,1.564,0,1,0,0-3.129Z" transform="translate(-308.449 -259.207)"/><path class="c" d="M506.566,354.207a1.564,1.564,0,1,0,0,3.129H538.3a1.564,1.564,0,1,0,0-3.129Z" transform="translate(-308.449 -266.104)"/><path class="c" d="M506.566,369.207a1.564,1.564,0,1,0,0,3.129H538.3a1.564,1.564,0,1,0,0-3.129Z" transform="translate(-308.449 -273.001)"/><path class="a" d="M631.566,339.207a1.564,1.564,0,1,0,0,3.129H663.3a1.564,1.564,0,0,0,0-3.129Z" transform="translate(-365.921 -259.207)"/><path class="a" d="M631.566,354.207a1.564,1.564,0,1,0,0,3.129H663.3a1.564,1.564,0,0,0,0-3.129Z" transform="translate(-365.921 -266.104)"/><path class="a" d="M631.566,369.207a1.564,1.564,0,1,0,0,3.129H663.3a1.564,1.564,0,0,0,0-3.129Z" transform="translate(-365.921 -273.001)"/><path class="a" d="M756.066,339.207a1.564,1.564,0,0,0,0,3.129H787.8a1.564,1.564,0,0,0,0-3.129Z" transform="translate(-423.163 -259.207)"/><path class="a" d="M756.066,354.207a1.564,1.564,0,0,0,0,3.129H787.8a1.564,1.564,0,0,0,0-3.129Z" transform="translate(-423.163 -266.104)"/><path class="a" d="M756.066,369.207a1.564,1.564,0,0,0,0,3.129H787.8a1.564,1.564,0,0,0,0-3.129Z" transform="translate(-423.163 -273.001)"/><path class="a" d="M877.566,339.207a1.564,1.564,0,0,0,0,3.129H909.3a1.564,1.564,0,1,0,0-3.129Z" transform="translate(-479.026 -259.207)"/><path class="a" d="M877.566,354.207a1.564,1.564,0,0,0,0,3.129H909.3a1.564,1.564,0,1,0,0-3.129Z" transform="translate(-479.026 -266.104)"/><path class="a" d="M877.566,369.207a1.564,1.564,0,0,0,0,3.129H909.3a1.564,1.564,0,1,0,0-3.129Z" transform="translate(-479.026 -273.001)"/><path class="a" d="M257.566,339.207a1.564,1.564,0,1,0,0,3.129H289.3a1.564,1.564,0,0,0,.006-3.129Z" transform="translate(-193.964 -259.207)"/><path class="a" d="M257.566,354.207a1.564,1.564,0,1,0,0,3.129H289.3a1.564,1.564,0,0,0,.006-3.129Z" transform="translate(-193.964 -266.104)"/><path class="a" d="M257.566,369.207a1.564,1.564,0,1,0,0,3.129H289.3a1.564,1.564,0,0,0,.006-3.129Z" transform="translate(-193.964 -273.001)"/><circle class="c" cx="25.597" cy="25.597" r="25.597" transform="translate(188.425 0)"/><path class="c" d="M382.549,100.811l-8-13.863-8-13.863h32.014l-8,13.863Z" transform="translate(-168.528 -33.603)"/><circle class="b" cx="9.184" cy="9.184" r="9.184" transform="translate(205.044 16.253)"/><path class="c" d="M1023.859,357.17a.82.82,0,0,1-.58-.241l-4.432-4.432a.821.821,0,0,1,1.161-1.161l3.756,3.756,6.657-9.078a.821.821,0,0,1,1.324.971l-7.223,9.85a.821.821,0,0,1-.6.333C1023.9,357.169,1023.881,357.17,1023.859,357.17Z" transform="translate(-544.593 -262.183)"/><path class="c" d="M160.87,357.876a.821.821,0,0,1-.58-1.4l8.748-8.748a.821.821,0,1,1,1.161,1.161l-8.748,8.748A.818.818,0,0,1,160.87,357.876Z" transform="translate(-149.847 -263.014)"/><path class="c" d="M169.617,357.876a.818.818,0,0,1-.58-.241l-8.748-8.748a.821.821,0,0,1,1.161-1.161l8.748,8.748a.821.821,0,0,1-.58,1.4Z" transform="translate(-149.847 -263.014)"/><path class="d" d="M721.267,476.214a5.8,5.8,0,0,1-1.721-8.731l-7.5-52.323,12.616.347,3.409,51.322a5.835,5.835,0,0,1-6.8,9.384Z" transform="translate(-403.641 -294.129)"/><path class="c" d="M707.937,411.014a2.6,2.6,0,0,1-.935-1.955L706.791,396a7.227,7.227,0,1,1,14.254-2.395l4,12.476A2.6,2.6,0,0,1,723,409.444l-12.967,2.14a2.6,2.6,0,0,1-2.091-.57Z" transform="translate(-401.181 -281.446)"/><path class="d" d="M515.036,483.1h-6.623l-3.151-25.546h9.775Z" transform="translate(-232.308 -210.372)"/><path class="e" d="M649.471,700.54H628.115v-.27a8.312,8.312,0,0,1,8.312-8.312h13.043Z" transform="translate(-365.054 -421.394)"/><path class="d" d="M584.036,483.1h-6.623l-3.151-25.546h9.775Z" transform="translate(-264.033 -210.372)"/><path class="e" d="M718.471,700.54H697.115v-.27a8.312,8.312,0,0,1,8.312-8.312h13.044Z" transform="translate(-396.779 -421.394)"/><path class="e" d="M682.683,599.1,671.1,538.052a.786.786,0,0,0-.792-.654h0a.786.786,0,0,0-.794.648L657.469,598.97a2.432,2.432,0,0,1-2.575,1.935l-9.414-.753a2.431,2.431,0,0,1-2.226-2.653l7.92-85.584,40.473,1.055.251.007,3.981,85.534a2.431,2.431,0,0,1-2.428,2.546h-8.381A2.436,2.436,0,0,1,682.683,599.1Z" transform="translate(-372.009 -338.615)"/><circle class="d" cx="13.268" cy="13.268" r="13.268" transform="translate(284.438 71.54)"/><path class="c" d="M654.552,456.251a2.427,2.427,0,0,1-1.3-2.5c1.715-12.257.623-33.93-.6-49.953a21.492,21.492,0,0,1,17.168-22.868c.165-.032.331-.063.5-.092h0a21.392,21.392,0,0,1,18.347,5.313,21.62,21.62,0,0,1,7,17.992c-1.575,17.861,1.221,44.6,1.8,49.778a2.459,2.459,0,0,1-.794,2.08c-5.385,4.915-11.88,6.577-18.2,6.577C668.234,462.571,658.455,458.223,654.552,456.251Z" transform="translate(-376.305 -278.185)"/><path class="d" d="M631.058,476.769a5.8,5.8,0,0,0,2.651-8.495L646.8,417.064l-12.58-1.013-8.915,50.657a5.835,5.835,0,0,0,5.75,10.061Z" transform="translate(-362.677 -294.539)"/><path class="c" d="M652.075,413.887l-12.661-3.523a2.6,2.6,0,0,1-1.68-3.564l5.325-11.972a7.227,7.227,0,1,1,13.913,3.916l-1.617,12.96a2.6,2.6,0,0,1-3.28,2.184Z" transform="translate(-369.373 -282.357)"/><path class="e" d="M682.323,346.394a9.506,9.506,0,0,0,3.672-.664c.514-.2,1.047-.361,1.56-.559,4.531-1.75,7.515-6.576,7.622-11.431a16.462,16.462,0,0,0-6.142-12.675,23.768,23.768,0,0,0-13.414-5.069c-5.217-.4-11.091.926-14.006,5.27a4.576,4.576,0,0,0-.859,3.956,2.531,2.531,0,0,0,.713,1.1c1.3,1.158,2.6.287,3.927.21a4.341,4.341,0,0,1,4.051,3.1,9.343,9.343,0,0,1-.146,5.4,13.482,13.482,0,0,0-.68,3.282,3.3,3.3,0,0,0,1.367,2.906,3.766,3.766,0,0,0,3.777-.4,26.225,26.225,0,0,1,3.358-2.15c1.232-.506,2.887-.394,3.6.728a3.99,3.99,0,0,1,.456,1.316c.643,2.929.495,2.756,1.138,5.685Z" transform="translate(-379.984 -248.504)"/><path class="f" d="M679.95,707.96H542.733a.54.54,0,0,1,0-1.081H679.95a.54.54,0,0,1,0,1.081Z" transform="translate(-325.549 -428.255)"/><path class="a" d="M156.561,359.4a15.4,15.4,0,1,1,15.4-15.4A15.4,15.4,0,0,1,156.561,359.4Zm0-29.172A13.776,13.776,0,1,0,170.337,344,13.776,13.776,0,0,0,156.561,330.224Z" transform="translate(-141.165 -254.332)"/><path class="a" d="M1016.676,359.23a15.4,15.4,0,1,1,15.4-15.4A15.4,15.4,0,0,1,1016.676,359.23Zm0-29.172a13.776,13.776,0,1,0,13.776,13.776,13.776,13.776,0,0,0-13.776-13.776Z" transform="translate(-536.627 -254.256)"/></g></svg>