<svg xmlns="http://www.w3.org/2000/svg" width="441.995" height="311.462" viewBox="0 0 441.995 311.462"><defs><style>.a{fill:#f2f2f2;}.b{fill:#3f3d56;}.c{fill:#6c63ff;}.d{fill:#e6e6e6;}.e{fill:#ff6584;}.f{fill:#ccc;}.g{fill:#ffb8b8;}.h{fill:#2f2e41;}.i{fill:#a0616a;}</style></defs><g transform="translate(0 0.003)"><path class="a" d="M309.6,191.693H281.415a10.23,10.23,0,0,0-10.22,10.22v30.559c-.36-.022-.721-.054-1.076-.1a36.04,36.04,0,1,1,39.322-41.759C309.5,190.972,309.553,191.333,309.6,191.693Z" transform="translate(-211.659 -160.495)"/><path class="b" d="M670.078,216.495H309.134a11.309,11.309,0,0,0-11.3,11.3V418.215a11.309,11.309,0,0,0,11.3,11.3H670.078a11.309,11.309,0,0,0,11.3-11.3V227.791a11.309,11.309,0,0,0-11.3-11.3Zm10.22,201.72a10.23,10.23,0,0,1-10.22,10.22H309.134a10.23,10.23,0,0,1-10.22-10.22V227.791a10.23,10.23,0,0,1,10.22-10.22H670.078a10.23,10.23,0,0,1,10.22,10.22Z" transform="translate(-239.379 -186.373)"/><path class="b" d="M676.817,272.941H351.376a.538.538,0,0,1,0-1.076H676.817a.538.538,0,0,1,0,1.076Z" transform="translate(-263.869 -211.958)"/><path class="b" d="M522.376,416.546a.538.538,0,0,1-.538-.538V239.033a.538.538,0,1,1,1.076,0V416.008a.538.538,0,0,1-.538.538Z" transform="translate(-342.885 -196.539)"/><path class="b" d="M673.376,416.546a.538.538,0,0,1-.538-.538V239.033a.538.538,0,1,1,1.076,0V416.008a.538.538,0,0,1-.538.538Z" transform="translate(-412.659 -196.539)"/><path class="b" d="M824.376,416.546a.538.538,0,0,1-.538-.538V239.033a.538.538,0,1,1,1.076,0V416.008a.538.538,0,0,1-.538.538Z" transform="translate(-482.434 -196.539)"/><path class="c" d="M406.79,353H387.135a2.423,2.423,0,0,1-2.421-2.421v-23.2a2.423,2.423,0,0,1,2.421-2.421H406.79a2.423,2.423,0,0,1,2.421,2.421v23.195A2.423,2.423,0,0,1,406.79,353Z" transform="translate(-279.523 -236.494)"/><path class="c" d="M458.79,476H439.135a2.423,2.423,0,0,1-2.421-2.421v-23.2a2.423,2.423,0,0,1,2.421-2.421H458.79a2.423,2.423,0,0,1,2.421,2.421v23.195A2.423,2.423,0,0,1,458.79,476Z" transform="translate(-303.551 -293.33)"/><path class="c" d="M576.79,379H557.135a2.423,2.423,0,0,1-2.421-2.421v-23.2a2.423,2.423,0,0,1,2.421-2.421H576.79a2.423,2.423,0,0,1,2.421,2.421v23.195A2.423,2.423,0,0,1,576.79,379Z" transform="translate(-358.076 -248.508)"/><path class="c" d="M729.79,332H710.135a2.423,2.423,0,0,1-2.421-2.421v-23.2a2.423,2.423,0,0,1,2.421-2.421H729.79a2.423,2.423,0,0,1,2.421,2.421v23.195A2.423,2.423,0,0,1,729.79,332Z" transform="translate(-428.775 -226.79)"/><path class="c" d="M870.79,332H851.135a2.423,2.423,0,0,1-2.421-2.421v-23.2a2.423,2.423,0,0,1,2.421-2.421H870.79a2.423,2.423,0,0,1,2.421,2.421v23.195A2.423,2.423,0,0,1,870.79,332Z" transform="translate(-493.928 -226.79)"/><path class="d" d="M935.79,344H916.135a2.423,2.423,0,0,1-2.421-2.421v-23.2a2.423,2.423,0,0,1,2.421-2.421H935.79a2.423,2.423,0,0,1,2.421,2.421v23.195A2.423,2.423,0,0,1,935.79,344Z" transform="translate(-523.964 -232.335)"/><path class="d" d="M906.79,421H887.135a2.423,2.423,0,0,1-2.421-2.421v-23.2a2.423,2.423,0,0,1,2.421-2.421H906.79a2.423,2.423,0,0,1,2.421,2.421v23.195A2.423,2.423,0,0,1,906.79,421Z" transform="translate(-510.563 -267.915)"/><path class="e" d="M782.79,405H763.135a2.423,2.423,0,0,1-2.421-2.421v-23.2a2.423,2.423,0,0,1,2.421-2.421H782.79a2.423,2.423,0,0,1,2.421,2.421v23.195A2.423,2.423,0,0,1,782.79,405Z" transform="translate(-453.265 -260.522)"/><path class="d" d="M711.79,421H692.135a2.423,2.423,0,0,1-2.421-2.421v-23.2a2.423,2.423,0,0,1,2.421-2.421H711.79a2.423,2.423,0,0,1,2.421,2.421v23.195A2.423,2.423,0,0,1,711.79,421Z" transform="translate(-420.457 -267.915)"/><path class="d" d="M558.79,489H539.135a2.423,2.423,0,0,1-2.421-2.421v-23.2a2.423,2.423,0,0,1,2.421-2.421H558.79a2.423,2.423,0,0,1,2.421,2.421v23.195A2.423,2.423,0,0,1,558.79,489Z" transform="translate(-349.759 -299.337)"/><path class="e" d="M373.79,432H354.135a2.423,2.423,0,0,1-2.421-2.421v-23.2a2.423,2.423,0,0,1,2.421-2.421H373.79a2.423,2.423,0,0,1,2.421,2.421v23.195A2.423,2.423,0,0,1,373.79,432Z" transform="translate(-264.274 -272.998)"/><path class="d" d="M476.79,353H457.135a2.423,2.423,0,0,1-2.421-2.421v-23.2a2.423,2.423,0,0,1,2.421-2.421H476.79a2.423,2.423,0,0,1,2.421,2.421v23.195A2.423,2.423,0,0,1,476.79,353Z" transform="translate(-311.868 -236.494)"/><path class="f" d="M437.651,253.8H406.99a2.152,2.152,0,0,1,0-4.3h30.661a2.152,2.152,0,0,1,0,4.3Z" transform="translate(-288.822 -201.622)"/><path class="f" d="M598.651,253.8H567.99a2.152,2.152,0,0,1,0-4.3h30.661a2.152,2.152,0,0,1,0,4.3Z" transform="translate(-363.217 -201.622)"/><path class="f" d="M749.651,253.8H718.99a2.152,2.152,0,0,1,0-4.3h30.661a2.152,2.152,0,1,1,0,4.3Z" transform="translate(-432.991 -201.622)"/><path class="f" d="M890.651,253.8H859.99a2.152,2.152,0,0,1,0-4.3h30.661a2.152,2.152,0,0,1,0,4.3Z" transform="translate(-498.144 -201.622)"/><path class="g" d="M322.306,531.89a5.409,5.409,0,0,1-4.68-6.848l-13.788-12.835,7.29-1.849,13.559,11a5.439,5.439,0,0,1-2.381,10.536Z" transform="translate(-242.151 -322.161)"/><path class="g" d="M184.4,544.4H191l3.137-25.437H184.4Z" transform="translate(-85.209 -239.805)"/><path class="h" d="M0,0H20.726V8.008H8.008A8.008,8.008,0,0,1,0,0H0Z" transform="translate(118.506 310.72) rotate(179.997)"/><path class="g" d="M100.345,536.286l6.373,1.7,9.575-23.774-9.406-2.5Z" transform="translate(-46.367 -236.451)"/><path class="h" d="M0,0H20.726V8.008H8.008A8.008,8.008,0,0,1,0,0H0Z" transform="matrix(-0.966, -0.257, 0.257, -0.966, 71.066, 310.722)"/><path class="h" d="M342.091,617.139H332.028a2.544,2.544,0,0,1-2.542-2.309l-6.109-63.438a2.016,2.016,0,0,0-3.938-.385L301.7,610.286a2.551,2.551,0,0,1-3.066,1.746l-9.361-2.341a2.554,2.554,0,0,1-1.854-3.113c.153-.6,15.283-59.724,15.415-60.332,3.428-25.265,7.529-32.035,9.733-35.672.182-.3.35-.578.5-.839.189-.327,1.352-3.574,2.089-5.683a2.576,2.576,0,0,1,1.31-1.6c9.258-4.735,20.09-1.457,23.189-.34a2.518,2.518,0,0,1,1.258.977c9.3,14.024,4.735,95.476,3.726,111.662A2.556,2.556,0,0,1,342.091,617.139Z" transform="translate(-234.528 -317.358)"/><circle class="g" cx="13.212" cy="13.212" r="13.212" transform="translate(68.382 112.673)"/><path class="f" d="M324.67,472.63l-.095-.092c-.178-.172-17.781-17.418-15.5-33.364.974-6.821,6.493-11.179,15.959-12.6a14.6,14.6,0,0,1,16.137,10.286l9.36,32Z" transform="translate(-244.476 -283.371)"/><path class="f" d="M308.941,493.842,296.4,481.378a7.067,7.067,0,0,1-1.872-6.666l6.072-24.7a5.57,5.57,0,1,1,10.752,2.9l-6.393,21.73,10.338,11.1Z" transform="translate(-237.756 -292.317)"/><path class="g" d="M425.3,449.4a5.409,5.409,0,0,1-8.006,2.167l-16.745,8.679.74-7.373,14.845-9.187A5.439,5.439,0,0,1,425.3,449.4Z" transform="translate(-286.842 -290.412)"/><path class="f" d="M388.666,450.261l-16.324,7.054a6.89,6.89,0,0,1-6.712-.72l-20.758-14.873a5.57,5.57,0,1,1,6.689-8.9l17.8,14.008,14.147-5.473Z" transform="translate(-260.038 -285.785)"/><path class="h" d="M317.613,384.69c1.63-2.042,4.675-2.152,6.914-3.5,2.933-1.765,4.145-5.708,3.2-9a11.288,11.288,0,0,0-6.927-7.079,19.117,19.117,0,0,0-10.121-.649c-5.019.882-9.96,3.225-13.021,7.3s-3.84,10.041-1.066,14.315c1.275,1.965,3.243,3.586,3.752,5.872.668,3-1.437,5.9-3.692,7.986-2.57,2.381-5.517,4.375-7.769,7.059s-3.752,6.351-2.725,9.7a9.806,9.806,0,0,0,6.111,5.909,25.9,25.9,0,0,0,8.672,1.242c2.849.056,5.876-.014,8.276-1.55a9.624,9.624,0,0,0,4.043-7.814,18.506,18.506,0,0,0-2.283-8.765,33.7,33.7,0,0,1-2.3-4.938,6.922,6.922,0,0,1,.232-5.305,6.615,6.615,0,0,1,4.628-3.063c.1-.019.2-.036.308-.051a3.98,3.98,0,0,0,3.407-4.641A3.886,3.886,0,0,1,317.613,384.69Z" transform="translate(-233.829 -254.571)"/><path class="i" d="M474.869,545.449h-6.595l-3.137-25.437h9.733Z" transform="translate(-214.931 -240.289)"/><path class="h" d="M455.333,563.8h12.718V571.8H447.325A8.008,8.008,0,0,1,455.333,563.8Z" transform="translate(-206.7 -260.521)"/><path class="i" d="M555.5,533.537l-6,2.74-13.423-21.834,8.854-4.044Z" transform="translate(-247.712 -235.847)"/><path class="h" d="M8.008,0H20.726V8.008H0A8.008,8.008,0,0,1,8.008,0Z" transform="translate(289.437 304.002) rotate(-24.548)"/><path class="i" d="M718.138,546.127a5.409,5.409,0,0,0,.431-8.283l7.752-17.59-9.849,1.669-5.852,16.448a5.439,5.439,0,0,0,7.517,7.756Z" transform="translate(-429.555 -326.734)"/><path class="h" d="M661.166,632.356h-6.3a2.43,2.43,0,0,1-2.414-2.245l-3.436-91.747a2.421,2.421,0,0,1,2.649-2.585l36.436,3.869a2.421,2.421,0,0,1,2.185,2.363l.764,40.471a1.877,1.877,0,0,0,.126.642l14.946,38.758a2.42,2.42,0,0,1-1.422,3.142l-6.384,2.352a2.421,2.421,0,0,1-2.989-1.164l-18.361-35.7a2.407,2.407,0,0,1-.217-.615l-3.137-15.112a1.883,1.883,0,0,0-3.714.168l-6.327,55.257A2.42,2.42,0,0,1,661.166,632.356Z" transform="translate(-401.649 -333.903)"/><circle class="i" cx="13.212" cy="13.212" r="13.212" transform="translate(249.443 106.301)"/><path class="c" d="M672.516,492.292a47.156,47.156,0,0,1-25.214-7.638l-.129-.089.013-.156,5.054-58.857a8.3,8.3,0,0,1,7.853-7.564c6.55-.3,15.347.079,20.057,3.586a22.966,22.966,0,0,1,9.411,21.9c-2.356,17.869.313,41.973.625,44.663l.023.194-.177.081a41.562,41.562,0,0,1-17.516,3.879Z" transform="translate(-400.8 -279.441)"/><path class="c" d="M718.979,499.912a2.693,2.693,0,0,1-1.98-.872l-2.89-3.153a2.7,2.7,0,0,1-.6-2.579L720.1,471l-10.027-21.056a4.739,4.739,0,0,1,8.45-4.284l13.606,22.077a6.429,6.429,0,0,1,.387,6.024l-11.086,24.564a2.683,2.683,0,0,1-2.026,1.549A2.714,2.714,0,0,1,718.979,499.912Z" transform="translate(-429.654 -291.115)"/><path class="i" d="M551.992,461.009a5.409,5.409,0,0,0,8.068-1.924l19.063,2.472-4.381-8.977-17.431-.971a5.439,5.439,0,0,0-5.319,9.4Z" transform="translate(-355.792 -294.819)"/><path class="c" d="M603.183,450.126a7.222,7.222,0,0,1-.992-.069L572.2,445.9a2.981,2.981,0,0,1-2.287-1.674,3.05,3.05,0,0,1-.171-.446h0a2.993,2.993,0,0,1,.309-2.384l2.482-4.114a3,3,0,0,1,2.558-1.445h0l26.141.03,19.523-17.492a5.29,5.29,0,0,1,7.251,7.7l-19.481,21.666A7.189,7.189,0,0,1,603.183,450.126Z" transform="translate(-364.966 -279.033)"/><path class="h" d="M664.088,378.547c1.207-2.794,2.229-6.516-.087-8.491-1.343-1.146-3.278-1.148-5.038-1.291-4.958-.4-10.062-2.683-12.486-7.027s-1.07-10.8,3.5-12.764c3.082-1.321,6.615-.421,9.841.494l9.686,2.747c2.878.816,5.9,1.716,7.971,3.874,3.3,3.441,3.057,9.258.433,13.242s-6.577,8.139-11.1,9.652Z" transform="translate(-399.931 -247.281)"/><path class="b" d="M586.945,738.4H189.8a.641.641,0,0,1,0-1.281H586.945a.641.641,0,0,1,0,1.281Z" transform="translate(-189.162 -426.946)"/></g></svg>