<svg xmlns="http://www.w3.org/2000/svg" width="174.404" height="128.902" viewBox="0 0 174.404 128.902"><defs><style>.a{fill:#f2f2f2;}.b{fill:#2f2e41;}.c{fill:#6c63ff;}.d{opacity:0.3;}.e{opacity:0.1;}.f{fill:#3f3d56;}.g{fill:#ffb9b9;}.h{fill:#d0cde1;}</style></defs><g transform="translate(0 0.031)"><circle class="a" cx="26.568" cy="26.568" r="26.568" transform="translate(0 73.894)"/><path class="b" d="M171.555,225.243A56.135,56.135,0,1,1,211.249,208.8a56.135,56.135,0,0,1-39.694,16.442Zm0-111.842a55.707,55.707,0,1,0,55.707,55.707A55.77,55.77,0,0,0,171.555,113.4Z" transform="translate(-112.849 -112.998)"/><path class="c" d="M212.541,170.995l-.006,0L184.868,186.4l-30.3-15.148-.522-.261,1.572-31.447,27.359-19.5.3.189L211.6,137.975Z" transform="translate(-124.589 -97.117)"/><path class="d" d="M214.743,307.981l-27.667,15.406-30.3-15.148,26.837-18.815Z" transform="translate(-126.797 -234.1)"/><path class="e" d="M328.245,171.793l-31.133-18.554,1.874-32.2L327.3,138.773Z" transform="translate(-240.293 -97.915)"/><path class="a" d="M159.515,189.244l-.154-.218L187.026,169.5l29.224,18.322-.142.226L187.034,169.82Z" transform="translate(-128.885 -137.11)"/><path class="a" d="M156.729,248.65l-.15-.22L184.1,229.743l.072.041L214.024,246.7l-.132.232-29.777-16.876Z" transform="translate(-126.635 -185.832)"/><path class="a" d="M211.682,202.961l-.14-.226,27.74-17.189V152.594h.266v33.1Z" transform="translate(-171.087 -123.437)"/><path class="a" d="M268.611,234.515l-.142-.226,26.71-16.753V184.879h.266v32.8Z" transform="translate(-217.127 -149.548)"/><path class="a" d="M276.24,205.946l-31.064-17.26,0-.083,1.635-32.322.266.014-1.631,32.239,30.919,17.179Z" transform="translate(-198.289 -126.419)"/><path class="a" d="M226.61,239.262l-30.715-16.1,0-.085,1.811-32.338.266.015-1.806,32.253,30.563,16.016Z" transform="translate(-158.432 -154.29)"/><circle class="f" cx="10.713" cy="10.713" r="10.713" transform="translate(82.489 1.475)"/><path class="g" d="M986.137,470.21l2.449,6.707s-2.555,7.666,0,7.879,2.874-7.346,2.874-7.346l-1.384-8.091Z" transform="translate(-817.055 -401.233)"/><path class="h" d="M983.256,359.128l1.81,1.81v8.624s1.065,1.6.852,2.023-.426.426-.213.745.426.532.213.745a.8.8,0,0,0,0,.958c.213.213.639.532.32.852s-.745.106-.32,1.278,1.171,1.49.958,1.916a4.793,4.793,0,0,0-.213,1.491l-4.578.639-.958-12.031Z" transform="translate(-813.003 -312.083)"/><path class="f" d="M886.676,352.464l-5.323.213.213,2.236,4.685-.852Z" transform="translate(-712.804 -285.084)"/><path class="g" d="M829.939,187.953l-.639,6.388,6.495.958.479-3.673.479-3.673Z" transform="translate(-670.705 -152.034)"/><path class="e" d="M829.939,187.953l-.639,6.388,6.495.958.479-3.673.479-3.673Z" transform="translate(-670.705 -152.034)"/><path class="g" d="M860.875,459.894l3.62,7.772s.639,3.62,1.6,3.726,1.916-3.726,1.916-3.726l-1.277-2.023-1.491-5.749Z" transform="translate(-715.748 -393.579)"/><path class="b" d="M877.258,485.381l-2.981,4.684s-2.874,44.609-2.449,44.29,1.81-.426,2.342-1.278,3.833,0,3.833,0l1.916-2.023v-1.6c0-.319,3.833-24.7,3.833-24.7v6.175s-1.171,22.677.745,22.465a43.16,43.16,0,0,0,5.856-1.491s5.643-42.374,3.939-43.971-2.449-5.217-2.449-5.217Z" transform="translate(-724.572 -412.039)"/><circle class="g" cx="5.11" cy="5.11" r="5.11" transform="translate(157.69 27.774)"/><path class="h" d="M859.415,337.842l-.745-.426a12.076,12.076,0,0,0-4.365,7.24c-1.065,5-1.81,6.282-1.81,6.282s-1.065.213-.319.958.745.639.106,1.065-1.065-.426-.639.426.958.639.532,1.171-1.171.532-.745.958-.426,1.384.107,1.81.745.532.745,1.278a3.769,3.769,0,0,0,.213,1.278h5.536s-1.065-2.023-.745-2.449.426-.852.213-1.065-.852.213-.213-.319.852-.213.639-.852-.639-.319-.213-.639.745-.213.532-.532-.639-.319-.213-.532.745,0,.639-.532-.213-.319,0-.532,2.449-7.453,2.449-7.666S859.415,337.842,859.415,337.842Z" transform="translate(-708.007 -294.523)"/><path class="f" d="M757.788,339.659l-6.707.426,1.7,1.6,4.685.107Z" transform="translate(-607.445 -274.728)"/><path class="f" d="M892.322,494.411l-1.384,2.555a42.727,42.727,0,0,1,5.643,1.065c1.491.532,5.323,1.278,5.323,1.278l.958-3.726Z" transform="translate(-740.062 -421.495)"/><path class="f" d="M859.641,384.385l1.171,3.513,4.685-.958-.532-3.3Z" transform="translate(-695.244 -310.298)"/><path class="h" d="M905.476,309.793s-.319-.213-1.065.213-3.194.639-4.365-.639-2.023-2.342-2.342-2.129-.532,2.662-.532,2.662l-1.065.852-6.281,2.236.532,14.373.958,3.3s-.745,2.555.213,4.046a1.24,1.24,0,0,1-.532,2.023,1.963,1.963,0,0,0-.106,1.491,31.653,31.653,0,0,1-.213,5s9.05,4.046,18.525.532l-1.065-4.046-.532-9.05a6.594,6.594,0,0,0,.426-2.129c-.107-.639,3.194-9.582,3.194-9.582s-.532-4.472-3.3-5.43-3.194-1.916-3.194-1.916S906.008,310.219,905.476,309.793Z" transform="translate(-739.162 -270.094)"/><path class="b" d="M924.8,256.248a2.344,2.344,0,0,1-.327-1.653,5.01,5.01,0,0,0,.143-1.49,14.752,14.752,0,0,1,.857-2.164c.429-.776.224-1.1,1.572-1.347s.8-2,4.347-.1a1.042,1.042,0,0,0,1.082.408c.735-.143,1,.878,1,.878s.49-.286.674.122,1.494-.245,1.494,2.51a11.409,11.409,0,0,1-1.491,5.217s.109-4.635-2.32-5.1-5.042-1.837-5.674-.082A13.384,13.384,0,0,1,924.8,256.248Z" transform="translate(-767.15 -222.708)"/><ellipse class="g" cx="0.479" cy="0.639" rx="0.479" ry="0.639" transform="translate(166.58 33.364)"/><path class="b" d="M942.1,737.951l.749,2.246a7.646,7.646,0,0,0,.749,3.369c.749,1.123,1.5,3.557-1.5,3.744s-4.305-.936-4.305-.936.562-1.5,0-2.059,0-1.685,0-1.685l.562-4.493Z" transform="translate(-777.756 -618.46)"/><path class="b" d="M875.928,737.951l-.749,2.246a7.646,7.646,0,0,1-.749,3.369c-.749,1.123-1.5,3.557,1.5,3.744s4.305-.936,4.305-.936-.562-1.5,0-2.059,0-1.685,0-1.685l-.562-4.493Z" transform="translate(-726.17 -618.46)"/></g></svg>