<svg xmlns="http://www.w3.org/2000/svg" width="495.445" height="269.499" viewBox="0 0 495.445 269.499"><defs><style>.a{fill:#f2f2f2;}.b{fill:#fff;}.c{fill:#ccc;}.d{fill:#2f2e41;}.e{fill:#a0616a;}.f{fill:#6c63ff;}.g{fill:#3f3d56;}.h{fill:#ffb8b8;}.i{opacity:0.2;}.j{fill:#e6e6e6;}.k{fill:#ff6584;}</style></defs><g transform="translate(0 0)"><path class="a" d="M318.628,577.607A252.076,252.076,0,0,1,316.251,610c-.052.377-.109.754-.161,1.131l-101.483-.567c-.3-.374-.591-.753-.875-1.137-.947-1.269-1.835-2.574-2.651-3.924-3.918-6.5-5.712-14.118-3.914-19.371l.032-.082a9.217,9.217,0,0,1,1.8-3.126c4.1-4.613,12.385-3.844,19.9-.121-6.745-7.383-12.115-16.7-12.523-25.014-.4-8.111,3.841-13.905,8.441-18.829.151-.163.3-.321.453-.479.073-.081.151-.158.224-.24,3.589-3.753,7.773-7.452,13.83-7,6.642.492,14.007,6.055,19.17,12.538s8.595,13.838,12.073,21.021,7.25,14.54,12.839,20.675c-7.569-9.574-13.671-20.466-15.926-31.06s-.27-20.769,6.475-25.758a15.776,15.776,0,0,1,6.911-2.789c.291-.048.587-.088.887-.122,6.245-.711,13.7,1.449,20.044,6.612,6.986,5.684,11.83,14.111,14.24,22.11S318.706,570.162,318.628,577.607Z" transform="translate(-206.467 -343.264)"/><path class="b" d="M252.967,646.362l-1.941-.011q-.924-.578-1.857-1.142c-.385-.243-.775-.477-1.164-.716q-9.655-5.9-19.431-11.313t-19.632-10.341a.813.813,0,0,1-.468-.93.234.234,0,0,1,.032-.068c.092-.172.3-.244.6-.1.807.4,1.618.809,2.425,1.223q9.892,5.005,19.7,10.51t19.49,11.49c.136.083.272.17.408.252Z" transform="translate(-207.202 -378.855)"/><path class="b" d="M288.044,618.483l-1.2-.007c-.271-.379-.537-.758-.807-1.136q-9.538-13.375-19.072-26.751-15.613-21.9-31.217-43.8a.773.773,0,0,1-.135-.264c-.089-.323.148-.513.453-.479a.911.911,0,0,1,.634.4q8.754,12.28,17.5,24.551l31.06,43.572c.658.922,1.317,1.848,1.975,2.77Q287.643,617.916,288.044,618.483Z" transform="translate(-217.258 -350.837)"/><path class="b" d="M347.777,603.9c-.061,2.022-.2,4.012-.37,5.984l-.1,1.131L346.046,611c.039-.377.077-.754.111-1.131.266-2.849.455-5.729.48-8.688a121.2,121.2,0,0,0-2.386-24.43,152.11,152.11,0,0,0-7.39-25.381,174.309,174.309,0,0,0-12.091-25.112.671.671,0,0,1-.111-.446c.052-.359.53-.465.887-.122a1.04,1.04,0,0,1,.181.228q.871,1.5,1.711,3a174.187,174.187,0,0,1,11.572,25.2,151.392,151.392,0,0,1,6.889,25.419A119.568,119.568,0,0,1,347.777,603.9Z" transform="translate(-250.258 -343.219)"/><path class="c" d="M871.7,562.36c0-4.867-18.319-8.813-40.916-8.813s-40.917,3.946-40.917,8.813c0,3.119,7.531,5.858,18.885,7.424v48.285a4.092,4.092,0,0,0,8.183,0V570.654c4.326.335,8.987.519,13.849.519s9.523-.184,13.849-.519v47.415a4.092,4.092,0,0,0,8.183,0V569.784C864.167,568.218,871.7,565.479,871.7,562.36Z" transform="translate(-422.626 -353.616)"/><circle class="d" cx="17.626" cy="17.626" r="17.626" transform="translate(395.055 92.829)"/><path class="e" d="M579.2,397.513h-7.717l-3.671-29.767H579.2Z" transform="translate(-210.384 -136.256)"/><path class="d" d="M559.372,411.531h14.883V420.9H550A9.371,9.371,0,0,1,559.372,411.531Z" transform="translate(-203.785 -152.479)"/><path class="e" d="M562.434,389.468l-7.364-2.311,5.408-29.5,10.867,3.41Z" transform="translate(-205.663 -132.518)"/><path class="d" d="M9.371,0H24.255V9.371H0A9.371,9.371,0,0,1,9.371,0Z" transform="translate(335.865 248.079) rotate(17.423)"/><path class="d" d="M772.218,588.627a2.806,2.806,0,0,1-.99-.18l-5.678-2.129a2.843,2.843,0,0,1-1.771-3.263c1.429-6.427,6.3-28.308,8.969-40.045,3.164-13.921,49.315-16.508,51.278-16.611l.161-.009,5.192,6.524c1.876,6.03,1.281,10.733-1.767,13.98-8.9,9.472-35.457,3.594-38.624,2.851L774.87,586.8A2.841,2.841,0,0,1,772.218,588.627Z" transform="translate(-412.936 -343.554)"/><path class="d" d="M785.218,595.627a2.809,2.809,0,0,1-.99-.18l-5.677-2.129a2.843,2.843,0,0,1-1.771-3.263c1.43-6.427,6.3-28.308,8.969-40.045,3.164-13.921,49.315-16.508,51.278-16.611l.161-.009,5.192,6.524c1.876,6.03,1.281,10.733-1.767,13.98-8.9,9.471-35.457,3.594-38.624,2.851L787.87,593.8A2.841,2.841,0,0,1,785.218,595.627Z" transform="translate(-417.753 -346.148)"/><path class="e" d="M757.14,486.7a6.621,6.621,0,0,1,.557.882l31.046,3.271,4.469-6.127,10.129,5.536-8.778,14.869-38.076-9.708a6.607,6.607,0,1,1,.652-8.723Z" transform="translate(-406.102 -327.88)"/><path class="f" d="M859.132,511.56a2.833,2.833,0,0,1-1.29-.315c-6.208-3.157-18.3-8.624-29.507-9.768a2.765,2.765,0,0,1-1.949-1.1,2.844,2.844,0,0,1-.525-2.21c1.011-5.6,3.332-19.858,3.033-31.286a15.483,15.483,0,0,1,11.7-15.4h0a50.262,50.262,0,0,1,6.24-1.23,15.608,15.608,0,0,1,17.348,18.105c-2,11.843-4.014,28.383-2.263,39.93a2.837,2.837,0,0,1-1.145,2.737,2.788,2.788,0,0,1-1.64.54Z" transform="translate(-435.946 -315.296)"/><path class="f" d="M825.192,484.41a2.832,2.832,0,0,1-1.125-.235l-8.088-3.5a2.836,2.836,0,0,1-1.474-3.725l6.252-14.442a7.239,7.239,0,1,1,13.287,5.751L827.792,482.7a2.839,2.839,0,0,1-2.6,1.71Z" transform="translate(-431.669 -318.267)"/><circle class="e" cx="15.461" cy="15.461" r="15.461" transform="translate(396.575 99.117)"/><path class="d" d="M836.026,399.6a55.766,55.766,0,0,0,24.126,7.949l-2.543-3.047a18.689,18.689,0,0,0,5.773,1.146,6.322,6.322,0,0,0,5.153-2.412,5.881,5.881,0,0,0,.394-5.432,11.139,11.139,0,0,0-3.5-4.381,20.861,20.861,0,0,0-19.416-3.47,12.469,12.469,0,0,0-5.8,3.72c-1.466,1.808-4.287,3.419-3.537,5.622Z" transform="translate(-439.729 -292.621)"/><path class="d" d="M832.121,378.333a47.518,47.518,0,0,0-17.288-11.179c-4.179-1.548-8.728-2.5-13.1-1.625s-8.5,3.9-9.719,8.188c-1,3.505.032,7.279,1.579,10.579s3.612,6.359,4.862,9.782a22.326,22.326,0,0,1-22.466,29.94c4.293.576,8.25,2.593,12.445,3.667s9.148,1,12.266-2.005c3.3-3.18,3.365-8.351,3.206-12.931l-.711-20.424c-.121-3.472-.224-7.055,1.028-10.3s4.228-6.078,7.7-6.049c2.633.022,4.963,1.617,7.075,3.19s4.346,3.251,6.969,3.485,5.617-1.707,5.421-4.332" transform="translate(-417.486 -283.828)"/><path class="e" d="M815.663,521.688a6.927,6.927,0,1,1,2.67-13.322h0a6.658,6.658,0,0,1,.826.418l28.164-12.644.791-7.638,12.14-.325-.08,12.717a6.849,6.849,0,0,1-4.948,6.511l-32.936,9.375a6.482,6.482,0,0,1-.226.641,6.953,6.953,0,0,1-6.4,4.268Z" transform="translate(-429.621 -329.395)"/><path class="f" d="M880.766,483.245a2.83,2.83,0,0,1-1.109.3l-8.8.541a2.836,2.836,0,0,1-3-2.653l-.966-15.707a7.239,7.239,0,0,1,14.451-.889l.966,15.707a2.839,2.839,0,0,1-1.544,2.7Z" transform="translate(-451.161 -318.23)"/><path class="g" d="M2.2,0H51.932a2.2,2.2,0,0,1,2.2,2.2h0a2.2,2.2,0,0,1-2.2,2.2H2.2A2.2,2.2,0,0,1,0,2.2H0A2.2,2.2,0,0,1,2.2,0Z" transform="translate(412.691 193.881) rotate(180)"/><path class="g" d="M745.07,516.872V486.028a4.1,4.1,0,0,1,4.092-4.092h56.024a4.1,4.1,0,0,1,4.092,4.092v30.845a4.1,4.1,0,0,1-4.092,4.092H749.162a4.1,4.1,0,0,1-4.092-4.092Z" transform="translate(-406.028 -327.083)"/><circle class="b" cx="3.777" cy="3.777" r="3.777" transform="translate(367.368 170.59)"/><path class="h" d="M465.8,448.554a6.33,6.33,0,0,0-9.644-1.1l-19.989-10.317,1.243,11.623,18.791,8.016a6.364,6.364,0,0,0,9.6-8.223Z" transform="translate(-291.576 -310.485)"/><path class="c" d="M426.795,428.4a2.836,2.836,0,0,1-2.31.025L405.5,420.184A29.191,29.191,0,0,1,390.73,405.9l-9.982-21.07a9.125,9.125,0,0,1,14.416-11.193l17.545,32.553,16.2,12.238a2.842,2.842,0,0,1,1,3.1l-1.59,5.136a2.837,2.837,0,0,1-.959,1.392A2.8,2.8,0,0,1,426.795,428.4Z" transform="translate(-270.33 -285.648)"/><circle class="h" cx="15.461" cy="15.461" r="15.461" transform="translate(94.517 43.478)"/><path class="h" d="M184.66,398.306h7.717l3.672-29.767h-11.39Z" transform="translate(-68.419 -136.55)"/><path class="d" d="M0,0H24.254V9.371H9.371A9.371,9.371,0,0,1,0,0H0Z" transform="translate(138.84 268.922) rotate(179.997)"/><path class="h" d="M144.66,398.306h7.717l3.672-29.767H144.658Z" transform="translate(-53.598 -136.55)"/><path class="d" d="M0,0H24.254V9.371H9.371A9.371,9.371,0,0,1,0,0H0Z" transform="translate(113.661 268.922) rotate(179.997)"/><path class="d" d="M346.434,577.262a2.832,2.832,0,0,1-.677-2.24l13.512-101.337,33.569,5.7,3.583-2.15-9.264,96.15a2.841,2.841,0,0,1-2.578,2.5l-10.165.847a2.832,2.832,0,0,1-3.063-2.985l2.632-45.79a.315.315,0,0,0-.618-.1l-13.02,48.281a2.838,2.838,0,0,1-2.735,2.1h-9.044a2.832,2.832,0,0,1-2.131-.967Z" transform="translate(-258.067 -324.026)"/><path class="c" d="M370.114,439.625a2.224,2.224,0,0,0-2.843-.119l-6.711,5.22a2.83,2.83,0,0,1-4.461-1.452c-3.292-11.529-10.751-40.55-8.913-60.976,1.042-11.578,11.039-20.377,22.287-19.639,7.69.513,12.748,4.949,15.036,13.184,5.617,20.22,11.789,57.311,12.969,64.541a2.82,2.82,0,0,1-1.345,2.889,20.735,20.735,0,0,1-10.507,2.958C381.144,446.231,375.771,444.671,370.114,439.625Z" transform="translate(-258.499 -282.873)"/><path class="h" d="M374.577,480.328a6.33,6.33,0,0,0-6.911-6.815L358.3,453.059l-6.2,9.913,9.84,17.9a6.364,6.364,0,0,0,12.628-.547Z" transform="translate(-260.43 -316.384)"/><path class="c" d="M352.054,442.562a2.836,2.836,0,0,1-1.833-1.406l-9.857-18.2a29.191,29.191,0,0,1-2.8-20.357l5.148-22.739a9.125,9.125,0,0,1,18.25.089l-6.283,36.442,5.2,19.628a2.842,2.842,0,0,1-1.126,3.054l-4.421,3.06a2.836,2.836,0,0,1-1.614.5,2.8,2.8,0,0,1-.657-.078Z" transform="translate(-254.772 -285.899)"/><path class="i" d="M163.362,173.828l-5.665,23.92,8.183,20.143-5.665-19.514Z" transform="translate(-58.429 -64.406)"/><path class="d" d="M358.875,330.127a10.412,10.412,0,0,1-4.021-.728c-.563-.217-1.147-.4-1.709-.612-4.961-1.917-8.23-7.2-8.347-12.518a18.027,18.027,0,0,1,6.726-13.88,26.028,26.028,0,0,1,14.689-5.551c5.713-.435,12.145,1.014,15.338,5.771a5.011,5.011,0,0,1,.94,4.332,2.772,2.772,0,0,1-.781,1.2c-1.426,1.268-2.847.315-4.3.23a4.754,4.754,0,0,0-4.436,3.4,10.231,10.231,0,0,0,.16,5.911,14.767,14.767,0,0,1,.744,3.594,3.614,3.614,0,0,1-1.5,3.182c-1.248.754-2.887.318-4.136-.435a28.728,28.728,0,0,0-3.677-2.355c-1.349-.554-3.162-.431-3.947.8a4.366,4.366,0,0,0-.5,1.441c-.7,3.207-.542,3.018-1.246,6.225Z" transform="translate(-257.72 -258.474)"/><path class="j" d="M579.77,412.158a2.72,2.72,0,0,1-.508-2.332,64.414,64.414,0,0,0,0-29.916,2.72,2.72,0,0,1,.508-2.332,2.674,2.674,0,0,1,2.112-1.023h25.1a2.708,2.708,0,0,1,2.667,2.27,105.432,105.432,0,0,1,0,32.088,2.708,2.708,0,0,1-2.667,2.27h-25.1a2.674,2.674,0,0,1-2.112-1.023Z" transform="translate(-344.565 -288.037)"/><path class="j" d="M518.089,271.54a2.718,2.718,0,0,1-.508-2.332,64.418,64.418,0,0,0,0-29.916,2.718,2.718,0,0,1,.508-2.332,2.673,2.673,0,0,1,2.112-1.024h25.1a2.709,2.709,0,0,1,2.667,2.27,105.431,105.431,0,0,1,0,32.088,2.708,2.708,0,0,1-2.667,2.27H520.2A2.673,2.673,0,0,1,518.089,271.54Z" transform="translate(-321.711 -235.936)"/><path class="f" d="M615.822,319.312a105.428,105.428,0,0,1,0-32.088,2.708,2.708,0,0,1,2.667-2.27h25.1a2.673,2.673,0,0,1,2.112,1.024,2.719,2.719,0,0,1,.508,2.332,64.415,64.415,0,0,0,0,29.916,2.717,2.717,0,0,1-.508,2.332,2.673,2.673,0,0,1-2.112,1.024h-25.1A2.708,2.708,0,0,1,615.822,319.312Z" transform="translate(-357.685 -254.098)"/><path class="k" d="M448.9,317.532a105.445,105.445,0,0,1,0-32.088,2.708,2.708,0,0,1,2.667-2.27h25.1a2.673,2.673,0,0,1,2.112,1.024,2.719,2.719,0,0,1,.508,2.332,64.414,64.414,0,0,0,0,29.916,2.718,2.718,0,0,1-.508,2.332,2.673,2.673,0,0,1-2.112,1.024h-25.1a2.708,2.708,0,0,1-2.668-2.27Z" transform="translate(-295.837 -253.438)"/><path class="f" d="M459.133,434.125a2.764,2.764,0,0,1-.517-2.371,65.466,65.466,0,0,0,0-30.408,2.765,2.765,0,0,1,.517-2.371,2.718,2.718,0,0,1,2.147-1.04h25.511a2.752,2.752,0,0,1,2.711,2.307,107.158,107.158,0,0,1,0,32.615,2.752,2.752,0,0,1-2.711,2.307H461.28A2.718,2.718,0,0,1,459.133,434.125Z" transform="translate(-299.863 -295.96)"/><path class="g" d="M218.608,663.182H705.383a.749.749,0,0,0,0-1.5H218.608a.75.75,0,1,0,0,1.5Z" transform="translate(-210.688 -393.682)"/><path class="b" d="M486.579,417.063H473.14a1.89,1.89,0,0,1-1.888-1.888v-.8a1.891,1.891,0,0,1,1.888-1.888H486.58a1.89,1.89,0,0,1,1.888,1.888v.8a1.89,1.89,0,0,1-1.889,1.888Z" transform="translate(-304.574 -301.35)"/><path class="b" d="M486.579,429.61H473.14a1.89,1.89,0,0,1-1.888-1.888v-.8a1.891,1.891,0,0,1,1.888-1.888H486.58a1.89,1.89,0,0,1,1.888,1.888v.8a1.89,1.89,0,0,1-1.889,1.888Z" transform="translate(-304.574 -305.999)"/><path class="b" d="M472.6,305.193H459.426a1.89,1.89,0,0,1-1.888-1.888v-.738a1.891,1.891,0,0,1,1.888-1.888H472.6a1.89,1.89,0,0,1,1.888,1.888v.738A1.89,1.89,0,0,1,472.6,305.193Z" transform="translate(-299.493 -259.924)"/><path class="b" d="M606.277,393.323H593.106a1.89,1.89,0,0,1-1.888-1.888V390.7a1.89,1.89,0,0,1,1.888-1.888h13.171a1.891,1.891,0,0,1,1.889,1.888v.738a1.89,1.89,0,0,1-1.889,1.888Z" transform="translate(-349.024 -292.578)"/><path class="b" d="M606.277,408.135H593.106a1.89,1.89,0,0,1-1.888-1.888v-.738a1.89,1.89,0,0,1,1.888-1.888h13.171a1.89,1.89,0,0,1,1.888,1.888v.738A1.89,1.89,0,0,1,606.277,408.135Z" transform="translate(-349.024 -298.066)"/><path class="b" d="M606.277,422.949H593.106a1.891,1.891,0,0,1-1.888-1.888v-.738a1.89,1.89,0,0,1,1.888-1.888h13.171a1.891,1.891,0,0,1,1.889,1.888v.738a1.89,1.89,0,0,1-1.889,1.889Z" transform="translate(-349.024 -303.555)"/><path class="b" d="M472.6,317.538H459.426a1.89,1.89,0,0,1-1.888-1.888v-.738a1.891,1.891,0,0,1,1.888-1.888H472.6a1.891,1.891,0,0,1,1.888,1.888v.738A1.89,1.89,0,0,1,472.6,317.538Z" transform="translate(-299.493 -264.498)"/><path class="b" d="M544.775,255.174H531.6a1.891,1.891,0,0,1-1.888-1.888v-.738a1.891,1.891,0,0,1,1.888-1.888h13.171a1.891,1.891,0,0,1,1.888,1.888v.738a1.891,1.891,0,0,1-1.888,1.888Z" transform="translate(-326.236 -241.391)"/><path class="b" d="M640.249,308.208H627.078a1.89,1.89,0,0,1-1.888-1.888v-.738a1.89,1.89,0,0,1,1.888-1.888h13.171a1.891,1.891,0,0,1,1.888,1.888v.738a1.891,1.891,0,0,1-1.888,1.888Z" transform="translate(-361.611 -261.041)"/></g></svg>