<svg xmlns="http://www.w3.org/2000/svg" width="465.08" height="381.732" viewBox="0 0 465.08 381.732"><defs><style>.a{fill:#e6e6e6;}.b{fill:#9f616a;}.c{fill:#2f2e41;}.d{fill:#d0cde1;}.e{fill:#6c63ff;}.f{fill:#fff;}</style></defs><g transform="translate(0 -0.206)"><path class="a" d="M913.842,728.707c.142,14.882-93.635,16.245-95.421,0C818.278,713.827,912.055,712.463,913.842,728.707Z" transform="translate(-448.762 -358.447)"/><path class="b" d="M619.834,507.569l-6.97,3.8,4.435,14.572,6.969.634,3.8-8.236Z" transform="translate(-228.124 -188.972)"/><path class="b" d="M658.28,553.994v6.969l10.771-.633-.15-5.74Z" transform="translate(-245.029 -206.252)"/><path class="c" d="M619.929,374.348l3.8,47.519,12.038,69.693,19.007-2.534L648.44,433.9l2.534-50.686Z" transform="translate(-230.754 -139.383)"/><path class="c" d="M900.194,463.6l-45.617.634-5.069,34.847,31.045,14.572,7.6,27.877L849.509,582.71l15.206,19.007S886.256,572.573,902.1,556.1s8.237-66.526,8.237-66.526Z" transform="translate(-460.334 -264.113)"/><circle class="b" cx="13.939" cy="13.939" r="13.939" transform="translate(398.679 81.64)"/><path class="b" d="M878.777,309.464V323.4l9.5,15.206s14.572-10.771,11.4-13.305-3.8-22.175-3.8-22.175Z" transform="translate(-471.228 -204.382)"/><path class="d" d="M643.562,183.992l-9.5,11.4,3.8,79.2,29.778-.633,5.069-69.059-6.336-17.74-4.346-5.913-7.692,11.615Z" transform="translate(-236.013 -67.506)"/><path class="c" d="M841.782,380.083l-6.969,26.61,6.969,26.61-11.4,15.206-10.137-48.152s7.6-39.282,8.237-43.717,1.9-5.069,1.9-5.069l5.069.634Z" transform="translate(-449.44 -222.414)"/><path class="c" d="M705.714,244.452l4.435,8.237,1.268,13.938-2.534,15.839,8.87,14.572,8.87-39.916-9.5-51.32h-3.8Z" transform="translate(-262.686 -76.647)"/><path class="c" d="M841.754,652.327s-8.87,2.534-12.038,3.168,1.9,12.672,1.9,12.672,3.168,16.473,3.8,19.641,5.068,13.939,10.771,15.206,1.9-22.175,1.9-22.175,2.534-7.6,2.534-10.137-3.8-1.267-3.8-1.267C836.685,668.166,841.754,652.327,841.754,652.327Z" transform="translate(-452.579 -334.363)"/><path class="c" d="M882.764,720.985c.634,3.8-.634,3.8,9.5,5.069s7.6-6.969,7.6-6.969a53.242,53.242,0,0,0-2.534-11.4c-1.9-5.069-12.038,1.267-12.038,1.267S882.131,717.183,882.764,720.985Z" transform="translate(-472.681 -354.235)"/><path class="c" d="M889.138,288.884l.33,5.635a63.783,63.783,0,0,0,4.722-18.749c.634-9.5-10.138-11.4-16.473-12.038s-17.107,3.8-17.107,8.87,11.4,3.8,15.839,2.534,6.336,9.5,6.336,9.5l2.534.634Z" transform="translate(-464.466 -189.695)"/><path class="d" d="M643.24,190.107l3.74-4.487,10.771,8.87-10.771,7.6Z" transform="translate(-239.431 -69.134)"/><path class="d" d="M678.392,187.285l-4.435-5.7-7.6,11.4,9.5,6.97Z" transform="translate(-248.035 -67.631)"/><path class="c" d="M846.268,380.876l2.534,24.076-5.069,14.572-3.168,13.939s0,13.305,12.672,13.939,23.442-39.915,23.442-39.915,1.9,8.87,3.168,13.939,22.809,25.343,22.809,25.343,5.068-.634,9.5-10.771-8.87-19.641-8.87-19.641l-3.8-13.305,1.267-16.473,8.87-43.083-26.294-13.622,2.851,36.431-9.5,28.511-14.255-63.041-4.752,3.485L837.4,343.5Z" transform="translate(-455.826 -214.337)"/><path class="d" d="M382.654,423.841c-1.253-.01-2.52-.018-3.765-.057l.039-1.255c1.232.038,2.491.055,3.726.056s2.5-.02,3.759-.061l.04,1.254C385.186,423.821,383.908,423.841,382.654,423.841Zm-11.312-.53c-2.5-.237-5.024-.557-7.5-.953l.2-1.24c2.452.391,4.95.709,7.423.943ZM394,423.3l-.12-1.249c2.472-.237,4.969-.557,7.421-.952l.2,1.24c-2.478.4-5,.723-7.5.962Zm-37.586-2.372c-2.447-.555-4.91-1.2-7.318-1.909l.356-1.2c2.383.7,4.819,1.34,7.24,1.888Zm52.512-.031-.279-1.224c2.427-.554,4.862-1.192,7.238-1.9l.357,1.2c-2.4.713-4.863,1.358-7.317,1.917Zm-67.012-4.254c-2.362-.867-4.724-1.823-7.023-2.84l.508-1.148c2.274,1.005,4.611,1.951,6.947,2.809Zm81.506-.049-.434-1.178c2.322-.855,4.651-1.8,6.923-2.808l.509,1.148c-2.3,1.019-4.651,1.974-7,2.838Zm-95.351-6.077c-2.222-1.16-4.442-2.411-6.6-3.716l.651-1.074c2.131,1.293,4.327,2.529,6.525,3.677Zm109.153-.046-.581-1.113c2.194-1.147,4.384-2.384,6.509-3.675l.652,1.073c-2.149,1.306-4.363,2.555-6.581,3.715Zm-122.091-7.8c-2.058-1.436-4.1-2.96-6.064-4.527l.783-.982c1.945,1.551,3.963,3.058,6,4.479Zm135-.045-.72-1.029c2.036-1.423,4.052-2.93,5.991-4.479l.783.981c-1.96,1.566-4,3.088-6.055,4.526Zm-146.828-9.388c-1.861-1.689-3.69-3.459-5.436-5.259l.9-.874c1.728,1.782,3.538,3.533,5.379,5.2Zm158.64-.044-.845-.929c1.837-1.668,3.645-3.42,5.376-5.206l.9.873c-1.748,1.806-3.577,3.576-5.432,5.263ZM292.78,382.383c-1.629-1.91-3.218-3.9-4.722-5.906l1.005-.753c1.488,1.988,3.06,3.954,4.672,5.843Zm179.686-.052-.955-.814c1.612-1.891,3.184-3.86,4.672-5.85l1.005.752c-1.5,2.011-3.093,4-4.722,5.912ZM283.724,370.283c-1.374-2.1-2.7-4.275-3.929-6.456l1.093-.618c1.22,2.157,2.528,4.307,3.887,6.387Zm197.8-.068-1.052-.685c1.36-2.085,2.667-4.238,3.888-6.4l1.094.617c-1.234,2.186-2.556,4.362-3.93,6.469ZM276.289,357.133c-1.092-2.26-2.125-4.582-3.067-6.9l1.163-.472c.933,2.3,1.954,4.593,3.035,6.828Zm212.672-.1-1.131-.546c1.08-2.239,2.1-4.543,3.036-6.849l1.164.471c-.944,2.332-1.977,4.661-3.069,6.924Zm-218.36-13.9c-.794-2.385-1.52-4.824-2.157-7.251l1.214-.319c.63,2.4,1.348,4.814,2.133,7.172ZM494.646,343l-1.192-.395c.781-2.356,1.5-4.77,2.125-7.175l1.215.318c-.636,2.431-1.359,4.871-2.149,7.253ZM266.76,328.512c-.48-2.463-.886-4.975-1.206-7.466l1.245-.161c.318,2.465.719,4.949,1.194,7.386Zm231.711-.138-1.232-.238c.471-2.436.87-4.922,1.184-7.389l1.246.159c-.318,2.492-.722,5-1.2,7.467ZM264.827,313.519c-.161-2.5-.244-5.046-.247-7.56h1.256c0,2.488.085,5,.244,7.481Zm235.558-.14-1.253-.08c.156-2.474.235-4.99.235-7.479v-.275h1.255v.271c0,2.519-.08,5.062-.238,7.562Zm-234.322-14.9-1.253-.077c.156-2.507.394-5.041.708-7.53l1.246.157C266.452,293.491,266.217,296,266.063,298.478Zm233.052-.412c-.163-2.482-.408-4.987-.727-7.447l1.245-.162c.323,2.486.571,5.018.736,7.527ZM267.939,283.639l-1.233-.237c.474-2.464,1.035-4.946,1.667-7.377l1.215.316C268.962,278.746,268.408,281.2,267.939,283.639Zm229.245-.4c-.478-2.439-1.042-4.893-1.675-7.293l1.214-.32c.64,2.426,1.21,4.905,1.693,7.371ZM271.705,269.164l-1.192-.394c.788-2.386,1.665-4.779,2.608-7.113l1.164.47C273.352,264.436,272.484,266.8,271.705,269.164Zm221.664-.391c-.788-2.357-1.663-4.717-2.6-7.017l1.162-.474c.948,2.324,1.832,4.71,2.629,7.092Zm-216.056-13.5-1.132-.544c1.089-2.264,2.267-4.523,3.5-6.714l1.094.616C279.555,250.8,278.39,253.034,277.313,255.273Zm210.412-.342c-1.081-2.229-2.251-4.456-3.477-6.618l1.092-.619c1.239,2.185,2.421,4.436,3.513,6.69ZM284.656,242.225l-1.053-.685c1.369-2.1,2.826-4.194,4.328-6.208l1.007.75C287.452,238.076,286.011,240.143,284.656,242.225Zm195.7-.3c-1.359-2.075-2.8-4.135-4.3-6.123l1-.753c1.508,2.01,2.969,4.092,4.342,6.189Zm-186.75-11.7-.956-.813c1.626-1.913,3.336-3.8,5.081-5.6l.9.872C296.9,226.469,295.213,228.335,293.6,230.228Zm177.776-.259c-1.614-1.887-3.311-3.748-5.042-5.529l.9-.875c1.75,1.8,3.465,3.681,5.1,5.588ZM304,219.47l-.845-.928c1.858-1.692,3.793-3.345,5.75-4.911l.785.98c-1.937,1.55-3.851,3.184-5.689,4.859Zm156.95-.228c-1.841-1.667-3.76-3.3-5.706-4.845l.782-.983c1.966,1.565,3.906,3.212,5.766,4.9Zm-145.274-9.118-.72-1.028c2.054-1.44,4.183-2.832,6.326-4.138l.653,1.072C319.815,207.323,317.709,208.7,315.676,210.124Zm133.564-.2c-2.044-1.423-4.157-2.8-6.28-4.08l.65-1.074c2.146,1.3,4.282,2.686,6.347,4.123Zm-120.8-7.577-.583-1.112c2.22-1.164,4.508-2.272,6.8-3.292l.511,1.147C332.9,200.1,330.637,201.2,328.441,202.347Zm107.99-.172c-2.2-1.148-4.477-2.239-6.753-3.243l.507-1.149c2.3,1.015,4.6,2.118,6.826,3.278Zm-94.342-5.9-.436-1.178c2.354-.871,4.768-1.676,7.175-2.394l.359,1.2c-2.381.71-4.769,1.507-7.1,2.368Zm80.639-.143c-2.334-.854-4.725-1.642-7.106-2.343l.354-1.2c2.408.708,4.824,1.505,7.184,2.369ZM356.422,192l-.28-1.224c2.443-.56,4.94-1.047,7.423-1.451l.2,1.24C361.309,190.964,358.838,191.446,356.422,192Zm51.956-.091c-2.421-.546-4.893-1.02-7.349-1.409l.2-1.24c2.482.394,4.981.873,7.428,1.424Zm-37.192-2.3-.121-1.249c2.493-.242,5.032-.407,7.546-.491l.042,1.255c-2.488.083-5,.246-7.467.485Zm22.42-.039c-2.47-.231-4.983-.385-7.468-.459l.037-1.255c2.511.075,5.051.231,7.547.464Z" transform="translate(-242.608 -161.473)"/><ellipse class="e" cx="29" cy="29.5" rx="29" ry="29.5" transform="translate(107 0.206)"/><ellipse class="e" cx="29" cy="29.5" rx="29" ry="29.5" transform="translate(221 80.206)"/><ellipse class="e" cx="29" cy="30" rx="29" ry="30" transform="translate(185 203.206)"/><ellipse class="e" cx="29.5" cy="29" rx="29.5" ry="29" transform="translate(43 209.206)"/><circle class="e" cx="29.5" cy="29.5" r="29.5" transform="translate(0 80.206)"/><path class="f" d="M450.553,180.651H440.261a3.529,3.529,0,0,1-3.529-3.529V166.831a.294.294,0,0,0-.294-.294h-6.763a4.7,4.7,0,0,0-4.7,4.7v23.524a4.7,4.7,0,0,0,4.7,4.7h16.466a4.7,4.7,0,0,0,4.7-4.7v-13.82A.294.294,0,0,0,450.553,180.651Zm-6.763,11.762H432.028a1.176,1.176,0,0,1,0-2.352H443.79a1.176,1.176,0,1,1,0,2.352Zm0-5.881H432.028a1.176,1.176,0,0,1,0-2.352H443.79a1.176,1.176,0,1,1,0,2.352Z" transform="translate(-302.31 -153.539)"/><path class="f" d="M458.276,178.58,447.7,168.009a.147.147,0,0,0-.251.1v9.543a1.176,1.176,0,0,0,1.176,1.176h9.543a.147.147,0,0,0,.1-.251Z" transform="translate(-310.678 -154.071)"/><path class="f" d="M576.451,507.508a1.564,1.564,0,1,0,1.106.458A1.564,1.564,0,0,0,576.451,507.508Z" transform="translate(-358.113 -280.458)"/><path class="f" d="M575.772,496.921v-.005a1.2,1.2,0,0,0-.886-.9c-1.746-.426-4.492.028-7.536,1.247a24.233,24.233,0,0,0-7.885,4.993,18.781,18.781,0,0,0-1.731,1.982,7.679,7.679,0,0,0-3.431.551c-3.383,1.489-4.349,5.3-4.606,6.863a1.465,1.465,0,0,0,1.593,1.7h.008l3.768-.411c0,.048.01.092.014.132a2.012,2.012,0,0,0,.58,1.214l1.839,1.84a2.008,2.008,0,0,0,1.213.581l.126.014-.41,3.764v.008a1.465,1.465,0,0,0,1.306,1.607q.068.007.136.008a1.481,1.481,0,0,0,.243-.02c1.573-.253,5.381-1.207,6.866-4.608a7.747,7.747,0,0,0,.554-3.418,18.445,18.445,0,0,0,1.989-1.731,24.062,24.062,0,0,0,5-7.822C575.731,501.5,576.187,498.733,575.772,496.921ZM569.5,507.166a3.443,3.443,0,1,1,0-4.869l0,0a3.416,3.416,0,0,1,.036,4.83Z" transform="translate(-348.728 -276.123)"/><path class="f" d="M557.842,527.187a.937.937,0,0,0-.645.156c-.374.256-.75.509-1.13.756a.874.874,0,0,1-1.23-1.172l.712-1.23a.937.937,0,0,0-.888-1.459,3.589,3.589,0,0,0-2.087,1.023c-.214.215-.867.868-1.217,3.355a20.954,20.954,0,0,0-.189,2.154.937.937,0,0,0,.913.961h.048a21.094,21.094,0,0,0,2.156-.187c2.488-.352,3.141-1,3.355-1.219a3.544,3.544,0,0,0,1.019-2.094.937.937,0,0,0-.816-1.044Z" transform="translate(-349.283 -286.682)"/><path class="f" d="M326.187,542.7h-2.138a1.6,1.6,0,0,1-1.6-1.6v-9.62a1.6,1.6,0,0,1,1.6-1.6h2.138a1.6,1.6,0,0,1,1.6,1.6v9.62A1.6,1.6,0,0,1,326.187,542.7Z" transform="translate(-264.147 -288.783)"/><path class="f" d="M350.024,538.9h-2.138a1.6,1.6,0,0,1-1.6-1.6V521.262a1.6,1.6,0,0,1,1.6-1.6h2.138a1.6,1.6,0,0,1,1.6,1.6V537.3A1.6,1.6,0,0,1,350.024,538.9Z" transform="translate(-273.02 -284.98)"/><path class="f" d="M361.942,534.463H359.8a1.6,1.6,0,0,1-1.6-1.6V509.344a1.6,1.6,0,0,1,1.6-1.6h2.138a1.6,1.6,0,0,1,1.6,1.6v23.515A1.6,1.6,0,0,1,361.942,534.463Z" transform="translate(-277.456 -280.544)"/><path class="f" d="M338.1,531.294h-2.138a1.6,1.6,0,0,1-1.6-1.6V500.83a1.6,1.6,0,0,1,1.6-1.6h2.138a1.6,1.6,0,0,1,1.6,1.6v28.86a1.6,1.6,0,0,1-1.6,1.6Z" transform="translate(-268.583 -277.375)"/><path class="f" d="M620.669,318.3l-1.527-1.528a1.872,1.872,0,0,0-2.64-.007l-10.619,9.8a1.983,1.983,0,0,0-.664,1.349,1.878,1.878,0,0,0,.539,1.4l2.281,2.306,0,0a1.889,1.889,0,0,0,1.327.551h.069a1.964,1.964,0,0,0,1.355-.653l9.868-10.57a1.872,1.872,0,0,0,.011-2.647Z" transform="translate(-369.402 -209.258)"/><path class="f" d="M638.479,309.137l-.018-.018-2-1.984a1.255,1.255,0,0,0-.894-.366,1.281,1.281,0,0,0-.748.242c0-.025,0-.05.005-.071a2.139,2.139,0,0,0-.3-1.475,15.1,15.1,0,0,0-1.451-1.681l0,0a15.835,15.835,0,0,0-5.073-3.272,8.162,8.162,0,0,0-3.1-.611,5.917,5.917,0,0,0-3.788,1.327,7.018,7.018,0,0,0-.829.949.936.936,0,0,0,1.091,1.424,4.342,4.342,0,0,1,.5-.154,3.711,3.711,0,0,1,1.079-.067,4.537,4.537,0,0,1,2.088.766,3.006,3.006,0,0,1,1.068,2.4,6.24,6.24,0,0,1-1.17,2.017.936.936,0,0,0,.085,1.228l2.013,2.013a.936.936,0,0,0,1.287.036c.569-.508,1.436-1.275,1.739-1.462a2.179,2.179,0,0,1,.86-.339,1.122,1.122,0,0,1,.66.139.073.073,0,0,1-.018.056l-.106.1-.018.016a1.259,1.259,0,0,0,0,1.78l.006.006,2,1.984a1.255,1.255,0,0,0,.894.366,1.269,1.269,0,0,0,.89-.363l3.246-3.207.033-.035a1.279,1.279,0,0,0-.016-1.742Z" transform="translate(-374.937 -203.178)"/><path class="f" d="M283.348,312.414a1.171,1.171,0,0,1-.828-2l2.685-2.685-2.685-2.685a1.171,1.171,0,0,1,1.656-1.656l3.513,3.514a1.171,1.171,0,0,1,0,1.656l-3.513,3.514A1.168,1.168,0,0,1,283.348,312.414Z" transform="translate(-249.158 -204.351)"/><path class="f" d="M253.5,318.01a1.171,1.171,0,0,1-1.171-1.171v-1.171a7.062,7.062,0,0,1,7.023-7.027H274.58a1.171,1.171,0,0,1,0,2.342H259.354a4.713,4.713,0,0,0-4.685,4.688v1.168a1.171,1.171,0,0,1-1.171,1.171Z" transform="translate(-238.047 -206.434)"/><path class="f" d="M266.34,332.935a1.168,1.168,0,0,1-.828-.343L262,329.078a1.171,1.171,0,0,1,0-1.656l3.513-3.514a1.171,1.171,0,0,1,1.656,1.656l-2.685,2.685,2.685,2.685a1.171,1.171,0,0,1-.828,2Z" transform="translate(-241.519 -211.989)"/><path class="f" d="M264.692,327.338a1.171,1.171,0,1,1,0-2.342h15.225a4.713,4.713,0,0,0,4.685-4.688v-1.168a1.171,1.171,0,1,1,2.342,0v1.171a7.062,7.062,0,0,1-7.023,7.027Z" transform="translate(-242.213 -209.906)"/></g></svg>