<svg xmlns="http://www.w3.org/2000/svg" xmlns:xlink="http://www.w3.org/1999/xlink" width="177.488" height="136.287" viewBox="0 0 177.488 136.287"><defs><style>.a,.c{fill:#6c63ff;}.a,.e,.s{opacity:0.1;}.b{fill:none;stroke:#535461;stroke-miterlimit:10;stroke-width:2px;}.d{opacity:0.25;}.f{fill:#ffd037;}.g{fill:#a8a8a8;}.h,.l{opacity:0.2;}.i{fill:url(#a);}.j{fill:#fff;}.k,.l{fill:#5a5773;}.m{fill:url(#b);}.n{fill:#efb7b9;}.o{fill:#ff6484;}.p{fill:#444053;}.q{fill:#a1616a;}.r{fill:#925978;}</style><linearGradient id="a" x1="0.5" y1="1" x2="0.5" gradientUnits="objectBoundingBox"><stop offset="0" stop-color="gray" stop-opacity="0.251"/><stop offset="0.54" stop-color="gray" stop-opacity="0.122"/><stop offset="1" stop-color="gray" stop-opacity="0.102"/></linearGradient><linearGradient id="b" x1="0.5" x2="0.5" xlink:href="#a"/></defs><g transform="translate(0 0)"><path class="a" d="M304.786,114.754c-.159.116-.305.229-.461.339a15.549,15.549,0,0,1-1.8,1.1,35.476,35.476,0,0,1-11.236,3.14c-8.812,1.285-17.809,1.534-26.768,1.779-24.206.665-48.471,1.328-72.618-.2-9.541-.6-19.291-1.616-27.936-4.716q-1.859-.665-3.645-1.466a29.932,29.932,0,0,1-6.647-3.975,14.472,14.472,0,0,1-4.15-5.1c-1.827-4.013-.86-8.521,1.226-12.455a38.706,38.706,0,0,1,2.924-4.575c1.611-2.215,3.387-4.366,5.007-6.58,5.766-7.868,9.528-17.822,4.206-25.891-1.53-2.318-3.74-4.354-4.987-6.774-1.59-3.1-1.468-6.534-.962-9.873q.1-.636.208-1.259c.863-4.952,2.488-10.286,7.5-13.377,5.2-3.212,12.6-3.05,19.054-1.908,10.045,1.794,19.31,5.527,28.674,8.9s19.161,6.451,29.452,6.782c9.087.293,19.687-1.9,25.718-7.588,5.858-5.527,16.869-5.949,24.806-2.609A20.04,20.04,0,0,1,303.576,39.5a14.437,14.437,0,0,1,.746,2.881,13.285,13.285,0,0,1,.134,2.717c-.024.448-.07.892-.134,1.331C303,55.6,293.45,62.824,287.648,71.008c-2.835,4-4.837,8.8-2.888,13.11,2.973,6.569,13.314,8.9,19.558,13.792a14.693,14.693,0,0,1,3.069,3.148C310.416,105.409,309.3,111.285,304.786,114.754Z" transform="translate(-131.597 -22.09)"/><g transform="translate(0 0)"><path class="b" d="M124.661,180.763s-7.314-12.962-18.337-16.7A22.545,22.545,0,0,1,94.9,155.521a37.844,37.844,0,0,1-3.371-6.061" transform="translate(-83.637 -129.104)"/><path class="c" d="M42.852,105.617c1.256,1.213,7.1,2.485,7.1,2.485s-1.431-5.807-2.69-7.027a3.169,3.169,0,1,0-4.414,4.548Z" transform="translate(-41.89 -87.66)"/><path class="c" d="M55.245,167.261c1.716.34,7.314-1.779,7.314-1.779s-4.365-4.1-6.082-4.436a3.169,3.169,0,1,0-1.232,6.216Z" transform="translate(-50.974 -138.796)"/><path class="c" d="M121.719,239.573c1.654-.572,5.406-5.227,5.406-5.227s-5.832-1.334-7.485-.762a3.169,3.169,0,1,0,2.067,5.988Z" transform="translate(-105.403 -199.732)"/><path class="c" d="M194.507,279.985c1.727-.286,6.217-4.238,6.217-4.238s-5.522-2.3-7.249-2.016a3.169,3.169,0,0,0,1.032,6.254Z" transform="translate(-167.139 -233.594)"/><path class="c" d="M111.872,143.61c0,1.749-3.164,6.826-3.164,6.826s-3.171-5.074-3.172-6.823a3.169,3.169,0,1,1,6.337,0Z" transform="translate(-95.415 -121.462)"/><path class="c" d="M193.483,188.843c-.523,1.67-5.063,5.565-5.063,5.565s-1.507-5.8-.991-7.473a3.169,3.169,0,0,1,6.042,1.894Z" transform="translate(-164.196 -158.86)"/><path class="c" d="M264.639,249.554c-.232,1.735-4.048,6.341-4.048,6.341s-2.465-5.451-2.226-7.186a3.169,3.169,0,1,1,6.281.844Z" transform="translate(-223.929 -210.262)"/><path class="d" d="M42.852,105.617c1.256,1.213,7.1,2.485,7.1,2.485s-1.431-5.807-2.69-7.027a3.169,3.169,0,1,0-4.414,4.548Z" transform="translate(-41.89 -87.66)"/><path class="d" d="M55.245,167.261c1.716.34,7.314-1.779,7.314-1.779s-4.365-4.1-6.082-4.436a3.169,3.169,0,1,0-1.232,6.216Z" transform="translate(-50.974 -138.796)"/><path class="d" d="M121.719,239.573c1.654-.572,5.406-5.227,5.406-5.227s-5.832-1.334-7.485-.762a3.169,3.169,0,1,0,2.067,5.988Z" transform="translate(-105.403 -199.732)"/><path class="d" d="M194.507,279.985c1.727-.286,6.217-4.238,6.217-4.238s-5.522-2.3-7.249-2.016a3.169,3.169,0,0,0,1.032,6.254Z" transform="translate(-167.139 -233.594)"/><path class="d" d="M111.872,143.61c0,1.749-3.164,6.826-3.164,6.826s-3.171-5.074-3.172-6.823a3.169,3.169,0,1,1,6.337,0Z" transform="translate(-95.415 -121.462)"/><path class="d" d="M193.483,188.843c-.523,1.67-5.063,5.565-5.063,5.565s-1.507-5.8-.991-7.473a3.169,3.169,0,0,1,6.042,1.894Z" transform="translate(-164.196 -158.86)"/><path class="d" d="M264.639,249.554c-.232,1.735-4.048,6.341-4.048,6.341s-2.465-5.451-2.226-7.186a3.169,3.169,0,1,1,6.281.844Z" transform="translate(-223.929 -210.262)"/><path class="b" d="M204.142,122.317s-1.431-14.816-10-22.7a22.538,22.538,0,0,1-6.981-12.441,37.867,37.867,0,0,1-.623-6.909" transform="translate(-163.539 -70.916)"/><path class="c" d="M151.546,25.8c.655,1.623,5.491,5.146,5.491,5.146s1.042-5.891.388-7.515a3.171,3.171,0,0,0-5.883,2.369Z" transform="translate(-133.912 -21.441)"/><path class="c" d="M137.9,87.212c1.431,1.007,7.405,1.336,7.405,1.336s-2.317-5.511-3.748-6.518a3.171,3.171,0,1,0-3.657,5.182Z" transform="translate(-121.501 -71.907)"/><path class="c" d="M169.583,180.28c1.749.148,7.066-2.585,7.066-2.585s-4.791-3.582-6.535-3.729a3.169,3.169,0,1,0-.531,6.314Z" transform="translate(-146.778 -149.698)"/><path class="c" d="M219.6,246.624c1.7.439,7.4-1.355,7.4-1.355s-4.117-4.341-5.81-4.78a3.169,3.169,0,1,0-1.59,6.135Z" transform="translate(-189.345 -205.572)"/><path class="c" d="M199.058,88.878c-.708,1.6-5.659,4.956-5.659,4.956s-.843-5.922-.135-7.523a3.169,3.169,0,1,1,5.795,2.567Z" transform="translate(-168.956 -74.41)"/><path class="c" d="M248.594,162.3c-1.154,1.315-6.884,3.037-6.884,3.037s.967-5.9,2.123-7.217a3.168,3.168,0,0,1,4.761,4.18Z" transform="translate(-209.937 -135.481)"/><path class="c" d="M293.829,247.253c-.916,1.492-6.271,4.157-6.271,4.157s-.045-5.982.871-7.473a3.171,3.171,0,0,1,5.406,3.317Z" transform="translate(-248.494 -207.285)"/></g><ellipse class="a" cx="17.734" cy="2.309" rx="17.734" ry="2.309" transform="translate(47.169 130.814)"/><g transform="translate(23.242 122.676)"><ellipse class="a" cx="5.387" cy="0.922" rx="5.387" ry="0.922" transform="translate(0.452 9.347)"/><path class="c" d="M219.413,792.94s.873,1.143-.4,2.862-2.329,3.18-1.908,4.257c0,0,1.926-3.2,3.5-3.249S221.14,794.867,219.413,792.94Z" transform="translate(-212.403 -792.94)"/><path class="e" d="M219.693,792.94a1.4,1.4,0,0,1,.178.359c1.53,1.8,2.345,3.474.875,3.516-1.369.04-3.013,2.488-3.406,3.107a1.455,1.455,0,0,0,.046.142s1.926-3.2,3.5-3.249S221.42,794.867,219.693,792.94Z" transform="translate(-212.684 -792.94)"/><path class="f" d="M241.282,800.723c0,.4-.045.728-.1.728s-.1-.318-.1-.728.057-.213.113-.213S241.282,800.32,241.282,800.723Z" transform="translate(-232.649 -799.266)"/><path class="f" d="M242.208,803.658c-.353.192-.661.308-.689.259s.239-.245.592-.437.213-.052.24,0S242.561,803.465,242.208,803.658Z" transform="translate(-233.017 -801.721)"/><path class="c" d="M192.746,792.94s-.873,1.143.4,2.862,2.329,3.18,1.908,4.257c0,0-1.926-3.2-3.5-3.249S191.022,794.867,192.746,792.94Z" transform="translate(-190.351 -792.94)"/><path class="e" d="M192.727,792.94a1.4,1.4,0,0,0-.178.359c-1.53,1.8-2.345,3.474-.875,3.516,1.371.04,3.013,2.488,3.406,3.107a1.125,1.125,0,0,1-.046.142s-1.926-3.2-3.5-3.249S191,794.867,192.727,792.94Z" transform="translate(-190.332 -792.94)"/><path class="f" d="M192.91,800.723c0,.4.045.728.1.728s.1-.318.1-.728-.057-.213-.113-.213S192.91,800.32,192.91,800.723Z" transform="translate(-192.138 -799.266)"/><path class="f" d="M188.272,803.658c.353.192.66.308.687.259s-.239-.245-.592-.437-.213-.052-.24,0S187.919,803.465,188.272,803.658Z" transform="translate(-188.057 -801.721)"/><path class="g" d="M194.66,829.817a8.99,8.99,0,0,0,3.18-.6c.738-.523,3.756-1.151,3.939-.31s3.67,4.18.913,4.2-6.406-.429-7.141-.876S194.66,829.817,194.66,829.817Z" transform="translate(-193.61 -822.843)"/><path class="h" d="M202.739,839.784c-2.757.022-6.407-.429-7.141-.876-.56-.342-.782-1.565-.857-2.128h-.081s.159,1.969.889,2.417,4.384.9,7.141.876c.8,0,1.072-.289,1.056-.709C203.636,839.621,203.332,839.779,202.739,839.784Z" transform="translate(-193.61 -829.809)"/><path class="c" d="M675.9,836.164s-6.723-.405-5.93,4.306a1.146,1.146,0,0,0,.6,1.21s.013-.348.69-.231a3.083,3.083,0,0,0,.73.035,1.51,1.51,0,0,0,.894-.369h0s1.889-.779,2.624-3.869c0,0,.544-.674.523-.848l-1.135.477a2.035,2.035,0,0,1,.083,1.5s-.037-1.469-.254-1.431c-.044,0-.59.283-.59.283a3.337,3.337,0,0,1,.159,2.461s.191-1.749-.372-2.358l-.795.466a3.529,3.529,0,0,1,.251,2.675,5.031,5.031,0,0,0-.418-2.562l-.724.565a3.451,3.451,0,0,1,.285,2.449s-.057-2.145-.442-2.307a4.164,4.164,0,0,0-.73.8s.5,1.053.191,1.609c0,0-.191-1.431-.348-1.431a4.723,4.723,0,0,0-.7,1.59,3.462,3.462,0,0,1,.544-1.687,1.9,1.9,0,0,0-.965.5s.1-.669,1.113-.728a4.355,4.355,0,0,1,.661-.762,4.14,4.14,0,0,0-1.635.188,1.823,1.823,0,0,1,1.821-.345l.714-.582a5.867,5.867,0,0,0-1.908.019,2.33,2.33,0,0,1,2.1-.159l.779-.464a7.1,7.1,0,0,0-1.824-.159,2.793,2.793,0,0,1,2.051.032l.557-.25s-.838-.159-1.083-.189-.258-.094-.258-.094a2.9,2.9,0,0,1,1.573.175A7.079,7.079,0,0,0,675.9,836.164Z" transform="translate(-593.283 -829.283)"/><ellipse class="a" cx="4.758" cy="0.805" rx="4.758" ry="0.805" transform="translate(73.225 12.002)"/><path class="c" d="M615.672,837.764s-3.791-.229-3.339,2.428a.649.649,0,0,0,.337.682s0-.2.39-.13a1.865,1.865,0,0,0,.41.021.87.87,0,0,0,.5-.208h0a3.01,3.01,0,0,0,1.48-2.182s.305-.38.294-.477l-.636.272a1.153,1.153,0,0,1,.046.846s-.021-.828-.143-.809c-.025,0-.332.159-.332.159a1.886,1.886,0,0,1,.092,1.388s.107-.991-.21-1.331l-.45.264a1.99,1.99,0,0,1,.141,1.507,2.823,2.823,0,0,0-.237-1.444l-.407.318a1.943,1.943,0,0,1,.159,1.38s-.033-1.21-.25-1.3a2.489,2.489,0,0,0-.412.444s.283.595.108.908c0,0-.108-.806-.2-.809a2.671,2.671,0,0,0-.393.9,1.932,1.932,0,0,1,.305-.954,1.069,1.069,0,0,0-.544.281s.056-.378.636-.41a2.412,2.412,0,0,1,.372-.429,2.33,2.33,0,0,0-.922.1,1.036,1.036,0,0,1,1.027-.194l.4-.329a3.313,3.313,0,0,0-1.075.011,1.3,1.3,0,0,1,1.185-.086l.437-.261a3.936,3.936,0,0,0-1.027-.089,1.581,1.581,0,0,1,1.156.018l.318-.14s-.477-.094-.609-.108-.146-.052-.146-.052a1.641,1.641,0,0,1,.887.1A3.749,3.749,0,0,0,615.672,837.764Z" transform="translate(-544.837 -830.632)"/><ellipse class="a" cx="2.682" cy="0.453" rx="2.682" ry="0.453" transform="translate(65.541 10.021)"/><path class="c" d="M657.322,802.348s-4.575-.277-4.036,2.931a.782.782,0,0,0,.407.824s0-.237.469-.159a2.257,2.257,0,0,0,.5.024,1.048,1.048,0,0,0,.609-.251h0a3.628,3.628,0,0,0,1.786-2.635s.37-.458.356-.576l-.773.329a1.391,1.391,0,0,1,.057,1.021s-.025-1-.175-.976c-.029,0-.4.192-.4.192a2.279,2.279,0,0,1,.111,1.676s.13-1.2-.253-1.606l-.544.318a2.4,2.4,0,0,1,.172,1.821,3.434,3.434,0,0,0-.286-1.749l-.493.383a2.347,2.347,0,0,1,.2,1.666s-.04-1.46-.3-1.571a2.99,2.99,0,0,0-.5.536s.342.717.129,1.1c0,0-.129-.972-.235-.976a3.192,3.192,0,0,0-.477,1.086,2.338,2.338,0,0,1,.369-1.148,1.293,1.293,0,0,0-.657.34s.067-.456.763-.5a2.988,2.988,0,0,1,.45-.518,2.83,2.83,0,0,0-1.113.129,1.248,1.248,0,0,1,1.24-.235l.487-.4a4,4,0,0,0-1.3.013,1.583,1.583,0,0,1,1.431-.1l.529-.318a5.217,5.217,0,0,0-1.24-.107,1.9,1.9,0,0,1,1.4.021l.378-.169s-.571-.113-.738-.13-.175-.064-.175-.064a1.977,1.977,0,0,1,1.07.119A4.663,4.663,0,0,0,657.322,802.348Z" transform="translate(-579.273 -800.847)"/><ellipse class="a" cx="3.239" cy="0.547" rx="3.239" ry="0.547" transform="translate(71.66 4.988)"/></g><g transform="translate(21.746 15.195)"><path class="i" d="M329.924,194.776V117H178.65v73.314a30.117,30.117,0,0,0,6.678,4.083q1.79.825,3.657,1.509H328.119Z" transform="translate(-178.65 -117)"/><path class="j" d="M331.381,206.582V131H180.73v71.252a30.422,30.422,0,0,0,6.647,3.975q1.784.8,3.645,1.466H329.579Z" transform="translate(-180.399 -128.774)"/><rect class="k" width="150.649" height="3.997" transform="translate(0.332 0.221)"/></g><g transform="translate(24.053 16.381)"><ellipse class="j" cx="1.034" cy="1.034" rx="1.034" ry="1.034"/><ellipse class="j" cx="1.034" cy="1.034" rx="1.034" ry="1.034" transform="translate(2.783)"/><ellipse class="j" cx="1.034" cy="1.034" rx="1.034" ry="1.034" transform="translate(5.565)"/></g><g transform="translate(26.121 28.199)"><rect class="c" width="24.885" height="15.637" transform="translate(34.456)"/><rect class="l" width="24.885" height="15.637"/><rect class="l" width="24.885" height="15.637" transform="translate(68.912)"/><rect class="l" width="24.885" height="15.637" transform="translate(0 22.355)"/><rect class="l" width="24.885" height="15.637" transform="translate(34.456 22.355)"/><rect class="l" width="24.885" height="15.637" transform="translate(68.912 22.355)"/><rect class="l" width="24.885" height="15.637" transform="translate(0 44.709)"/><rect class="l" width="24.885" height="15.637" transform="translate(34.456 44.709)"/><rect class="l" width="24.885" height="15.637" transform="translate(68.912 44.709)"/></g><g transform="translate(54.796 32.104)"><path class="m" d="M412.716,258.616s-4.47-8.17-3.716-9.5a18.105,18.105,0,0,0,1.309-3.253s1.65-1.129,1.65-1.59,1.307-1.528,2-1.992.343-2.657,0-2.923a6.057,6.057,0,0,1-.889-1.2s.477-1.328,0-1.727.07-.8,0-1.2a16.042,16.042,0,0,1,0-1.859,3,3,0,0,0-1.759-1.272l-.051-.21-.294-1.239s1.431-2.743-.89-4.179a3.879,3.879,0,0,0-.514-.27,1.786,1.786,0,0,0-.013-.18,11.237,11.237,0,0,0-.337-2.1c-.121-.385-.278-.644-.477-.585a.318.318,0,0,0-.13.075,1.447,1.447,0,0,0-.246.291h0a.065.065,0,0,1-.011.017,4.988,4.988,0,0,0-.547,1.519,8.772,8.772,0,0,0-.159.954h0a5.244,5.244,0,0,0-.266.59,3.4,3.4,0,0,0-.011,2.929c.509.8,1.194,1.887,1.692,2.682l.016.025.03.049-.052.033v.122l.046.669.385,5.785a2.455,2.455,0,0,0-.353-.075,3.207,3.207,0,0,0-.514-.033c-.336-1.318-1.256-2.544-1.431-3.921a3.636,3.636,0,0,1-.027-.415c.014-.867.231-1.736.213-2.6,0-.159,0-.318-.016-.477h0a1.278,1.278,0,0,0-.013-.132,3.91,3.91,0,0,0-2.126-2.962c-.4-.2-.832-.331-1.22-.549a21.644,21.644,0,0,1-2.285-2.031,2.529,2.529,0,0,0-2.186-.477,10.089,10.089,0,0,0-1.064.219h0a9.6,9.6,0,0,0-2.434,1.011c-.1.062-.207.126-.305.2a1.346,1.346,0,0,0-.491.574,1.5,1.5,0,0,0-.076.619c0,.151,0,.305.01.456-.045,2.544-2.786,4.513-3.012,7,0,.059-.01.118-.013.177v.272h0v.2c.04,1.089.606,2.1.709,3.188.01.1.014.192.016.289a4.808,4.808,0,0,1-.281,1.46,4.272,4.272,0,0,0-.987.4,6.152,6.152,0,0,0-2.886,3.231,4.733,4.733,0,0,0-.208,1.418,29.615,29.615,0,0,1-.464,5.064,9.467,9.467,0,0,1-.293,1.245.292.292,0,0,0-.01.122l-.331,4.293-.059.755-.083,1.075s.024.065.059.175a5.054,5.054,0,0,1,.13.5,2.668,2.668,0,0,1,.043,1.113.766.766,0,0,1-.232.409.171.171,0,0,0-.027.03,3.3,3.3,0,0,0-.251,1.094c-.029.223-.056.477-.083.741-.159,1.693-.258,4.228-.318,6.324-.057,2.067-.078,3.7-.078,3.7a4.218,4.218,0,0,0,.854.423c-.022.056-.046.113-.068.173a8.351,8.351,0,0,0-.518,2.185,3.81,3.81,0,0,0,2.484,4.193,3.5,3.5,0,0,0,.428.146,1.357,1.357,0,0,0,1.088-.067c0,.094.011.184.016.275.022.388.041.743.051,1.04.068,1.86.529,5.114.529,5.114a6.772,6.772,0,0,1,.021,1.727,9.376,9.376,0,0,0,0,1.992s.477.8,0,1.2a4.238,4.238,0,0,0-.477,2.657.09.09,0,0,1,.008.03c.1.66-.488,10.464-.488,10.464s-.561,1.5-1.008,3.059c-.436,1.517-.763,3.088-.359,3.382a3.374,3.374,0,0,0,1.258.34c0,.065-.01.13-.016.2a5.666,5.666,0,0,1-.278,1.647,19.236,19.236,0,0,0-.485,3.5l-.01.126a11.717,11.717,0,0,0-.512,1.485s-1.522,3.816-1.007,4.807a.812.812,0,0,0,.189.234h0a.428.428,0,0,0,.049.045,7,7,0,0,0,3.236.736l-.025.945v.035h.867v-.024c0-.119.019-.666.048-1.4,0-.13.01-.267.016-.407,0-.11.011-.221.016-.335a5.883,5.883,0,0,0,.377-2.123,9.315,9.315,0,0,1,.334-2.461,6.832,6.832,0,0,1,.44-1.2,5.481,5.481,0,0,0-.107-2.444,1.765,1.765,0,0,0-.318-.55v-.318a9.174,9.174,0,0,1,.2-2.038.23.23,0,0,1,0-.032c.013-.056.027-.108.041-.159l.01-.035.281.01c.863.024,1.5.024,1.5.024a32.3,32.3,0,0,0,.62-5.047V306.1a19.658,19.658,0,0,1,.417-3.579l.555-5.382a2.83,2.83,0,0,1,0-1.59c.17-.41.522-1.172.766-1.7.114-.243.205-.434.243-.517l.022-.045a1.031,1.031,0,0,1-.245-.122h0c-.224-.149-.425-.442.246-.873,1.032-.665.688-2.325.688-2.325a1.193,1.193,0,0,1,.054-1.129c.358-.531,0-2.523,0-2.523a8.345,8.345,0,0,0,.706-1.662c.256-.8.9-4.683,1.208-6.558.1-.615.159-1.013.159-1.013l.01.1.01.1h0l.086.886.011.118.159,1.674a51.54,51.54,0,0,1,.119,6.127v.032a2.036,2.036,0,0,1-.116.523c-.366.827-.3,4.112-.28,4.839v.146a2.926,2.926,0,0,0-.194,1.123h0a.721.721,0,0,0,.126.334.846.846,0,0,1,.122.517v.016a1.88,1.88,0,0,1-.019.229,4.366,4.366,0,0,1-.242.9,3.3,3.3,0,0,0-.229,1.477h0a.468.468,0,0,0,.091.18.425.425,0,0,1,.052.191.07.07,0,0,0,0,.017c.129,1.07-.2,5.794-.4,8.38-.079,1.021-.137,1.708-.137,1.708l-.545,5.645.054.038c.062.045.178.121.334.213v.013l-.024.17c-.078.544-.183,1.177-.3,1.66-.01.037-.018.072-.027.1a1.522,1.522,0,0,0-.584.234c-1.158,2.056-.646,3.686,0,4.16a1.671,1.671,0,0,1,.39.972l.159,2.05v.235a.611.611,0,0,0,.03.188l.049.622.067.865h.528v-1.048h.029c.833.029,2.177.064,2.762.017h.016a1.033,1.033,0,0,0,.159-.017.4.4,0,0,0,.092-.025c.31-.149,1.083-2.341.386-2.838a3.214,3.214,0,0,1-.851-1.908c-.06-.184-.121-.359-.183-.526v-.108a8.745,8.745,0,0,1,.083-1.822,13.865,13.865,0,0,0,.181-2.177v-.2a2.712,2.712,0,0,0,.355-.116l.025-.011a2.5,2.5,0,0,0,.593-.351l1.946-8.625.205-1,1.169-5.707s-.412-1.992,0-2.323c.151-.121.192-.636.183-1.232-.016-1.043-.183-2.355-.183-2.355s.55-.863.827-1.395a4.332,4.332,0,0,0,0-1.926l.542-3.193a30.175,30.175,0,0,1,2.132-6.974c1.113-2.345.4-8.679-.318-12.05-.019-.087-.038-.173-.057-.256v-.013c.34-.169.757-.372,1.2-.585l.169-.079c.564-.266,1.162-.539,1.7-.766l.035-.014a11.864,11.864,0,0,1,1.181-.442,1.982,1.982,0,0,1,.363-.075C415.605,263.663,412.716,258.616,412.716,258.616ZM391.2,269.42h.286c-.033.062-.065.126-.1.189-.019.038-.038.075-.056.113-.1.218-.2.44-.281.658.032-.235.072-.491.116-.765C391.18,269.556,391.191,269.484,391.2,269.42Zm-.773,4.145a.116.116,0,0,0,0-.022l-.024-.075c-.017-.051-.033-.1-.049-.159q.148-.044.3-.1h.021v.052c-.008.075-.017.149-.027.223h0a.16.16,0,0,1,0,.029,1.55,1.55,0,0,1-.021.175c-.014.114-.029.226-.041.332-.03-.1-.06-.2-.092-.3A.754.754,0,0,1,390.428,273.566Z" transform="translate(-386.5 -223.338)"/><path class="n" d="M518.3,234.829l-1.717.607-.623-1.034c-.477-.8-1.138-1.883-1.627-2.673-.862-1.39.266-3.508.266-3.508s.2-2.126.929-2.781.927,2.781.927,2.781c2.911,1.323,1.352,4.435,1.352,4.435l.283,1.234Z" transform="translate(-493.734 -225.037)"/><path class="e" d="M528.621,279.655l-1.717.607-.623-1.034v-.091a2.99,2.99,0,0,1,2.132-.421Z" transform="translate(-504.054 -269.863)"/><path class="o" d="M523.56,287.667l.86-.728-.431-6.554a2.723,2.723,0,0,1,3.873.86,16.745,16.745,0,0,0,0,1.854c.067.4-.463.8,0,1.191s0,1.722,0,1.722a5.975,5.975,0,0,0,.854,1.191c.331.264.663,2.45,0,2.913s-1.907,1.523-1.907,1.986-1.59,1.59-1.59,1.59l-1.4-1.846Z" transform="translate(-501.766 -270.91)"/><path class="n" d="M393.8,534.275c-3.209-1.361-2.5-4.686-1.892-6.36a8.661,8.661,0,0,1,.425-.992l1.8-1.092s.367.937.76,2.193C395.8,530.945,396.853,535.571,393.8,534.275Z" transform="translate(-390.611 -477.731)"/><path class="n" d="M412.081,765.182a5.4,5.4,0,0,0-.477,1.339,9.67,9.67,0,0,0-.207,2.279c.013.529.057.876.057.876l-3.575,2.458s.021-.288.056-.711a19.836,19.836,0,0,1,.466-3.486,5.8,5.8,0,0,0,.269-1.641c.056-.7.078-1.313.078-1.313S413.049,763.371,412.081,765.182Z" transform="translate(-404.48 -678.301)"/><path class="n" d="M468.865,779.113s0,.684-.025,1.479a15.146,15.146,0,0,1-.173,2.171,8.933,8.933,0,0,0-.081,1.816c.024.8.081,1.511.081,1.511s-3.649-3.451-3.277-3.724a1.692,1.692,0,0,0,.289-.759c.111-.477.211-1.113.286-1.654.089-.644.145-1.162.145-1.162Z" transform="translate(-452.823 -690.468)"/><path class="e" d="M416.3,765.182a5.4,5.4,0,0,0-.477,1.339,29.214,29.214,0,0,1-2.926-.224c.054-.684.078-1.313.078-1.313S417.271,763.371,416.3,765.182Z" transform="translate(-408.702 -678.301)"/><path class="e" d="M472.05,779.13s0,.684-.025,1.479a3.979,3.979,0,0,1-2.875-.636c.089-.644.145-1.162.145-1.162Z" transform="translate(-456.008 -690.485)"/><path class="p" d="M424.97,493a30.882,30.882,0,0,0-2.053,6.952l-.529,3.18a4.481,4.481,0,0,1,0,1.919c-.266.529-.8,1.391-.8,1.391s.4,3.244,0,3.575,0,2.317,0,2.317l-1.325,6.678-1.854,8.605c-1.787,1.458-4.166-.4-4.166-.4l.525-5.627s.8-9.859.464-10.262.132-1.655.132-1.655.464-1.193.134-1.655.065-1.457.065-1.457-.132-4.039.266-4.966,0-6.661,0-6.661l-.159-1.786-.092-.989-.008-.1s-.06.4-.159,1.01c-.293,1.868-.916,5.74-1.162,6.537a8.511,8.511,0,0,1-.679,1.655s.343,1.986,0,2.516a1.232,1.232,0,0,0-.052,1.126s.331,1.655-.663,2.317,0,.994,0,.994-.728,1.59-.992,2.25a2.943,2.943,0,0,0,0,1.59l-.529,5.362a19.4,19.4,0,0,0-.4,3.773,33.158,33.158,0,0,1-.6,5.031s-5.1,0-5.883-.6,1.312-6.413,1.312-6.413.6-10.2.463-10.46a4.343,4.343,0,0,1,.464-2.648c.464-.4,0-1.193,0-1.193a9.764,9.764,0,0,1,0-1.986,7.044,7.044,0,0,0-.021-1.722s-.444-3.244-.509-5.1-.4-6.023-.4-6.023.347-2.579.4-3.807a4.323,4.323,0,0,1,.477-1.547,13.8,13.8,0,0,1,.986-1.73s15.686-4.637,16.345-4.176a6,6,0,0,1,.681,2.158C425.357,484.35,426.041,490.663,424.97,493Z" transform="translate(-401.455 -438.177)"/><ellipse class="q" cx="4.568" cy="4.568" rx="4.568" ry="4.568" transform="translate(9.281 5.224)"/><path class="e" d="M437.153,480.99c-.526.27-.879.456-.879.456s-7.415,3.509-9.523,3.311c-1.631-.159-5.8-.068-7.61-.024a13.8,13.8,0,0,1,.986-1.73s15.688-4.635,16.346-4.174A6.023,6.023,0,0,1,437.153,480.99Z" transform="translate(-413.95 -438.177)"/><path class="o" d="M406.294,324.626s-4.231.668-5.23,1.323a5.427,5.427,0,0,0-2.977,4.635,26.3,26.3,0,0,1-.728,6.289c-.266.793,4.171,7.216,4.171,7.216l-1.59,9.733s6.36-.2,8.478,0,9.529-3.311,9.529-3.311,4.37-2.317,5.3-2.385-1.854-5.1-1.854-5.1-4.3-8.141-3.576-9.466a18.294,18.294,0,0,0,1.263-3.244l-.8-6.752a2.6,2.6,0,0,0-2.185.331c-.994.728-4.37.331-4.37.331Z" transform="translate(-395.623 -307.539)"/><path class="e" d="M393.378,387.576l-1.66.463-.46,6.23s.6,1.655,0,2.185-.728,11.851-.728,11.851a4.329,4.329,0,0,0,4.171.331s-.331-1.258.663-5.826a36.406,36.406,0,0,0,.992-6.885s0-5.694.464-6.621,0-3.244,0-3.244-.927-1.258-.862-1.72S393.378,387.576,393.378,387.576Z" transform="translate(-389.889 -358.704)"/><path class="e" d="M397.645,528.053a4.228,4.228,0,0,1-2.985-.108,8.661,8.661,0,0,1,.425-.992l1.8-1.092S397.258,526.8,397.645,528.053Z" transform="translate(-393.363 -477.756)"/><path class="o" d="M392.756,387.542l-1.655.463-.463,6.23s.6,1.655,0,2.185-.728,11.851-.728,11.851a4.324,4.324,0,0,0,4.171.324s-.331-1.258.661-5.826a36.7,36.7,0,0,0,.994-6.885s0-5.694.463-6.621,0-3.244,0-3.244-.927-1.258-.86-1.72S392.756,387.542,392.756,387.542Z" transform="translate(-389.368 -358.671)"/><path class="e" d="M496.537,411.15s-.86,7.415-3.377,8.806C493.16,419.956,498.787,418.367,496.537,411.15Z" transform="translate(-476.2 -381.286)"/><path class="e" d="M434.88,415.32s3.11,1.522,2.385,2.581S434.88,415.32,434.88,415.32Z" transform="translate(-427.187 -384.793)"/><path class="e" d="M434.88,434.47s1.986,2.053,1.59,2.781S434.88,434.47,434.88,434.47Z" transform="translate(-427.187 -400.898)"/><path class="e" d="M535.63,327.47a7.037,7.037,0,0,1,.854,2.185C536.559,330.517,535.63,327.47,535.63,327.47Z" transform="translate(-511.917 -310.912)"/><path class="e" d="M535.63,315.449s.391-.332,1.39,0S535.63,315.449,535.63,315.449Z" transform="translate(-511.917 -300.678)"/><path class="e" d="M481.079,552.1a9.207,9.207,0,0,1-4.842-.62l-.835,2.137-.092-.989c.137-.83.4-1.719.927-1.943A8.036,8.036,0,0,0,481.079,552.1Z" transform="translate(-461.188 -498.63)"/><path class="e" d="M426.18,577.07a30.129,30.129,0,0,0,5.214.695Z" transform="translate(-419.87 -520.823)"/><path class="e" d="M428.84,583.745a8.412,8.412,0,0,1,2.606.273Z" transform="translate(-422.108 -526.431)"/><path class="e" d="M430.09,588.31a15.574,15.574,0,0,0,2.407.318Z" transform="translate(-423.159 -530.276)"/><path class="e" d="M429.46,643.077c.075-.049,3.476-.844,3.9-.273Z" transform="translate(-422.629 -575.932)"/><path class="e" d="M429.46,651.351s2.954-.348,3.029,0S429.46,651.351,429.46,651.351Z" transform="translate(-422.629 -583.163)"/><path class="e" d="M429.46,655.361a20.142,20.142,0,0,1,3.525-.493C433.357,655.027,429.46,655.361,429.46,655.361Z" transform="translate(-422.629 -586.23)"/><path class="e" d="M411.495,790.985l-3.575,2.458s.021-.288.056-.711a9.638,9.638,0,0,1,1.83-2.988,1.465,1.465,0,0,1,1.631.364C411.45,790.637,411.495,790.985,411.495,790.985Z" transform="translate(-404.514 -699.608)"/><path class="p" d="M403.8,793.71a8.872,8.872,0,0,0-.746,3.657,5.672,5.672,0,0,1-.757,2.943,2.9,2.9,0,0,1-.251.359s-2.484-.021-3.354-.741a.861.861,0,0,1-.234-.286c-.5-.992.968-4.791.968-4.791a10.55,10.55,0,0,1,2.333-4.494C404.54,789.638,403.8,793.71,403.8,793.71Z" transform="translate(-396.467 -700.125)"/><path class="e" d="M404.075,824.613a2.905,2.905,0,0,1-.251.359s-2.484-.021-3.354-.741c.428-1.415,1.792-5.7,2.431-4.969C403.5,819.946,403.921,823.236,404.075,824.613Z" transform="translate(-398.249 -724.435)"/><path class="p" d="M420.083,819.52l-.173,6.414h.833s.135-5.627.507-6.414S420.083,819.52,420.083,819.52Z" transform="translate(-414.598 -724.427)"/><path class="e" d="M468.666,800.863s-3.649-3.451-3.277-3.724a1.692,1.692,0,0,0,.289-.758c.7-.122,1.908.17,2.907,2.972C468.609,800.148,468.666,800.863,468.666,800.863Z" transform="translate(-452.823 -705.242)"/><path class="p" d="M464.273,805.246a.373.373,0,0,1-.087.025,25.893,25.893,0,0,1-2.9,0,.626.626,0,0,1-.606-.625c0-.238,0-.529-.019-.84-.041-.979-.159-2.145-.51-2.407-.622-.477-1.113-2.1,0-4.145,0,0,2.134-1.63,3.673,3.269a3.254,3.254,0,0,0,.819,1.894C465.314,802.913,464.572,805.1,464.273,805.246Z" transform="translate(-447.884 -705.777)"/><path class="e" d="M470.372,827.094a25.893,25.893,0,0,1-2.9,0,.626.626,0,0,1-.606-.625c0-.238,0-.529-.019-.84.269-1.186.655-2.407,1.153-2.686C468.006,822.942,469.512,822.772,470.372,827.094Z" transform="translate(-454.074 -727.6)"/><path class="p" d="M423.46,798.175l.4,5.338h.509V797.72Z" transform="translate(-410.921 -702.976)"/><path class="e" d="M425.26,239.076a9.13,9.13,0,0,0-4.074,1.309,1.693,1.693,0,0,0-.768.771,2.558,2.558,0,0,0-.062.954c.043,2.738-3.01,4.81-2.915,7.547.038,1.086.584,2.1.684,3.18.167,1.806-.9,3.468-1.926,4.964a4.112,4.112,0,0,0,2.9-.962,22.005,22.005,0,0,1,.405,11.091h1.464a1.113,1.113,0,0,1,.428.052,1.075,1.075,0,0,1,.339.253,5.58,5.58,0,0,1,1.763,5.238l3.117-1.169a9.259,9.259,0,0,0,2.151-1.026,3.107,3.107,0,0,0,1.329-1.916c.084-.477.057-1.046.45-1.323a2.449,2.449,0,0,1,.614-.227,2.688,2.688,0,0,0,1.409-2.182,12.562,12.562,0,0,0,.2-3.319c-.138-1.86-.689-3.749-.235-5.565a15.666,15.666,0,0,0,.871-3.021c.075-1.735-1.282-3.229-1.484-4.955-.142-1.2.293-2.419.151-3.621a3.889,3.889,0,0,0-2.046-2.953c-.383-.2-.8-.329-1.174-.547a21.042,21.042,0,0,1-2.2-2.023c-.784-.62-2.089-.854-2.679-.048Z" transform="translate(-411.477 -236.563)"/><path class="r" d="M425.26,237.809a9.131,9.131,0,0,0-4.074,1.309,1.693,1.693,0,0,0-.768.771,2.557,2.557,0,0,0-.062.954c.043,2.738-3.01,4.81-2.915,7.548.038,1.084.584,2.1.684,3.18.167,1.806-.9,3.468-1.926,4.966a4.134,4.134,0,0,0,2.9-.962,22,22,0,0,1,.405,11.088h1.464a1.112,1.112,0,0,1,.428.054,1.046,1.046,0,0,1,.339.251,5.581,5.581,0,0,1,1.763,5.238l3.117-1.169a9.259,9.259,0,0,0,2.151-1.026A3.107,3.107,0,0,0,430.1,268.1c.084-.477.057-1.046.45-1.323a2.45,2.45,0,0,1,.614-.227,2.688,2.688,0,0,0,1.409-2.182,12.564,12.564,0,0,0,.2-3.322c-.138-1.86-.689-3.749-.235-5.565a15.661,15.661,0,0,0,.871-3.021c.075-1.735-1.282-3.229-1.484-4.955-.142-1.2.293-2.417.151-3.621a3.892,3.892,0,0,0-2.046-2.953c-.383-.2-.8-.329-1.174-.545a21.229,21.229,0,0,1-2.2-2.024c-.784-.62-2.089-.854-2.679-.048Z" transform="translate(-411.477 -235.495)"/><g class="s" transform="translate(4.723 4.686)"><path d="M442.27,252.81a1.773,1.773,0,0,0-.01.184C442.265,252.934,442.268,252.872,442.27,252.81Z" transform="translate(-438.116 -252.81)"/><path d="M514.928,279.468a16.916,16.916,0,0,0,.175-2.528A18.3,18.3,0,0,0,514.928,279.468Z" transform="translate(-499.218 -273.103)"/><path d="M424.684,303.892c-.092-.986-.552-1.908-.66-2.892a3.621,3.621,0,0,0-.024.544c.038,1.073.571,2.077.679,3.145A4.288,4.288,0,0,0,424.684,303.892Z" transform="translate(-422.759 -293.337)"/><path d="M518.082,329.262a6.818,6.818,0,0,0-.159,1.975,5.994,5.994,0,0,1,.159-1.146,15.658,15.658,0,0,0,.871-3.021,3.268,3.268,0,0,0-.025-.56A26.365,26.365,0,0,1,518.082,329.262Z" transform="translate(-501.736 -314.791)"/><path d="M419.1,344.36a4.134,4.134,0,0,1-2.347.954c-.181.283-.369.56-.555.833a4.134,4.134,0,0,0,2.9-.962,21.945,21.945,0,0,1,.925,5.955A21.993,21.993,0,0,0,419.1,344.36Z" transform="translate(-416.2 -329.803)"/><path d="M471.22,389.1a2.683,2.683,0,0,1-1.409,2.18,2.386,2.386,0,0,0-.614.229c-.393.277-.366.849-.45,1.323a3.067,3.067,0,0,1-1.329,1.908,9.56,9.56,0,0,1-2.151,1.027l-2.974,1.113a4.1,4.1,0,0,1-.143.883l3.117-1.169a9.257,9.257,0,0,0,2.151-1.026,3.107,3.107,0,0,0,1.329-1.916c.084-.477.057-1.046.45-1.323a2.449,2.449,0,0,1,.614-.227,2.687,2.687,0,0,0,1.409-2.182,12.469,12.469,0,0,0,.224-2.814A12.453,12.453,0,0,1,471.22,389.1Z" transform="translate(-454.844 -365.755)"/><path d="M439.294,414.364a1.052,1.052,0,0,0-.339-.253,1.137,1.137,0,0,0-.428-.054h-1.3c-.051.277-.1.553-.159.828h1.464a1.113,1.113,0,0,1,.428.054,1.046,1.046,0,0,1,.339.251,6.3,6.3,0,0,1,1.891,3.724A5.932,5.932,0,0,0,439.294,414.364Z" transform="translate(-433.751 -388.415)"/></g><path class="e" d="M405.37,448.914s1.183-.5,1.447,0S405.37,448.914,405.37,448.914Z" transform="translate(-402.37 -412.86)"/><path class="e" d="M408,454.264s1.183-.5,1.449,0S408,454.264,408,454.264Z" transform="translate(-404.581 -417.359)"/></g><g transform="translate(114.085 1.371)"><path class="a" d="M840.577,51.639s-6.05-.364-5.336,3.875a1.034,1.034,0,0,0,.538,1.089s.011-.318.62-.208a2.785,2.785,0,0,0,.657.032,1.363,1.363,0,0,0,.8-.332h0s1.7-.7,2.361-3.481c0,0,.49-.607.477-.763l-1.021.437a1.829,1.829,0,0,1,.073,1.348s-.032-1.323-.229-1.291c-.04,0-.529.254-.529.254a3.021,3.021,0,0,1,.146,2.217s.172-1.581-.334-2.123l-.722.428a3.172,3.172,0,0,1,.226,2.406,4.509,4.509,0,0,0-.377-2.3l-.652.507a3.1,3.1,0,0,1,.262,2.2s-.052-1.932-.4-2.077a3.931,3.931,0,0,0-.655.709s.45.954.17,1.447c0,0-.172-1.285-.318-1.291a4.281,4.281,0,0,0-.626,1.431,3.1,3.1,0,0,1,.488-1.519,1.7,1.7,0,0,0-.868.452s.087-.6,1.008-.657a3.964,3.964,0,0,1,.595-.685,3.728,3.728,0,0,0-1.471.17,1.662,1.662,0,0,1,1.639-.318l.636-.525a5.487,5.487,0,0,0-1.717.017,2.09,2.09,0,0,1,1.891-.137l.7-.418a6.282,6.282,0,0,0-1.639-.142,2.515,2.515,0,0,1,1.845.029l.5-.224s-.754-.148-.973-.172-.232-.084-.232-.084a2.6,2.6,0,0,1,1.414.159A6.428,6.428,0,0,0,840.577,51.639Z" transform="translate(-823.126 -48.201)"/><path class="a" d="M799.036,30.06s-5.088,3.293-2,6.284a1.035,1.035,0,0,0,1.078.56s-.178-.261.377-.536a2.759,2.759,0,0,0,.549-.364,1.368,1.368,0,0,0,.45-.743h0s.954-1.574-.159-4.2c0,0,.035-.779-.073-.894l-.563.954a1.83,1.83,0,0,1,.859,1.042s-.809-1.045-.954-.9c-.029.029-.277.52-.277.52a3.01,3.01,0,0,1,1.431,1.7s-.8-1.375-1.528-1.511l-.331.763a3.174,3.174,0,0,1,1.609,1.8s-.886-1.409-1.67-1.633l-.223.8s1.3.661,1.512,1.622c0,0-1.186-1.523-1.552-1.431a4.032,4.032,0,0,0-.108.954s.925.5,1,1.065c0,0-.9-.933-1.016-.855a4.289,4.289,0,0,0,.345,1.528,3.105,3.105,0,0,1-.506-1.512,1.7,1.7,0,0,0-.433.878s-.286-.537.425-1.126a4.354,4.354,0,0,1,.072-.9,3.681,3.681,0,0,0-1.084,1.008s.057-.747,1.137-1.221l.207-.8a5.306,5.306,0,0,0-1.372,1.032s.176-.754,1.441-1.231l.318-.752a6.472,6.472,0,0,0-1.406.859,2.53,2.53,0,0,1,1.5-1.07l.27-.477s-.695.328-.886.439-.237.07-.237.07a2.606,2.606,0,0,1,1.232-.711A6.321,6.321,0,0,0,799.036,30.06Z" transform="translate(-790.208 -30.06)"/><path class="a" d="M760.446,54.114s-3.042,5.247,1.065,6.508a1.025,1.025,0,0,0,1.215,0s-.275-.149.094-.647a2.787,2.787,0,0,0,.318-.572,1.374,1.374,0,0,0,.065-.867h0s.135-1.835-2.051-3.675c0,0-.318-.709-.477-.762l-.068,1.113a1.833,1.833,0,0,1,1.239.539s-1.2-.564-1.256-.375c-.013.038-.011.588-.011.588a3.073,3.073,0,0,1,2.066.867s-1.336-.863-2.046-.654l.051.83a3.171,3.171,0,0,1,2.252.879,4.528,4.528,0,0,0-2.226-.7l.159.809a3.113,3.113,0,0,1,2.083.76s-1.749-.82-2.034-.577a3.929,3.929,0,0,0,.339.9s1.049.022,1.371.5c0,0-1.226-.425-1.294-.3a4.287,4.287,0,0,0,1,1.2,3.106,3.106,0,0,1-1.137-1.113,1.7,1.7,0,0,0,.013.978s-.5-.348-.134-1.2a4,4,0,0,1-.345-.838,3.778,3.778,0,0,0-.509,1.39,1.648,1.648,0,0,1,.458-1.6l-.18-.811a5.309,5.309,0,0,0-.755,1.542,2.087,2.087,0,0,1,.727-1.749l-.06-.813a6.347,6.347,0,0,0-.862,1.4,2.509,2.509,0,0,1,.854-1.636l.024-.549s-.477.606-.59.8-.18.162-.18.162a2.617,2.617,0,0,1,.776-1.194A6.473,6.473,0,0,0,760.446,54.114Z" transform="translate(-759.362 -50.277)"/></g><path class="c" d="M895.243,335.935a2.275,2.275,0,1,0,2.275,2.275,2.275,2.275,0,0,0-2.275-2.275ZM888.59,318.08v2.275h2.275l4.1,8.3-1.713,2.787a2.265,2.265,0,0,0,2.169,3.357h13.3v-2.188H895.7a.269.269,0,0,1-.285-.285,1.428,1.428,0,0,1,.121-.283l1.137-1.8h8.477a2.226,2.226,0,0,0,1.991-1.194l4.1-7.046a1.322,1.322,0,0,0,.115-.569,1.094,1.094,0,0,0-1.138-1.081H893.37l-1.081-2.275Zm17.855,17.855a2.275,2.275,0,1,0,2.277,2.276,2.276,2.276,0,0,0-2.277-2.276Z" transform="translate(-753.956 -270.911)"/><path class="j" d="M912.917,326.118h-1.908V324.21h-1.431v1.908H907.67v1.431h1.908v1.908h1.431v-1.908h1.908Z" transform="translate(-763.34 -272.654)"/></g></svg>