<svg xmlns="http://www.w3.org/2000/svg" width="526" height="397.061" viewBox="0 0 526 397.061"><defs><style>.a{fill:#2f2e41;}.b{fill:#ffb8b8;}.c{fill:#f2f2f2;}.d{fill:#fff;}.e{fill:#6c63ff;}.f{fill:#ccc;}.g{opacity:0.1;}.h{fill:#3f3d56;}.i{fill:#ff6584;}.j{fill:#a0616a;}</style></defs><g transform="translate(0 0)"><path class="a" d="M656.823,125.785c4.512,9.6-5.049,12.321-16,17.467s-19.147,10.77-23.659,1.169-8.172-28.658,7.32-35.939C640.511,100.952,652.311,116.184,656.823,125.785Z" transform="translate(-353.706 -106.46)"/><circle class="b" cx="14.743" cy="14.743" r="14.743" transform="translate(266.03 8.721)"/><path class="a" d="M735.457,241.594c-.51-.666-1.021-1.321-1.537-1.957q-1-1.243-2.011-2.407c-7.641-8.818-15.769-14.37-24.719-14.965h-.012l-.132-.012-17.834,17.384-6.063,5.907.132.324,3.271,8.146h57.32A140.924,140.924,0,0,0,735.457,241.594Z" transform="translate(-381.644 -152.747)"/><path class="a" d="M620.913,139.772h0l5.278-2.48-.735-7.613,3.529,6.3,2.522-1.185-.429-4.441,2.059,3.675,18.743-8.808h0a15.607,15.607,0,0,0-20.763-7.488L628.4,119.01a15.607,15.607,0,0,0-7.488,20.763Z" transform="translate(-356.172 -110.373)"/><path class="c" d="M613.8,466.654H305.956a9.916,9.916,0,0,1-9.9-9.9V271.775a7.264,7.264,0,0,1,7.256-7.256H616.319A7.39,7.39,0,0,1,623.7,271.9V456.75A9.916,9.916,0,0,1,613.8,466.654Z" transform="translate(-226.909 -169.642)"/><path class="d" d="M322.156,467.42H610.788a9.6,9.6,0,0,0,9.6-9.6v-157a9.6,9.6,0,0,0-9.6-9.6H322.156a9.6,9.6,0,0,0-9.6,9.6v157A9.6,9.6,0,0,0,322.156,467.42Z" transform="translate(-233.504 -180.312)"/><path class="e" d="M623.47,265.69H295.82v-5.042a9.949,9.949,0,0,1,9.94-9.934H613.53a9.949,9.949,0,0,1,9.94,9.934Z" transform="translate(-226.816 -164.123)"/><circle class="d" cx="2.571" cy="2.571" r="2.571" transform="translate(84.498 91.522)"/><circle class="d" cx="2.571" cy="2.571" r="2.571" transform="translate(94.258 91.522)"/><circle class="d" cx="2.571" cy="2.571" r="2.571" transform="translate(104.018 91.522)"/><path class="f" d="M562.988,503.257H537.177a5.709,5.709,0,0,1-5.7-5.7V471.742a5.709,5.709,0,0,1,5.7-5.7h25.811a5.709,5.709,0,0,1,5.7,5.7v25.811A5.709,5.709,0,0,1,562.988,503.257Zm-25.811-36.016a4.507,4.507,0,0,0-4.5,4.5v25.812a4.507,4.507,0,0,0,4.5,4.5h25.811a4.507,4.507,0,0,0,4.5-4.5V471.742a4.507,4.507,0,0,0-4.5-4.5Z" transform="translate(-321.014 -250.196)"/><path class="f" d="M563.882,500.85H548.275a1.8,1.8,0,0,1-1.8-1.8V479.841a1.8,1.8,0,0,1,1.8-1.8h11.309a1.805,1.805,0,0,1,1.128.4l4.3,3.454a1.791,1.791,0,0,1,.673,1.4v15.755A1.8,1.8,0,0,1,563.882,500.85Zm-15.607-21.61a.6.6,0,0,0-.6.6v19.209a.6.6,0,0,0,.6.6h15.607a.6.6,0,0,0,.6-.6V483.295a.6.6,0,0,0-.224-.468l-4.3-3.454a.6.6,0,0,0-.376-.132Z" transform="translate(-327.01 -254.993)"/><path class="f" d="M563.679,491.241h-9.6a.6.6,0,1,1,0-1.2h9.6a.6.6,0,1,1,0,1.2Z" transform="translate(-329.808 -259.79)"/><path class="f" d="M563.679,497.241h-9.6a.6.6,0,1,1,0-1.2h9.6a.6.6,0,1,1,0,1.2Z" transform="translate(-329.808 -262.188)"/><path class="f" d="M563.679,503.241h-9.6a.6.6,0,0,1,0-1.2h9.6a.6.6,0,0,1,0,1.2Z" transform="translate(-329.808 -264.587)"/><path class="f" d="M664.988,503.257H639.177a5.709,5.709,0,0,1-5.7-5.7V471.742a5.709,5.709,0,0,1,5.7-5.7h25.812a5.709,5.709,0,0,1,5.7,5.7v25.811A5.709,5.709,0,0,1,664.988,503.257Zm-25.812-36.016a4.507,4.507,0,0,0-4.5,4.5v25.812a4.507,4.507,0,0,0,4.5,4.5h25.812a4.507,4.507,0,0,0,4.5-4.5V471.742a4.507,4.507,0,0,0-4.5-4.5Z" transform="translate(-361.787 -250.196)"/><path class="f" d="M666.082,499.246H649.275a1.8,1.8,0,0,1-1.8-1.8v-9.6a1.8,1.8,0,0,1,1.8-1.8h16.807a1.8,1.8,0,0,1,1.8,1.8v9.6A1.8,1.8,0,0,1,666.082,499.246Zm-16.807-12.005a.6.6,0,0,0-.6.6v9.6a.6.6,0,0,0,.6.6h16.807a.6.6,0,0,0,.6-.6v-9.6a.6.6,0,0,0-.6-.6Z" transform="translate(-367.383 -258.191)"/><path class="f" d="M657.678,495.026a1.8,1.8,0,0,1-.954-.272l-8.968-5.6a.6.6,0,0,1,.637-1.018l8.968,5.6a.6.6,0,0,0,.636,0l8.968-5.6a.6.6,0,0,1,.637,1.018l-8.968,5.6A1.8,1.8,0,0,1,657.678,495.026Z" transform="translate(-367.383 -258.99)"/><path class="f" d="M460.988,503.257H435.177a5.709,5.709,0,0,1-5.7-5.7V471.742a5.709,5.709,0,0,1,5.7-5.7h25.812a5.709,5.709,0,0,1,5.7,5.7v25.811A5.709,5.709,0,0,1,460.988,503.257Zm-25.812-36.016a4.507,4.507,0,0,0-4.5,4.5v25.812a4.507,4.507,0,0,0,4.5,4.5h25.812a4.507,4.507,0,0,0,4.5-4.5V471.742a4.507,4.507,0,0,0-4.5-4.5Z" transform="translate(-280.242 -250.196)"/><path class="f" d="M462.082,499.246H445.275a1.8,1.8,0,0,1-1.8-1.8v-9.6a1.8,1.8,0,0,1,1.8-1.8h16.807a1.8,1.8,0,0,1,1.8,1.8v9.6A1.8,1.8,0,0,1,462.082,499.246Zm-16.807-12.005a.6.6,0,0,0-.6.6v9.6a.6.6,0,0,0,.6.6h16.807a.6.6,0,0,0,.6-.6v-9.6a.6.6,0,0,0-.6-.6Z" transform="translate(-285.838 -258.191)"/><path class="f" d="M461.192,502.244h-12.08a1.2,1.2,0,0,1-1.04-1.8l3.638-6.3a1.2,1.2,0,0,1,2.08,0l2.35,4.071,1.362-2.358a1.2,1.2,0,0,1,2.08,0l2.65,4.591a1.2,1.2,0,0,1-1.04,1.8Zm0-1.2h0l-2.65-4.591-1.881,3.259a.6.6,0,0,1-.52.3h0a.6.6,0,0,1-.52-.3l-2.87-4.971-3.639,6.3Z" transform="translate(-287.612 -261.189)"/><circle class="f" cx="1.201" cy="1.201" r="1.201" transform="translate(173.243 230.25)"/><path class="b" d="M761.593,629.247h-7.359l-3.5-28.385h10.861Z" transform="translate(-300.092 -240.184)"/><path class="a" d="M937.014,760.143H913.286v-.3a9.236,9.236,0,0,1,9.236-9.236h14.493Z" transform="translate(-473.637 -363.947)"/><path class="b" d="M811.593,629.247h-7.359l-3.5-28.385h10.861Z" transform="translate(-320.079 -240.184)"/><path class="a" d="M987.018,760.143H963.289v-.3a9.236,9.236,0,0,1,9.236-9.236h14.493Z" transform="translate(-493.625 -363.947)"/><path class="a" d="M969.127,661.456l-6.816-2.073a2.7,2.7,0,0,1-1.9-2.3l-6.354-60.223a.288.288,0,0,0-.287-.269.282.282,0,0,0-.306.246l-10.643,58.346a2.7,2.7,0,0,1-3.2,2.161l-8.711-1.794a2.711,2.711,0,0,1-2.15-2.828l6.474-95.63,43.9-4.737-6.524,106.684a2.7,2.7,0,0,1-3.482,2.42Z" transform="translate(-479.819 -284.698)"/><circle class="b" cx="14.743" cy="14.743" r="14.743" transform="translate(474.523 159.627)"/><path class="e" d="M939.433,508.507l9.519-59.937a22.725,22.725,0,0,1,28.816-18.248h0a22.656,22.656,0,0,1,15.968,25.969l-9.959,53.527Z" transform="translate(-484.089 -235.554)"/><path class="b" d="M996.43,560.23a6.036,6.036,0,0,0,1.049-9.2l9.842-19.059-11.084,1.183-7.647,17.918a6.069,6.069,0,0,0,7.84,9.155Z" transform="translate(-503.097 -276.552)"/><path class="e" d="M1002.186,512.965a2.7,2.7,0,0,1-1.457-.691l-3.766-3.479a2.71,2.71,0,0,1-.655-3.034l7.526-17.839-1.068-35.248a8.7,8.7,0,0,1,17.244,2.352l1.825,22.157a27.837,27.837,0,0,1-5.365,18.846L1004.734,511.9a2.7,2.7,0,0,1-1.918,1.083A2.671,2.671,0,0,1,1002.186,512.965Z" transform="translate(-506.739 -241.845)"/><path class="b" d="M854.432,378.763a6.036,6.036,0,0,0,8.059,4.551l13.714,16.494,3.232-10.668-13.518-14.028a6.069,6.069,0,0,0-11.487,3.65Z" transform="translate(-450.068 -212.425)"/><path class="e" d="M872.145,392.678a2.7,2.7,0,0,1,1.2-1.072l4.672-2.111a2.71,2.71,0,0,1,3.049.579l13.493,13.885,32.874,12.76a8.7,8.7,0,1,1-8.889,14.962l-21.115-6.958a27.836,27.836,0,0,1-15.263-12.289l-10.035-16.994a2.7,2.7,0,0,1,.01-2.763Z" transform="translate(-457.038 -219.504)"/><path class="g" d="M827.238,375.652l-.6,19.209L815.58,414.076l9.233-21.413Z" transform="translate(-326.014 -150.16)"/><path class="a" d="M981.531,387.554a3.856,3.856,0,0,1-4.22-2.823,5.861,5.861,0,0,0-4.172-4.366c-2.7-.618-6.01.655-7.992-1.394a3.985,3.985,0,0,1-.946-3.507,8.054,8.054,0,0,1,3.339-4.7,20.447,20.447,0,0,1,11.325-4.232,40.621,40.621,0,0,1,6.375.317,28.214,28.214,0,0,1,6.521,1.192,15.352,15.352,0,0,1,9.605,11.213,17.724,17.724,0,0,1-3.636,14.485,19.029,19.029,0,0,1-7.3,5.558,2.848,2.848,0,0,1-2.165.11c-1.775-.706-1.485-2.9-.676-4.371.866-1.57,2.2-3.089,1.5-5a3.783,3.783,0,0,0-1.877-2.021c-1.765-.9-3.739-.687-5.636-.468Z" transform="translate(-493.955 -210.413)"/><path class="d" d="M718.183,376.259H535.7a9.916,9.916,0,0,1-9.9-9.9V327.337a9.916,9.916,0,0,1,9.9-9.9H718.183a9.916,9.916,0,0,1,9.9,9.9v39.017A9.916,9.916,0,0,1,718.183,376.259Z" transform="translate(-318.745 -190.793)"/><path class="h" d="M717.983,376.36H535.5a10.216,10.216,0,0,1-10.2-10.2V327.138a10.216,10.216,0,0,1,10.2-10.2H717.983a10.216,10.216,0,0,1,10.2,10.2v39.017A10.216,10.216,0,0,1,717.983,376.36ZM535.5,318.134a9.014,9.014,0,0,0-9,9v39.017a9.014,9.014,0,0,0,9,9H717.983a9.014,9.014,0,0,0,9-9V327.138a9.014,9.014,0,0,0-9-9Z" transform="translate(-318.545 -190.593)"/><path class="c" d="M710.763,372.651H572.7a9.916,9.916,0,0,1-9.9-9.9V342.337a9.916,9.916,0,0,1,9.9-9.9H710.763a9.916,9.916,0,0,1,9.9,9.9v20.409a9.916,9.916,0,0,1-9.9,9.9Z" transform="translate(-333.535 -196.789)"/><circle class="i" cx="11.845" cy="11.845" r="11.845" transform="translate(257.032 141.172)"/><path class="h" d="M714.349,376.422,697.63,362.4,681.2,348.62a2.4,2.4,0,0,0-3.093.006L661.73,362.469l-4,3.382-6.032-5.059-18.33-15.373a2.4,2.4,0,0,0-3.093.006L612,360.869l-18.559,15.687a.6.6,0,0,0,.389,1.059l38.049-.073,12.044-.023-.118.1,35.9-.069,34.255-.066a.6.6,0,0,0,.384-1.06Z" transform="translate(-345.701 -201.756)"/><path class="f" d="M978.992,767.134H863.74a.6.6,0,0,1,0-1.2H978.992a.6.6,0,0,1,0,1.2Z" transform="translate(-453.592 -370.073)"/><path class="b" d="M744.689,207.925a6.736,6.736,0,0,0-4.352-3.061,6.183,6.183,0,0,0-1-.126l-45.735-40.89a5.412,5.412,0,0,0-3.379-1.615,4.6,4.6,0,0,0-.762-.024,5.435,5.435,0,0,0-3.578,9.292l17.51,15.265,28.753,25.061a7.149,7.149,0,0,0,.21,1.4,6.763,6.763,0,0,0,5.8,5.024,6.658,6.658,0,0,0,3.632-.6,6.847,6.847,0,0,0,2.329-1.783c.066-.078.126-.15.186-.234a6.779,6.779,0,0,0,.378-7.707Z" transform="translate(-382.094 -128.743)"/><path class="b" d="M646.366,259.868l-.426-17.324-.36-14.376-.246-10.06-.486-19.611a5.43,5.43,0,0,0-9.43-3.151,4.152,4.152,0,0,0-.45.576,5.365,5.365,0,0,0-.936,3.632l1.069,28.615.534,14.376.684,18.338a7.228,7.228,0,0,0-.534.846,6.788,6.788,0,1,0,10.583-1.861Z" transform="translate(-361.998 -141.278)"/><path class="f" d="M687.917,198.006l-4.244-11.5-6.867-18.62a9.608,9.608,0,0,0-5.973-5.811c-.108-.036-.222-.072-.33-.1a9.6,9.6,0,0,0-7.947,1.092l-23.128,14.671a9.66,9.66,0,0,0-3.163,13.056,165.855,165.855,0,0,0,9.442,14.521c2.7,3.668,7.714,4.058,8.584,10.06h17.053l17.264-15.5Z" transform="translate(-362.37 -128.487)"/><circle class="j" cx="13.909" cy="13.909" r="13.909" transform="translate(46.817 182.187)"/><path class="j" d="M315.975,416.295q.206.164.4.347a6.231,6.231,0,0,1-.25,9.294,5.842,5.842,0,0,1-.489.368l.941,31.781a4.839,4.839,0,0,1-3.329,4.722l-.057.012-25.8,2.748a5.341,5.341,0,1,1-1.034-10.633l18.395-1.62,3.181-27.523a5.933,5.933,0,0,1-.583-.594,6.231,6.231,0,0,1,8.631-8.9Z" transform="translate(-221.102 -229.772)"/><path class="j" d="M139.327,631.341h6.943l3.3-26.78H139.326Z" transform="translate(-55.693 -241.663)"/><path class="a" d="M317.242,751.858h13.673a8.713,8.713,0,0,1,8.714,8.714v.283H317.242Z" transform="translate(-235.379 -364.447)"/><path class="j" d="M24.366,617.859l5.965,3.552,16.539-21.32-8.8-5.242Z" transform="translate(-9.74 -237.781)"/><path class="a" d="M201.562,734.889l11.748,6.995h0a8.713,8.713,0,0,1,3.029,11.945l-.145.243L196.96,742.619Z" transform="translate(-187.298 -357.664)"/><path class="a" d="M285.437,654.844h-7.775a2.544,2.544,0,0,1-2.534-2.279L267.29,578.89a.85.85,0,0,0-1.619-.26l-14.14,31.309L226.5,650.759a2.561,2.561,0,0,1-3.2,1l-10-4.4a2.549,2.549,0,0,1-1.161-3.64l23.013-38.532,7.058-32.465c-2.22-14.079,7.3-35.011,7.393-35.221l.047-.1,26.212-10.245.131.161c10.337,33.923,16.636,70.431,11.985,125.2a2.566,2.566,0,0,1-2.54,2.335Z" transform="translate(-193.221 -274.624)"/><path class="h" d="M265.427,515.644l-.122-.257c-.058-.123-5.887-12.416-10.38-25.554a19.38,19.38,0,0,1,1.344-15.531,19.591,19.591,0,0,1,12.493-9.607h0a19.615,19.615,0,0,1,22.767,11.747c3.564,8.912,2.428,18.425,1.359,25.906l-.021.15-.136.065Z" transform="translate(-210.057 -249.442)"/><path class="a" d="M295.416,412.243H273.33v-9.628c4.848-1.926,9.591-3.564,12.459,0a9.627,9.627,0,0,1,9.627,9.627Z" transform="translate(-217.826 -224.003)"/><path class="a" d="M260.039,401.185c-13.2,0-16.9,16.55-16.9,25.887,0,5.207,2.355,7.069,6.055,7.7l1.307-6.97,3.061,7.27c1.039.005,2.131-.015,3.264-.036l1.038-2.137,2.314,2.1c9.269.014,16.76,1.365,16.76-7.925C276.938,417.735,273.7,401.185,260.039,401.185Z" transform="translate(-205.758 -224.272)"/><path class="f" d="M296.716,767.134H181.464a.6.6,0,1,1,0-1.2H296.716a.6.6,0,1,1,0,1.2Z" transform="translate(-180.864 -370.073)"/><path class="d" d="M356.488,414.15H330.677a5.709,5.709,0,0,1-5.7-5.7V382.636a5.709,5.709,0,0,1,5.7-5.7h25.811a5.709,5.709,0,0,1,5.7,5.7v25.811A5.709,5.709,0,0,1,356.488,414.15Z" transform="translate(-238.47 -214.577)"/><path class="h" d="M356.488,414.15H330.677a5.709,5.709,0,0,1-5.7-5.7V382.636a5.709,5.709,0,0,1,5.7-5.7h25.811a5.709,5.709,0,0,1,5.7,5.7v25.811A5.709,5.709,0,0,1,356.488,414.15Zm-25.812-36.016a4.507,4.507,0,0,0-4.5,4.5v25.812a4.507,4.507,0,0,0,4.5,4.5h25.812a4.507,4.507,0,0,0,4.5-4.5V382.636a4.507,4.507,0,0,0-4.5-4.5Z" transform="translate(-238.47 -214.577)"/><path class="e" d="M357.582,410.64H340.775a1.8,1.8,0,0,1-1.8-1.8V396.234a1.8,1.8,0,0,1,1.8-1.8h4.731a1.79,1.79,0,0,1,1.534.857l1.32,2.145h9.223a1.8,1.8,0,0,1,1.8,1.8v9.6A1.8,1.8,0,0,1,357.582,410.64Z" transform="translate(-244.066 -221.573)"/><path class="j" d="M336.283,429.888q.126.231.233.474a6.231,6.231,0,0,1-3.837,8.469,5.834,5.834,0,0,1-.593.15l-11.465,29.656a4.839,4.839,0,0,1-4.9,3.061l-.058-.011-24.849-7.481a5.341,5.341,0,1,1,3.173-10.2l17.582,5.645,13.612-24.132a5.93,5.93,0,0,1-.307-.774,6.231,6.231,0,0,1,11.409-4.857Z" transform="translate(-223.313 -234.452)"/></g></svg>