<svg xmlns="http://www.w3.org/2000/svg" width="488.08" height="367.717" viewBox="0 0 488.08 367.717"><defs><style>.a{fill:#3f3d56;}.b{fill:#fff;}.c{fill:#e6e6e6;}.d{fill:#6c63ff;}.e{fill:#a0616a;}.f{fill:#ccc;}.g{fill:#2f2e41;}</style></defs><g transform="translate(0 0)"><path class="a" d="M664.46,173.494h-2.02V118.146a32.034,32.034,0,0,0-32.034-32.034H513.141a32.034,32.034,0,0,0-32.034,32.034V421.793a32.034,32.034,0,0,0,32.035,32.034H630.406a32.034,32.034,0,0,0,32.034-32.034v-208.9h2.021Z" transform="translate(-297.139 -86.111)"/><path class="b" d="M640.353,102.606H625.047a11.366,11.366,0,0,1-10.523,15.658H547.344a11.366,11.366,0,0,1-10.523-15.658h-14.3A23.923,23.923,0,0,0,498.6,126.529v303.2a23.923,23.923,0,0,0,23.923,23.923H640.353a23.923,23.923,0,0,0,23.923-23.923h0v-303.2a23.923,23.923,0,0,0-23.923-23.923Z" transform="translate(-305.794 -94.272)"/><ellipse class="c" cx="21.221" cy="2.021" rx="21.221" ry="2.021" transform="translate(278.832 135.767)"/><path class="d" d="M774.706,99.868H579.346V164h7.4v16.774L603.519,164H774.706Z" transform="translate(-286.626 -49.409)"/><rect class="b" width="88.835" height="2.696" transform="translate(314.464 72.177)"/><rect class="b" width="154.832" height="2.696" transform="translate(314.464 81.503)"/><rect class="b" width="154.681" height="2.696" transform="translate(314.464 90.83)"/><path class="d" d="M714.523,482.708H558.58V533.9h5.907V547.29L577.876,533.9H714.523Z" transform="translate(-276.352 -238.815)"/><rect class="b" width="70.911" height="2.152" transform="translate(299.585 261.229)"/><rect class="b" width="123.593" height="2.152" transform="translate(299.585 268.673)"/><rect class="b" width="123.471" height="2.152" transform="translate(299.585 276.118)"/><ellipse class="c" cx="16.939" cy="1.613" rx="16.939" ry="1.613" transform="translate(271.141 311.989)"/><ellipse class="c" cx="21.221" cy="2.021" rx="21.221" ry="2.021" transform="translate(220.221 210.546)"/><path class="d" d="M220.435,298.894H357.819V344h-5.2v11.8l-11.8-11.8H220.435Z" transform="translate(-109.058 -147.875)"/><rect class="b" width="62.472" height="1.896" transform="translate(125.627 165.945)"/><rect class="b" width="108.883" height="1.896" transform="translate(125.627 172.504)"/><rect class="b" width="108.776" height="1.896" transform="translate(125.627 179.062)"/><path class="e" d="M204.33,560.544a4.946,4.946,0,0,0,8.554-4.967,5.322,5.322,0,0,0-.466-.661l4.16-29.653.125-.888.845-6.051.125-.872-.46.022-8.061.368-2.162.1-.271,5.52-1.533,31.035a4.939,4.939,0,0,0-.856,6.051Z" transform="translate(-159.875 -299.512)"/><path class="f" d="M217.612,500.859l-10.235-.939a2.02,2.02,0,0,1-1.822-2.187l1.9-21.285a7.761,7.761,0,1,1,15.408,1.819l-3.069,20.878a2.017,2.017,0,0,1-1.993,1.723C217.736,500.867,217.674,500.865,217.612,500.859Z" transform="translate(-160.808 -275.727)"/><path class="f" d="M213.276,479.637a14.256,14.256,0,0,1,5.243-16.407c3.86-2.641,9.141-3.589,14.829,3.183a70.815,70.815,0,0,1,14.355,28.44l-23.294,3.792S216.488,488.962,213.276,479.637Z" transform="translate(-164.229 -271.703)"/><path class="e" d="M171.634,688.381h6.641l3.159-25.617h-9.8Z" transform="translate(-84.914 -327.896)"/><path class="g" d="M0,0H20.873V8.064H6.441A6.441,6.441,0,0,1,0,1.624V0Z" transform="translate(106.168 366.652) rotate(179.997)"/><path class="e" d="M63.569,678.185l6.306,2.084,11.04-23.33-9.306-3.076Z" transform="translate(-31.45 -323.492)"/><path class="g" d="M0,0H20.873V8.064H6.441A6.441,6.441,0,0,1,0,1.624V0Z" transform="translate(48.65 366.651) rotate(-161.71)"/><circle class="e" cx="13.305" cy="13.305" r="13.305" transform="translate(45.611 166.212) rotate(-28.663)"/><path class="g" d="M217.117,656.452l-6.168-40.707a1.9,1.9,0,0,0-3.717-.162l-9.392,38.793a2.455,2.455,0,0,1-2.756,1.834l-25.907-4.164a2.438,2.438,0,0,1-1.946-3.115l33.782-111.374a1.9,1.9,0,0,0,.033-.976l-1.125-4.874a2.429,2.429,0,0,1,1.26-2.716c4.6-2.347,16.249-7.227,25.044-1.882a2.465,2.465,0,0,1,1.126,1.586l26.39,124.034a2.438,2.438,0,0,1-2.167,2.936l-31.829,2.85q-.11.01-.218.01A2.442,2.442,0,0,1,217.117,656.452Z" transform="translate(-141.799 -303.099)"/><path class="g" d="M218.052,399.866a10.065,10.065,0,0,0,2.63-2.286,3.414,3.414,0,0,0,.525-3.3c-.672-1.483-2.67-1.953-4.218-1.447a14.936,14.936,0,0,0-6.369,6.352,3.028,3.028,0,0,0,4.868,3.5,10.005,10.005,0,0,0,2.451-3.4Z" transform="translate(-163.206 -237.76)"/><path class="g" d="M195.464,393.693c-.074-3.749-4.347-6.437-8.037-5.773s-6.527,3.811-7.947,7.281c-3,7.332-.748,15.7,2.143,23.075s6.468,14.864,6.046,22.775A23.794,23.794,0,0,1,173.847,461.1c4.165,1.888,9.143-.062,12.643-3.005a25.267,25.267,0,0,0,7.129-27.651c-1.8-4.675-4.964-8.675-7.436-13.031s-4.286-9.49-3.01-14.333,6.709-8.766,11.353-6.89Z" transform="translate(-145.125 -235.378)"/><path class="g" d="M228.995,416.8c-1.16-1.96-2.331-4.533-.21-6.246a4.368,4.368,0,0,1,3.278-.867,15.63,15.63,0,0,0,7.306-.461,6.849,6.849,0,0,0,3.973-3.57c1.194-2.83-.3-6.269-2.8-8.058a9.425,9.425,0,0,0-10.432-.185,10.748,10.748,0,0,0-10.1,1.173,16.047,16.047,0,0,0-6.041,8.478,16.363,16.363,0,0,0-.5,9,13.376,13.376,0,0,0,8.3,9.143,4.817,4.817,0,0,0,4.757-.706,8.949,8.949,0,0,0,2.408-3.529C229.379,419.493,229.615,417.848,228.995,416.8Z" transform="translate(-164.529 -239.391)"/><path class="e" d="M288.353,456.437a5.7,5.7,0,0,0-.13.888l-23.271,13.425-5.656-3.256-6.03,7.894,9.453,6.738a4.334,4.334,0,0,0,5.2-.127l24-18.931a5.686,5.686,0,1,0-3.562-6.631Z" transform="translate(-184.417 -267.155)"/><path class="f" d="M252.981,479.54l-7.521,9.747a2.438,2.438,0,0,1-3.686.2l-8.514-8.841a6.77,6.77,0,1,1,8.3-10.7l10.679,5.971a2.438,2.438,0,0,1,.74,3.616Z" transform="translate(-173.223 -275.309)"/><path class="f" d="M273.264,812.65H117.634a.633.633,0,1,1,0-1.265H273.264a.633.633,0,0,1,0,1.265Z" transform="translate(-117.001 -444.933)"/></g></svg>