<svg xmlns="http://www.w3.org/2000/svg" width="139.067" height="117.413" viewBox="0 0 139.067 117.413"><defs><style>.a{fill:#dce0e3;}</style></defs><g transform="translate(0 -7.785)"><path class="a" d="M24.294,7.785l-9.5,9.5-9.506-9.5L0,13.071l9.506,9.5L0,32.078l5.286,5.286,9.506-9.5,9.5,9.5,5.286-5.286-9.5-9.506,9.5-9.5Z" transform="translate(0 0)"/><path class="a" d="M24.294,38.691l-9.5,9.506L5.286,38.691,0,43.977l9.506,9.506L0,62.99l5.286,5.286,9.506-9.506,9.5,9.506,5.286-5.286-9.5-9.506,9.5-9.506Z" transform="translate(0 12.074)"/><path class="a" d="M24.294,70.945l-9.5,9.5-9.506-9.5L0,76.231l9.506,9.5L0,95.238l5.286,5.286,9.506-9.5,9.5,9.5,5.286-5.286-9.5-9.506,9.5-9.5Z" transform="translate(0 24.675)"/><path class="a" d="M37.512,52.688h65.41v7.475H37.512Z" transform="translate(14.655 17.542)"/><path class="a" d="M37.512,40.594h86.9v7.475h-86.9Z" transform="translate(14.655 12.817)"/><path class="a" d="M37.512,84.941h65.41v7.475H37.512Z" transform="translate(14.655 30.143)"/><path class="a" d="M37.512,72.844h86.9v7.475h-86.9Z" transform="translate(14.655 25.417)"/><path class="a" d="M37.512,21.781h65.41v7.475H37.512Z" transform="translate(14.655 5.468)"/><path class="a" d="M37.512,9.684h86.9v7.475h-86.9Z" transform="translate(14.655 0.742)"/></g></svg>