<svg xmlns="http://www.w3.org/2000/svg" width="88.796" height="28.075" viewBox="0 0 88.796 28.075"><defs><style>.a{fill:#000;}.b{fill:#006dff;}</style></defs><g transform="translate(-72.731 -111.874)"><g transform="translate(118.347 111.874)"><path class="a" d="M308.328,122.334v-1.257l1.114-.216v-7.507l-1.114-.216v-1.264h4.332v1.264l-1.121.216v7.371h2.953l.1-1.315h1.6v2.924Z" transform="translate(-308.111 -111.874)"/><path class="a" d="M361.128,133.014a3.5,3.5,0,0,1-2.687-1.078,3.852,3.852,0,0,1-1.006-2.737v-.287a4.253,4.253,0,0,1,.952-2.852,3.549,3.549,0,0,1,5-.165,3.649,3.649,0,0,1,.869,2.565V129.6h-4.641l-.014.043a2.028,2.028,0,0,0,.514,1.264,1.6,1.6,0,0,0,1.239.5,4.037,4.037,0,0,0,1.157-.14,5.312,5.312,0,0,0,1.006-.442l.567,1.293a4.127,4.127,0,0,1-1.246.639A5.3,5.3,0,0,1,361.128,133.014Zm-.187-6.451a1.092,1.092,0,0,0-.92.445,2.318,2.318,0,0,0-.417,1.171l.022.036H362.2v-.187a1.681,1.681,0,0,0-.313-1.067A1.125,1.125,0,0,0,360.941,126.562Z" transform="translate(-347.665 -122.403)"/><path class="a" d="M407.239,132.863a3.741,3.741,0,0,1-.151-.4,3.119,3.119,0,0,1-.1-.413,2.887,2.887,0,0,1-.909.7,2.719,2.719,0,0,1-1.225.266,2.566,2.566,0,0,1-1.814-.621,2.191,2.191,0,0,1-.672-1.692,1.924,1.924,0,0,1,.876-1.688,4.578,4.578,0,0,1,2.572-.6h1.07v-.762a1.145,1.145,0,0,0-.323-.869,1.334,1.334,0,0,0-.956-.309,2.262,2.262,0,0,0-.639.083,1.676,1.676,0,0,0-.452.2l-.137.833H402.8l.007-1.724a5.889,5.889,0,0,1,1.318-.654,4.778,4.778,0,0,1,1.62-.266,3.688,3.688,0,0,1,2.346.708,2.412,2.412,0,0,1,.9,2.015v3.211q0,.18,0,.338a2.449,2.449,0,0,0,.025.3l.639.086v1.257Zm-1.818-1.4a1.82,1.82,0,0,0,.862-.2,1.667,1.667,0,0,0,.6-.514v-1.186h-1.07a1.462,1.462,0,0,0-1.013.313.978.978,0,0,0-.345.751.777.777,0,0,0,.255.618A1.039,1.039,0,0,0,405.421,131.462Z" transform="translate(-383.856 -122.403)"/><path class="a" d="M448.259,131.606l1.006-.216v-4.82l-1.114-.216V125.09h3.068l.093,1.135a2.451,2.451,0,0,1,.7-.941,1.574,1.574,0,0,1,1-.338,2.573,2.573,0,0,1,.348.025,2.169,2.169,0,0,1,.305.061l-.223,1.911-.862-.022a1.468,1.468,0,0,0-.761.18,1.161,1.161,0,0,0-.46.51v3.779l1.006.216v1.257h-4.109Z" transform="translate(-420.733 -122.403)"/><path class="a" d="M483.074,131.606l1.006-.216v-4.82l-1.114-.216V125.09h3.068l.093,1.114a2.841,2.841,0,0,1,.955-.927,2.481,2.481,0,0,1,1.272-.331,2.339,2.339,0,0,1,1.839.74,3.417,3.417,0,0,1,.661,2.32v3.384l1.006.216v1.257h-4.009v-1.257l.9-.216v-3.376a1.573,1.573,0,0,0-.316-1.11,1.273,1.273,0,0,0-.956-.327,1.619,1.619,0,0,0-.747.169,1.534,1.534,0,0,0-.553.478v4.167l.848.216v1.257h-3.951Z" transform="translate(-448.775 -122.403)"/><path class="a" d="M389.34,181.832a2.711,2.711,0,0,1,.634-1.855,2.493,2.493,0,0,1,3.508,0,2.707,2.707,0,0,1,.634,1.857v.1a2.705,2.705,0,0,1-.634,1.859,2.5,2.5,0,0,1-3.508,0,2.707,2.707,0,0,1-.634-1.859Zm1.366.1a2.2,2.2,0,0,0,.243,1.111.84.84,0,0,0,.786.418.831.831,0,0,0,.774-.421,2.185,2.185,0,0,0,.246-1.109v-.1a2.164,2.164,0,0,0-.248-1.1.839.839,0,0,0-.781-.426.829.829,0,0,0-.777.426,2.2,2.2,0,0,0-.243,1.1Z" transform="translate(-373.363 -166.147)"/><path class="a" d="M417.182,183.591l.655-.14v-3.139l-.725-.14v-.823h2l.061.739a1.592,1.592,0,0,1,.458-.613,1.025,1.025,0,0,1,.65-.22,1.675,1.675,0,0,1,.227.016,1.383,1.383,0,0,1,.2.04l-.145,1.244-.561-.014a.958.958,0,0,0-.5.117.756.756,0,0,0-.3.332v2.461l.655.14v.818h-2.676Z" transform="translate(-395.732 -166.147)"/><path class="a" d="M316.537,201.647v2.787h-1.609l-.086-1.171h-1.925v7.371l1.121.216v1.257H309.7V210.85l1.121-.216v-7.371H308.9l-.086,1.171h-1.6v-2.787Z" transform="translate(-307.212 -184.183)"/><path class="a" d="M361.28,222.787a3.5,3.5,0,0,1-2.687-1.078,3.853,3.853,0,0,1-1.006-2.737v-.287a4.252,4.252,0,0,1,.952-2.852,3.549,3.549,0,0,1,5-.165,3.649,3.649,0,0,1,.869,2.565v1.142h-4.641l-.014.043a2.028,2.028,0,0,0,.514,1.264,1.6,1.6,0,0,0,1.239.5,4.038,4.038,0,0,0,1.157-.14,5.315,5.315,0,0,0,1.006-.442l.568,1.293a4.131,4.131,0,0,1-1.247.639A5.306,5.306,0,0,1,361.28,222.787Zm-.187-6.451a1.092,1.092,0,0,0-.919.445,2.317,2.317,0,0,0-.417,1.171l.021.036h2.572V217.8a1.683,1.683,0,0,0-.313-1.067A1.127,1.127,0,0,0,361.093,216.336Z" transform="translate(-347.787 -194.712)"/><path class="a" d="M404.82,222.637a3.759,3.759,0,0,1-.151-.4,3.16,3.16,0,0,1-.1-.413,2.882,2.882,0,0,1-.909.7,2.717,2.717,0,0,1-1.225.266,2.567,2.567,0,0,1-1.814-.621,2.191,2.191,0,0,1-.672-1.692,1.924,1.924,0,0,1,.876-1.688,4.577,4.577,0,0,1,2.572-.6h1.07v-.761a1.146,1.146,0,0,0-.323-.869,1.333,1.333,0,0,0-.955-.309,2.262,2.262,0,0,0-.639.082,1.676,1.676,0,0,0-.453.2l-.137.833h-1.58l.007-1.724a5.89,5.89,0,0,1,1.318-.654,4.786,4.786,0,0,1,1.62-.266,3.689,3.689,0,0,1,2.345.708,2.412,2.412,0,0,1,.9,2.015v3.211q0,.179,0,.337a2.413,2.413,0,0,0,.025.3l.639.086v1.257Zm-1.818-1.4a1.817,1.817,0,0,0,.862-.2,1.664,1.664,0,0,0,.6-.514v-1.185H403.4a1.462,1.462,0,0,0-1.013.312.978.978,0,0,0-.345.751.777.777,0,0,0,.255.618A1.04,1.04,0,0,0,403,221.236Z" transform="translate(-381.908 -194.712)"/><path class="a" d="M446.672,221.178a1.235,1.235,0,0,0,.9-.327,1.158,1.158,0,0,0,.338-.873h1.9l.022.043a2.426,2.426,0,0,1-.884,1.972,3.736,3.736,0,0,1-4.95-.305,4.186,4.186,0,0,1-.941-2.823v-.216a4.136,4.136,0,0,1,.966-2.823,3.463,3.463,0,0,1,2.755-1.106,4.781,4.781,0,0,1,1.688.28,3.334,3.334,0,0,1,1.243.79l.029,2.076h-1.7l-.345-1.214a1.331,1.331,0,0,0-.388-.226,1.436,1.436,0,0,0-.524-.09,1.325,1.325,0,0,0-1.257.647,3.356,3.356,0,0,0-.366,1.667v.216a3.578,3.578,0,0,0,.338,1.677A1.226,1.226,0,0,0,446.672,221.178Z" transform="translate(-416.625 -194.712)"/><path class="a" d="M483.526,207.757l1.013-.216v-8.254l-1.121-.216v-1.264h3.211v4.425a2.647,2.647,0,0,1,.9-.837,2.6,2.6,0,0,1,3.093.51,3.771,3.771,0,0,1,.693,2.5v3.139l1.006.216v1.257H488.31v-1.257l.905-.216v-3.154a2,2,0,0,0-.32-1.282,1.178,1.178,0,0,0-.952-.377,1.738,1.738,0,0,0-.765.158,1.528,1.528,0,0,0-.55.445v4.21l.905.216v1.257h-4.009Z" transform="translate(-449.139 -181.09)"/></g><g transform="translate(72.731 112.412)"><path class="b" d="M84.587,135.913l3.358,1.579,11.761,5.532a23.775,23.775,0,0,0-4.631,2.135c-.569.34-1.133.708-1.683,1.1l-9.857-4.066-8.053-3.322a16.193,16.193,0,0,1,9.105-2.959m.221-1.522a17.355,17.355,0,0,0-10.755,3.775c-.47.377-.911.77-1.323,1.172l20.807,8.584a24.154,24.154,0,0,1,2.087-1.4,22.431,22.431,0,0,1,8.588-3l-19.405-9.127Z" transform="translate(-72.731 -130.549)"/><path class="b" d="M146.875,116.172l16.366,6.705-.525.21a25.959,25.959,0,0,0-3.657,1.813c-.288.172-.576.352-.861.538L141.8,117.728a13.361,13.361,0,0,1,1.509-.711,12.542,12.542,0,0,1,3.562-.844m.167-1.532a13.554,13.554,0,0,0-4.115.934,15.168,15.168,0,0,0-4.041,2.408l19.4,9.127q.635-.434,1.32-.845a24.727,24.727,0,0,1,3.5-1.734v8.726a1.653,1.653,0,0,0-.043,2.159l-.38,2.763h2.37l-.38-2.763a1.653,1.653,0,0,0-.043-2.159v-9.279a24.545,24.545,0,0,1,3.219-.812l-20.806-8.524Z" transform="translate(-126.015 -114.64)"/><g transform="translate(8.928 13.519)"><path class="b" d="M120.051,186.573l9.43,4,.326.138.469.2.469-.2.326-.138,9.429-4v5.915c-.042.2-.612,1.051-2.713,1.854a24.065,24.065,0,0,1-15.023,0c-2.1-.8-2.671-1.658-2.713-1.854v-5.915m-1.425-2.44V192.5c0,2.641,5.216,4.782,11.65,4.782s11.65-2.141,11.65-4.782v-8.364l-.735.312-10.589,4.49-.326.138-.326-.138-10.589-4.49-.735-.312Z" transform="translate(-118.626 -184.133)"/></g><path class="b" d="M179.688,203.947" transform="translate(-158.881 -186.573)"/></g></g></svg>