<svg xmlns="http://www.w3.org/2000/svg" width="70.118" height="22.17" viewBox="0 0 70.118 22.17"><defs><style>.a{fill:#006dff;}</style></defs><g transform="translate(-72.731 -111.874)"><g transform="translate(108.752 111.874)"><path d="M308.328,120.134v-.993l.879-.17v-5.928l-.879-.17v-1h3.421v1l-.885.17v5.82H313.2l.079-1.038h1.265v2.309Z" transform="translate(-308.157 -111.874)"/><path d="M360.351,131.317a2.764,2.764,0,0,1-2.122-.851,3.042,3.042,0,0,1-.794-2.161v-.227a3.358,3.358,0,0,1,.751-2.252,2.8,2.8,0,0,1,3.946-.13,2.881,2.881,0,0,1,.687,2.025v.9h-3.665l-.011.034a1.6,1.6,0,0,0,.406,1,1.265,1.265,0,0,0,.979.391,3.188,3.188,0,0,0,.913-.111,4.2,4.2,0,0,0,.794-.349l.448,1.021a3.26,3.26,0,0,1-.984.5A4.186,4.186,0,0,1,360.351,131.317Zm-.147-5.094a.863.863,0,0,0-.726.352,1.83,1.83,0,0,0-.329.925l.017.028H361.2v-.147a1.328,1.328,0,0,0-.247-.842A.889.889,0,0,0,360.2,126.222Z" transform="translate(-349.72 -122.938)"/><path d="M406.214,131.2a2.952,2.952,0,0,1-.119-.315,2.466,2.466,0,0,1-.079-.326,2.279,2.279,0,0,1-.718.55,2.147,2.147,0,0,1-.967.21,2.026,2.026,0,0,1-1.432-.491,1.73,1.73,0,0,1-.53-1.336,1.519,1.519,0,0,1,.692-1.333,3.615,3.615,0,0,1,2.031-.471h.845v-.6a.9.9,0,0,0-.255-.686,1.053,1.053,0,0,0-.755-.244,1.787,1.787,0,0,0-.5.065,1.323,1.323,0,0,0-.357.156l-.108.658h-1.248l.006-1.362a4.651,4.651,0,0,1,1.041-.516,3.773,3.773,0,0,1,1.279-.21,2.912,2.912,0,0,1,1.852.559,1.9,1.9,0,0,1,.712,1.591v2.536q0,.142,0,.267a1.935,1.935,0,0,0,.02.238l.5.068v.993Zm-1.435-1.106a1.437,1.437,0,0,0,.681-.162,1.317,1.317,0,0,0,.477-.406v-.936h-.845a1.154,1.154,0,0,0-.8.247.772.772,0,0,0-.272.593.613.613,0,0,0,.2.488A.821.821,0,0,0,404.779,130.091Z" transform="translate(-387.75 -122.938)"/><path d="M448.236,130.2l.794-.17v-3.807l-.879-.17v-1h2.422l.074.9a1.935,1.935,0,0,1,.556-.743,1.243,1.243,0,0,1,.789-.267,2.033,2.033,0,0,1,.275.02,1.712,1.712,0,0,1,.241.048l-.176,1.509-.681-.017a1.159,1.159,0,0,0-.6.142.917.917,0,0,0-.363.4v2.984l.794.17v.993h-3.245Z" transform="translate(-426.5 -122.938)"/><path d="M483.051,130.2l.794-.17v-3.807l-.879-.17v-1h2.422l.074.879a2.244,2.244,0,0,1,.754-.732,1.959,1.959,0,0,1,1-.261,1.847,1.847,0,0,1,1.452.584,2.7,2.7,0,0,1,.522,1.832v2.672l.794.17v.993h-3.165V130.2l.709-.17v-2.666a1.242,1.242,0,0,0-.249-.877,1,1,0,0,0-.755-.258,1.278,1.278,0,0,0-.59.133,1.212,1.212,0,0,0-.437.377v3.29l.669.17v.993h-3.12Z" transform="translate(-455.967 -122.938)"/><path d="M389.34,181.29a2.14,2.14,0,0,1,.5-1.465,1.969,1.969,0,0,1,2.77,0,2.137,2.137,0,0,1,.5,1.466v.078a2.136,2.136,0,0,1-.5,1.468,1.976,1.976,0,0,1-2.77,0,2.138,2.138,0,0,1-.5-1.468Zm1.079.078a1.74,1.74,0,0,0,.192.877.663.663,0,0,0,.621.33.656.656,0,0,0,.611-.332,1.726,1.726,0,0,0,.194-.875v-.078a1.709,1.709,0,0,0-.2-.868.663.663,0,0,0-.617-.336.654.654,0,0,0-.613.336,1.737,1.737,0,0,0-.192.868Z" transform="translate(-376.724 -168.904)"/><path d="M417.167,182.679l.517-.111V180.09l-.573-.111v-.65h1.577l.048.584a1.257,1.257,0,0,1,.362-.484.809.809,0,0,1,.513-.174,1.324,1.324,0,0,1,.179.013,1.094,1.094,0,0,1,.157.031l-.114.983-.443-.011a.756.756,0,0,0-.392.092.6.6,0,0,0-.236.262v1.943l.517.111v.646h-2.113Z" transform="translate(-400.229 -168.904)"/><path d="M314.575,201.647v2.2H313.3l-.068-.925h-1.52v5.82l.885.17v.993h-3.427v-.993l.885-.17v-5.82h-1.515l-.068.925h-1.265v-2.2Z" transform="translate(-307.212 -187.856)"/><path d="M360.5,221.09a2.764,2.764,0,0,1-2.122-.851,3.043,3.043,0,0,1-.794-2.161v-.227a3.357,3.357,0,0,1,.752-2.252,2.8,2.8,0,0,1,3.945-.131,2.882,2.882,0,0,1,.687,2.025v.9h-3.665l-.011.034a1.6,1.6,0,0,0,.406,1,1.265,1.265,0,0,0,.979.391,3.189,3.189,0,0,0,.913-.111,4.2,4.2,0,0,0,.794-.349l.448,1.021a3.263,3.263,0,0,1-.984.5A4.19,4.19,0,0,1,360.5,221.09ZM360.355,216a.862.862,0,0,0-.726.352,1.83,1.83,0,0,0-.329.925l.017.028h2.031v-.147a1.329,1.329,0,0,0-.247-.842A.89.89,0,0,0,360.355,216Z" transform="translate(-349.848 -198.921)"/><path d="M403.8,220.972a2.972,2.972,0,0,1-.119-.315,2.494,2.494,0,0,1-.079-.326,2.276,2.276,0,0,1-.718.55,2.145,2.145,0,0,1-.967.21,2.027,2.027,0,0,1-1.432-.491,1.73,1.73,0,0,1-.53-1.336,1.519,1.519,0,0,1,.692-1.333,3.614,3.614,0,0,1,2.031-.471h.845v-.6a.9.9,0,0,0-.255-.687,1.053,1.053,0,0,0-.754-.244,1.786,1.786,0,0,0-.5.065,1.323,1.323,0,0,0-.357.156l-.108.658h-1.248l.006-1.362a4.651,4.651,0,0,1,1.041-.516,3.779,3.779,0,0,1,1.279-.21,2.913,2.913,0,0,1,1.852.559,1.9,1.9,0,0,1,.712,1.591v2.536q0,.142,0,.267a1.905,1.905,0,0,0,.02.238l.5.068v.993Zm-1.435-1.106a1.435,1.435,0,0,0,.681-.162,1.314,1.314,0,0,0,.477-.406v-.936h-.845a1.154,1.154,0,0,0-.8.247.772.772,0,0,0-.272.593.613.613,0,0,0,.2.488A.821.821,0,0,0,402.36,219.865Z" transform="translate(-385.703 -198.921)"/><path d="M445.91,219.82a.975.975,0,0,0,.709-.258.914.914,0,0,0,.267-.689h1.5l.017.034a1.916,1.916,0,0,1-.7,1.557,2.951,2.951,0,0,1-3.909-.241,3.305,3.305,0,0,1-.743-2.229v-.17a3.266,3.266,0,0,1,.763-2.229,2.734,2.734,0,0,1,2.176-.874,3.776,3.776,0,0,1,1.333.221,2.633,2.633,0,0,1,.981.624l.023,1.639h-1.344l-.272-.959a1.051,1.051,0,0,0-.306-.179,1.133,1.133,0,0,0-.414-.071,1.046,1.046,0,0,0-.993.511,2.65,2.65,0,0,0-.289,1.316v.17a2.826,2.826,0,0,0,.267,1.324A.968.968,0,0,0,445.91,219.82Z" transform="translate(-422.183 -198.921)"/><path d="M483.5,205.664l.8-.17v-6.518l-.885-.17v-1h2.536V201.3a2.09,2.09,0,0,1,.709-.661,2.053,2.053,0,0,1,2.442.4,2.978,2.978,0,0,1,.547,1.971v2.479l.794.17v.993h-3.165v-.993l.715-.17V203a1.577,1.577,0,0,0-.252-1.013.93.93,0,0,0-.752-.3,1.372,1.372,0,0,0-.6.125,1.207,1.207,0,0,0-.434.352v3.324l.715.17v.993H483.5Z" transform="translate(-456.349 -184.606)"/></g><g transform="translate(72.731 112.299)"><path class="a" d="M82.093,135.593l2.652,1.247,9.288,4.368a18.774,18.774,0,0,0-3.657,1.686c-.449.268-.895.559-1.329.869l-7.784-3.211L74.9,137.929a12.787,12.787,0,0,1,7.19-2.336m.175-1.2a13.7,13.7,0,0,0-8.492,2.981c-.371.3-.719.608-1.044.926l16.431,6.778a19.074,19.074,0,0,1,1.648-1.106,17.713,17.713,0,0,1,6.782-2.372l-15.323-7.208Z" transform="translate(-72.731 -131.357)"/><path class="a" d="M145.194,115.85l12.923,5.295-.415.166a20.5,20.5,0,0,0-2.888,1.432c-.227.136-.455.278-.68.424l-12.946-6.089a10.55,10.55,0,0,1,1.192-.562,9.9,9.9,0,0,1,2.813-.666m.132-1.21a10.7,10.7,0,0,0-3.25.737,11.978,11.978,0,0,0-3.191,1.9l15.322,7.207q.5-.343,1.042-.668a19.526,19.526,0,0,1,2.761-1.369v6.891a1.305,1.305,0,0,0-.034,1.705l-.3,2.182h1.871l-.3-2.182a1.306,1.306,0,0,0-.034-1.705v-7.327a19.384,19.384,0,0,1,2.542-.641l-16.43-6.731Z" transform="translate(-128.722 -114.64)"/><g transform="translate(7.05 10.676)"><path class="a" d="M119.751,186.06l7.446,3.157.257.109.37.157.37-.157.257-.109,7.446-3.157v4.671c-.033.155-.483.83-2.142,1.464a19,19,0,0,1-11.863,0c-1.66-.634-2.109-1.31-2.143-1.464V186.06m-1.125-1.927v6.605c0,2.085,4.119,3.776,9.2,3.776s9.2-1.691,9.2-3.776v-6.605l-.58.246-8.361,3.545-.257.109-.257-.109-8.362-3.545-.58-.246Z" transform="translate(-118.626 -184.133)"/></g><path class="a" d="M179.688,203.947" transform="translate(-163.257 -190.228)"/></g></g></svg>