<svg xmlns="http://www.w3.org/2000/svg" width="65.47" height="71.294" viewBox="0 0 65.47 71.294"><defs><style>.a{fill:#9f5630;}.b{fill:#40596b;}.c{fill:#d67e50;}.d{fill:#fff;}</style></defs><ellipse class="a" cx="28.307" cy="28.307" rx="28.307" ry="28.307" transform="translate(4.365 0)"/><g transform="translate(0 44.784)"><path class="b" d="M30.49,319.7l-9.74,16.883,11.368-.6,5.165,10.147,9.01-15.62A28.279,28.279,0,0,1,30.49,319.7Z" transform="translate(-20.75 -319.616)"/><path class="b" d="M320.811,319.1a28.288,28.288,0,0,1-15.761,10.863l9.038,15.648,5.165-10.147,11.368.6Z" transform="translate(-265.15 -319.1)"/></g><ellipse class="c" cx="20.518" cy="20.518" rx="20.518" ry="20.518" transform="translate(12.154 7.789)"/><path class="d" d="M179.5,115.258a1.072,1.072,0,0,0-.589-1.824l-8.1-1.179a1.056,1.056,0,0,1-.8-.589l-3.621-7.34a1.07,1.07,0,0,0-1.923,0l-3.607,7.34a1.115,1.115,0,0,1-.8.589l-8.1,1.179a1.072,1.072,0,0,0-.589,1.824l5.852,5.712a1.081,1.081,0,0,1,.309.94l-1.375,8.056a1.069,1.069,0,0,0,1.558,1.123l7.242-3.8a1.046,1.046,0,0,1,1,0l7.242,3.8a1.075,1.075,0,0,0,1.558-1.123l-1.389-8.056a1.056,1.056,0,0,1,.309-.94Z" transform="translate(-132.768 -89.168)"/></svg>