<svg xmlns="http://www.w3.org/2000/svg" width="62.374" height="67.923" viewBox="0 0 62.374 67.923"><defs><style>.a{fill:#dfc9b8;}.b{fill:#40596b;}.c{fill:#a89881;}.d{fill:#fff;}</style></defs><g transform="translate(-20.75)"><circle class="a" cx="26.968" cy="26.968" r="26.968" transform="translate(24.908 0)"/><g transform="translate(20.75 42.666)"><path class="b" d="M30.029,319.7,20.75,335.785l10.83-.575,4.92,9.667L45.084,330A26.941,26.941,0,0,1,30.029,319.7Z" transform="translate(-20.75 -319.62)"/><path class="b" d="M320.065,319.1a26.95,26.95,0,0,1-15.015,10.349l8.611,14.908,4.92-9.667,10.83.575Z" transform="translate(-267.037 -319.1)"/></g><circle class="c" cx="19.548" cy="19.548" r="19.548" transform="translate(32.329 7.421)"/><path class="d" d="M178.157,114.712a1.021,1.021,0,0,0-.562-1.738l-7.715-1.123a1.006,1.006,0,0,1-.762-.562l-3.45-6.993a1.02,1.02,0,0,0-1.832,0l-3.436,6.993a1.062,1.062,0,0,1-.762.562l-7.715,1.123a1.021,1.021,0,0,0-.562,1.738l5.576,5.442a1.03,1.03,0,0,1,.294.9l-1.31,7.675a1.018,1.018,0,0,0,1.484,1.07l6.9-3.623a1,1,0,0,1,.949,0l6.9,3.623a1.024,1.024,0,0,0,1.484-1.07l-1.324-7.675a1.006,1.006,0,0,1,.294-.9Z" transform="translate(-112.883 -89.856)"/></g></svg>