<svg xmlns="http://www.w3.org/2000/svg" width="20.297" height="17.791" viewBox="0 0 20.297 17.791"><defs><style>.a{fill:#16395b;}</style></defs><path class="a" d="M14.035,31.622H2.3a2.3,2.3,0,0,0-2.3,2.3V44.2a.6.6,0,0,0,.94.484l3.269-2.333a1.6,1.6,0,0,1,.934-.3h7.191a2.3,2.3,0,0,0,2.3-2.3V32.217A.6.6,0,0,0,14.035,31.622Zm-2.888,7.2H4.276a.595.595,0,1,1,0-1.189h6.871a.595.595,0,1,1,0,1.189Zm0-2.775H4.276a.595.595,0,0,1,0-1.189h6.871a.595.595,0,0,1,0,1.189Z" transform="translate(0 -31.622)"/><path class="a" d="M157.6,150.258v10.287a.6.6,0,0,1-.94.484L153.39,158.7a1.6,1.6,0,0,0-.934-.3h-7.191a2.3,2.3,0,0,1-2.3-2.3v-1.127h6.666a3.488,3.488,0,0,0,3.485-3.485v-3.528H155.3A2.3,2.3,0,0,1,157.6,150.258Z" transform="translate(-137.302 -143.35)"/></svg>