<svg xmlns="http://www.w3.org/2000/svg" width="38.372" height="38.284" viewBox="0 0 38.372 38.284"><defs><style>.a{fill:#006dff;}</style></defs><path class="a" d="M44.586,14.567V13.2a1.37,1.37,0,0,0-.959-1.233L25.819,6.485a1.476,1.476,0,0,0-.836,0L7.175,11.965A1.371,1.371,0,0,0,6.23,13.2c0,.7-.685,17.219,7.014,26.027A15.418,15.418,0,0,0,25.408,44.7a17.042,17.042,0,0,0,1.808-.1,15.072,15.072,0,0,0,9.11-4.11,17.125,17.125,0,0,0,1.219-1.274c6.37-7.315,7.041-19.726,7.041-24.658ZM25.408,9.088l16.438,5.068v.288c0,3.205-.356,13.206-4.452,20.206l-.11-.849a9.589,9.589,0,0,0-6.521-7.849,7.534,7.534,0,1,0-10.74,0A9.592,9.592,0,0,0,13.5,33.786l-.11.849C9.257,27.595,8.97,17.307,8.97,14.211ZM20.613,20.732a4.795,4.795,0,1,1,4.795,4.795,4.8,4.8,0,0,1-4.795-4.795ZM23.928,41.9l-.479-.068a5.117,5.117,0,0,1-.918-.137l-.548-.137-.795-.205-.548-.192-.712-.288-.534-.274-.671-.356-.507-.315-.63-.425-.493-.384-.575-.493-.466-.452-.315-.315L16.23,34.2a6.847,6.847,0,0,1,6.781-5.932h4.795a6.848,6.848,0,0,1,6.781,5.945l.479,3.644-.315.329-.466.452-.562.479-.493.4-.616.411-.521.329-.658.342-.548.26-.712.274-.562.205-.781.205-.562.137a7.438,7.438,0,0,0-.918.137l-.493.068c-.479,0-.973.068-1.466.068a10.413,10.413,0,0,1-1.466-.055Z" transform="translate(-6.214 -6.425)"/></svg>