<svg xmlns="http://www.w3.org/2000/svg" width="19.98" height="15.018" viewBox="0 0 19.98 15.018"><defs><style>.a{fill:#7d8793;}</style></defs><g transform="translate(-151 -240)"><path class="a" d="M.485,27.428a.833.833,0,0,0,1.1-.433l2.688-6.159H9.008l2.7,6.159h0a.832.832,0,1,0,1.523-.666L7.4,13.012a.832.832,0,0,0-1.523,0L.052,26.329a.833.833,0,0,0,.433,1.1Zm6.159-12L8.309,19.17H4.98Z" transform="translate(151.018 227.485)"/><path class="a" d="M74.162,45.832h-2.5a.833.833,0,0,0,0,1.665h2.5a.833.833,0,0,1,.833.832v.833H73.329a2.5,2.5,0,1,0,0,4.994h.833a2.5,2.5,0,0,0,1.074-.25.832.832,0,0,0,1.423-.583V48.329A2.5,2.5,0,0,0,74.162,45.832Zm0,6.658h-.833a.833.833,0,1,1,0-1.665h1.664v.833h0a.834.834,0,0,1-.833.833Z" transform="translate(94.321 200.823)"/></g></svg>