<svg xmlns="http://www.w3.org/2000/svg" width="18.509" height="17" viewBox="0 0 18.509 17"><defs><style>.a{fill:#7d8793;}</style></defs><path class="a" d="M21.527,20.978,22.9,19.6a3.179,3.179,0,1,0-4.5-4.5l-3.458,3.456h0l-.014.014L13.22,20.292a1.223,1.223,0,0,0,1.73,1.73l4.15-4.148h0a.734.734,0,1,1,1.037,1.037l-4.151,4.15h0a2.69,2.69,0,1,1-3.8-3.806l4.15-4.149,1.037-1.037a4.646,4.646,0,1,1,6.571,6.57L20.482,24.1l-.018.017-2.4,2.4h0a6.6,6.6,0,1,1-9.336-9.337l5.532-5.533A.734.734,0,0,1,15.3,12.685L9.762,18.219a5.135,5.135,0,1,0,7.263,7.263l4.5-4.5.007-.007Z" transform="translate(-6.792 -11.452)"/></svg>