<svg xmlns="http://www.w3.org/2000/svg" width="124.521" height="145.242" viewBox="0 0 124.521 145.242"><defs><style>.a{fill:#dce0e3;}</style></defs><g transform="translate(-11.422 -5)"><path class="a" d="M33.391,140.252a11.988,11.988,0,0,1-11.978-11.978,11.924,11.924,0,0,1,11.915-11.927h96.746a6.328,6.328,0,0,0,5.869-5.352l-.006-101a4.993,4.993,0,0,0-4.993-5H33.391A22,22,0,0,0,11.422,26.969v97.024a4.969,4.969,0,0,0,.214,1.374,21.821,21.821,0,0,0,21.754,24.875h96.683a5,5,0,1,0,0-10H33.391Zm92.555-33.9H44.991V14.993h80.955ZM21.415,26.969A11.988,11.988,0,0,1,33.392,14.991h1.6v91.356H33.323a21.741,21.741,0,0,0-11.914,3.536Z" transform="translate(0)"/><path class="a" d="M28.409,78.305a5,5,0,0,0,0,10H121.9a4.938,4.938,0,0,0,.813-.082,4.981,4.981,0,0,0,0-9.834,4.938,4.938,0,0,0-.813-.082Z" transform="translate(7.359 44.995)"/></g></svg>