<svg xmlns="http://www.w3.org/2000/svg" width="14.968" height="14.969" viewBox="0 0 14.968 14.969"><defs><style>.a{fill:#006dff;fill-rule:evenodd;}</style></defs><path class="a" d="M17.311,8.578H16.064V9.825h1.248Zm-1.871,6.86H14.192a.624.624,0,1,0,0,1.247H15.44a.624.624,0,1,0,0-1.247Zm-.624-4.365a.624.624,0,0,0,.624-.624v-2.5a.624.624,0,1,0-1.247,0v2.5a.624.624,0,0,0,.624.624Zm4.365,6.86H17.934a.624.624,0,0,0,0,1.247h1.248a.624.624,0,0,0,0-1.247Zm0-2.495H17.934a.624.624,0,0,0,0,1.247h1.248a.624.624,0,0,0,0-1.247Zm-.624-4.365a.624.624,0,0,0,.624-.624v-2.5a.624.624,0,0,0-1.247,0v2.5a.624.624,0,0,0,.624.624Zm-.624,3.118h1.248a.624.624,0,0,0,0-1.247H17.935a.624.624,0,1,0,0,1.247Zm-3.742,0h1.248a.624.624,0,1,0,0-1.247H14.193a.624.624,0,1,0,0,1.247ZM11.7,17.932H10.451a.624.624,0,0,0,0,1.247H11.7a.624.624,0,0,0,0-1.247Zm9.355-9.355H19.806V9.825h1.248V21.051H8.58V9.824H9.827V8.577H8.58A1.247,1.247,0,0,0,7.332,9.825V21.051A1.247,1.247,0,0,0,8.58,22.3H21.053A1.247,1.247,0,0,0,22.3,21.051V9.824a1.247,1.247,0,0,0-1.247-1.247ZM11.7,15.437H10.451a.624.624,0,1,0,0,1.247H11.7a.624.624,0,1,0,0-1.247Zm1.871-6.86H12.322V9.825H13.57V8.577Zm1.871,9.355H14.192a.624.624,0,0,0,0,1.247H15.44a.624.624,0,0,0,0-1.247ZM10.451,14.19H11.7a.624.624,0,1,0,0-1.247H10.451a.624.624,0,1,0,0,1.247Zm.624-3.118a.624.624,0,0,0,.624-.624v-2.5a.624.624,0,0,0-1.248,0v2.5a.624.624,0,0,0,.624.624Z" transform="translate(-7.333 -7.33)"/></svg>