<svg xmlns="http://www.w3.org/2000/svg" width="9.601" height="9.602" viewBox="0 0 9.601 9.602"><defs><style>.a{fill:#fff;}</style></defs><path class="a" d="M13.039,4.547a1.111,1.111,0,0,1,1.109,1.109v6.182a1.111,1.111,0,0,1-1.109,1.109H11.508v.091A1.11,1.11,0,0,1,10.4,14.148H5.656a1.11,1.11,0,0,1-1.109-1.109V6.857A1.11,1.11,0,0,1,5.656,5.747H7.188V5.656A1.111,1.111,0,0,1,8.3,4.547ZM5.656,13.428H10.4a.39.39,0,0,0,.389-.389V6.857a.39.39,0,0,0-.389-.389H5.656a.39.39,0,0,0-.389.389v6.182A.39.39,0,0,0,5.656,13.428Zm7.772-1.59V5.656a.39.39,0,0,0-.389-.389H8.3a.39.39,0,0,0-.389.389v.091H10.4a1.11,1.11,0,0,1,1.109,1.109v5.372h1.531a.39.39,0,0,0,.389-.389ZM9.468,7.907a.36.36,0,1,1,0,.72H6.587a.36.36,0,1,1,0-.72Zm0,1.68a.36.36,0,1,1,0,.72H6.587a.36.36,0,1,1,0-.72Zm-.96,1.68a.36.36,0,0,1,0,.72H6.587a.36.36,0,1,1,0-.72Z" transform="translate(-4.547 -4.547)"/></svg>