<svg xmlns="http://www.w3.org/2000/svg" width="76.133" height="65.838" viewBox="0 0 76.133 65.838"><defs><style>.a{fill:#006dff;}</style></defs><g transform="translate(-370.5 -404)"><path class="a" d="M84.608,60.243H33.379a2.26,2.26,0,0,0,0,4.52H84.608a2.26,2.26,0,0,0,0-4.52Z" transform="translate(348.759 352.239)"/><path class="a" d="M55.076,100.911h-21.7a2.26,2.26,0,1,0,0,4.52h21.7a2.26,2.26,0,0,0,0-4.52Z" transform="translate(348.759 323.826)"/><path class="a" d="M70.859,17.081H5.274A5.28,5.28,0,0,0,0,22.355v44.5a5.28,5.28,0,0,0,5.274,5.274H43.518l-1.155,7.042a3.044,3.044,0,0,0,4.591,3.307L55.2,78.131a1.735,1.735,0,0,1,1.095,0l8.251,4.343a3.68,3.68,0,0,0,1.709.445,2.894,2.894,0,0,0,1.709-.541,3.2,3.2,0,0,0,1.173-3.212l-1.154-7.042H70.86a5.28,5.28,0,0,0,5.274-5.274v-44.5A5.28,5.28,0,0,0,70.859,17.081Zm-15.107,46a9.191,9.191,0,1,1,9.191-9.191A9.2,9.2,0,0,1,55.752,63.085Zm2.653,11.046a6.1,6.1,0,0,0-5.305,0L47.266,77.2l1.854-11.312a13.677,13.677,0,0,0,13.264,0l.723,4.41c0,.007,0,.015,0,.022l1.128,6.88Zm13.208-7.281a.764.764,0,0,1-.753.753H67.246l-.825-5.035c0-.02-.009-.039-.013-.059a13.711,13.711,0,1,0-21.311,0c0,.02-.009.039-.013.058l-.826,5.039c-.025,0-.05,0-.075,0H5.274a.764.764,0,0,1-.753-.753v-44.5a.764.764,0,0,1,.753-.753H70.859a.764.764,0,0,1,.753.753Z" transform="translate(370.5 386.919)"/></g></svg>