<svg xmlns="http://www.w3.org/2000/svg" width="38.371" height="38.371" viewBox="0 0 38.371 38.371"><defs><style>.a{fill:#006dff;}</style></defs><path class="a" d="M44.476,15.7H40.753V14.1a1.6,1.6,0,0,0-3.2,0v1.6H25.816V14.1a1.6,1.6,0,0,0-3.2,0v1.6H18.9a6.4,6.4,0,0,0-6.4,6.4V44.476a6.393,6.393,0,0,0,6.4,6.4h25.58a6.393,6.393,0,0,0,6.4-6.4V22.093a6.393,6.393,0,0,0-6.4-6.4Zm3.2,28.778a3.2,3.2,0,0,1-3.2,3.2H18.9a3.2,3.2,0,0,1-3.2-3.2V22.093a3.2,3.2,0,0,1,3.2-3.2h3.723v1.6a1.6,1.6,0,1,0,3.2,0V18.9H37.555v1.6a1.6,1.6,0,1,0,3.2,0V18.9h3.723a3.2,3.2,0,0,1,3.2,3.2ZM25.816,28a1.6,1.6,0,1,1-.468-1.129A1.6,1.6,0,0,1,25.816,28Zm7.468,0a1.6,1.6,0,1,1-.468-1.129A1.6,1.6,0,0,1,33.284,28Zm7.468,0a1.6,1.6,0,1,1-.47-1.129A1.6,1.6,0,0,1,40.753,28ZM25.816,34.617a1.6,1.6,0,1,1-.468-1.129,1.6,1.6,0,0,1,.468,1.129Zm7.468,0a1.6,1.6,0,1,1-.468-1.129,1.6,1.6,0,0,1,.468,1.129Zm7.468,0a1.6,1.6,0,1,1-.47-1.129,1.6,1.6,0,0,1,.47,1.129ZM25.817,41.238a1.6,1.6,0,1,1-.468-1.131,1.6,1.6,0,0,1,.468,1.131Zm7.468,0a1.6,1.6,0,1,1-.468-1.131,1.6,1.6,0,0,1,.468,1.131Zm7.468,0a1.6,1.6,0,1,1-.47-1.131,1.6,1.6,0,0,1,.47,1.131Z" transform="translate(-12.5 -12.5)"/></svg>