<svg xmlns="http://www.w3.org/2000/svg" width="91.585" height="95.022" viewBox="0 0 91.585 95.022"><defs><style>.a{fill:#7d8793;}</style></defs><g transform="translate(-4.199 -2.516)"><path class="a" d="M5.1,52.4H51l1.6-4.8-47.5,0a.879.879,0,0,0-.9.8v3.2a.876.876,0,0,0,.9.8Z"/><path class="a" d="M5.1,19H62.3l1.6-4.8H5.1a.879.879,0,0,0-.9.8v3.2a.876.876,0,0,0,.9.8Z"/><path class="a" d="M5.1,35.7H56.6l1.6-4.8H5.1a.879.879,0,0,0-.9.8v3.2a.876.876,0,0,0,.9.8Z"/><path class="a" d="M4.2,65.1v3.2a.816.816,0,0,0,.9.8H45.3l1.6-4.8H5.1a.883.883,0,0,0-.9.8Z"/><path class="a" d="M5.1,81a.879.879,0,0,0-.9.8l0,3.2a.816.816,0,0,0,.9.8H46.4L45.6,81Z"/><path class="a" d="M89.8,5.5,82.2,3A8.9,8.9,0,0,0,70.9,8.6L49.4,72.2a2.469,2.469,0,0,0-.1,1.2l3.6,22.1a2.4,2.4,0,0,0,1.6,1.9,2.293,2.293,0,0,0,2.4-.5L73.2,81.5a2.1,2.1,0,0,0,.6-1L95.3,16.9A9.007,9.007,0,0,0,89.8,5.5ZM72.6,18.6l5.3,1.8L60.4,72.3l-5.3-1.8ZM59.4,87.8l-3-1L54.6,75.4l13.2,4.5ZM70.3,75.6,65,73.8,82.5,22l5.3,1.8ZM90.7,15.3l-1.3,3.9L74.2,14l1.3-3.9a4.022,4.022,0,0,1,5.1-2.5l7.6,2.6a3.866,3.866,0,0,1,2.5,5.1Z"/></g></svg>