<svg xmlns="http://www.w3.org/2000/svg" width="44.707" height="38.283" viewBox="0 0 44.707 38.283"><defs><style>.a{fill:#006dff;}</style></defs><path class="a" d="M1.4,7.184A1.4,1.4,0,0,0,0,8.574V35.645a1.4,1.4,0,0,0,1.4,1.406h15.8L15.34,42.669H12.53a1,1,0,0,0-.145,0,1.4,1.4,0,1,0,.145,2.8H32.185a1.4,1.4,0,0,0,0-2.8H29.374L27.51,37.051h15.8a1.4,1.4,0,0,0,1.392-1.406V8.574a1.4,1.4,0,0,0-1.392-1.39ZM2.794,9.978H41.912V34.254H2.794ZM17.152,13.24a1.4,1.4,0,0,0-1.425,1.4l.01,14.956h0a1.4,1.4,0,0,0,2.207,1.133l10.446-7.485a1.4,1.4,0,0,0,0-2.27L17.934,13.5a1.4,1.4,0,0,0-.782-.26Zm1.373,4.116,6.65,4.755-6.643,4.775Zm1.626,19.7h4.413l1.867,5.618H18.286Z" transform="translate(0 -7.184)"/></svg>