<svg xmlns="http://www.w3.org/2000/svg" width="49.617" height="60.798" viewBox="0 0 49.617 60.798"><defs><style>.a{fill:#7d8793;}</style></defs><g transform="translate(-22.602 -17.322)"><path class="a" d="M61.41,19.012a15.127,15.127,0,0,0-5.04-.84A16.27,16.27,0,0,0,46.375,21.7a31.709,31.709,0,0,0-13.02-4.2,2.068,2.068,0,1,0-.42,4.115A25.968,25.968,0,0,1,43.35,24.807a15.365,15.365,0,0,0-2.185,4.2A15.546,15.546,0,0,0,41,38.581l-3.78,4.033a9.93,9.93,0,0,0-2.185-3.107,11.241,11.241,0,0,0-7.98-3.275h-.335a4.252,4.252,0,0,0-4.115,4.2V59.753a4.076,4.076,0,0,0,1.345,3.025L38.9,76.973a4.31,4.31,0,0,0,2.855,1.175,3.734,3.734,0,0,0,2.435-.84l12.6-9.24a9.8,9.8,0,0,0,2.855-12.515l-2.94-5.46a15.984,15.984,0,0,0,4.7-31.081Zm-6.973,45.7-12.6,9.24L26.884,59.667V40.347h.755a.491.491,0,0,1,.335.085.491.491,0,0,1,.335.085c.085,0,.253.085.335.085s.253.085.335.085.253.085.335.085.253.085.335.085c.085.085.253.085.335.167s.253.085.335.167.167.085.335.167c.085.085.167.085.335.167.085.085.167.167.253.167.085.085.167.167.253.167l.253.253.253.253.253.253.253.253c.085.085.167.167.167.253.085.085.167.167.167.253.085.085.085.167.167.335.085.085.085.167.167.253s.085.253.167.335.085.167.167.335c.085.085.085.253.167.335,0,.085.085.167.085.335s.085.253.085.42c0,.085.085.167.085.253,0,.167.085.335.085.505v5.46l1.345-1.427,8.906-9.326,9.5-9.831a3.765,3.765,0,0,1,2.687-1.175,3.552,3.552,0,0,1,2.52,1.007,3.713,3.713,0,0,1,.587,4.62c-.167.167-.253.42-.42.587l-7.895,8.315L49.9,46.141l6.133,11.426a5.526,5.526,0,0,1-1.595,7.14Zm9.995-22.093-.253.253a3.759,3.759,0,0,1-.587.505l-.253.253c-.167.167-.42.253-.587.42-.085.085-.167.085-.253.167a9.721,9.721,0,0,1-.925.505c-.335.167-.587.253-.925.42-.085,0-.167.085-.335.085-.253.085-.42.167-.673.253-.085,0-.253.085-.335.085-.249-.007-.417.079-.669.079-.085,0-.167.085-.335.085-.335.085-.673.085-1.007.167H55.95l6.215-6.553a7.913,7.913,0,0,0-.249-11.173,7.614,7.614,0,0,0-5.46-2.185,8.09,8.09,0,0,0-5.713,2.435l-6.133,6.468V33.876A11.911,11.911,0,0,1,45.2,30.43a5.255,5.255,0,0,1,.42-1.007c.085-.085.085-.167.167-.335.085-.253.253-.42.335-.673.085-.085.085-.253.167-.335a3.493,3.493,0,0,1,.42-.587c.085-.085.085-.167.167-.253a.084.084,0,0,1,.085-.085c.167-.253.42-.505.587-.755l.755-.755.253-.253a3.759,3.759,0,0,1,.587-.505l.253-.253c.167-.167.42-.253.587-.42.085-.085.167-.085.253-.167a9.722,9.722,0,0,1,.925-.505c.335-.167.587-.253.925-.42.085,0,.167-.085.335-.085.253-.085.42-.167.673-.253.085,0,.253-.085.335-.085.253-.085.505-.085.755-.167.085,0,.167-.085.335-.085.335-.085.673-.085,1.007-.167h1.427a2.274,2.274,0,0,1,.755.085.491.491,0,0,1,.335.085,2.48,2.48,0,0,1,.755.167c.085,0,.253.085.335.085a8.116,8.116,0,0,1,1.093.335A11.743,11.743,0,0,1,67.615,37.9a5.255,5.255,0,0,1-.42,1.007c-.085.085-.085.167-.167.335-.085.253-.253.42-.335.673-.085.085-.085.253-.167.335a3.494,3.494,0,0,1-.42.587c-.085.085-.085.167-.167.253a5.8,5.8,0,0,1-.673.84,9.611,9.611,0,0,0-.833.679Z" transform="translate(0 -0.027)"/><path class="a" d="M30.082,18.226c-.085-.085-.167-.253-.253-.335a1.179,1.179,0,0,0-.335-.253.634.634,0,0,0-.335-.167.624.624,0,0,0-.42-.085,1.411,1.411,0,0,0-.84,0c-.167,0-.253.085-.42.085-.167.085-.253.085-.335.167s-.253.167-.335.253a1.179,1.179,0,0,0-.253.335.634.634,0,0,0-.167.335.624.624,0,0,0-.085.42v.42a2.623,2.623,0,0,0,.587,1.513A2.026,2.026,0,0,0,28.4,21.5a2.623,2.623,0,0,0,1.513-.587,2.026,2.026,0,0,0,.587-1.513v-.42c0-.167-.085-.253-.085-.42-.171-.164-.256-.249-.338-.335Z" transform="translate(-0.592)"/></g></svg>