<svg xmlns="http://www.w3.org/2000/svg" width="17.962" height="17" viewBox="0 0 17.962 17"><defs><style>.a{fill:#7d8793;}</style></defs><g transform="translate(-7.868 -10.154)"><path class="a" d="M40.65,26.588c.74-2.554,1.163-5.231,1.655-7.841s1.072-5.2,1.31-7.824c.1-1.03-1.513-1.023-1.608,0-.238,2.561-.813,5.122-1.3,7.645s-.892,5.117-1.608,7.592a.8.8,0,0,0,1.551.429Z" transform="translate(-24.505)"/><path class="a" d="M13.825,34.531a29.819,29.819,0,0,1-4.457-4.78l-.126.976c1.353-1.538,2.762-3.016,4.193-4.476.727-.74-.41-1.879-1.137-1.139-1.433,1.46-2.839,2.942-4.186,4.475a.826.826,0,0,0-.133.976,31.65,31.65,0,0,0,4.718,5.1c.777.68,1.93-.455,1.137-1.137Z" transform="translate(0 -11.561)"/><path class="a" d="M63.98,35.129a37.525,37.525,0,0,0,4.643-4.87l-.695.4h.051a.815.815,0,0,0,.568-1.372A43.03,43.03,0,0,0,63.9,24.641c-.761-.7-1.9.429-1.139,1.137a43.9,43.9,0,0,1,4.645,4.641l.568-1.37c-.539.019-.736.406-1.038.778-.416.514-.877,1-1.338,1.471-.895.922-1.828,1.806-2.76,2.683-.753.716.386,1.851,1.137,1.139Z" transform="translate(-42.926 -11.207)"/></g></svg>