<svg xmlns="http://www.w3.org/2000/svg" width="31.02" height="38.565" viewBox="0 0 31.02 38.565"><defs><style>.a{fill:#006dff;}</style></defs><path class="a" d="M14.258,4A1.258,1.258,0,0,0,13,5.258v36.05a1.258,1.258,0,1,0,2.515,0V5.258A1.258,1.258,0,0,0,14.258,4ZM31.785,8.362A14.453,14.453,0,0,1,18.331,7.314a1.258,1.258,0,0,0-1.978,1.035V23.492a1.279,1.279,0,0,0,.589,1.061,16.929,16.929,0,0,0,15.824,1.258,17.061,17.061,0,0,1,7.362-1.6,4.69,4.69,0,0,1,2.03.393,1.257,1.257,0,0,0,1.86-1.1V8.362a1.287,1.287,0,0,0-.642-1.1,8.224,8.224,0,0,0-3.131-.734,22.616,22.616,0,0,0-8.463,1.834Zm8.331.681a6.659,6.659,0,0,1,1.389.21V21.907a7.375,7.375,0,0,0-1.244-.21A19.639,19.639,0,0,0,31.8,23.492a14.3,14.3,0,0,1-12.93-.734V10.419a16.912,16.912,0,0,0,13.912.249,19.309,19.309,0,0,1,7.336-1.624Z" transform="translate(-13 -4)"/></svg>