<svg xmlns="http://www.w3.org/2000/svg" width="14.675" height="17" viewBox="0 0 14.675 17"><defs><style>.a{fill:#7d8793;}</style></defs><g transform="translate(-8.997 -2.501)"><path class="a" d="M23.672,29.8a1.757,1.757,0,0,0-1.753-1.754,1.8,1.8,0,0,0-.859.215,1.78,1.78,0,0,0-1.557-.949,1.8,1.8,0,0,0-.859.215,1.78,1.78,0,0,0-1.557-.949,1.537,1.537,0,0,0-.645.125V23.269a1.76,1.76,0,0,0-.519-1.253,1.688,1.688,0,0,0-1.252-.518,1.76,1.76,0,0,0-1.754,1.771v7.892L12.04,30.3a1.812,1.812,0,0,0-2.255-.214,1.836,1.836,0,0,0-.77,1.217,1.8,1.8,0,0,0,.394,1.4l1.843,2.182a.573.573,0,0,0,.429.2.548.548,0,0,0,.358-.125.564.564,0,0,0,.071-.787L10.268,32a.618.618,0,0,1-.143-.519.669.669,0,0,1,1.128-.4l1.324,1.324a.852.852,0,0,0,.913.179.813.813,0,0,0,.519-.77V23.27a.642.642,0,0,1,.645-.645.673.673,0,0,1,.663.663v5.887a.555.555,0,0,0,1.11,0V28.37a.645.645,0,1,1,1.289,0v1.521a.555.555,0,1,0,1.11,0v-.805a.645.645,0,1,1,1.289,0v1.521a.555.555,0,0,0,1.11,0V29.8a.645.645,0,1,1,1.289,0v4.742a.555.555,0,1,0,1.11,0Z" transform="translate(0 -15.597)"/><path class="a" d="M37.954,5.114a.559.559,0,0,0,.555-.555v-1.5a.555.555,0,1,0-1.11,0v1.5A.559.559,0,0,0,37.954,5.114Z" transform="translate(-23.319)"/><path class="a" d="M20.564,12.048a.557.557,0,1,0,.787-.787L20.3,10.205a.557.557,0,0,0-.786.787Z" transform="translate(-8.506 -6.201)"/><path class="a" d="M12.352,29.208h1.5a.555.555,0,1,0,0-1.11h-1.5a.555.555,0,1,0,0,1.11Z" transform="translate(-2.299 -21.016)"/><path class="a" d="M54.6,28.653a.559.559,0,0,0,.555.555h1.5a.555.555,0,1,0,0-1.11h-1.5A.559.559,0,0,0,54.6,28.653Z" transform="translate(-37.442 -21.016)"/><path class="a" d="M50.149,12.22a.555.555,0,0,0,.394-.161L51.6,11a.557.557,0,0,0-.787-.786l-1.056,1.056a.554.554,0,0,0,.393.947Z" transform="translate(-33.332 -6.213)"/></g></svg>