<svg xmlns="http://www.w3.org/2000/svg" width="110.861" height="95.022" viewBox="0 0 110.861 95.022"><defs><style>.a{fill:#7d8793;}</style></defs><path class="a" d="M10.392,14A2.64,2.64,0,0,0,8,16.64v79.2a2.638,2.638,0,0,0,2.64,2.64H73.967a2.64,2.64,0,1,0,0-5.279H13.279V72.08H85.84a2.64,2.64,0,1,0,0-5.279H13.279V45.68H97.714V66.8a2.64,2.64,0,1,0,5.279,0V16.639a2.645,2.645,0,0,0-2.64-2.64H10.392Zm2.887,5.279H97.714V40.4H13.279Zm13.192,2.64a7.919,7.919,0,1,0,7.913,7.919A7.956,7.956,0,0,0,26.472,21.919Zm0,5.279a2.64,2.64,0,1,1-2.64,2.64A2.6,2.6,0,0,1,26.472,27.2Zm16.9,0V27.2a2.643,2.643,0,0,0-2.521,2.763,2.643,2.643,0,0,0,2.768,2.516H89.795a2.64,2.64,0,1,0,0-5.279H43.624a1.982,1.982,0,0,0-.247,0Zm-16.9,21.121a7.919,7.919,0,1,0,7.913,7.919A7.956,7.956,0,0,0,26.472,48.319Zm0,5.279a2.64,2.64,0,1,1-2.64,2.64A2.6,2.6,0,0,1,26.472,53.6Zm16.9,0V53.6a2.642,2.642,0,1,0,.247,5.279H89.795a2.64,2.64,0,1,0,0-5.279H43.624a1.982,1.982,0,0,0-.247,0ZM97.508,74.679a2.623,2.623,0,0,0-1.567.7L80.109,89.9V89.9a2.638,2.638,0,0,0,0,3.918l15.832,14.517a2.642,2.642,0,1,0,3.547-3.918l-10.8-9.9h27.5a2.64,2.64,0,1,0,0-5.279h-27.5l10.8-9.939V79.3a2.641,2.641,0,0,0-1.98-4.619Zm-71.035.041a7.919,7.919,0,1,0,7.913,7.919A7.956,7.956,0,0,0,26.473,74.72Zm0,5.279a2.64,2.64,0,1,1-2.64,2.64A2.6,2.6,0,0,1,26.473,80Zm16.9,0a2.642,2.642,0,1,0,.247,5.279H72.649a2.64,2.64,0,1,0,0-5.279H43.378Z" transform="translate(-8 -14)"/></svg>