<svg xmlns="http://www.w3.org/2000/svg" width="30.583" height="35.429" viewBox="0 0 30.583 35.429"><defs><style>.a{fill:#006dff;}</style></defs><g transform="translate(-8.997 -2.5)"><path class="a" d="M39.579,38.8a3.661,3.661,0,0,0-3.655-3.655,3.747,3.747,0,0,0-1.79.447,3.709,3.709,0,0,0-3.244-1.977,3.747,3.747,0,0,0-1.79.447,3.709,3.709,0,0,0-3.244-1.977,3.2,3.2,0,0,0-1.343.261V25.187a3.669,3.669,0,0,0-1.081-2.611A3.519,3.519,0,0,0,20.821,21.5a3.669,3.669,0,0,0-3.655,3.692V41.635l-1.828-1.79a3.777,3.777,0,0,0-4.7-.447,3.826,3.826,0,0,0-1.6,2.536,3.741,3.741,0,0,0,.82,2.909l3.842,4.55a1.194,1.194,0,0,0,.894.411,1.141,1.141,0,0,0,.746-.261,1.175,1.175,0,0,0,.149-1.64l-3.839-4.514a1.287,1.287,0,0,1-.3-1.081,1.394,1.394,0,0,1,2.35-.822l2.759,2.759a1.776,1.776,0,0,0,1.9.373,1.7,1.7,0,0,0,1.081-1.6V25.188a1.338,1.338,0,0,1,1.343-1.343,1.4,1.4,0,0,1,1.381,1.381V37.494a1.157,1.157,0,1,0,2.313,0V35.816a1.343,1.343,0,0,1,2.686,0v3.17a1.157,1.157,0,1,0,2.313,0V37.308a1.343,1.343,0,0,1,2.686,0v3.17a1.157,1.157,0,1,0,2.313,0V38.8a1.343,1.343,0,1,1,2.686,0v9.883a1.157,1.157,0,1,0,2.313,0Z" transform="translate(0 -11.91)"/><path class="a" d="M38.555,7.946a1.162,1.162,0,0,0,1.157-1.157V3.657a1.157,1.157,0,1,0-2.313,0V6.789A1.163,1.163,0,0,0,38.555,7.946Z" transform="translate(-17.809)"/><path class="a" d="M21.839,14.178a1.171,1.171,0,0,0,1.64,0,1.17,1.17,0,0,0,0-1.64l-2.2-2.2a1.16,1.16,0,0,0-1.64,1.64Z" transform="translate(-6.463 -4.704)"/><path class="a" d="M12.953,30.411h3.132a1.157,1.157,0,1,0,0-2.313H12.953a1.157,1.157,0,1,0,0,2.313Z" transform="translate(-1.756 -16.051)"/><path class="a" d="M54.6,29.254a1.162,1.162,0,0,0,1.157,1.157h3.132a1.157,1.157,0,0,0,0-2.313H55.759A1.163,1.163,0,0,0,54.6,29.254Z" transform="translate(-28.597 -16.051)"/><path class="a" d="M50.756,14.518a1.157,1.157,0,0,0,.82-.335l2.2-2.2a1.16,1.16,0,0,0-1.64-1.64l-2.2,2.2a1.155,1.155,0,0,0,.82,1.975Z" transform="translate(-25.461 -4.707)"/></g></svg>