<svg xmlns="http://www.w3.org/2000/svg" width="16.986" height="17" viewBox="0 0 16.986 17"><defs><style>.a{fill:#7d8793;}</style></defs><path class="a" d="M21.439,4.942l-2.285.415a.6.6,0,0,0-.169-.321.406.406,0,0,0-.377-.094l-2.284.415a.6.6,0,0,0-.169-.321.406.406,0,0,0-.377-.094L5.4,6.829A.5.5,0,0,0,5,7.3V19.569a.5.5,0,0,0,.4.472l10.38,1.887h.075a.461.461,0,0,0,.3-.114.485.485,0,0,0,.169-.321l2.284.434h.075a.461.461,0,0,0,.3-.114.485.485,0,0,0,.169-.321l2.284.434h.075a.48.48,0,0,0,.472-.472V5.414a.466.466,0,0,0-.169-.358.475.475,0,0,0-.377-.114ZM15.38,20.89,5.944,19.172V7.7L15.38,5.98Zm2.831,0-1.887-.34V6.319l1.887-.34Zm2.831,0-1.888-.34V6.319l1.887-.34Z" transform="translate(-5 -4.928)"/></svg>