<svg xmlns="http://www.w3.org/2000/svg" width="13.095" height="10.808" viewBox="0 0 13.095 10.808"><defs><style>.a{fill:#34597e;}.b{fill:#16395b;}</style></defs><g transform="translate(-5 -12.898)"><path class="a" d="M11.032,44.7H5.748A.765.765,0,0,0,5,45.462V48.9a.753.753,0,0,0,.749.749h.821l-.1,1.152,1.944-1.152h2.62a.753.753,0,0,0,.749-.749V45.462a.747.747,0,0,0-.749-.763Z" transform="translate(0 -27.097)"/><path class="b" d="M30.941,12.9H23.009a1.324,1.324,0,0,0-1.31,1.327V16.85h3.628a1.438,1.438,0,0,1,1.425,1.444v2.479H26.9l3.153,1.9-.159-1.9h1.036a1.324,1.324,0,0,0,1.31-1.327V14.225a1.3,1.3,0,0,0-1.3-1.327Z" transform="translate(-14.142 0)"/></g></svg>