<svg xmlns="http://www.w3.org/2000/svg" width="60.797" height="60.799" viewBox="0 0 60.797 60.799"><defs><style>.a{fill:#7d8793;}</style></defs><g transform="translate(-6.898 -8.621)"><path class="a" d="M60.4,77.551H14.193a7.3,7.3,0,0,1-7.3-7.3V43.505a7.3,7.3,0,0,1,7.3-7.3H60.4a7.3,7.3,0,0,1,7.3,7.3V70.256A7.3,7.3,0,0,1,60.4,77.551ZM14.193,41.07A2.437,2.437,0,0,0,11.761,43.5V70.253a2.437,2.437,0,0,0,2.433,2.433H60.4a2.437,2.437,0,0,0,2.433-2.433V43.5A2.437,2.437,0,0,0,60.4,41.07Z" transform="translate(0 -8.131)"/><path class="a" d="M23.12,8.621H59.6a2.433,2.433,0,1,1,0,4.865l-36.479,0a2.431,2.431,0,1,1,0-4.862Z" transform="translate(-4.064)"/><path class="a" d="M16.225,22.414H62.432a2.433,2.433,0,0,1,0,4.865l-46.206,0a2.431,2.431,0,1,1,0-4.862Z" transform="translate(-2.032 -4.065)"/></g></svg>