<svg xmlns="http://www.w3.org/2000/svg" width="25.791" height="13.602" viewBox="0 0 25.791 13.602"><defs><style>.a{fill:#7d8793;}</style></defs><g transform="translate(-5.361 -29.756)"><path class="a" d="M61.983,47.669l-2.041-2.055-.977.976,3.018,3.018,4.253-4.241-.976-.977Z" transform="translate(-38.249 -10.442)"/><path class="a" d="M24.351,29.756A6.8,6.8,0,0,0,18.26,33.55a6.8,6.8,0,1,0,0,6.013,6.8,6.8,0,1,0,6.091-9.807Zm-9.145,8.855-.974.976-2.055-2.068-2.067,2.068-.976-.976L11.2,36.558,9.16,34.5l.976-.976,2.04,2.055,2.055-2.055.974.976-2.066,2.055Zm9.145,3.028a5.081,5.081,0,1,1,5.081-5.081A5.081,5.081,0,0,1,24.351,41.639Z" transform="translate(0 0)"/></g></svg>