<svg xmlns="http://www.w3.org/2000/svg" width="12.426" height="12.959" viewBox="0 0 12.426 12.959"><defs><style>.a,.b{fill:#16395b;stroke:#16395b;stroke-width:0.2px;}.b{fill-rule:evenodd;}</style></defs><g transform="translate(-1.982 0.1)"><path class="a" d="M2.348,6.246a.266.266,0,0,0-.266.266v6.907a.266.266,0,0,0,.266.266H14.042a.266.266,0,0,0,.266-.266V6.512a.266.266,0,0,0-.266-.266H2.348Zm.266.531H13.777v6.376H2.614Z" transform="translate(0 -5.449)"/><path class="b" d="M16.165,62.473a.266.266,0,0,0-.252.19l-1.326,4.243h0a.266.266,0,1,0,.507.158l1.326-4.243h0a.266.266,0,0,0-.256-.349Z" transform="translate(-10.896 -54.503)"/><path class="b" d="M69.014,62.477a.266.266,0,0,0-.248.348l1.326,4.243h0a.266.266,0,1,0,.507-.158l-1.326-4.243a.267.267,0,0,0-.26-.19Z" transform="translate(-58.166 -54.506)"/><path class="b" d="M48.179,0a.265.265,0,0,0-.262.27v.789a.266.266,0,1,0,.531,0V.269a.266.266,0,0,0-.27-.27Z" transform="translate(-39.988 0)"/><path class="b" d="M24.23,72.887a.266.266,0,1,0,0,.531h6.106a.266.266,0,1,0,0-.531Z" transform="translate(-19.087 -63.588)"/><path class="b" d="M73.187,54.145a.266.266,0,1,0,0,.531h1.322a.266.266,0,1,0,0-.531Z" transform="translate(-61.799 -47.237)"/></g></svg>