<svg xmlns="http://www.w3.org/2000/svg" width="114.722" height="147.5" viewBox="0 0 114.722 147.5"><defs><style>.a{fill:#dce0e3;}</style></defs><path class="a" d="M24.833,5A9.885,9.885,0,0,0,15,14.833V142.667a9.885,9.885,0,0,0,9.833,9.833h95.056a9.885,9.885,0,0,0,9.833-9.833V14.833A9.885,9.885,0,0,0,119.889,5Zm0,6.556h95.056a3.2,3.2,0,0,1,3.278,3.278V142.667a3.2,3.2,0,0,1-3.278,3.278H24.833a3.2,3.2,0,0,1-3.278-3.278V14.833A3.2,3.2,0,0,1,24.833,11.556ZM90.081,22.977A3.308,3.308,0,0,0,87.93,24.1L66.983,48.072l-10.7-8.041a3.278,3.278,0,1,0-3.892,5.275L65.5,55.14a3.39,3.39,0,0,0,4.4-.461L92.847,28.457a3.276,3.276,0,0,0-2.766-5.48ZM37.944,72.194a3.278,3.278,0,1,0,0,6.556h68.833a3.278,3.278,0,1,0,0-6.556Zm0,26.222a3.278,3.278,0,1,0,0,6.556h68.833a3.278,3.278,0,1,0,0-6.556Zm0,26.222a3.278,3.278,0,0,0,0,6.556h68.833a3.278,3.278,0,1,0,0-6.556Z" transform="translate(-15 -5)"/></svg>