<svg xmlns="http://www.w3.org/2000/svg" width="21.554" height="17" viewBox="0 0 21.554 17"><defs><style>.a{fill:#7d8793;}</style></defs><g transform="translate(-3.124 -13.027)"><path class="a" d="M23.961,13.028H3.843a.718.718,0,1,0,0,1.437H4.921V25.68a.717.717,0,0,0,.718.718h7.544V28.59h-1.8a.718.718,0,1,0,0,1.437h5.029a.718.718,0,1,0,0-1.437h-1.8V26.4h7.544a.717.717,0,0,0,.718-.719V14.464H23.96a.718.718,0,1,0,0-1.437ZM21.446,24.963H6.358v-10.5H21.446Z"/><path class="a" d="M38.313,34.107a.718.718,0,0,0,.718,0L43.722,31.4a.717.717,0,0,0,0-1.243l-4.692-2.712a.718.718,0,0,0-1.078.625v5.417a.718.718,0,0,0,.359.622Zm1.078-4.8,2.536,1.467-2.536,1.467Z" transform="translate(-26.821 -11.028)"/></g></svg>