<svg xmlns="http://www.w3.org/2000/svg" width="64.878" height="60.799" viewBox="0 0 64.878 60.799"><defs><style>.a{fill:#7d8793;}</style></defs><path class="a" d="M60.115,4.2H43.057a5.851,5.851,0,0,0-5.841,5.841V27.1a5.851,5.851,0,0,0,5.841,5.841H60.115A5.851,5.851,0,0,0,65.956,27.1V10.041A5.851,5.851,0,0,0,60.115,4.2Zm-.132,22.834H43.189V10.173H60.047v16.86Zm-58.209-6.9a2.124,2.124,0,0,1,0-3.054l7.7-7.7a2.585,2.585,0,0,1,3.982.4,2.707,2.707,0,0,1-.4,3.319L10.2,16.014H28.855a2.587,2.587,0,0,1,0,5.175l-18.652,0,2.855,2.855a2.622,2.622,0,0,1,.4,3.319,2.585,2.585,0,0,1-3.982.4ZM7.016,65H24.073a5.851,5.851,0,0,0,5.841-5.841V42.1a5.851,5.851,0,0,0-5.841-5.841H7.016A5.851,5.851,0,0,0,1.175,42.1V59.157A5.851,5.851,0,0,0,7.016,65Zm.132-22.834H24.006V59.022l-16.857,0Zm58.209,6.9a2.124,2.124,0,0,1,0,3.054l-7.7,7.7a2.585,2.585,0,0,1-3.982-.4,2.707,2.707,0,0,1,.4-3.319l2.855-2.855-18.652,0a2.587,2.587,0,0,1,0-5.175H56.931l-2.855-2.855a2.622,2.622,0,0,1-.4-3.319,2.585,2.585,0,0,1,3.982-.4Z" transform="translate(-1.126 -4.199)"/></svg>