<svg xmlns="http://www.w3.org/2000/svg" width="20.609" height="17" viewBox="0 0 20.609 17"><defs><style>.a{fill:#7d8793;}</style></defs><g transform="translate(-2.4 -10.756)"><path class="a" d="M68.146,26.983a.841.841,0,1,0-1.387.953,6.522,6.522,0,0,1,0,7.454.836.836,0,0,0,.217,1.17.779.779,0,0,0,.477.152.866.866,0,0,0,.693-.367,8.169,8.169,0,0,0,0-9.361Z" transform="translate(-50.295 -12.424)"/><path class="a" d="M79.589,13.8a.846.846,0,1,0-1.3,1.084,10.366,10.366,0,0,1,0,13.068.857.857,0,0,0,.672,1.387.879.879,0,0,0,.65-.3A12.1,12.1,0,0,0,79.589,13.8Z" transform="translate(-59.289 -2.143)"/><path class="a" d="M13.343,10.961a1.862,1.862,0,0,0-1.972.173L6.409,14.817a.3.3,0,0,1-.195.065H4.286A1.886,1.886,0,0,0,2.4,16.768v4.985a1.886,1.886,0,0,0,1.886,1.886H6.214a.349.349,0,0,1,.195.065l4.962,3.684a1.893,1.893,0,0,0,1.127.368,1.935,1.935,0,0,0,.845-.195,1.915,1.915,0,0,0,1.04-1.691V12.652a1.951,1.951,0,0,0-1.04-1.691Zm-.65,14.91a.18.18,0,0,1-.108.173.166.166,0,0,1-.195-.022L7.428,22.338a1.966,1.966,0,0,0-1.192-.39H4.309a.194.194,0,0,1-.195-.195V16.769a.194.194,0,0,1,.195-.195H6.237a1.966,1.966,0,0,0,1.191-.39L12.39,12.5a.168.168,0,0,1,.195-.022.18.18,0,0,1,.108.173Z"/></g></svg>