<svg xmlns="http://www.w3.org/2000/svg" width="33.056" height="38.783" viewBox="0 0 33.056 38.783"><defs><style>.a{fill:#006dff;stroke:#006dff;stroke-width:0.5px;}</style></defs><path class="a" d="M38.127,21.056V11.485l1.914-3.828L38.127,0H30.47L28.556,7.657l1.914,3.828v9.571a1.912,1.912,0,0,0-1.914,1.914v13.4a1.912,1.912,0,0,0,1.914,1.914h7.657a1.912,1.912,0,0,0,1.914-1.914V22.97A1.912,1.912,0,0,0,38.127,21.056ZM31.965,1.914h4.666l1.382,5.523-1.8,3.6V21.056H32.384V11.032l-1.8-3.6Zm6.161,34.455H30.47V22.97h7.657Zm-5.742-3.828A1.914,1.914,0,1,1,34.3,34.455,1.912,1.912,0,0,1,32.384,32.541ZM20.9.807V9.571l-3.828,1.914L13.242,9.571V.807a9.529,9.529,0,0,0-1.914,16.38V36.369a1.913,1.913,0,0,0,1.914,1.914H20.9a1.913,1.913,0,0,0,1.914-1.914V17.187A9.529,9.529,0,0,0,20.9.807Zm0,15.425V36.369H13.242V16.233A8.087,8.087,0,0,1,9.414,9.571a7.644,7.644,0,0,1,1.914-5.055v6.241l5.742,2.871,5.742-2.871V4.516a7.644,7.644,0,0,1,1.914,5.055A7.938,7.938,0,0,1,20.9,16.233ZM18.985,32.541a1.914,1.914,0,1,1-1.914-1.914A1.913,1.913,0,0,1,18.985,32.541Z" transform="translate(-7.25 0.25)"/></svg>