<svg xmlns="http://www.w3.org/2000/svg" width="68.021" height="60.799" viewBox="0 0 68.021 60.799"><defs><style>.a{fill:#7d8793;}</style></defs><g transform="translate(-2.5 -7.5)"><path class="a" d="M6.219,14.937H66.8a3.739,3.739,0,0,0,3.719-3.719A3.694,3.694,0,0,0,66.8,7.5H6.219A3.739,3.739,0,0,0,2.5,11.218a3.693,3.693,0,0,0,3.719,3.719Z" transform="translate(0 0)"/><path class="a" d="M66.733,32.4H6.219a3.719,3.719,0,1,0,0,7.438H66.8a3.739,3.739,0,0,0,3.719-3.719A3.8,3.8,0,0,0,66.732,32.4Z" transform="translate(0 -7.089)"/><path class="a" d="M66.733,57.3H6.219a3.719,3.719,0,0,0,0,7.438H66.8a3.739,3.739,0,0,0,3.719-3.719A3.8,3.8,0,0,0,66.732,57.3Z" transform="translate(0 -14.18)"/><path class="a" d="M36.476,82.1H6.219A3.739,3.739,0,0,0,2.5,85.821,3.694,3.694,0,0,0,6.219,89.54H36.476a3.719,3.719,0,0,0,0-7.438Z" transform="translate(0 -21.241)"/></g></svg>