<svg xmlns="http://www.w3.org/2000/svg" width="46.564" height="35.002" viewBox="0 0 46.564 35.002"><defs><style>.a{fill:#006dff;}</style></defs><g transform="translate(0.017 -12.516)"><path class="a" d="M1.155,47.271a1.942,1.942,0,0,0,2.561-1.009L9.98,31.907H21.017L27.3,46.261h0a1.94,1.94,0,1,0,3.55-1.551L17.274,13.672a1.94,1.94,0,0,0-3.55,0L.145,44.71a1.942,1.942,0,0,0,1.009,2.561ZM15.509,19.3l3.881,8.729H11.63Z" transform="translate(0 0)"/><path class="a" d="M78.592,45.832H72.772a1.94,1.94,0,0,0,0,3.881h5.819a1.94,1.94,0,0,1,1.94,1.939v1.94H76.652a5.819,5.819,0,1,0,0,11.639h1.94a5.818,5.818,0,0,0,2.5-.582,1.94,1.94,0,0,0,3.317-1.358V51.652a5.82,5.82,0,0,0-5.819-5.819Zm0,15.518-1.94,0a1.94,1.94,0,0,1,0-3.881H80.53v1.94h0a1.943,1.943,0,0,1-1.94,1.94Z" transform="translate(-37.865 -17.806)"/></g></svg>