<svg xmlns="http://www.w3.org/2000/svg" width="71.235" height="62.801" viewBox="0 0 71.235 62.801"><defs><style>.a{fill:#7d8793;stroke:#fff;stroke-width:2px;}</style></defs><g transform="translate(-2.531 -9.195)"><path class="a" d="M39.041,16.074a5.607,5.607,0,0,0-4.307,1.964L19.1,35.772l-5.9-5.963a5.617,5.617,0,1,0-7.988,7.9L15.335,47.944a5.615,5.615,0,0,0,8.206-.234L43.158,25.467a5.618,5.618,0,0,0-4.117-9.393Z" transform="translate(0 -1.049)"/><path class="a" d="M76.049,47.191a5.621,5.621,0,0,0-4.275,2.035L55.6,68.211A5.617,5.617,0,1,0,64.153,75.5L80.327,56.51a5.618,5.618,0,0,0-4.278-9.319Z" transform="translate(-9.044 -6.602)"/><path class="a" d="M59.711,47.191A5.618,5.618,0,0,0,55.6,56.51L71.775,75.5a5.618,5.618,0,1,0,8.552-7.285L64.152,49.225a5.617,5.617,0,0,0-4.441-2.035Z" transform="translate(-9.044 -6.602)"/><path class="a" d="M65.063,10.195a2.4,2.4,0,0,0-1.836.863L15.128,67a2.408,2.408,0,1,0,3.652,3.139L66.876,14.2a2.405,2.405,0,0,0-1.813-4Z" transform="translate(-1.963)"/></g></svg>