<svg xmlns="http://www.w3.org/2000/svg" width="178.544" height="119.029" viewBox="0 0 178.544 119.029"><defs><style>.a{fill:#dce0e3;}</style></defs><path class="a" d="M48.645,20a21.822,21.822,0,1,0,19.9,30.749,25.746,25.746,0,0,0,51.456,0,21.8,21.8,0,1,0-1.861-10.538,25.657,25.657,0,0,0-47.735,0A21.917,21.917,0,0,0,48.645,20Zm0,11.9a9.919,9.919,0,1,1-9.919,9.919A9.83,9.83,0,0,1,48.645,31.9Zm91.256,0a9.919,9.919,0,1,1-9.919,9.919A9.83,9.83,0,0,1,139.9,31.9ZM94.272,35.871A13.887,13.887,0,1,1,80.386,49.757,13.8,13.8,0,0,1,94.272,35.871ZM48.645,65.628c-11.353,0-21.675,2.542-29.634,7.129S5,84.567,5,93.4v19.838a6.186,6.186,0,0,0,5.951,5.951H46.66v13.887a6.186,6.186,0,0,0,5.951,5.951h83.321a6.186,6.186,0,0,0,5.951-5.951V119.191h35.709a6.186,6.186,0,0,0,5.951-5.951V93.4c0-8.834-6.052-16.057-14.011-20.644s-18.281-7.129-29.634-7.129c-16.235,0-30.626,4.789-38.375,14.259-2.379-.2-4.773-.372-7.253-.372s-4.874.17-7.253.372c-7.749-9.477-22.139-14.259-38.375-14.259Zm0,11.9a49.508,49.508,0,0,1,22.937,5.332,52.318,52.318,0,0,0-9.733,4.154c-8.695,4.9-15.189,8.757-15.189,18.288v1.984H16.9V93.4c0-3.371,2.394-7.083,8.059-10.353s14.15-5.517,23.683-5.517Zm91.256,0c9.532,0,18.017,2.247,23.683,5.517s8.059,6.982,8.059,10.353v13.887H141.885V105.3c0-9.532-6.494-13.391-15.189-18.288a52.343,52.343,0,0,0-9.733-4.154A49.517,49.517,0,0,1,139.9,77.531ZM94.272,91.418c10.671,0,20.164,2.426,26.534,6.013s9.175,3.727,9.175,7.873v21.822H58.564V105.3c0-4.146,2.805-4.285,9.175-7.873S83.6,91.418,94.272,91.418Z" transform="translate(-5 -20)"/></svg>