<svg xmlns="http://www.w3.org/2000/svg" width="41.078" height="35.429" viewBox="0 0 41.078 35.429"><defs><style>.a{fill:#006dff;}</style></defs><g transform="translate(0 -6.25)"><path class="a" d="M54.433,86.25h-24.8a3.581,3.581,0,0,1,0,2.054h24.8a1.027,1.027,0,0,0,0-2.054Z" transform="translate(-17.463 -47.138)"/><path class="a" d="M9.554,87.277A3.705,3.705,0,0,1,9.7,86.25H8.527a1.027,1.027,0,0,0,0,2.054H9.7A3.705,3.705,0,0,1,9.554,87.277Z" transform="translate(-4.419 -47.138)"/><path class="a" d="M20.581,86.54a1.54,1.54,0,0,1-3.081,0,1.54,1.54,0,1,1,3.081,0" transform="translate(-10.311 -46.401)"/><path class="a" d="M38,35.518H3.081A3.082,3.082,0,0,1,0,32.437V9.331A3.082,3.082,0,0,1,3.081,6.25H38a3.082,3.082,0,0,1,3.081,3.081V32.437A3.082,3.082,0,0,1,38,35.518ZM3.081,8.3A1.028,1.028,0,0,0,2.054,9.331V32.437a1.024,1.024,0,0,0,1.027,1.027H38a1.024,1.024,0,0,0,1.027-1.027V9.331A1.024,1.024,0,0,0,38,8.3Z"/><path class="a" d="M40.262,28.685v8.971a1.541,1.541,0,0,0,2.486,1.211l5.735-4.483a1.538,1.538,0,0,0,0-2.428l-5.735-4.483a1.54,1.54,0,0,0-2.486,1.211Z" transform="translate(-23.723 -12.315)"/></g></svg>