<svg xmlns="http://www.w3.org/2000/svg" width="19.98" height="17.232" viewBox="0 0 19.98 17.232"><defs><style>.a{fill:#7d8793;}</style></defs><g transform="translate(-151 -190.5)"><path class="a" d="M41.7,86.25H29.637a1.741,1.741,0,0,1,0,1H41.7a.5.5,0,1,0,0-1Z" transform="translate(127.284 120.234)"/><path class="a" d="M8.5,86.749a1.8,1.8,0,0,1,.073-.5H8a.5.5,0,1,0,0,1h.572a1.8,1.8,0,0,1-.073-.5Z" transform="translate(144.999 120.234)"/><path class="a" d="M19,85.75a.749.749,0,0,1-1.5,0,.749.749,0,0,1,1.5,0" transform="translate(136.996 121.233)"/><path class="a" d="M18.481,20.486H1.5a1.5,1.5,0,0,1-1.5-1.5V7.749a1.5,1.5,0,0,1,1.5-1.5H18.481a1.5,1.5,0,0,1,1.5,1.5v11.24A1.5,1.5,0,0,1,18.481,20.486ZM1.5,7.249a.5.5,0,0,0-.5.5V18.988a.5.5,0,0,0,.5.5H18.481a.5.5,0,0,0,.5-.5V7.749a.5.5,0,0,0-.5-.5Z" transform="translate(151 184.25)"/><path class="a" d="M40.262,27.9v4.364a.75.75,0,0,0,1.209.588l2.789-2.181a.748.748,0,0,0,0-1.181l-2.789-2.18a.749.749,0,0,0-1.209.589Z" transform="translate(118.782 167.527)"/></g></svg>