<svg xmlns="http://www.w3.org/2000/svg" width="12.854" height="12.852" viewBox="0 0 12.854 12.852"><defs><style>.a{fill:#16395b;}</style></defs><path class="a" d="M11.377.488a1.77,1.77,0,0,0-2.5,0l-.626.63L1.585,7.779l-.014.014s0,.007-.007.007-.018.021-.025.032,0,0,0,.007l-.018.028s0,.007-.007.011S1.5,7.9,1.5,7.906s0,0,0,.007L.018,12.36a.348.348,0,0,0,.085.361.356.356,0,0,0,.251.1.417.417,0,0,0,.113-.018L4.91,11.323s0,0,.007,0a.128.128,0,0,0,.032-.014l.007,0,.035-.021c.011-.007.021-.018.032-.025s.007,0,.007-.007.011-.007.014-.014l7.291-7.291a1.77,1.77,0,0,0,0-2.5Zm-6.58,10L2.335,8.03,8.5,1.868,10.959,4.33ZM1.988,8.684l2.151,2.151L.909,11.91Zm9.848-5.236-.375.379L9,1.365,9.378.987a1.061,1.061,0,0,1,1.5,0l.962.962a1.065,1.065,0,0,1,0,1.5Zm0,0" transform="translate(0.001 0.029)"/></svg>