<svg xmlns="http://www.w3.org/2000/svg" width="118.892" height="106.031" viewBox="0 0 118.892 106.031"><defs><style>.a{fill:#dce0e3;}</style></defs><path class="a" d="M64.405,9.938a3.956,3.956,0,0,0-3.922,4.046v6.605H14.247A9.319,9.319,0,0,0,5,29.835V90.6a9.319,9.319,0,0,0,9.247,9.247h23.2L30.8,109.51a3.963,3.963,0,1,0,6.523,4.458l9.7-14.119H81.867l9.7,14.119a3.964,3.964,0,1,0,6.523-4.5L91.486,99.85h23.159a9.319,9.319,0,0,0,9.247-9.247V29.836a9.319,9.319,0,0,0-9.247-9.247H68.409V13.983a3.966,3.966,0,0,0-4-4.046ZM14.247,28.514h100.4a1.241,1.241,0,0,1,1.321,1.321V90.6a1.241,1.241,0,0,1-1.321,1.321H14.247A1.241,1.241,0,0,1,12.926,90.6V29.835a1.241,1.241,0,0,1,1.321-1.321ZM87.812,40.4a3.968,3.968,0,0,0,.413,7.926h1.94L66.552,65.337l-6.894-8.876a3.96,3.96,0,0,0-5.16-.991L25.435,72.644a3.933,3.933,0,0,0-1.914,2.43,3.962,3.962,0,0,0,5.96,4.381l26.049-15.4,7.1,9.165a3.963,3.963,0,0,0,5.449.743L97.473,52.788v4.789a3.963,3.963,0,1,0,7.926,0V44.367a3.964,3.964,0,0,0-3.963-3.963H88.226c-.139-.005-.273-.005-.413,0Z" transform="translate(-5 -9.937)"/></svg>