<svg xmlns="http://www.w3.org/2000/svg" width="10.602" height="10.602" viewBox="0 0 10.602 10.602"><defs><style>.a{fill:#16395b;}</style></defs><path class="a" d="M241,2.2a.933.933,0,0,0,.932.932h.311V4.369h1.864V3.437a.311.311,0,0,1,.621,0v.932h1.884V0h-4.369V1.263h-.311A.933.933,0,0,0,241,2.2Zm.932-.311h.932V.621h3.127V3.748h-.642V3.437a.932.932,0,0,0-1.864,0v.311h-.621V2.506h-.932a.311.311,0,1,1,0-.621Z" transform="translate(-236.009)"/><path class="a" d="M8.1,124.727H6.854v-.311a.932.932,0,1,0-1.864,0v.311H4.369v-1.242H3.437a.311.311,0,1,1,0-.621h.932V121H0v8.1H8.1ZM.621,121.621H3.748v.621H3.437a.932.932,0,1,0,0,1.864h.311v.621H2.506v.932a.311.311,0,1,1-.621,0v-.932H.621Zm3.127,6.854H.621v-3.127h.642v.311a.932.932,0,0,0,1.864,0v-.311h.621v1.242H4.68a.311.311,0,0,1,0,.621H3.748Zm3.727,0H4.369v-.642H4.68a.932.932,0,1,0,0-1.864H4.369v-.621H5.612v-.932a.311.311,0,1,1,.621,0v.932H7.475Z" transform="translate(0 -118.494)"/></svg>