<svg xmlns="http://www.w3.org/2000/svg" width="49.817" height="29.645" viewBox="0 0 49.817 29.645"><defs><style>.a{fill:#006dff;stroke:#006dff;stroke-width:0.5px;}</style></defs><path class="a" d="M48.472,39.278a6.483,6.483,0,1,0-8.328,0,9.67,9.67,0,0,0-3.1,2.372,12.468,12.468,0,0,0-3.7-2.058,8.156,8.156,0,1,0-8.161,0,12.467,12.467,0,0,0-3.7,2.058,9.647,9.647,0,0,0-3.1-2.372,6.484,6.484,0,1,0-8.33,0A9.627,9.627,0,0,0,4.6,47.941,2.126,2.126,0,0,0,6.73,50.067H16.855a11.893,11.893,0,0,0-.079,1.324A2.128,2.128,0,0,0,18.9,53.519H39.619a2.128,2.128,0,0,0,2.128-2.128,13.007,13.007,0,0,0-.079-1.324H51.792a2.126,2.126,0,0,0,2.128-2.126,9.625,9.625,0,0,0-5.449-8.663Zm-8.523-4.969a4.358,4.358,0,1,1,4.358,4.356A4.358,4.358,0,0,1,39.949,34.308ZM23.232,32.53a6.03,6.03,0,1,1,6.03,6.03A6.031,6.031,0,0,1,23.232,32.53ZM9.856,34.308a4.358,4.358,0,1,1,4.358,4.356,4.358,4.358,0,0,1-4.358-4.356ZM6.731,47.941a7.482,7.482,0,0,1,13.2-4.825,12.44,12.44,0,0,0-2.661,4.827Zm32.887,3.45H18.905a10.511,10.511,0,0,1,.087-1.324,10.252,10.252,0,0,1,.5-2.126,10.359,10.359,0,0,1,16.348-4.547,10.6,10.6,0,0,1,1.574,1.617,10.3,10.3,0,0,1,2.115,5.056,10.926,10.926,0,0,1,.083,1.324Zm1.634-3.45a12.468,12.468,0,0,0-2.661-4.827,7.48,7.48,0,0,1,13.2,4.825Z" transform="translate(-4.353 -24.124)"/></svg>