<svg xmlns="http://www.w3.org/2000/svg" width="41.333" height="29.644" viewBox="0 0 41.333 29.644"><defs><style>.a{fill:#006dff;stroke:#006dff;stroke-width:0.5px;}</style></defs><g transform="translate(-2.25 -15.75)"><path class="a" d="M12.177,24.388a.989.989,0,0,1-1.978,0,.989.989,0,0,1,1.978,0" transform="translate(-4.39 -4.219)"/><path class="a" d="M19.277,24.388a.988.988,0,1,1-1.976,0,.988.988,0,1,1,1.976,0" transform="translate(-8.439 -4.219)"/><path class="a" d="M26.478,24.388a.989.989,0,0,1-1.978,0,.989.989,0,0,1,1.978,0" transform="translate(-12.544 -4.219)"/><path class="a" d="M20.3,61.52a.86.86,0,1,0,1.719,0V54.6H20.3Z" transform="translate(-10.15 -22.009)"/><path class="a" d="M20.487,45.239h-1.2V43.563a.86.86,0,0,0-1.719,0v1.676h-1.2a.86.86,0,0,0,0,1.719h4.083a.861.861,0,0,0,.86-.86A.826.826,0,0,0,20.487,45.239Z" transform="translate(-7.413 -15.226)"/><path class="a" d="M36.7,68.476a.86.86,0,1,0,1.719,0V66.8H36.7Z" transform="translate(-19.499 -28.965)"/><path class="a" d="M36.785,50.38h-1.2l0-6.919a.86.86,0,1,0-1.719,0v6.921h-1.2a.86.86,0,0,0,0,1.719h4.083a.861.861,0,0,0,.86-.86.8.8,0,0,0-.818-.861Z" transform="translate(-16.706 -15.167)"/><path class="a" d="M43.333,24.682a1.654,1.654,0,0,0-.473-1.16l-2.535-2.535a1.584,1.584,0,0,0-2.278,0l-1.289,1.289V18.193A2.2,2.2,0,0,0,34.564,16H4.693A2.2,2.2,0,0,0,2.5,18.193V42.951a2.2,2.2,0,0,0,2.193,2.193l29.829,0a2.2,2.2,0,0,0,2.193-2.193v-11l6.1-6.1a1.538,1.538,0,0,0,.515-1.162Zm-15.3,13.583-3.138.86.73-3.224.989-.989L29.02,37.32Zm2.193-2.235-2.408-2.408,8.467-8.553,2.45,2.45ZM4.693,17.719H34.522a.522.522,0,0,1,.515.515v4.384H4.219V18.235a.517.517,0,0,1,.473-.515ZM35.038,42.993a.522.522,0,0,1-.515.515H4.693a.522.522,0,0,1-.515-.515l0-18.655H34.65L24.334,34.654a1.719,1.719,0,0,0-.43.774l-.73,3.267a1.6,1.6,0,0,0,.43,1.5,1.661,1.661,0,0,0,1.16.473.826.826,0,0,0,.344-.044l3.267-.73a1.719,1.719,0,0,0,.774-.43l5.8-5.8v9.327Zm4.9-16.678-2.45-2.45,1.634-1.634,2.535,2.408Z"/></g></svg>