<svg xmlns="http://www.w3.org/2000/svg" width="34.051" height="29.145" viewBox="0 0 34.051 29.145"><defs><style>.a{fill:#006dff;}</style></defs><g transform="translate(-11.828 -17.328)"><path class="a" d="M40.973,20h-3.2V18.666a1.338,1.338,0,1,0-2.676,0V20H22.609V18.666a1.338,1.338,0,1,0-2.676,0V20h-3.2a4.907,4.907,0,0,0-4.906,4.906V41.566a4.907,4.907,0,0,0,4.906,4.906H40.973a4.907,4.907,0,0,0,4.906-4.906V24.91A4.907,4.907,0,0,0,40.973,20ZM43.2,41.559v0a2.231,2.231,0,0,1-2.23,2.23H16.734a2.231,2.231,0,0,1-2.23-2.23V24.91a2.232,2.232,0,0,1,2.23-2.23h3.2v1.338a1.338,1.338,0,1,0,2.676,0V22.68H35.1v1.338a1.338,1.338,0,0,0,2.676,0V22.68h3.2a2.231,2.231,0,0,1,2.23,2.23Z"/><path class="a" d="M28.838,44.676H34.19a1.338,1.338,0,0,0,0-2.676H28.838a1.338,1.338,0,1,0,0,2.676Z" transform="translate(-8.682 -13.668)"/><path class="a" d="M46.233,53H28.838a1.338,1.338,0,1,0,0,2.676H46.233a1.338,1.338,0,1,0,0-2.676Z" transform="translate(-8.682 -19.762)"/><path class="a" d="M46.233,64H28.838a1.338,1.338,0,0,0,0,2.676H46.233a1.338,1.338,0,0,0,0-2.676Z" transform="translate(-8.682 -25.855)"/></g></svg>