<svg xmlns="http://www.w3.org/2000/svg" width="21.372" height="29.145" viewBox="0 0 21.372 29.145"><defs><style>.a{fill:#006dff;}</style></defs><g transform="translate(-17 -4.998)"><path class="a" d="M45.825,5a.962.962,0,0,0-.311.04l-3.7,1.1h0a.974.974,0,0,0-.576.464L33.583,20.49h0a.972.972,0,1,0,1.7.937L42.748,7.884l2.334-.692.545,2.284-9.844,15.66a.972.972,0,1,0,1.644,1.035L47.489,10.165h0a.979.979,0,0,0,.123-.744l-.877-3.678h0A.972.972,0,0,0,45.825,5Z" transform="translate(-11.127)"/><path class="a" d="M20.1,56.426a.97.97,0,0,0-.849.477l-1.262,2.135a.972.972,0,1,0,1.672.989l.779-1.317,6.3,3.549-.758,1.283a.971.971,0,0,0,.333,1.343.97.97,0,0,0,1.338-.354L28.911,62.4h0a.97.97,0,0,0-.359-1.34l-7.989-4.5h0a.986.986,0,0,0-.465-.125Z" transform="translate(-0.568 -34.774)"/><path class="a" d="M19.56,72.859a.975.975,0,0,0-.859.495l-1.569,2.693h0a.977.977,0,0,0-.1.745l.684,2.5a.974.974,0,0,0,1.184.684l2.531-.665h0a.966.966,0,0,0,.592-.45l2.569-4.408a.971.971,0,1,0-1.679-.978l-2.365,4.06-1.212.317-.324-1.184L20.38,74.33h0a.971.971,0,0,0-.82-1.472Z" transform="translate(0 -45.886)"/><path class="a" d="M24.63,5.031a.972.972,0,0,0-.935.745l-.883,3.691h0a.964.964,0,0,0,.121.743l3.37,5.374a.972.972,0,1,0,1.646-1.032L24.8,9.523l.549-2.3,2.321.689,3.026,5.5a.972.972,0,1,0,1.7-.936L29.178,6.629h0a.977.977,0,0,0-.576-.463L24.916,5.07a.951.951,0,0,0-.286-.039ZM35.827,19.8A.973.973,0,0,0,35,21.251l1.652,3h0a.971.971,0,1,0,1.7-.936l-1.652-3a.972.972,0,0,0-.875-.515ZM31.658,21.28a.971.971,0,0,0-.84,1.5l.837,1.336a.978.978,0,0,0,.607.433.972.972,0,0,0,1.04-1.465l-.839-1.336a.967.967,0,0,0-.806-.467Z" transform="translate(-3.912 -0.022)"/><path class="a" d="M56.51,56.471a.974.974,0,0,0-.521.125l-7.97,4.536a.972.972,0,0,0-.358,1.336l1.255,2.14h0a.971.971,0,0,0,1.676-.983l-.756-1.292,6.282-3.575.769,1.313a.971.971,0,0,0,1.329.347.973.973,0,0,0,.348-1.329l-1.255-2.14a.968.968,0,0,0-.8-.479Z" transform="translate(-20.642 -34.804)"/><path class="a" d="M65.148,67.747a.971.971,0,0,0-.777,1.479l2.4,4.033-.315,1.157-1.238-.325L63.791,71.7h0a.971.971,0,1,0-1.67.993l1.627,2.737h0a.973.973,0,0,0,.589.443l2.553.672h0a.972.972,0,0,0,1.184-.684l.678-2.483h0a.974.974,0,0,0-.1-.753l-2.607-4.387a.976.976,0,0,0-.893-.486Z" transform="translate(-30.412 -42.429)"/></g></svg>