<svg xmlns="http://www.w3.org/2000/svg" width="30.501" height="29.647" viewBox="0 0 30.501 29.647"><defs><style>.a{fill:#006dff;stroke:#006dff;stroke-width:0.5px;}</style></defs><path class="a" d="M35.5,11.215a.758.758,0,0,0-.439-.27L24.018,9.391l-.27-1.925a.71.71,0,0,0-.777-.574L6.255,9.256a.62.62,0,0,0-.439.27.68.68,0,0,0-.135.507L8.788,32.117a.751.751,0,0,0,.27.439.588.588,0,0,0,.4.135h.1l1.992-.27v2.938a.677.677,0,0,0,.675.675H29.117a.677.677,0,0,0,.675-.675V34.109l1.992.27h.1a.6.6,0,0,0,.4-.135.758.758,0,0,0,.27-.439l3.106-22.084a1.118,1.118,0,0,0-.168-.507ZM11.524,13.039v18l-1.52.2L7.1,10.507,22.5,8.346l.574,4.018H12.2a.677.677,0,0,0-.675.675ZM28.408,34.651H12.875V13.715H28.408Zm2.87-1.723-1.52-.236V13.039a.677.677,0,0,0-.675-.675h-4.66l-.2-1.587,10,1.418ZM14.9,31.95a.677.677,0,0,1,.675-.675H25.707a.675.675,0,1,1,0,1.351H15.576A.678.678,0,0,1,14.9,31.95Zm0-3.377a.677.677,0,0,1,.675-.675H25.707a.675.675,0,1,1,0,1.351H15.576A.678.678,0,0,1,14.9,28.573Zm0-3.377a.677.677,0,0,1,.675-.675H25.707a.675.675,0,1,1,0,1.351H15.576A.678.678,0,0,1,14.9,25.2Zm.675-2.7h5.4a.677.677,0,0,0,.675-.675v-5.4a.677.677,0,0,0-.675-.675h-5.4a.677.677,0,0,0-.675.675v5.4A.678.678,0,0,0,15.576,22.495Zm.675-5.4H20.3v4.052H16.252Z" transform="translate(-5.42 -6.637)"/></svg>