<svg xmlns="http://www.w3.org/2000/svg" width="90" height="47.476" viewBox="0 0 90 47.476"><defs><style>.a{fill:#7d8793;}</style></defs><g transform="translate(-5.39 -29.758)"><path class="a" d="M69.5,55.836l-7.125-7.172L58.965,52.07,69.5,62.605,84.348,47.8l-3.406-3.41Z"/><path class="a" d="M71.652,29.758A23.749,23.749,0,0,0,50.39,43a23.738,23.738,0,1,0,0,20.992A23.727,23.727,0,1,0,71.652,29.758ZM39.73,60.668l-3.4,3.406-7.172-7.219-7.215,7.219-3.406-3.406L25.754,53.5l-7.129-7.172,3.406-3.406,7.121,7.172,7.172-7.172,3.4,3.406L32.511,53.5Zm31.922,10.57A17.738,17.738,0,1,1,89.39,53.5,17.758,17.758,0,0,1,71.652,71.238Z"/></g></svg>