<svg xmlns="http://www.w3.org/2000/svg" width="16.777" height="21.082" viewBox="0 0 16.777 21.082"><defs><style>.a{fill:#fff;}</style></defs><path class="a" d="M27.6,2.5H13.576A1.383,1.383,0,0,0,12.2,3.876V22.207a1.383,1.383,0,0,0,1.376,1.376H27.6a1.383,1.383,0,0,0,1.376-1.376V3.876A1.383,1.383,0,0,0,27.6,2.5ZM22.23,6.051a.222.222,0,0,1,.222-.222h1.021a.222.222,0,0,1,.222.222V9.957a.222.222,0,0,1-.222.222H22.452a.222.222,0,0,1-.222-.222ZM19.7,7.183a.222.222,0,0,1,.222-.222h1.021a.222.222,0,0,1,.222.222V9.957a.222.222,0,0,1-.222.222H19.923a.222.222,0,0,1-.222-.222ZM17.171,8.337a.222.222,0,0,1,.222-.222h1.021a.222.222,0,0,1,.222.222v1.62a.222.222,0,0,1-.222.222H17.393a.222.222,0,0,1-.222-.222ZM24.761,20.1H16.416a.444.444,0,1,1,0-.888h8.366a.445.445,0,0,1,.444.444.465.465,0,0,1-.466.444Zm0-3.4H16.416a.444.444,0,1,1,0-.888h8.366a.445.445,0,0,1,.444.444.464.464,0,0,1-.466.444Zm0-3.373H16.416a.444.444,0,1,1,0-.888h8.366a.445.445,0,0,1,.444.444.465.465,0,0,1-.466.444Z" transform="translate(-12.2 -2.5)"/></svg>