<svg xmlns="http://www.w3.org/2000/svg" width="18.352" height="15.733" viewBox="0 0 18.352 15.733"><defs><style>.a{fill:#fff;}</style></defs><g transform="translate(-7.882 -13.89)"><path class="a" d="M21,19.591a2.179,2.179,0,1,1,0-3.081l.014.015h2.5l.1-2.635L15.6,14.2,8.518,21.285a2.185,2.185,0,0,0,0,3.081l4.621,4.621a2.185,2.185,0,0,0,3.081,0L23.306,21.9l.089-2.327H21.01L21,19.591Zm-4.7,5.932-.338-.338a2.016,2.016,0,0,1-.252.144,1.638,1.638,0,0,1-.692.159,1.464,1.464,0,0,1-1.044-.438l.769-.77a.371.371,0,0,0,.274.119.55.55,0,0,0,.232-.057,1.08,1.08,0,0,0,.305-.223,1.907,1.907,0,0,0,.317-.4.561.561,0,0,0,.086-.267.254.254,0,0,0-.023-.106.519.519,0,0,0-.11-.15.531.531,0,0,0-.157-.115.276.276,0,0,0-.114-.023.67.67,0,0,0-.222.048,2.245,2.245,0,0,0-.331.16c-.248.139-.527.331-.851.483a1.8,1.8,0,0,1-.752.188,1.257,1.257,0,0,1-.5-.1,1.428,1.428,0,0,1-.447-.309,1.5,1.5,0,0,1-.438-1.055,1.587,1.587,0,0,1,.148-.662,1.958,1.958,0,0,1,.153-.271l-.329-.329.77-.77.342.343a2.31,2.31,0,0,1,.207-.119,1.69,1.69,0,0,1,.752-.187,1.424,1.424,0,0,1,.557.113,1.487,1.487,0,0,1,.46.315l-.769.77a.408.408,0,0,0-.122-.085.308.308,0,0,0-.126-.025.6.6,0,0,0-.268.074,1.589,1.589,0,0,0-.407.308,1.1,1.1,0,0,0-.23.313.5.5,0,0,0-.05.212.4.4,0,0,0,.034.162.414.414,0,0,0,.084.123.354.354,0,0,0,.106.077.156.156,0,0,0,.071.014.564.564,0,0,0,.2-.046,2.384,2.384,0,0,0,.323-.16c.247-.14.531-.335.865-.488a1.88,1.88,0,0,1,.77-.186,1.363,1.363,0,0,1,.547.113,1.695,1.695,0,0,1,.83.822,1.334,1.334,0,0,1,.116.547,1.646,1.646,0,0,1-.224.8c-.031.054-.064.107-.1.159l.344.344Z"/><path class="a" d="M58.037,28.529a1.057,1.057,0,0,0-.938-.545,1.089,1.089,0,1,0,.771,1.859,1.1,1.1,0,0,0,.168-.226h5.839V28.529Z" transform="translate(-37.644 -11.023)"/></g></svg>
