<svg xmlns="http://www.w3.org/2000/svg" width="63.035" height="73.025" viewBox="0 0 63.035 73.025"><defs><style>.a{fill:#7d8793;}</style></defs><g transform="translate(-8.997 -2.5)"><path class="a" d="M72.032,57.164A7.546,7.546,0,0,0,64.5,49.63a7.722,7.722,0,0,0-3.69.922,7.644,7.644,0,0,0-6.687-4.075,7.722,7.722,0,0,0-3.69.922,7.644,7.644,0,0,0-6.687-4.075,6.6,6.6,0,0,0-2.769.537l0-14.755a7.561,7.561,0,0,0-2.228-5.381A7.252,7.252,0,0,0,33.369,21.5a7.562,7.562,0,0,0-7.534,7.609v33.9l-3.768-3.69A7.785,7.785,0,0,0,12.38,58.4a7.887,7.887,0,0,0-3.306,5.228,7.711,7.711,0,0,0,1.691,6L18.683,79a2.46,2.46,0,0,0,1.844.847,2.352,2.352,0,0,0,1.537-.537,2.421,2.421,0,0,0,.306-3.381l-7.912-9.3a2.653,2.653,0,0,1-.616-2.228A2.873,2.873,0,0,1,18.686,62.7l5.687,5.687a3.66,3.66,0,0,0,3.922.769,3.494,3.494,0,0,0,2.228-3.306V29.108a2.758,2.758,0,0,1,2.769-2.769,2.892,2.892,0,0,1,2.847,2.847V54.474a2.384,2.384,0,1,0,4.768,0V51.015a2.769,2.769,0,1,1,5.537,0v6.534a2.384,2.384,0,1,0,4.768,0V54.09a2.769,2.769,0,1,1,5.537,0v6.534a2.384,2.384,0,0,0,4.768,0V57.164a2.769,2.769,0,1,1,5.537,0v20.37a2.384,2.384,0,1,0,4.768,0Z" transform="translate(0 -4.393)"/><path class="a" d="M39.783,13.724a2.4,2.4,0,0,0,2.384-2.384V4.885a2.384,2.384,0,1,0-4.768,0V11.34A2.4,2.4,0,0,0,39.783,13.724Z" transform="translate(-6.57)"/><path class="a" d="M24.53,18.609a2.414,2.414,0,0,0,3.381,0,2.412,2.412,0,0,0,0-3.381l-4.534-4.534A2.391,2.391,0,0,0,20,14.075Z" transform="translate(-2.384 -1.735)"/><path class="a" d="M14.181,32.866h6.456a2.384,2.384,0,1,0,0-4.768H14.181a2.384,2.384,0,1,0,0,4.768Z" transform="translate(-0.648 -5.921)"/><path class="a" d="M54.6,30.482a2.4,2.4,0,0,0,2.384,2.384h6.456a2.384,2.384,0,1,0,0-4.768H56.986A2.4,2.4,0,0,0,54.6,30.482Z" transform="translate(-10.549 -5.921)"/><path class="a" d="M51.982,19.3a2.385,2.385,0,0,0,1.691-.691l4.534-4.534A2.391,2.391,0,0,0,54.826,10.7l-4.534,4.534A2.381,2.381,0,0,0,51.982,19.3Z" transform="translate(-9.392 -1.736)"/></g></svg>