<svg xmlns="http://www.w3.org/2000/svg" width="92.593" height="73.025" viewBox="0 0 92.593 73.025"><defs><style>.a{fill:#7d8793;}</style></defs><g transform="translate(-3.125 -13.031)"><path class="a" d="M92.632,13.031H6.211a3.086,3.086,0,1,0,0,6.173h4.63V67.383a3.082,3.082,0,0,0,3.086,3.086H46.335v9.414H38.619a3.086,3.086,0,1,0,0,6.173H60.224a3.086,3.086,0,1,0,0-6.173H52.508V70.47H84.915A3.082,3.082,0,0,0,88,67.383V19.2h4.63a3.086,3.086,0,1,0,0-6.173ZM81.829,64.3H17.014V19.2H81.829Z"/><path class="a" d="M39.5,56.387a3.085,3.085,0,0,0,3.086,0L62.737,44.752a3.081,3.081,0,0,0,0-5.34L42.583,27.761a3.086,3.086,0,0,0-4.63,2.685V53.717a3.085,3.085,0,0,0,1.543,2.67Zm4.63-20.6,10.895,6.3-10.895,6.3Z" transform="translate(-0.43 -0.177)"/></g></svg>