<svg xmlns="http://www.w3.org/2000/svg" width="48.875" height="57.852" viewBox="0 0 48.875 57.852"><defs><style>.a{fill:#006dff;stroke:#006dff;}</style></defs><path class="a" d="M64.379,23.969H25.48a4.488,4.488,0,0,1,0-8.977h38.9a1.5,1.5,0,0,0,0-2.992H25.48A7.5,7.5,0,0,0,18,19.48V61.371a7.5,7.5,0,0,0,7.48,7.48h38.9a1.5,1.5,0,0,0,1.5-1.5V25.465A1.5,1.5,0,0,0,64.379,23.969ZM25.48,65.859a4.5,4.5,0,0,1-4.488-4.488V25.465a7.2,7.2,0,0,0,4.488,1.5h37.4v38.9Zm38.9-44.883H25.48a1.5,1.5,0,0,1,0-2.992h38.9A1.5,1.5,0,0,1,64.379,20.977Z" transform="translate(-17.5 -11.5)"/></svg>