<svg xmlns="http://www.w3.org/2000/svg" width="53.866" height="65.685" viewBox="0 0 53.866 65.685"><defs><style>.a{fill:#006dff;stroke:#006dff;}</style></defs><path class="a" d="M62.428,42.59V32.038a1.47,1.47,0,0,0-.573-1.165,1.428,1.428,0,0,0-1.272-.253l-5.466,1.457a13.245,13.245,0,0,0-8.927-7.024,11.747,11.747,0,1,0-14.516,0,13.245,13.245,0,0,0-8.927,7.024L17.283,30.62a1.428,1.428,0,0,0-1.272.253,1.47,1.47,0,0,0-.573,1.165V42.59A4.392,4.392,0,0,0,12.5,46.723v2.938A4.4,4.4,0,0,0,15.438,53.8V61.41a1.467,1.467,0,0,0,1.09,1.418L38.556,68.7a1.46,1.46,0,0,0,.754,0l22.027-5.873a1.467,1.467,0,0,0,1.09-1.418V53.8a4.4,4.4,0,0,0,2.938-4.136V46.723a4.392,4.392,0,0,0-2.938-4.133ZM30.122,15.884a8.811,8.811,0,1,1,8.811,8.811,8.812,8.812,0,0,1-8.811-8.811ZM15.438,46.722a1.469,1.469,0,0,1,1.468-1.468h1.468a2.937,2.937,0,1,1,0,5.873H16.906a1.469,1.469,0,0,1-1.468-1.468ZM37.465,65.371,18.373,60.28V54.066a5.874,5.874,0,1,0,0-11.749V33.949l19.089,5.091Zm1.468-28.977-13.3-3.549a10.293,10.293,0,0,1,8.9-5.212h8.811a10.293,10.293,0,0,1,8.9,5.212Zm20.56,23.886L40.4,65.372V39.041L59.49,33.95l0,8.368a5.874,5.874,0,1,0,0,11.749Zm2.935-10.62a1.469,1.469,0,0,1-1.468,1.468H59.493a2.937,2.937,0,1,1,0-5.873H60.96a1.469,1.469,0,0,1,1.468,1.468Z" transform="translate(-12 -3.567)"/></svg>