<svg xmlns="http://www.w3.org/2000/svg" width="50.675" height="65.119" viewBox="0 0 50.675 65.119"><defs><style>.a{fill:#006dff;}</style></defs><path class="a" d="M40.227,5a2.146,2.146,0,0,0-.678.136L16.4,13.817a2.17,2.17,0,0,0,0,4.07l11.848,4.432a12.143,12.143,0,0,0-.226,2.216A12.308,12.308,0,0,0,33.851,34.98,19.819,19.819,0,0,0,20.06,53.723V65.1a2.171,2.171,0,1,0,4.341,0V53.723A15.605,15.605,0,0,1,40.318,38.281,15.6,15.6,0,0,1,56.235,53.723v9.7a54.891,54.891,0,0,1-15.917,2.351,57.836,57.836,0,0,1-10.446-.927,2.171,2.171,0,1,0-.769,4.273,62.028,62.028,0,0,0,11.214.995,59.057,59.057,0,0,0,18.789-2.962,2.173,2.173,0,0,0,1.47-2.058V53.723A19.821,19.821,0,0,0,46.785,34.98a12.308,12.308,0,0,0,5.833-10.446,12.143,12.143,0,0,0-.226-2.216l11.848-4.432a2.17,2.17,0,0,0,0-4.07L41.087,5.134A2.168,2.168,0,0,0,40.228,5Zm.09,4.5,16.958,6.353L40.318,22.2,23.36,15.852Zm-7.936,14.38,7.167,2.691a2.182,2.182,0,0,0,1.537,0l7.167-2.691c.02.215.023.435.023.656a7.959,7.959,0,1,1-15.917,0c0-.22,0-.441.023-.656Z" transform="translate(-14.98 -4.996)"/></svg>