<svg xmlns="http://www.w3.org/2000/svg" width="101.575" height="76.355" viewBox="0 0 101.575 76.355"><defs><style>.a{fill:#7d8793;}</style></defs><g transform="translate(0.017 -12.516)"><path class="a" d="M2.539,88.33a4.237,4.237,0,0,0,5.586-2.2L21.791,54.817H45.868l13.71,31.312h0a4.231,4.231,0,1,0,7.744-3.384L37.7,15.039a4.232,4.232,0,0,0-7.744,0L.337,82.745a4.237,4.237,0,0,0,2.2,5.586ZM33.851,27.309l8.466,19.042H25.389Z" transform="translate(0 0)"/><path class="a" d="M87.76,45.832H75.065a4.233,4.233,0,0,0,0,8.466H87.76a4.233,4.233,0,0,1,4.233,4.229V62.76H83.527a12.695,12.695,0,1,0,0,25.389H87.76a12.691,12.691,0,0,0,5.459-1.269,4.232,4.232,0,0,0,7.236-2.963V58.527A12.7,12.7,0,0,0,87.76,45.832Zm0,33.851-4.233,0a4.233,4.233,0,0,1,0-8.466h8.462v4.233h0a4.24,4.24,0,0,1-4.233,4.233Z" transform="translate(1.103 0.519)"/></g></svg>