<svg xmlns="http://www.w3.org/2000/svg" width="23.446" height="29.182" viewBox="0 0 23.446 29.182"><defs><style>.a{fill:#006dff;stroke:#006dff;stroke-width:0.5px;}</style></defs><path class="a" d="M17.824,5A3.864,3.864,0,0,0,14,8.824V30.495a3.2,3.2,0,0,0,3.187,3.187h18.8a.994.994,0,0,0,.956-.956V11.692a.924.924,0,0,0-.956-.956,2.117,2.117,0,0,1-1.912-1.912A2.117,2.117,0,0,1,35.99,6.912.956.956,0,0,0,35.99,5Zm0,1.912H32.693a3.727,3.727,0,0,0,0,3.824H17.824a2.117,2.117,0,0,1-1.912-1.912A2.117,2.117,0,0,1,17.824,6.912Zm-1.912,5.209a3.772,3.772,0,0,0,1.912.528H35.033V31.77H17.187a1.251,1.251,0,0,1-1.275-1.275Zm3.506,4.033a.956.956,0,0,0,0,1.912h12.11a.956.956,0,1,0,0-1.912Zm0,5.1a.956.956,0,1,0,0,1.912h12.11a.956.956,0,1,0,0-1.912Zm0,5.1a.956.956,0,1,0,0,1.912h12.11a.956.956,0,1,0,0-1.912Z" transform="translate(-13.75 -4.75)"/></svg>