<svg xmlns="http://www.w3.org/2000/svg" width="30.229" height="28.862" viewBox="0 0 30.229 28.862"><defs><style>.a{fill:#006dff;}</style></defs><path class="a" d="M20.019,24.206c4.666,0,8.339,2.192,10.863,6.45a4.33,4.33,0,0,1-3.724,6.537H12.879a4.33,4.33,0,0,1-3.724-6.537c2.524-4.259,6.2-6.45,10.865-6.45Zm0,2.886c-3.624,0-6.367,1.637-8.382,5.037a1.443,1.443,0,0,0,1.242,2.178H27.158A1.443,1.443,0,0,0,28.4,32.129c-2.016-3.4-4.756-5.037-8.381-5.037Zm12.987-10.1a1.442,1.442,0,0,1,1.433,1.276l.009.168v2.884h2.887A1.443,1.443,0,0,1,37.5,24.2l-.168.011H34.448v2.886a1.443,1.443,0,0,1-2.876.168l-.009-.168V24.206H28.677a1.443,1.443,0,0,1-.169-2.876l.169-.011h2.886V18.434a1.444,1.444,0,0,1,1.444-1.444ZM20.258,8.332a7.215,7.215,0,1,1,0,14.431h-.239a7.215,7.215,0,1,1,0-14.431h.239Zm-.119,2.888h.119a4.329,4.329,0,0,0-.121,8.655l-.119,0a4.329,4.329,0,0,0,.121-8.657Z" transform="translate(-8.549 -8.332)"/></svg>