<svg xmlns="http://www.w3.org/2000/svg" width="28.793" height="28.793" viewBox="0 0 28.793 28.793"><defs><style>.a{fill:#006dff;}</style></defs><g transform="translate(-18.543 -18.543)"><path class="a" d="M32.94,47.336a14.393,14.393,0,1,1,10.181-4.215A14.4,14.4,0,0,1,32.94,47.336Zm0-26.392v0a11.994,11.994,0,1,0,8.481,3.513,12,12,0,0,0-8.481-3.513Z"/><path class="a" d="M46.737,42.027q-1.759,1.258-1.611,2.46v.563l-2.537,0v-.772a3.9,3.9,0,0,1,1.765-3.3c1.21-.887,1.8-1.716,1.754-2.46a1.706,1.706,0,0,0-1.736-1.688A2.411,2.411,0,0,0,41.989,38.6a.955.955,0,0,1-1.049.563l-1-.229a.959.959,0,0,1-.576-.449.949.949,0,0,1-.091-.724q1.153-3.518,5.52-3.395,4.071.209,4.425,3.727.142,2.25-2.46,3.928Z" transform="translate(-11.223 -8.581)"/><path class="a" d="M46.872,60.625h1.259a.983.983,0,0,1,.915.915V62.59a.915.915,0,0,1-.915.915H46.872a.983.983,0,0,1-.915-.915V61.54A.915.915,0,0,1,46.872,60.625Z" transform="translate(-14.868 -22.823)"/></g></svg>