<svg xmlns="http://www.w3.org/2000/svg" width="20.85" height="13.66" viewBox="0 0 20.85 13.66"><defs><style>.a{fill:#f5f5f5;}.b{fill:#ff4b55;}.c{fill:#41479b;}</style></defs><g transform="translate(0 -88.275)"><path class="a" d="M19.288,88.276H1.561A1.561,1.561,0,0,0,0,89.837v10.537a1.561,1.561,0,0,0,1.561,1.561H19.288a1.561,1.561,0,0,0,1.561-1.561V89.837A1.561,1.561,0,0,0,19.288,88.276Z" transform="translate(0 -0.001)"/><g transform="translate(0 88.275)"><path class="b" d="M2.109,89.327H22.787a1.562,1.562,0,0,0-1.476-1.051H3.585A1.562,1.562,0,0,0,2.109,89.327Z" transform="translate(-2.023 -88.276)"/><rect class="b" width="20.85" height="1.051" transform="translate(0 4.203)"/><rect class="b" width="20.85" height="1.051" transform="translate(0 2.101)"/><path class="b" d="M0,243.789a.36.36,0,0,0,.359.359H20.85V243.1H0Z" transform="translate(0 -236.793)"/><rect class="b" width="20.85" height="1.051" transform="translate(0 10.508)"/><path class="b" d="M22.787,397.92H2.109a1.562,1.562,0,0,0,1.476,1.051H21.311A1.562,1.562,0,0,0,22.787,397.92Z" transform="translate(-2.023 -385.311)"/><rect class="b" width="20.85" height="1.051" transform="translate(0 8.406)"/></g><path class="c" d="M.359,95.63H9.346a.36.36,0,0,0,.359-.359V88.634a.359.359,0,0,0-.359-.359H1.561A1.562,1.562,0,0,0,0,89.837v5.434A.359.359,0,0,0,.359,95.63Z"/><g transform="translate(0.58 89.077)"><path class="a" d="M14.682,107.991l.08.239.252,0a.034.034,0,0,1,.02.061l-.2.149.076.24a.034.034,0,0,1-.052.038l-.2-.146-.2.146a.034.034,0,0,1-.052-.038l.076-.24-.2-.149a.034.034,0,0,1,.02-.061l.252,0,.08-.239A.034.034,0,0,1,14.682,107.991Z" transform="translate(-14.253 -107.968)"/><path class="a" d="M14.682,138.646l.08.239.252,0a.034.034,0,0,1,.02.061l-.2.149.076.24a.034.034,0,0,1-.052.038l-.2-.146-.2.146a.034.034,0,0,1-.052-.038l.076-.24-.2-.149a.034.034,0,0,1,.02-.061l.252,0,.08-.239A.034.034,0,0,1,14.682,138.646Z" transform="translate(-14.253 -137.374)"/><path class="a" d="M14.682,169.3l.08.239.252,0a.034.034,0,0,1,.02.061l-.2.149.076.24a.034.034,0,0,1-.052.038l-.2-.146-.2.146a.034.034,0,0,1-.052-.038l.076-.24-.2-.149a.034.034,0,0,1,.02-.061l.252,0,.08-.239A.034.034,0,0,1,14.682,169.3Z" transform="translate(-14.253 -166.78)"/><path class="a" d="M14.682,199.954l.08.239.252,0a.034.034,0,0,1,.02.061l-.2.149.076.24a.034.034,0,0,1-.052.038l-.2-.146-.2.146a.034.034,0,0,1-.052-.038l.076-.24-.2-.149a.034.034,0,0,1,.02-.061l.252,0,.08-.239A.034.034,0,0,1,14.682,199.954Z" transform="translate(-14.253 -196.186)"/><path class="a" d="M14.682,230.609l.08.239.252,0a.034.034,0,0,1,.02.061l-.2.149.076.24a.034.034,0,0,1-.052.038l-.2-.146-.2.146a.034.034,0,0,1-.052-.038l.076-.24-.2-.149a.034.034,0,0,1,.02-.061l.252,0,.08-.239A.034.034,0,0,1,14.682,230.609Z" transform="translate(-14.253 -225.592)"/><path class="a" d="M38.475,123.021l.08.239.252,0a.034.034,0,0,1,.02.061l-.2.149.076.24a.034.034,0,0,1-.052.038l-.2-.146-.2.146a.034.034,0,0,1-.052-.038l.076-.24-.2-.149a.034.034,0,0,1,.02-.061l.252,0,.08-.239A.034.034,0,0,1,38.475,123.021Z" transform="translate(-37.077 -122.385)"/><path class="a" d="M38.475,153.675l.08.239.252,0a.034.034,0,0,1,.02.061l-.2.149.076.24a.034.034,0,0,1-.052.038l-.2-.146-.2.146a.034.034,0,0,1-.052-.038l.076-.24-.2-.149a.034.034,0,0,1,.02-.061l.252,0,.08-.239A.034.034,0,0,1,38.475,153.675Z" transform="translate(-37.077 -151.791)"/><path class="a" d="M38.475,184.329l.08.239.252,0a.034.034,0,0,1,.02.061l-.2.149.076.24a.034.034,0,0,1-.052.038l-.2-.146-.2.146a.034.034,0,0,1-.052-.038l.076-.24-.2-.149a.034.034,0,0,1,.02-.061l.252,0,.08-.239A.034.034,0,0,1,38.475,184.329Z" transform="translate(-37.077 -181.197)"/><path class="a" d="M38.475,214.984l.08.239.252,0a.034.034,0,0,1,.02.061l-.2.149.076.24a.034.034,0,0,1-.052.038l-.2-.146-.2.146a.034.034,0,0,1-.052-.038l.076-.24-.2-.149a.034.034,0,0,1,.02-.061l.252,0,.08-.239A.034.034,0,0,1,38.475,214.984Z" transform="translate(-37.077 -210.604)"/><path class="a" d="M62.268,107.991l.08.239.252,0a.034.034,0,0,1,.02.061l-.2.149.076.24a.034.034,0,0,1-.052.038l-.2-.146-.2.146a.034.034,0,0,1-.052-.038l.076-.24-.2-.149a.034.034,0,0,1,.02-.061l.252,0,.08-.239A.034.034,0,0,1,62.268,107.991Z" transform="translate(-59.901 -107.968)"/><path class="a" d="M62.268,138.646l.08.239.252,0a.034.034,0,0,1,.02.061l-.2.149.076.24a.034.034,0,0,1-.052.038l-.2-.146-.2.146a.034.034,0,0,1-.052-.038l.076-.24-.2-.149a.034.034,0,0,1,.02-.061l.252,0,.08-.239A.034.034,0,0,1,62.268,138.646Z" transform="translate(-59.901 -137.374)"/><path class="a" d="M62.268,169.3l.08.239.252,0a.034.034,0,0,1,.02.061l-.2.149.076.24a.034.034,0,0,1-.052.038l-.2-.146-.2.146a.034.034,0,0,1-.052-.038l.076-.24-.2-.149a.034.034,0,0,1,.02-.061l.252,0,.08-.239A.034.034,0,0,1,62.268,169.3Z" transform="translate(-59.901 -166.78)"/><path class="a" d="M62.268,199.954l.08.239.252,0a.034.034,0,0,1,.02.061l-.2.149.076.24a.034.034,0,0,1-.052.038l-.2-.146-.2.146a.034.034,0,0,1-.052-.038l.076-.24-.2-.149a.034.034,0,0,1,.02-.061l.252,0,.08-.239A.034.034,0,0,1,62.268,199.954Z" transform="translate(-59.901 -196.186)"/><path class="a" d="M62.268,230.609l.08.239.252,0a.034.034,0,0,1,.02.061l-.2.149.076.24a.034.034,0,0,1-.052.038l-.2-.146-.2.146a.034.034,0,0,1-.052-.038l.076-.24-.2-.149a.034.034,0,0,1,.02-.061l.252,0,.08-.239A.034.034,0,0,1,62.268,230.609Z" transform="translate(-59.901 -225.592)"/><path class="a" d="M86.062,123.021l.08.239.252,0a.034.034,0,0,1,.02.061l-.2.149.076.24a.034.034,0,0,1-.052.038l-.2-.146-.2.146a.034.034,0,0,1-.052-.038l.076-.24-.2-.149a.034.034,0,0,1,.02-.061l.252,0,.08-.239A.034.034,0,0,1,86.062,123.021Z" transform="translate(-82.726 -122.385)"/><path class="a" d="M86.062,153.675l.08.239.252,0a.034.034,0,0,1,.02.061l-.2.149.076.24a.034.034,0,0,1-.052.038l-.2-.146-.2.146a.034.034,0,0,1-.052-.038l.076-.24-.2-.149a.034.034,0,0,1,.02-.061l.252,0,.08-.239A.034.034,0,0,1,86.062,153.675Z" transform="translate(-82.726 -151.791)"/><path class="a" d="M86.062,184.329l.08.239.252,0a.034.034,0,0,1,.02.061l-.2.149.076.24a.034.034,0,0,1-.052.038l-.2-.146-.2.146a.034.034,0,0,1-.052-.038l.076-.24-.2-.149a.034.034,0,0,1,.02-.061l.252,0,.08-.239A.034.034,0,0,1,86.062,184.329Z" transform="translate(-82.726 -181.197)"/><path class="a" d="M86.062,214.984l.08.239.252,0a.034.034,0,0,1,.02.061l-.2.149.076.24a.034.034,0,0,1-.052.038l-.2-.146-.2.146a.034.034,0,0,1-.052-.038l.076-.24-.2-.149a.034.034,0,0,1,.02-.061l.252,0,.08-.239A.034.034,0,0,1,86.062,214.984Z" transform="translate(-82.726 -210.604)"/><path class="a" d="M109.854,107.991l.08.239.252,0a.034.034,0,0,1,.02.061l-.2.149.076.24a.034.034,0,0,1-.052.038l-.2-.146-.2.146a.034.034,0,0,1-.052-.038l.076-.24-.2-.149a.034.034,0,0,1,.02-.061l.252,0,.08-.239A.034.034,0,0,1,109.854,107.991Z" transform="translate(-105.549 -107.968)"/><path class="a" d="M109.854,138.646l.08.239.252,0a.034.034,0,0,1,.02.061l-.2.149.076.24a.034.034,0,0,1-.052.038l-.2-.146-.2.146a.034.034,0,0,1-.052-.038l.076-.24-.2-.149a.034.034,0,0,1,.02-.061l.252,0,.08-.239A.034.034,0,0,1,109.854,138.646Z" transform="translate(-105.549 -137.374)"/><path class="a" d="M109.854,169.3l.08.239.252,0a.034.034,0,0,1,.02.061l-.2.149.076.24a.034.034,0,0,1-.052.038l-.2-.146-.2.146a.034.034,0,0,1-.052-.038l.076-.24-.2-.149a.034.034,0,0,1,.02-.061l.252,0,.08-.239A.034.034,0,0,1,109.854,169.3Z" transform="translate(-105.549 -166.78)"/><path class="a" d="M109.854,199.954l.08.239.252,0a.034.034,0,0,1,.02.061l-.2.149.076.24a.034.034,0,0,1-.052.038l-.2-.146-.2.146a.034.034,0,0,1-.052-.038l.076-.24-.2-.149a.034.034,0,0,1,.02-.061l.252,0,.08-.239A.034.034,0,0,1,109.854,199.954Z" transform="translate(-105.549 -196.186)"/><path class="a" d="M109.854,230.609l.08.239.252,0a.034.034,0,0,1,.02.061l-.2.149.076.24a.034.034,0,0,1-.052.038l-.2-.146-.2.146a.034.034,0,0,1-.052-.038l.076-.24-.2-.149a.034.034,0,0,1,.02-.061l.252,0,.08-.239A.034.034,0,0,1,109.854,230.609Z" transform="translate(-105.549 -225.592)"/><path class="a" d="M133.648,123.021l.08.239.252,0a.034.034,0,0,1,.02.061l-.2.149.076.24a.034.034,0,0,1-.052.038l-.2-.146-.2.146a.034.034,0,0,1-.052-.038l.076-.24-.2-.149a.034.034,0,0,1,.02-.061l.252,0,.08-.239A.034.034,0,0,1,133.648,123.021Z" transform="translate(-128.374 -122.385)"/><path class="a" d="M133.648,153.675l.08.239.252,0a.034.034,0,0,1,.02.061l-.2.149.076.24a.034.034,0,0,1-.052.038l-.2-.146-.2.146a.034.034,0,0,1-.052-.038l.076-.24-.2-.149a.034.034,0,0,1,.02-.061l.252,0,.08-.239A.034.034,0,0,1,133.648,153.675Z" transform="translate(-128.374 -151.791)"/><path class="a" d="M133.648,184.329l.08.239.252,0a.034.034,0,0,1,.02.061l-.2.149.076.24a.034.034,0,0,1-.052.038l-.2-.146-.2.146a.034.034,0,0,1-.052-.038l.076-.24-.2-.149a.034.034,0,0,1,.02-.061l.252,0,.08-.239A.034.034,0,0,1,133.648,184.329Z" transform="translate(-128.374 -181.197)"/><path class="a" d="M133.648,214.984l.08.239.252,0a.034.034,0,0,1,.02.061l-.2.149.076.24a.034.034,0,0,1-.052.038l-.2-.146-.2.146a.034.034,0,0,1-.052-.038l.076-.24-.2-.149a.034.034,0,0,1,.02-.061l.252,0,.08-.239A.034.034,0,0,1,133.648,214.984Z" transform="translate(-128.374 -210.604)"/><path class="a" d="M157.442,107.991l.08.239.252,0a.034.034,0,0,1,.02.061l-.2.149.076.24a.034.034,0,0,1-.052.038l-.2-.146-.2.146a.034.034,0,0,1-.052-.038l.076-.24-.2-.149a.034.034,0,0,1,.02-.061l.252,0,.08-.239A.034.034,0,0,1,157.442,107.991Z" transform="translate(-151.199 -107.968)"/><path class="a" d="M157.442,138.646l.08.239.252,0a.034.034,0,0,1,.02.061l-.2.149.076.24a.034.034,0,0,1-.052.038l-.2-.146-.2.146a.034.034,0,0,1-.052-.038l.076-.24-.2-.149a.034.034,0,0,1,.02-.061l.252,0,.08-.239A.034.034,0,0,1,157.442,138.646Z" transform="translate(-151.199 -137.374)"/><path class="a" d="M157.442,169.3l.08.239.252,0a.034.034,0,0,1,.02.061l-.2.149.076.24a.034.034,0,0,1-.052.038l-.2-.146-.2.146a.034.034,0,0,1-.052-.038l.076-.24-.2-.149a.034.034,0,0,1,.02-.061l.252,0,.08-.239A.034.034,0,0,1,157.442,169.3Z" transform="translate(-151.199 -166.78)"/><path class="a" d="M157.442,199.954l.08.239.252,0a.034.034,0,0,1,.02.061l-.2.149.076.24a.034.034,0,0,1-.052.038l-.2-.146-.2.146a.034.034,0,0,1-.052-.038l.076-.24-.2-.149a.034.034,0,0,1,.02-.061l.252,0,.08-.239A.034.034,0,0,1,157.442,199.954Z" transform="translate(-151.199 -196.186)"/><path class="a" d="M157.442,230.609l.08.239.252,0a.034.034,0,0,1,.02.061l-.2.149.076.24a.034.034,0,0,1-.052.038l-.2-.146-.2.146a.034.034,0,0,1-.052-.038l.076-.24-.2-.149a.034.034,0,0,1,.02-.061l.252,0,.08-.239A.034.034,0,0,1,157.442,230.609Z" transform="translate(-151.199 -225.592)"/><path class="a" d="M181.235,123.021l.08.239.252,0a.034.034,0,0,1,.02.061l-.2.149.076.24a.034.034,0,0,1-.052.038l-.2-.146-.2.146a.034.034,0,0,1-.052-.038l.076-.24-.2-.149a.034.034,0,0,1,.02-.061l.252,0,.08-.239A.034.034,0,0,1,181.235,123.021Z" transform="translate(-174.023 -122.385)"/><path class="a" d="M181.235,153.675l.08.239.252,0a.034.034,0,0,1,.02.061l-.2.149.076.24a.034.034,0,0,1-.052.038l-.2-.146-.2.146a.034.034,0,0,1-.052-.038l.076-.24-.2-.149a.034.034,0,0,1,.02-.061l.252,0,.08-.239A.034.034,0,0,1,181.235,153.675Z" transform="translate(-174.023 -151.791)"/><path class="a" d="M181.235,184.329l.08.239.252,0a.034.034,0,0,1,.02.061l-.2.149.076.24a.034.034,0,0,1-.052.038l-.2-.146-.2.146a.034.034,0,0,1-.052-.038l.076-.24-.2-.149a.034.034,0,0,1,.02-.061l.252,0,.08-.239A.034.034,0,0,1,181.235,184.329Z" transform="translate(-174.023 -181.197)"/><path class="a" d="M181.235,214.984l.08.239.252,0a.034.034,0,0,1,.02.061l-.2.149.076.24a.034.034,0,0,1-.052.038l-.2-.146-.2.146a.034.034,0,0,1-.052-.038l.076-.24-.2-.149a.034.034,0,0,1,.02-.061l.252,0,.08-.239A.034.034,0,0,1,181.235,214.984Z" transform="translate(-174.023 -210.604)"/><path class="a" d="M205.029,107.991l.08.239.252,0a.034.034,0,0,1,.02.061l-.2.149.076.24a.034.034,0,0,1-.052.038l-.2-.146-.2.146a.034.034,0,0,1-.052-.038l.076-.24-.2-.149a.034.034,0,0,1,.02-.061l.252,0,.08-.239A.034.034,0,0,1,205.029,107.991Z" transform="translate(-196.848 -107.968)"/><path class="a" d="M205.029,138.646l.08.239.252,0a.034.034,0,0,1,.02.061l-.2.149.076.24a.034.034,0,0,1-.052.038l-.2-.146-.2.146a.034.034,0,0,1-.052-.038l.076-.24-.2-.149a.034.034,0,0,1,.02-.061l.252,0,.08-.239A.034.034,0,0,1,205.029,138.646Z" transform="translate(-196.848 -137.374)"/><path class="a" d="M205.029,169.3l.08.239.252,0a.034.034,0,0,1,.02.061l-.2.149.076.24a.034.034,0,0,1-.052.038l-.2-.146-.2.146a.034.034,0,0,1-.052-.038l.076-.24-.2-.149a.034.034,0,0,1,.02-.061l.252,0,.08-.239A.034.034,0,0,1,205.029,169.3Z" transform="translate(-196.848 -166.78)"/><path class="a" d="M205.029,199.954l.08.239.252,0a.034.034,0,0,1,.02.061l-.2.149.076.24a.034.034,0,0,1-.052.038l-.2-.146-.2.146a.034.034,0,0,1-.052-.038l.076-.24-.2-.149a.034.034,0,0,1,.02-.061l.252,0,.08-.239A.034.034,0,0,1,205.029,199.954Z" transform="translate(-196.848 -196.186)"/><path class="a" d="M205.029,230.609l.08.239.252,0a.034.034,0,0,1,.02.061l-.2.149.076.24a.034.034,0,0,1-.052.038l-.2-.146-.2.146a.034.034,0,0,1-.052-.038l.076-.24-.2-.149a.034.034,0,0,1,.02-.061l.252,0,.08-.239A.034.034,0,0,1,205.029,230.609Z" transform="translate(-196.848 -225.592)"/></g></g></svg>