<svg xmlns="http://www.w3.org/2000/svg" width="15.135" height="16.911" viewBox="0 0 15.135 16.911"><defs><style>.a{fill:#fff;}</style></defs><g transform="translate(-13.928 -9.683)"><path class="a" d="M33.463,18.466a4.4,4.4,0,1,0-3.1-1.291,4.39,4.39,0,0,0,3.1,1.291Z" transform="translate(-11.969)"/><path class="a" d="M29.03,56.251a4.063,4.063,0,0,0-.442-.8,5.453,5.453,0,0,0-3.776-2.378.8.8,0,0,0-.556.134,4.679,4.679,0,0,1-5.522,0,.721.721,0,0,0-.557-.134A5.412,5.412,0,0,0,14.4,55.446a4.711,4.711,0,0,0-.442.8.406.406,0,0,0,.02.365,7.8,7.8,0,0,0,.517.767,7.4,7.4,0,0,0,.882,1q.422.406.882.767a8.748,8.748,0,0,0,10.431,0,8.541,8.541,0,0,0,.882-.767,9.014,9.014,0,0,0,.882-1,6.826,6.826,0,0,0,.517-.767.327.327,0,0,0,.056-.365Z" transform="translate(0 -34.277)"/></g></svg>
