<svg xmlns="http://www.w3.org/2000/svg" width="88.527" height="76.355" viewBox="0 0 88.527 76.355"><defs><style>.a{fill:#7d8793;}</style></defs><g transform="translate(0 -6.25)"><path class="a" d="M83.075,86.25H29.637a7.716,7.716,0,0,1,0,4.426H83.075a2.213,2.213,0,0,0,0-4.426Z" transform="translate(-3.4 -9.178)"/><path class="a" d="M11.926,88.463a7.986,7.986,0,0,1,.322-2.213H9.713a2.213,2.213,0,0,0,0,4.426h2.535A7.985,7.985,0,0,1,11.926,88.463Z" transform="translate(-0.86 -9.178)"/><path class="a" d="M24.14,88.32c0,4.426-6.64,4.426-6.64,0s6.64-4.426,6.64,0" transform="translate(-2.008 -9.035)"/><path class="a" d="M81.888,69.326H6.64A6.641,6.641,0,0,1,0,62.686V12.89A6.641,6.641,0,0,1,6.64,6.25H81.888a6.641,6.641,0,0,1,6.64,6.64v49.8A6.641,6.641,0,0,1,81.888,69.326ZM6.64,10.676A2.215,2.215,0,0,0,4.426,12.89v49.8A2.208,2.208,0,0,0,6.64,64.9H81.888A2.208,2.208,0,0,0,84.1,62.686V12.89a2.208,2.208,0,0,0-2.213-2.213Z"/><path class="a" d="M40.262,30.458V49.793A3.321,3.321,0,0,0,45.619,52.4l12.359-9.662a3.314,3.314,0,0,0,0-5.232L45.619,27.848a3.319,3.319,0,0,0-5.357,2.611Z" transform="translate(-4.619 -2.398)"/></g></svg>