<svg xmlns="http://www.w3.org/2000/svg" width="21.486" height="24.556" viewBox="0 0 21.486 24.556"><defs><style>.a{fill:#e2e5e7;}.b{fill:#b0b7bd;}.c{fill:#cad1d8;}.d{fill:#f15642;}.e{fill:#fff;}</style></defs><path class="a" d="M97.535,0A1.539,1.539,0,0,0,96,1.535V23.021a1.539,1.539,0,0,0,1.535,1.535h15.347a1.539,1.539,0,0,0,1.535-1.535V6.139L108.278,0Z" transform="translate(-92.931)"/><path class="b" d="M353.535,6.139h4.6L352,0V4.6A1.539,1.539,0,0,0,353.535,6.139Z" transform="translate(-336.653)"/><path class="c" d="M388.6,132.6,384,128h4.6Z" transform="translate(-367.118 -121.861)"/><path class="d" d="M50.417,248.441a.77.77,0,0,1-.767.767H32.767a.77.77,0,0,1-.767-.767v-7.674a.77.77,0,0,1,.767-.767H49.649a.77.77,0,0,1,.767.767Z" transform="translate(-32 -228.489)"/><g transform="translate(3.345 14.116)"><path class="e" d="M101.744,294.744a.422.422,0,0,1,.417-.424h1.417a1.534,1.534,0,0,1,0,3.068h-1.024v.81a.385.385,0,0,1-.393.423.413.413,0,0,1-.417-.423Zm.81.349v1.529h1.024a.765.765,0,0,0,0-1.529Z" transform="translate(-101.744 -294.32)"/><path class="e" d="M188.248,299.718a.384.384,0,0,1-.424-.38v-3.485a.417.417,0,0,1,.424-.381h1.405c2.8,0,2.743,4.246.055,4.246Zm.387-3.5v2.749h1.018c1.657,0,1.73-2.749,0-2.749Z" transform="translate(-183.696 -295.417)"/><path class="e" d="M287.939,296.255v.975H289.5a.475.475,0,0,1,.442.435.426.426,0,0,1-.442.368h-1.565v1.288a.364.364,0,0,1-.368.38.39.39,0,0,1-.435-.38v-3.485a.388.388,0,0,1,.435-.381h2.154a.383.383,0,0,1,.43.381.424.424,0,0,1-.43.417h-1.786Z" transform="translate(-278.244 -295.402)"/></g><path class="c" d="M110.58,416.767H96v.767h14.58a.77.77,0,0,0,.767-.767V416A.77.77,0,0,1,110.58,416.767Z" transform="translate(-92.931 -396.048)"/></svg>