<svg xmlns="http://www.w3.org/2000/svg" width="22.077" height="25.231" viewBox="0 0 22.077 25.231"><defs><style>.a{fill:#e2e5e7;}.b{fill:#b0b7bd;}.c{fill:#cad1d8;}.d{fill:#84bd5a;}.e{fill:#fff;}</style></defs><path class="a" d="M97.577,0A1.582,1.582,0,0,0,96,1.577V23.654a1.582,1.582,0,0,0,1.577,1.577h15.769a1.582,1.582,0,0,0,1.577-1.577V6.308L108.616,0Z" transform="translate(-92.846)"/><path class="b" d="M353.577,6.308h4.731L352,0V4.731A1.582,1.582,0,0,0,353.577,6.308Z" transform="translate(-336.231)"/><path class="c" d="M388.731,132.731,384,128h4.731Z" transform="translate(-366.654 -121.692)"/><path class="d" d="M50.923,248.673a.791.791,0,0,1-.788.788H32.788a.791.791,0,0,1-.788-.788v-7.885a.791.791,0,0,1,.788-.788H50.135a.791.791,0,0,1,.788.788Z" transform="translate(-32 -228.173)"/><g transform="translate(3.609 14.36)"><path class="e" d="M107.153,296.578l1.1-1.374c.328-.429.965.119.606.529-.378.448-.775.934-1.154,1.431l1.286,1.6a.414.414,0,1,1-.687.46l-1.161-1.488L106,299.257c-.322.46-1.034-.057-.675-.486l1.267-1.608c-.4-.5-.782-.983-1.166-1.431a.408.408,0,1,1,.631-.516Z" transform="translate(-105.226 -294.864)"/><path class="e" d="M197.36,295.729a.393.393,0,0,1,.4-.385.384.384,0,0,1,.372.385v3.159h1.715a.416.416,0,1,1,0,.826h-2.086a.381.381,0,0,1-.4-.384v-3.6Z" transform="translate(-192.82 -295.15)"/><path class="e" d="M270.62,292.554c.145-1.224,1.992-1.444,2.862-.775a.369.369,0,1,1-.4.617c-.467-.3-1.526-.434-1.658.22-.17,1.035,2.572.442,2.528,2.119-.044,1.6-2.364,1.638-3.234.92a.466.466,0,0,1-.088-.618.372.372,0,0,1,.561-.043c.516.352,1.847.617,1.941-.278C273.047,293.784,270.424,294.344,270.62,292.554Z" transform="translate(-262.4 -291.407)"/></g><path class="c" d="M110.981,416.788H96v.788h14.981a.791.791,0,0,0,.788-.788V416A.791.791,0,0,1,110.981,416.788Z" transform="translate(-92.846 -395.5)"/></svg>